0
SECTION
2
ENTITIES
999
Created by Metasequoia
0
3DFACE
8
layer1
62
1
10
14.31174
20
0.19793
30
-2.20154
11
13.53076
21
-0.01879
31
-2.20154
12
14.31174
22
-0.01879
32
-2.20154
0
3DFACE
8
layer1
62
1
10
14.31174
20
0.94714
30
-2.20154
11
13.53076
21
-0.01879
31
-2.20154
12
14.31174
22
0.19793
32
-2.20154
0
3DFACE
8
layer1
62
1
10
15.69807
20
0.19793
30
-2.20154
11
14.31174
21
0.94714
31
-2.20154
12
14.31174
22
0.19793
32
-2.20154
0
3DFACE
8
layer1
62
1
10
16.47905
20
0.19793
30
-2.20154
11
14.31174
21
0.94714
31
-2.20154
12
15.69807
22
0.19793
32
-2.20154
0
3DFACE
8
layer1
62
1
10
15.69807
20
-3.23999
30
-2.20154
11
16.47905
21
0.19793
31
-2.20154
12
15.69807
22
0.19793
32
-2.20154
0
3DFACE
8
layer1
62
1
10
16.47905
20
-0.63191
30
-2.20154
11
16.47905
21
0.19793
31
-2.20154
12
15.69807
22
-3.23999
32
-2.20154
0
3DFACE
8
layer1
62
1
10
16.47905
20
-1.38111
30
-2.20154
11
16.47905
21
-0.63191
31
-2.20154
12
15.69807
22
-3.23999
32
-2.20154
0
3DFACE
8
layer1
62
1
10
19.69906
20
-0.63191
30
-2.20154
11
16.47905
21
-0.63191
31
-2.20154
12
16.47905
22
-1.38111
32
-2.20154
0
3DFACE
8
layer1
62
1
10
19.69906
20
-1.38111
30
-2.20154
11
19.69906
21
-0.63191
31
-2.20154
12
16.47905
22
-1.38111
32
-2.20154
0
3DFACE
8
layer1
62
1
10
15.69807
20
-0.63191
30
-2.20154
11
12.50901
21
-1.38111
31
-2.20154
12
15.69807
22
-1.38111
32
-2.20154
0
3DFACE
8
layer1
62
1
10
15.69807
20
0.19793
30
-2.20154
11
15.69807
21
-0.63191
31
-2.20154
12
15.69807
22
-1.38111
32
-2.20154
0
3DFACE
8
layer1
62
1
10
15.69807
20
-3.23999
30
-2.20154
11
15.69807
21
0.19793
31
-2.20154
12
15.69807
22
-1.38111
32
-2.20154
0
3DFACE
8
layer1
62
1
10
17.89635
20
3.01545
30
-2.20154
11
17.89635
21
-0.14264
31
-2.20154
12
18.67732
22
3.76466
32
-2.20154
0
3DFACE
8
layer1
62
1
10
17.89635
20
0.19793
30
-2.20154
11
17.89635
21
-0.14264
31
-2.20154
12
17.89635
22
3.01545
32
-2.20154
0
3DFACE
8
layer1
62
1
10
17.89635
20
0.94714
30
-2.20154
11
17.89635
21
0.19793
31
-2.20154
12
17.89635
22
3.01545
32
-2.20154
0
3DFACE
8
layer1
62
1
10
16.47905
20
0.19793
30
-2.20154
11
17.89635
21
0.19793
31
-2.20154
12
17.89635
22
0.94714
32
-2.20154
0
3DFACE
8
layer1
62
1
10
14.31174
20
0.94714
30
-2.20154
11
16.47905
21
0.19793
31
-2.20154
12
17.89635
22
0.94714
32
-2.20154
0
3DFACE
8
layer1
62
1
10
13.53076
20
3.76466
30
-2.20154
11
17.89635
21
3.01545
31
-2.20154
12
18.67732
22
3.76466
32
-2.20154
0
3DFACE
8
layer1
62
1
10
14.31174
20
3.01545
30
-2.20154
11
17.89635
21
3.01545
31
-2.20154
12
13.53076
22
3.76466
32
-2.20154
0
3DFACE
8
layer1
62
1
10
13.53076
20
-0.01879
30
-2.20154
11
14.31174
21
3.01545
31
-2.20154
12
13.53076
22
3.76466
32
-2.20154
0
3DFACE
8
layer1
62
1
10
14.31174
20
2.37139
30
-2.20154
11
14.31174
21
3.01545
31
-2.20154
12
13.53076
22
-0.01879
32
-2.20154
0
3DFACE
8
layer1
62
1
10
14.31174
20
1.62218
30
-2.20154
11
14.31174
21
2.37139
31
-2.20154
12
13.53076
22
-0.01879
32
-2.20154
0
3DFACE
8
layer1
62
1
10
17.89635
20
2.37139
30
-2.20154
11
14.31174
21
2.37139
31
-2.20154
12
14.31174
22
1.62218
32
-2.20154
0
3DFACE
8
layer1
62
1
10
17.89635
20
1.62218
30
-2.20154
11
17.89635
21
2.37139
31
-2.20154
12
14.31174
22
1.62218
32
-2.20154
0
3DFACE
8
layer1
62
1
10
17.89635
20
3.01545
30
-2.20154
11
17.89635
21
2.37139
31
-2.20154
12
17.89635
22
1.62218
32
-2.20154
0
3DFACE
8
layer1
62
1
10
17.89635
20
0.94714
30
-2.20154
11
17.89635
21
3.01545
31
-2.20154
12
17.89635
22
1.62218
32
-2.20154
0
3DFACE
8
layer1
62
1
10
16.47905
20
-3.23999
30
-2.20154
11
16.47905
21
-1.38111
31
-2.20154
12
15.69807
22
-3.23999
32
-2.20154
0
3DFACE
8
layer1
62
1
10
12.50901
20
-0.63191
30
-2.20154
11
12.50901
21
-1.38111
31
-2.20154
12
15.69807
22
-0.63191
32
-2.20154
0
3DFACE
8
layer1
62
1
10
14.31174
20
1.62218
30
-2.20154
11
13.53076
21
-0.01879
31
-2.20154
12
14.31174
22
0.94714
32
-2.20154
0
3DFACE
8
layer1
62
1
10
18.67732
20
-0.14264
30
-2.20154
11
18.67732
21
3.76466
31
-2.20154
12
17.89635
22
-0.14264
32
-2.20154
0
3DFACE
8
layer1
62
1
10
14.31174
20
-0.01879
30
1.03332
11
13.53076
21
-0.01879
31
1.03332
12
14.31174
22
0.19793
32
1.03332
0
3DFACE
8
layer1
62
1
10
14.31174
20
0.19793
30
1.03332
11
13.53076
21
-0.01879
31
1.03332
12
14.31174
22
0.94714
32
1.03332
0
3DFACE
8
layer1
62
1
10
14.31174
20
0.19793
30
1.03332
11
14.31174
21
0.94714
31
1.03332
12
15.69807
22
0.19793
32
1.03332
0
3DFACE
8
layer1
62
1
10
15.69807
20
0.19793
30
1.03332
11
14.31174
21
0.94714
31
1.03332
12
16.47905
22
0.19793
32
1.03332
0
3DFACE
8
layer1
62
1
10
15.69807
20
0.19793
30
1.03332
11
16.47905
21
0.19793
31
1.03332
12
15.69807
22
-3.23999
32
1.03332
0
3DFACE
8
layer1
62
1
10
15.69807
20
-3.23999
30
1.03332
11
16.47905
21
0.19793
31
1.03332
12
16.47905
22
-0.63191
32
1.03332
0
3DFACE
8
layer1
62
1
10
15.69807
20
-3.23999
30
1.03332
11
16.47905
21
-0.63191
31
1.03332
12
16.47905
22
-1.38111
32
1.03332
0
3DFACE
8
layer1
62
1
10
16.47905
20
-1.38111
30
1.03332
11
16.47905
21
-0.63191
31
1.03332
12
19.69906
22
-0.63191
32
1.03332
0
3DFACE
8
layer1
62
1
10
16.47905
20
-1.38111
30
1.03332
11
19.69906
21
-0.63191
31
1.03332
12
19.69906
22
-1.38111
32
1.03332
0
3DFACE
8
layer1
62
1
10
15.69807
20
-1.38111
30
1.03332
11
12.50901
21
-1.38111
31
1.03332
12
15.69807
22
-0.63191
32
1.03332
0
3DFACE
8
layer1
62
1
10
15.69807
20
-1.38111
30
1.03332
11
15.69807
21
-0.63191
31
1.03332
12
15.69807
22
0.19793
32
1.03332
0
3DFACE
8
layer1
62
1
10
15.69807
20
-1.38111
30
1.03332
11
15.69807
21
0.19793
31
1.03332
12
15.69807
22
-3.23999
32
1.03332
0
3DFACE
8
layer1
62
1
10
18.67732
20
3.76466
30
1.03332
11
17.89635
21
-0.14264
31
1.03332
12
17.89635
22
3.01545
32
1.03332
0
3DFACE
8
layer1
62
1
10
17.89635
20
3.01545
30
1.03332
11
17.89635
21
-0.14264
31
1.03332
12
17.89635
22
0.19793
32
1.03332
0
3DFACE
8
layer1
62
1
10
17.89635
20
3.01545
30
1.03332
11
17.89635
21
0.19793
31
1.03332
12
17.89635
22
0.94714
32
1.03332
0
3DFACE
8
layer1
62
1
10
17.89635
20
0.94714
30
1.03332
11
17.89635
21
0.19793
31
1.03332
12
16.47905
22
0.19793
32
1.03332
0
3DFACE
8
layer1
62
1
10
17.89635
20
0.94714
30
1.03332
11
16.47905
21
0.19793
31
1.03332
12
14.31174
22
0.94714
32
1.03332
0
3DFACE
8
layer1
62
1
10
18.67732
20
3.76466
30
1.03332
11
17.89635
21
3.01545
31
1.03332
12
13.53076
22
3.76466
32
1.03332
0
3DFACE
8
layer1
62
1
10
13.53076
20
3.76466
30
1.03332
11
17.89635
21
3.01545
31
1.03332
12
14.31174
22
3.01545
32
1.03332
0
3DFACE
8
layer1
62
1
10
13.53076
20
3.76466
30
1.03332
11
14.31174
21
3.01545
31
1.03332
12
13.53076
22
-0.01879
32
1.03332
0
3DFACE
8
layer1
62
1
10
13.53076
20
-0.01879
30
1.03332
11
14.31174
21
3.01545
31
1.03332
12
14.31174
22
2.37139
32
1.03332
0
3DFACE
8
layer1
62
1
10
13.53076
20
-0.01879
30
1.03332
11
14.31174
21
2.37139
31
1.03332
12
14.31174
22
1.62218
32
1.03332
0
3DFACE
8
layer1
62
1
10
14.31174
20
1.62218
30
1.03332
11
14.31174
21
2.37139
31
1.03332
12
17.89635
22
2.37139
32
1.03332
0
3DFACE
8
layer1
62
1
10
14.31174
20
1.62218
30
1.03332
11
17.89635
21
2.37139
31
1.03332
12
17.89635
22
1.62218
32
1.03332
0
3DFACE
8
layer1
62
1
10
17.89635
20
1.62218
30
1.03332
11
17.89635
21
2.37139
31
1.03332
12
17.89635
22
3.01545
32
1.03332
0
3DFACE
8
layer1
62
1
10
17.89635
20
1.62218
30
1.03332
11
17.89635
21
3.01545
31
1.03332
12
17.89635
22
0.94714
32
1.03332
0
3DFACE
8
layer1
62
1
10
15.69807
20
-3.23999
30
1.03332
11
16.47905
21
-1.38111
31
1.03332
12
16.47905
22
-3.23999
32
1.03332
0
3DFACE
8
layer1
62
1
10
15.69807
20
-0.63191
30
1.03332
11
12.50901
21
-1.38111
31
1.03332
12
12.50901
22
-0.63191
32
1.03332
0
3DFACE
8
layer1
62
1
10
14.31174
20
0.94714
30
1.03332
11
13.53076
21
-0.01879
31
1.03332
12
14.31174
22
1.62218
32
1.03332
0
3DFACE
8
layer1
62
1
10
17.89635
20
-0.14264
30
1.03332
11
18.67732
21
3.76466
31
1.03332
12
18.67732
22
-0.14264
32
1.03332
0
3DFACE
8
layer1
62
1
10
13.53076
20
3.76466
30
1.03332
11
13.53076
21
-0.01879
31
1.03332
12
13.53076
22
-0.01879
32
-2.20154
13
13.53076
23
3.76466
33
-2.20154
0
3DFACE
8
layer1
62
1
10
18.67732
20
3.76466
30
1.03332
11
13.53076
21
3.76466
31
1.03332
12
13.53076
22
3.76466
32
-2.20154
13
18.67732
23
3.76466
33
-2.20154
0
3DFACE
8
layer1
62
1
10
18.67732
20
-0.14264
30
1.03332
11
18.67732
21
3.76466
31
1.03332
12
18.67732
22
3.76466
32
-2.20154
13
18.67732
23
-0.14264
33
-2.20154
0
3DFACE
8
layer1
62
1
10
17.89635
20
-0.14264
30
1.03332
11
18.67732
21
-0.14264
31
1.03332
12
18.67732
22
-0.14264
32
-2.20154
13
17.89635
23
-0.14264
33
-2.20154
0
3DFACE
8
layer1
62
1
10
17.89635
20
0.19793
30
1.03332
11
17.89635
21
-0.14264
31
1.03332
12
17.89635
22
-0.14264
32
-2.20154
13
17.89635
23
0.19793
33
-2.20154
0
3DFACE
8
layer1
62
1
10
16.47905
20
0.19793
30
1.03332
11
17.89635
21
0.19793
31
1.03332
12
17.89635
22
0.19793
32
-2.20154
13
16.47905
23
0.19793
33
-2.20154
0
3DFACE
8
layer1
62
1
10
16.47905
20
-0.63191
30
1.03332
11
16.47905
21
0.19793
31
1.03332
12
16.47905
22
0.19793
32
-2.20154
13
16.47905
23
-0.63191
33
-2.20154
0
3DFACE
8
layer1
62
1
10
19.69906
20
-0.63191
30
1.03332
11
16.47905
21
-0.63191
31
1.03332
12
16.47905
22
-0.63191
32
-2.20154
13
19.69906
23
-0.63191
33
-2.20154
0
3DFACE
8
layer1
62
1
10
19.69906
20
-1.38111
30
1.03332
11
19.69906
21
-0.63191
31
1.03332
12
19.69906
22
-0.63191
32
-2.20154
13
19.69906
23
-1.38111
33
-2.20154
0
3DFACE
8
layer1
62
1
10
16.47905
20
-1.38111
30
1.03332
11
19.69906
21
-1.38111
31
1.03332
12
19.69906
22
-1.38111
32
-2.20154
13
16.47905
23
-1.38111
33
-2.20154
0
3DFACE
8
layer1
62
1
10
16.47905
20
-3.23999
30
1.03332
11
16.47905
21
-1.38111
31
1.03332
12
16.47905
22
-1.38111
32
-2.20154
13
16.47905
23
-3.23999
33
-2.20154
0
3DFACE
8
layer1
62
1
10
15.69807
20
-3.23999
30
1.03332
11
16.47905
21
-3.23999
31
1.03332
12
16.47905
22
-3.23999
32
-2.20154
13
15.69807
23
-3.23999
33
-2.20154
0
3DFACE
8
layer1
62
1
10
15.69807
20
-1.38111
30
1.03332
11
15.69807
21
-3.23999
31
1.03332
12
15.69807
22
-3.23999
32
-2.20154
13
15.69807
23
-1.38111
33
-2.20154
0
3DFACE
8
layer1
62
1
10
12.50901
20
-1.38111
30
1.03332
11
15.69807
21
-1.38111
31
1.03332
12
15.69807
22
-1.38111
32
-2.20154
13
12.50901
23
-1.38111
33
-2.20154
0
3DFACE
8
layer1
62
1
10
12.50901
20
-0.63191
30
1.03332
11
12.50901
21
-1.38111
31
1.03332
12
12.50901
22
-1.38111
32
-2.20154
13
12.50901
23
-0.63191
33
-2.20154
0
3DFACE
8
layer1
62
1
10
15.69807
20
-0.63191
30
1.03332
11
12.50901
21
-0.63191
31
1.03332
12
12.50901
22
-0.63191
32
-2.20154
13
15.69807
23
-0.63191
33
-2.20154
0
3DFACE
8
layer1
62
1
10
15.69807
20
0.19793
30
1.03332
11
15.69807
21
-0.63191
31
1.03332
12
15.69807
22
-0.63191
32
-2.20154
13
15.69807
23
0.19793
33
-2.20154
0
3DFACE
8
layer1
62
1
10
14.31174
20
0.19793
30
1.03332
11
15.69807
21
0.19793
31
1.03332
12
15.69807
22
0.19793
32
-2.20154
13
14.31174
23
0.19793
33
-2.20154
0
3DFACE
8
layer1
62
1
10
14.31174
20
-0.01879
30
1.03332
11
14.31174
21
0.19793
31
1.03332
12
14.31174
22
0.19793
32
-2.20154
13
14.31174
23
-0.01879
33
-2.20154
0
3DFACE
8
layer1
62
1
10
13.53076
20
-0.01879
30
1.03332
11
14.31174
21
-0.01879
31
1.03332
12
14.31174
22
-0.01879
32
-2.20154
13
13.53076
23
-0.01879
33
-2.20154
0
3DFACE
8
layer1
62
1
10
17.89635
20
3.01545
30
1.03332
11
17.89635
21
2.37139
31
1.03332
12
17.89635
22
2.37139
32
-2.20154
13
17.89635
23
3.01545
33
-2.20154
0
3DFACE
8
layer1
62
1
10
14.31174
20
3.01545
30
1.03332
11
17.89635
21
3.01545
31
1.03332
12
17.89635
22
3.01545
32
-2.20154
13
14.31174
23
3.01545
33
-2.20154
0
3DFACE
8
layer1
62
1
10
14.31174
20
2.37139
30
1.03332
11
14.31174
21
3.01545
31
1.03332
12
14.31174
22
3.01545
32
-2.20154
13
14.31174
23
2.37139
33
-2.20154
0
3DFACE
8
layer1
62
1
10
17.89635
20
2.37139
30
1.03332
11
14.31174
21
2.37139
31
1.03332
12
14.31174
22
2.37139
32
-2.20154
13
17.89635
23
2.37139
33
-2.20154
0
3DFACE
8
layer1
62
1
10
17.89635
20
1.62218
30
1.03332
11
17.89635
21
0.94714
31
1.03332
12
17.89635
22
0.94714
32
-2.20154
13
17.89635
23
1.62218
33
-2.20154
0
3DFACE
8
layer1
62
1
10
14.31174
20
1.62218
30
1.03332
11
17.89635
21
1.62218
31
1.03332
12
17.89635
22
1.62218
32
-2.20154
13
14.31174
23
1.62218
33
-2.20154
0
3DFACE
8
layer1
62
1
10
14.31174
20
0.94714
30
1.03332
11
14.31174
21
1.62218
31
1.03332
12
14.31174
22
1.62218
32
-2.20154
13
14.31174
23
0.94714
33
-2.20154
0
3DFACE
8
layer1
62
1
10
17.89635
20
0.94714
30
1.03332
11
14.31174
21
0.94714
31
1.03332
12
14.31174
22
0.94714
32
-2.20154
13
17.89635
23
0.94714
33
-2.20154
0
3DFACE
8
layer1
62
1
10
10.06175
20
2.47047
30
-2.20154
11
10.13664
21
1.19107
31
-2.20154
12
10.59124
22
0.73128
32
-2.20154
0
3DFACE
8
layer1
62
1
10
9.62758
20
1.77674
30
-2.20154
11
10.13664
21
1.19107
31
-2.20154
12
10.06175
22
2.47047
32
-2.20154
0
3DFACE
8
layer1
62
1
10
9.56530
20
3.14731
30
-2.20154
11
9.62758
21
1.77674
31
-2.20154
12
10.06175
22
2.47047
32
-2.20154
0
3DFACE
8
layer1
62
1
10
9.06406
20
2.48830
30
-2.20154
11
9.62758
21
1.77674
31
-2.20154
12
9.56530
22
3.14731
32
-2.20154
0
3DFACE
8
layer1
62
1
10
9.10680
20
3.85836
30
-2.20154
11
9.06406
21
2.48830
31
-2.20154
12
9.56530
22
3.14731
32
-2.20154
0
3DFACE
8
layer1
62
1
10
8.44609
20
3.32573
30
-2.20154
11
9.06406
21
2.48830
31
-2.20154
12
9.10680
22
3.85836
32
-2.20154
0
3DFACE
8
layer1
62
1
10
11.04223
20
-0.66900
30
-2.20154
11
11.16849
21
1.21941
31
-2.20154
12
10.59615
22
1.82784
32
-2.20154
0
3DFACE
8
layer1
62
1
10
10.86110
20
0.34073
30
-2.20154
11
11.04223
21
-0.66900
31
-2.20154
12
10.59615
22
1.82784
32
-2.20154
0
3DFACE
8
layer1
62
1
10
10.84424
20
0.41040
30
-2.20154
11
10.86110
21
0.34073
31
-2.20154
12
10.59615
22
1.82784
32
-2.20154
0
3DFACE
8
layer1
62
1
10
10.79364
20
0.49871
30
-2.20154
11
10.84424
21
0.41040
31
-2.20154
12
10.59615
22
1.82784
32
-2.20154
0
3DFACE
8
layer1
62
1
10
10.70931
20
0.60567
30
-2.20154
11
10.79364
21
0.49871
31
-2.20154
12
10.59615
22
1.82784
32
-2.20154
0
3DFACE
8
layer1
62
1
10
10.59124
20
0.73128
30
-2.20154
11
10.70931
21
0.60567
31
-2.20154
12
10.59615
22
1.82784
32
-2.20154
0
3DFACE
8
layer1
62
1
10
10.06175
20
2.47047
30
-2.20154
11
10.59124
21
0.73128
31
-2.20154
12
10.59615
22
1.82784
32
-2.20154
0
3DFACE
8
layer1
62
1
10
11.31821
20
-0.37790
30
-2.20154
11
11.16849
21
1.21941
31
-2.20154
12
11.04223
22
-0.66900
32
-2.20154
0
3DFACE
8
layer1
62
1
10
11.38924
20
0.96461
30
-2.20154
11
11.16849
21
1.21941
31
-2.20154
12
11.31821
22
-0.37790
32
-2.20154
0
3DFACE
8
layer1
62
1
10
11.51535
20
-0.10742
30
-2.20154
11
11.38924
21
0.96461
31
-2.20154
12
11.31821
22
-0.37790
32
-2.20154
0
3DFACE
8
layer1
62
1
10
11.54691
20
0.73839
30
-2.20154
11
11.38924
21
0.96461
31
-2.20154
12
11.51535
22
-0.10742
32
-2.20154
0
3DFACE
8
layer1
62
1
10
11.63362
20
0.14244
30
-2.20154
11
11.54691
21
0.73839
31
-2.20154
12
11.51535
22
-0.10742
32
-2.20154
0
3DFACE
8
layer1
62
1
10
11.64152
20
0.54075
30
-2.20154
11
11.54691
21
0.73839
31
-2.20154
12
11.63362
22
0.14244
32
-2.20154
0
3DFACE
8
layer1
62
1
10
11.67305
20
0.37169
30
-2.20154
11
11.64152
21
0.54075
31
-2.20154
12
11.63362
22
0.14244
32
-2.20154
0
3DFACE
8
layer1
62
1
10
9.00492
20
-3.11637
30
-2.20154
11
9.08972
21
-1.52886
31
-2.20154
12
8.79369
22
-1.87538
32
-2.20154
0
3DFACE
8
layer1
62
1
10
8.32225
20
-2.48686
30
-2.20154
11
9.00492
21
-3.11637
31
-2.20154
12
8.79369
22
-1.87538
32
-2.20154
0
3DFACE
8
layer1
62
1
10
8.53787
20
-2.19472
30
-2.20154
11
8.32225
21
-2.48686
31
-2.20154
12
8.79369
22
-1.87538
32
-2.20154
0
3DFACE
8
layer1
62
1
10
9.78174
20
-0.78795
30
-2.20154
11
9.94228
21
-1.90023
31
-2.20154
12
10.11392
22
-0.45222
32
-2.20154
0
3DFACE
8
layer1
62
1
10
9.45327
20
-2.51019
30
-2.20154
11
9.94228
21
-1.90023
31
-2.20154
12
9.78174
22
-0.78795
32
-2.20154
0
3DFACE
8
layer1
62
1
10
9.42594
20
-1.15515
30
-2.20154
11
9.45327
21
-2.51019
31
-2.20154
12
9.78174
22
-0.78795
32
-2.20154
0
3DFACE
8
layer1
62
1
10
9.00492
20
-3.11637
30
-2.20154
11
9.45327
21
-2.51019
31
-2.20154
12
9.42594
22
-1.15515
32
-2.20154
0
3DFACE
8
layer1
62
1
10
9.08972
20
-1.52886
30
-2.20154
11
9.00492
21
-3.11637
31
-2.20154
12
9.42594
22
-1.15515
32
-2.20154
0
3DFACE
8
layer1
62
1
10
10.47194
20
-1.28650
30
-2.20154
11
10.70738
21
0.12480
31
-2.20154
12
10.42247
22
-0.14797
32
-2.20154
0
3DFACE
8
layer1
62
1
10
9.94228
20
-1.90023
30
-2.20154
11
10.47194
21
-1.28650
31
-2.20154
12
10.42247
22
-0.14797
32
-2.20154
0
3DFACE
8
layer1
62
1
10
10.11392
20
-0.45222
30
-2.20154
11
9.94228
21
-1.90023
31
-2.20154
12
10.42247
22
-0.14797
32
-2.20154
0
3DFACE
8
layer1
62
1
10
10.77463
20
0.18634
30
-2.20154
11
10.70738
21
0.12480
31
-2.20154
12
10.47194
22
-1.28650
32
-2.20154
0
3DFACE
8
layer1
62
1
10
10.82267
20
0.24284
30
-2.20154
11
10.77463
21
0.18634
31
-2.20154
12
10.47194
22
-1.28650
32
-2.20154
0
3DFACE
8
layer1
62
1
10
10.85150
20
0.29430
30
-2.20154
11
10.82267
21
0.24284
31
-2.20154
12
10.47194
22
-1.28650
32
-2.20154
0
3DFACE
8
layer1
62
1
10
11.04223
20
-0.66900
30
-2.20154
11
10.85150
21
0.29430
31
-2.20154
12
10.47194
22
-1.28650
32
-2.20154
0
3DFACE
8
layer1
62
1
10
10.86110
20
0.34073
30
-2.20154
11
10.85150
21
0.29430
31
-2.20154
12
11.04223
22
-0.66900
32
-2.20154
0
3DFACE
8
layer1
62
1
10
10.59124
20
0.73128
30
1.03332
11
10.13664
21
1.19107
31
1.03332
12
10.06175
22
2.47047
32
1.03332
0
3DFACE
8
layer1
62
1
10
10.06175
20
2.47047
30
1.03332
11
10.13664
21
1.19107
31
1.03332
12
9.62758
22
1.77674
32
1.03332
0
3DFACE
8
layer1
62
1
10
10.06175
20
2.47047
30
1.03332
11
9.62758
21
1.77674
31
1.03332
12
9.56530
22
3.14731
32
1.03332
0
3DFACE
8
layer1
62
1
10
9.56530
20
3.14731
30
1.03332
11
9.62758
21
1.77674
31
1.03332
12
9.06406
22
2.48830
32
1.03332
0
3DFACE
8
layer1
62
1
10
9.56530
20
3.14731
30
1.03332
11
9.06406
21
2.48830
31
1.03332
12
9.10680
22
3.85836
32
1.03332
0
3DFACE
8
layer1
62
1
10
9.10680
20
3.85836
30
1.03332
11
9.06406
21
2.48830
31
1.03332
12
8.44609
22
3.32573
32
1.03332
0
3DFACE
8
layer1
62
1
10
10.59615
20
1.82784
30
1.03332
11
11.16849
21
1.21941
31
1.03332
12
11.04223
22
-0.66900
32
1.03332
0
3DFACE
8
layer1
62
1
10
10.59615
20
1.82784
30
1.03332
11
11.04223
21
-0.66900
31
1.03332
12
10.86110
22
0.34073
32
1.03332
0
3DFACE
8
layer1
62
1
10
10.59615
20
1.82784
30
1.03332
11
10.86110
21
0.34073
31
1.03332
12
10.84424
22
0.41040
32
1.03332
0
3DFACE
8
layer1
62
1
10
10.59615
20
1.82784
30
1.03332
11
10.84424
21
0.41040
31
1.03332
12
10.79364
22
0.49871
32
1.03332
0
3DFACE
8
layer1
62
1
10
10.59615
20
1.82784
30
1.03332
11
10.79364
21
0.49871
31
1.03332
12
10.70931
22
0.60567
32
1.03332
0
3DFACE
8
layer1
62
1
10
10.59615
20
1.82784
30
1.03332
11
10.70931
21
0.60567
31
1.03332
12
10.59124
22
0.73128
32
1.03332
0
3DFACE
8
layer1
62
1
10
10.59615
20
1.82784
30
1.03332
11
10.59124
21
0.73128
31
1.03332
12
10.06175
22
2.47047
32
1.03332
0
3DFACE
8
layer1
62
1
10
11.04223
20
-0.66900
30
1.03332
11
11.16849
21
1.21941
31
1.03332
12
11.31821
22
-0.37790
32
1.03332
0
3DFACE
8
layer1
62
1
10
11.31821
20
-0.37790
30
1.03332
11
11.16849
21
1.21941
31
1.03332
12
11.38924
22
0.96461
32
1.03332
0
3DFACE
8
layer1
62
1
10
11.31821
20
-0.37790
30
1.03332
11
11.38924
21
0.96461
31
1.03332
12
11.51535
22
-0.10742
32
1.03332
0
3DFACE
8
layer1
62
1
10
11.51535
20
-0.10742
30
1.03332
11
11.38924
21
0.96461
31
1.03332
12
11.54691
22
0.73839
32
1.03332
0
3DFACE
8
layer1
62
1
10
11.51535
20
-0.10742
30
1.03332
11
11.54691
21
0.73839
31
1.03332
12
11.63362
22
0.14244
32
1.03332
0
3DFACE
8
layer1
62
1
10
11.63362
20
0.14244
30
1.03332
11
11.54691
21
0.73839
31
1.03332
12
11.64152
22
0.54075
32
1.03332
0
3DFACE
8
layer1
62
1
10
11.63362
20
0.14244
30
1.03332
11
11.64152
21
0.54075
31
1.03332
12
11.67305
22
0.37169
32
1.03332
0
3DFACE
8
layer1
62
1
10
8.79369
20
-1.87538
30
1.03332
11
9.08972
21
-1.52886
31
1.03332
12
9.00492
22
-3.11637
32
1.03332
0
3DFACE
8
layer1
62
1
10
8.79369
20
-1.87538
30
1.03332
11
9.00492
21
-3.11637
31
1.03332
12
8.32225
22
-2.48686
32
1.03332
0
3DFACE
8
layer1
62
1
10
8.79369
20
-1.87538
30
1.03332
11
8.32225
21
-2.48686
31
1.03332
12
8.53787
22
-2.19472
32
1.03332
0
3DFACE
8
layer1
62
1
10
10.11392
20
-0.45222
30
1.03332
11
9.94228
21
-1.90023
31
1.03332
12
9.78174
22
-0.78795
32
1.03332
0
3DFACE
8
layer1
62
1
10
9.78174
20
-0.78795
30
1.03332
11
9.94228
21
-1.90023
31
1.03332
12
9.45327
22
-2.51019
32
1.03332
0
3DFACE
8
layer1
62
1
10
9.78174
20
-0.78795
30
1.03332
11
9.45327
21
-2.51019
31
1.03332
12
9.42594
22
-1.15515
32
1.03332
0
3DFACE
8
layer1
62
1
10
9.42594
20
-1.15515
30
1.03332
11
9.45327
21
-2.51019
31
1.03332
12
9.00492
22
-3.11637
32
1.03332
0
3DFACE
8
layer1
62
1
10
9.42594
20
-1.15515
30
1.03332
11
9.00492
21
-3.11637
31
1.03332
12
9.08972
22
-1.52886
32
1.03332
0
3DFACE
8
layer1
62
1
10
10.42247
20
-0.14797
30
1.03332
11
10.70738
21
0.12480
31
1.03332
12
10.47194
22
-1.28650
32
1.03332
0
3DFACE
8
layer1
62
1
10
10.42247
20
-0.14797
30
1.03332
11
10.47194
21
-1.28650
31
1.03332
12
9.94228
22
-1.90023
32
1.03332
0
3DFACE
8
layer1
62
1
10
10.42247
20
-0.14797
30
1.03332
11
9.94228
21
-1.90023
31
1.03332
12
10.11392
22
-0.45222
32
1.03332
0
3DFACE
8
layer1
62
1
10
10.47194
20
-1.28650
30
1.03332
11
10.70738
21
0.12480
31
1.03332
12
10.77463
22
0.18634
32
1.03332
0
3DFACE
8
layer1
62
1
10
10.47194
20
-1.28650
30
1.03332
11
10.77463
21
0.18634
31
1.03332
12
10.82267
22
0.24284
32
1.03332
0
3DFACE
8
layer1
62
1
10
10.47194
20
-1.28650
30
1.03332
11
10.82267
21
0.24284
31
1.03332
12
10.85150
22
0.29430
32
1.03332
0
3DFACE
8
layer1
62
1
10
10.47194
20
-1.28650
30
1.03332
11
10.85150
21
0.29430
31
1.03332
12
11.04223
22
-0.66900
32
1.03332
0
3DFACE
8
layer1
62
1
10
11.04223
20
-0.66900
30
1.03332
11
10.85150
21
0.29430
31
1.03332
12
10.86110
22
0.34073
32
1.03332
0
3DFACE
8
layer1
62
1
10
10.82267
20
0.24284
30
1.03332
11
10.77463
21
0.18634
31
1.03332
12
10.77463
22
0.18634
32
-2.20154
13
10.82267
23
0.24284
33
-2.20154
0
3DFACE
8
layer1
62
1
10
10.85150
20
0.29430
30
1.03332
11
10.82267
21
0.24284
31
1.03332
12
10.82267
22
0.24284
32
-2.20154
13
10.85150
23
0.29430
33
-2.20154
0
3DFACE
8
layer1
62
1
10
10.86110
20
0.34073
30
1.03332
11
10.85150
21
0.29430
31
1.03332
12
10.85150
22
0.29430
32
-2.20154
13
10.86110
23
0.34073
33
-2.20154
0
3DFACE
8
layer1
62
1
10
10.84424
20
0.41040
30
1.03332
11
10.86110
21
0.34073
31
1.03332
12
10.86110
22
0.34073
32
-2.20154
13
10.84424
23
0.41040
33
-2.20154
0
3DFACE
8
layer1
62
1
10
10.79364
20
0.49871
30
1.03332
11
10.84424
21
0.41040
31
1.03332
12
10.84424
22
0.41040
32
-2.20154
13
10.79364
23
0.49871
33
-2.20154
0
3DFACE
8
layer1
62
1
10
10.70931
20
0.60567
30
1.03332
11
10.79364
21
0.49871
31
1.03332
12
10.79364
22
0.49871
32
-2.20154
13
10.70931
23
0.60567
33
-2.20154
0
3DFACE
8
layer1
62
1
10
10.59124
20
0.73128
30
1.03332
11
10.70931
21
0.60567
31
1.03332
12
10.70931
22
0.60567
32
-2.20154
13
10.59124
23
0.73128
33
-2.20154
0
3DFACE
8
layer1
62
1
10
10.13664
20
1.19107
30
1.03332
11
10.59124
21
0.73128
31
1.03332
12
10.59124
22
0.73128
32
-2.20154
13
10.13664
23
1.19107
33
-2.20154
0
3DFACE
8
layer1
62
1
10
9.62758
20
1.77674
30
1.03332
11
10.13664
21
1.19107
31
1.03332
12
10.13664
22
1.19107
32
-2.20154
13
9.62758
23
1.77674
33
-2.20154
0
3DFACE
8
layer1
62
1
10
9.06406
20
2.48830
30
1.03332
11
9.62758
21
1.77674
31
1.03332
12
9.62758
22
1.77674
32
-2.20154
13
9.06406
23
2.48830
33
-2.20154
0
3DFACE
8
layer1
62
1
10
8.44609
20
3.32573
30
1.03332
11
9.06406
21
2.48830
31
1.03332
12
9.06406
22
2.48830
32
-2.20154
13
8.44609
23
3.32573
33
-2.20154
0
3DFACE
8
layer1
62
1
10
9.10680
20
3.85836
30
1.03332
11
8.44609
21
3.32573
31
1.03332
12
8.44609
22
3.32573
32
-2.20154
13
9.10680
23
3.85836
33
-2.20154
0
3DFACE
8
layer1
62
1
10
9.56530
20
3.14731
30
1.03332
11
9.10680
21
3.85836
31
1.03332
12
9.10680
22
3.85836
32
-2.20154
13
9.56530
23
3.14731
33
-2.20154
0
3DFACE
8
layer1
62
1
10
10.06175
20
2.47047
30
1.03332
11
9.56530
21
3.14731
31
1.03332
12
9.56530
22
3.14731
32
-2.20154
13
10.06175
23
2.47047
33
-2.20154
0
3DFACE
8
layer1
62
1
10
10.59615
20
1.82784
30
1.03332
11
10.06175
21
2.47047
31
1.03332
12
10.06175
22
2.47047
32
-2.20154
13
10.59615
23
1.82784
33
-2.20154
0
3DFACE
8
layer1
62
1
10
11.16849
20
1.21941
30
1.03332
11
10.59615
21
1.82784
31
1.03332
12
10.59615
22
1.82784
32
-2.20154
13
11.16849
23
1.21941
33
-2.20154
0
3DFACE
8
layer1
62
1
10
11.38924
20
0.96461
30
1.03332
11
11.16849
21
1.21941
31
1.03332
12
11.16849
22
1.21941
32
-2.20154
13
11.38924
23
0.96461
33
-2.20154
0
3DFACE
8
layer1
62
1
10
11.54691
20
0.73839
30
1.03332
11
11.38924
21
0.96461
31
1.03332
12
11.38924
22
0.96461
32
-2.20154
13
11.54691
23
0.73839
33
-2.20154
0
3DFACE
8
layer1
62
1
10
11.64152
20
0.54075
30
1.03332
11
11.54691
21
0.73839
31
1.03332
12
11.54691
22
0.73839
32
-2.20154
13
11.64152
23
0.54075
33
-2.20154
0
3DFACE
8
layer1
62
1
10
11.67305
20
0.37169
30
1.03332
11
11.64152
21
0.54075
31
1.03332
12
11.64152
22
0.54075
32
-2.20154
13
11.67305
23
0.37169
33
-2.20154
0
3DFACE
8
layer1
62
1
10
11.63362
20
0.14244
30
1.03332
11
11.67305
21
0.37169
31
1.03332
12
11.67305
22
0.37169
32
-2.20154
13
11.63362
23
0.14244
33
-2.20154
0
3DFACE
8
layer1
62
1
10
11.51535
20
-0.10742
30
1.03332
11
11.63362
21
0.14244
31
1.03332
12
11.63362
22
0.14244
32
-2.20154
13
11.51535
23
-0.10742
33
-2.20154
0
3DFACE
8
layer1
62
1
10
11.31821
20
-0.37790
30
1.03332
11
11.51535
21
-0.10742
31
1.03332
12
11.51535
22
-0.10742
32
-2.20154
13
11.31821
23
-0.37790
33
-2.20154
0
3DFACE
8
layer1
62
1
10
11.04223
20
-0.66900
30
1.03332
11
11.31821
21
-0.37790
31
1.03332
12
11.31821
22
-0.37790
32
-2.20154
13
11.04223
23
-0.66900
33
-2.20154
0
3DFACE
8
layer1
62
1
10
10.47194
20
-1.28650
30
1.03332
11
11.04223
21
-0.66900
31
1.03332
12
11.04223
22
-0.66900
32
-2.20154
13
10.47194
23
-1.28650
33
-2.20154
0
3DFACE
8
layer1
62
1
10
9.94228
20
-1.90023
30
1.03332
11
10.47194
21
-1.28650
31
1.03332
12
10.47194
22
-1.28650
32
-2.20154
13
9.94228
23
-1.90023
33
-2.20154
0
3DFACE
8
layer1
62
1
10
9.45327
20
-2.51019
30
1.03332
11
9.94228
21
-1.90023
31
1.03332
12
9.94228
22
-1.90023
32
-2.20154
13
9.45327
23
-2.51019
33
-2.20154
0
3DFACE
8
layer1
62
1
10
9.00492
20
-3.11637
30
1.03332
11
9.45327
21
-2.51019
31
1.03332
12
9.45327
22
-2.51019
32
-2.20154
13
9.00492
23
-3.11637
33
-2.20154
0
3DFACE
8
layer1
62
1
10
8.32225
20
-2.48686
30
1.03332
11
9.00492
21
-3.11637
31
1.03332
12
9.00492
22
-3.11637
32
-2.20154
13
8.32225
23
-2.48686
33
-2.20154
0
3DFACE
8
layer1
62
1
10
8.53787
20
-2.19472
30
1.03332
11
8.32225
21
-2.48686
31
1.03332
12
8.32225
22
-2.48686
32
-2.20154
13
8.53787
23
-2.19472
33
-2.20154
0
3DFACE
8
layer1
62
1
10
8.79369
20
-1.87538
30
1.03332
11
8.53787
21
-2.19472
31
1.03332
12
8.53787
22
-2.19472
32
-2.20154
13
8.79369
23
-1.87538
33
-2.20154
0
3DFACE
8
layer1
62
1
10
9.08972
20
-1.52886
30
1.03332
11
8.79369
21
-1.87538
31
1.03332
12
8.79369
22
-1.87538
32
-2.20154
13
9.08972
23
-1.52886
33
-2.20154
0
3DFACE
8
layer1
62
1
10
9.42594
20
-1.15515
30
1.03332
11
9.08972
21
-1.52886
31
1.03332
12
9.08972
22
-1.52886
32
-2.20154
13
9.42594
23
-1.15515
33
-2.20154
0
3DFACE
8
layer1
62
1
10
9.78174
20
-0.78795
30
1.03332
11
9.42594
21
-1.15515
31
1.03332
12
9.42594
22
-1.15515
32
-2.20154
13
9.78174
23
-0.78795
33
-2.20154
0
3DFACE
8
layer1
62
1
10
10.11392
20
-0.45222
30
1.03332
11
9.78174
21
-0.78795
31
1.03332
12
9.78174
22
-0.78795
32
-2.20154
13
10.11392
23
-0.45222
33
-2.20154
0
3DFACE
8
layer1
62
1
10
10.42247
20
-0.14797
30
1.03332
11
10.11392
21
-0.45222
31
1.03332
12
10.11392
22
-0.45222
32
-2.20154
13
10.42247
23
-0.14797
33
-2.20154
0
3DFACE
8
layer1
62
1
10
10.70738
20
0.12480
30
1.03332
11
10.42247
21
-0.14797
31
1.03332
12
10.42247
22
-0.14797
32
-2.20154
13
10.70738
23
0.12480
33
-2.20154
0
3DFACE
8
layer1
62
1
10
10.77463
20
0.18634
30
1.03332
11
10.70738
21
0.12480
31
1.03332
12
10.70738
22
0.12480
32
-2.20154
13
10.77463
23
0.18634
33
-2.20154
0
3DFACE
8
layer1
62
1
10
2.45732
20
-2.43761
30
-2.20154
11
2.67419
21
-1.55105
31
-2.20154
12
2.50219
22
-0.97329
32
-2.20154
0
3DFACE
8
layer1
62
1
10
2.91498
20
-2.05533
30
-2.20154
11
2.67419
21
-1.55105
31
-2.20154
12
2.45732
22
-2.43761
32
-2.20154
0
3DFACE
8
layer1
62
1
10
3.06461
20
-3.08426
30
-2.20154
11
2.91498
21
-2.05533
31
-2.20154
12
2.45732
22
-2.43761
32
-2.20154
0
3DFACE
8
layer1
62
1
10
2.91498
20
-1.71475
30
-2.20154
11
2.91498
21
-2.05533
31
-2.20154
12
3.06461
22
-3.08426
32
-2.20154
0
3DFACE
8
layer1
62
1
10
3.16961
20
-2.30997
30
-2.20154
11
2.91498
21
-1.71475
31
-2.20154
12
3.06461
22
-3.08426
32
-2.20154
0
3DFACE
8
layer1
62
1
10
4.02960
20
-1.86957
30
-2.20154
11
2.91498
21
-1.71475
31
-2.20154
12
3.16961
22
-2.30997
32
-2.20154
0
3DFACE
8
layer1
62
1
10
4.71769
20
-1.62880
30
-2.20154
11
4.02960
21
-1.86957
31
-2.20154
12
3.16961
22
-2.30997
32
-2.20154
0
3DFACE
8
layer1
62
1
10
4.71769
20
-0.97248
30
-2.20154
11
4.02960
21
-1.86957
31
-2.20154
12
4.71769
22
-1.62880
32
-2.20154
0
3DFACE
8
layer1
62
1
10
5.73943
20
-0.97248
30
-2.20154
11
4.71769
21
-0.97248
31
-2.20154
12
4.71769
22
-1.62880
32
-2.20154
0
3DFACE
8
layer1
62
1
10
5.08230
20
1.06486
30
-2.20154
11
5.77039
21
1.59733
31
-2.20154
12
4.71769
22
1.59733
32
-2.20154
0
3DFACE
8
layer1
62
1
10
5.16317
20
-0.73092
30
-2.20154
11
5.77039
21
1.59733
31
-2.20154
12
5.08230
22
1.06486
32
-2.20154
0
3DFACE
8
layer1
62
1
10
5.08230
20
-0.19844
30
-2.20154
11
5.16317
21
-0.73092
31
-2.20154
12
5.08230
22
1.06486
32
-2.20154
0
3DFACE
8
layer1
62
1
10
4.71769
20
-0.73092
30
-2.20154
11
5.16317
21
-0.73092
31
-2.20154
12
5.08230
22
-0.19844
32
-2.20154
0
3DFACE
8
layer1
62
1
10
4.71769
20
-0.19844
30
-2.20154
11
4.71769
21
-0.73092
31
-2.20154
12
5.08230
22
-0.19844
32
-2.20154
0
3DFACE
8
layer1
62
1
10
4.02960
20
-1.86957
30
-2.20154
11
4.71769
21
-0.73092
31
-2.20154
12
4.71769
22
-0.19844
32
-2.20154
0
3DFACE
8
layer1
62
1
10
4.71769
20
0.16697
30
-2.20154
11
4.02960
21
-1.86957
31
-2.20154
12
4.71769
22
-0.19844
32
-2.20154
0
3DFACE
8
layer1
62
1
10
4.71769
20
0.69945
30
-2.20154
11
4.02960
21
-1.86957
31
-2.20154
12
4.71769
22
0.16697
32
-2.20154
0
3DFACE
8
layer1
62
1
10
5.08230
20
0.69945
30
-2.20154
11
4.71769
21
0.69945
31
-2.20154
12
4.71769
22
0.16697
32
-2.20154
0
3DFACE
8
layer1
62
1
10
5.08230
20
0.69945
30
-2.20154
11
4.71769
21
0.16697
31
-2.20154
12
5.08230
22
0.16697
32
-2.20154
0
3DFACE
8
layer1
62
1
10
5.08230
20
1.06486
30
-2.20154
11
5.08230
21
0.69945
31
-2.20154
12
5.08230
22
0.16697
32
-2.20154
0
3DFACE
8
layer1
62
1
10
5.08230
20
-0.19844
30
-2.20154
11
5.08230
21
1.06486
31
-2.20154
12
5.08230
22
0.16697
32
-2.20154
0
3DFACE
8
layer1
62
1
10
4.71769
20
1.59733
30
-2.20154
11
4.71769
21
1.06486
31
-2.20154
12
5.08230
22
1.06486
32
-2.20154
0
3DFACE
8
layer1
62
1
10
4.02960
20
-1.86957
30
-2.20154
11
4.71769
21
1.06486
31
-2.20154
12
4.71769
22
1.59733
32
-2.20154
0
3DFACE
8
layer1
62
1
10
4.71769
20
1.80794
30
-2.20154
11
4.02960
21
-1.86957
31
-2.20154
12
4.71769
22
1.59733
32
-2.20154
0
3DFACE
8
layer1
62
1
10
4.71769
20
2.46426
30
-2.20154
11
4.02960
21
-1.86957
31
-2.20154
12
4.71769
22
1.80794
32
-2.20154
0
3DFACE
8
layer1
62
1
10
5.92520
20
2.46426
30
-2.20154
11
4.71769
21
2.46426
31
-2.20154
12
4.71769
22
1.80794
32
-2.20154
0
3DFACE
8
layer1
62
1
10
4.63505
20
3.42247
30
-2.20154
11
4.71769
21
2.73680
31
-2.20154
12
4.92907
22
2.70801
32
-2.20154
0
3DFACE
8
layer1
62
1
10
4.02960
20
-1.86957
30
-2.20154
11
4.71769
21
2.73680
31
-2.20154
12
4.63505
22
3.42247
32
-2.20154
0
3DFACE
8
layer1
62
1
10
4.02960
20
2.80455
30
-2.20154
11
4.02960
21
-1.86957
31
-2.20154
12
4.63505
22
3.42247
32
-2.20154
0
3DFACE
8
layer1
62
1
10
4.02960
20
-1.62880
30
-2.20154
11
4.02960
21
-1.86957
31
-2.20154
12
4.02960
22
2.80455
32
-2.20154
0
3DFACE
8
layer1
62
1
10
4.02960
20
-0.97248
30
-2.20154
11
4.02960
21
-1.62880
31
-2.20154
12
4.02960
22
2.80455
32
-2.20154
0
3DFACE
8
layer1
62
1
10
2.94593
20
-1.62880
30
-2.20154
11
4.02960
21
-1.62880
31
-2.20154
12
4.02960
22
-0.97248
32
-2.20154
0
3DFACE
8
layer1
62
1
10
2.94593
20
-0.97248
30
-2.20154
11
2.94593
21
-1.62880
31
-2.20154
12
4.02960
22
-0.97248
32
-2.20154
0
3DFACE
8
layer1
62
1
10
5.23743
20
3.35931
30
-2.20154
11
5.41826
21
2.66156
31
-2.20154
12
5.69607
22
2.64391
32
-2.20154
0
3DFACE
8
layer1
62
1
10
5.16259
20
2.68293
30
-2.20154
11
5.41826
21
2.66156
31
-2.20154
12
5.23743
22
3.35931
32
-2.20154
0
3DFACE
8
layer1
62
1
10
4.63505
20
3.42247
30
-2.20154
11
5.16259
21
2.68293
31
-2.20154
12
5.23743
22
3.35931
32
-2.20154
0
3DFACE
8
layer1
62
1
10
4.92907
20
2.70801
30
-2.20154
11
5.16259
21
2.68293
31
-2.20154
12
4.63505
22
3.42247
32
-2.20154
0
3DFACE
8
layer1
62
1
10
5.74689
20
3.52405
30
-2.20154
11
5.71529
21
3.67406
31
-2.20154
12
5.70660
22
3.58598
32
-2.20154
0
3DFACE
8
layer1
62
1
10
5.77296
20
3.78830
30
-2.20154
11
5.71529
21
3.67406
31
-2.20154
12
5.74689
22
3.52405
32
-2.20154
0
3DFACE
8
layer1
62
1
10
5.83615
20
3.48827
30
-2.20154
11
5.77296
21
3.78830
31
-2.20154
12
5.74689
22
3.52405
32
-2.20154
0
3DFACE
8
layer1
62
1
10
6.16596
20
1.92790
30
-2.20154
11
5.77296
21
3.78830
31
-2.20154
12
5.83615
22
3.48827
32
-2.20154
0
3DFACE
8
layer1
62
1
10
6.08773
20
2.20314
30
-2.20154
11
6.16596
21
1.92790
31
-2.20154
12
5.83615
22
3.48827
32
-2.20154
0
3DFACE
8
layer1
62
1
10
6.00669
20
2.55496
30
-2.20154
11
6.08773
21
2.20314
31
-2.20154
12
5.83615
22
3.48827
32
-2.20154
0
3DFACE
8
layer1
62
1
10
5.92283
20
2.98333
30
-2.20154
11
6.00669
21
2.55496
31
-2.20154
12
5.83615
22
3.48827
32
-2.20154
0
3DFACE
8
layer1
62
1
10
6.72475
20
2.83014
30
-2.20154
11
6.85406
21
0.50755
31
-2.20154
12
6.91773
22
0.27314
32
-2.20154
0
3DFACE
8
layer1
62
1
10
6.07308
20
-3.20788
30
-2.20154
11
6.85406
21
0.50755
31
-2.20154
12
6.72475
22
2.83014
32
-2.20154
0
3DFACE
8
layer1
62
1
10
6.56716
20
3.92028
30
-2.20154
11
6.07308
21
-3.20788
31
-2.20154
12
6.72475
22
2.83014
32
-2.20154
0
3DFACE
8
layer1
62
1
10
6.16596
20
1.92790
30
-2.20154
11
6.07308
21
-3.20788
31
-2.20154
12
6.56716
22
3.92028
32
-2.20154
0
3DFACE
8
layer1
62
1
10
5.77296
20
3.78830
30
-2.20154
11
6.16596
21
1.92790
31
-2.20154
12
6.56716
22
3.92028
32
-2.20154
0
3DFACE
8
layer1
62
1
10
3.31486
20
3.64162
30
-2.20154
11
3.34593
21
2.89160
31
-2.20154
12
3.51725
22
2.86335
32
-2.20154
0
3DFACE
8
layer1
62
1
10
3.21564
20
2.86699
30
-2.20154
11
3.34593
21
2.89160
31
-2.20154
12
3.31486
22
3.64162
32
-2.20154
0
3DFACE
8
layer1
62
1
10
3.10385
20
3.05513
30
-2.20154
11
3.21564
21
2.86699
31
-2.20154
12
3.31486
22
3.64162
32
-2.20154
0
3DFACE
8
layer1
62
1
10
3.13186
20
2.88604
30
-2.20154
11
3.21564
21
2.86699
31
-2.20154
12
3.10385
22
3.05513
32
-2.20154
0
3DFACE
8
layer1
62
1
10
3.09459
20
2.94875
30
-2.20154
11
3.13186
21
2.88604
31
-2.20154
12
3.10385
22
3.05513
32
-2.20154
0
3DFACE
8
layer1
62
1
10
3.99419
20
3.51658
30
-2.20154
11
4.02960
21
2.80455
31
-2.20154
12
4.63505
22
3.42247
32
-2.20154
0
3DFACE
8
layer1
62
1
10
3.85908
20
2.81983
30
-2.20154
11
4.02960
21
2.80455
31
-2.20154
12
3.99419
22
3.51658
32
-2.20154
0
3DFACE
8
layer1
62
1
10
3.31486
20
3.64162
30
-2.20154
11
3.85908
21
2.81983
31
-2.20154
12
3.99419
22
3.51658
32
-2.20154
0
3DFACE
8
layer1
62
1
10
3.68830
20
2.83943
30
-2.20154
11
3.85908
21
2.81983
31
-2.20154
12
3.31486
22
3.64162
32
-2.20154
0
3DFACE
8
layer1
62
1
10
3.51725
20
2.86335
30
-2.20154
11
3.68830
21
2.83943
31
-2.20154
12
3.31486
22
3.64162
32
-2.20154
0
3DFACE
8
layer1
62
1
10
4.02960
20
-0.73092
30
-2.20154
11
4.02960
21
-0.97248
31
-2.20154
12
4.02960
22
2.80455
32
-2.20154
0
3DFACE
8
layer1
62
1
10
4.02960
20
-0.19844
30
-2.20154
11
4.02960
21
-0.73092
31
-2.20154
12
4.02960
22
2.80455
32
-2.20154
0
3DFACE
8
layer1
62
1
10
4.02960
20
0.16697
30
-2.20154
11
4.02960
21
-0.19844
31
-2.20154
12
4.02960
22
2.80455
32
-2.20154
0
3DFACE
8
layer1
62
1
10
4.02960
20
0.69945
30
-2.20154
11
4.02960
21
0.16697
31
-2.20154
12
4.02960
22
2.80455
32
-2.20154
0
3DFACE
8
layer1
62
1
10
4.02960
20
1.06486
30
-2.20154
11
4.02960
21
0.69945
31
-2.20154
12
4.02960
22
2.80455
32
-2.20154
0
3DFACE
8
layer1
62
1
10
4.02960
20
1.59733
30
-2.20154
11
4.02960
21
1.06486
31
-2.20154
12
4.02960
22
2.80455
32
-2.20154
0
3DFACE
8
layer1
62
1
10
4.02960
20
1.80794
30
-2.20154
11
4.02960
21
1.59733
31
-2.20154
12
4.02960
22
2.80455
32
-2.20154
0
3DFACE
8
layer1
62
1
10
4.02960
20
2.46426
30
-2.20154
11
4.02960
21
1.80794
31
-2.20154
12
4.02960
22
2.80455
32
-2.20154
0
3DFACE
8
layer1
62
1
10
4.02960
20
2.46426
30
-2.20154
11
2.85999
21
1.80794
31
-2.20154
12
4.02960
22
1.80794
32
-2.20154
0
3DFACE
8
layer1
62
1
10
2.85999
20
1.93792
30
-2.20154
11
2.85999
21
1.80794
31
-2.20154
12
4.02960
22
2.46426
32
-2.20154
0
3DFACE
8
layer1
62
1
10
2.85306
20
2.46426
30
-2.20154
11
2.85999
21
1.93792
31
-2.20154
12
4.02960
22
2.46426
32
-2.20154
0
3DFACE
8
layer1
62
1
10
2.85306
20
1.93792
30
-2.20154
11
2.85999
21
1.93792
31
-2.20154
12
2.85306
22
2.46426
32
-2.20154
0
3DFACE
8
layer1
62
1
10
2.02353
20
-1.65638
30
-2.20154
11
2.36460
21
0.40265
31
-2.20154
12
2.36460
22
1.28159
32
-2.20154
0
3DFACE
8
layer1
62
1
10
2.33364
20
1.93792
30
-2.20154
11
2.02353
21
-1.65638
31
-2.20154
12
2.36460
22
1.28159
32
-2.20154
0
3DFACE
8
layer1
62
1
10
2.85306
20
1.93792
30
-2.20154
11
2.33364
21
1.93792
31
-2.20154
12
2.36460
22
1.28159
32
-2.20154
0
3DFACE
8
layer1
62
1
10
2.85306
20
1.80794
30
-2.20154
11
2.85306
21
1.93792
31
-2.20154
12
2.36460
22
1.28159
32
-2.20154
0
3DFACE
8
layer1
62
1
10
2.85999
20
1.80794
30
-2.20154
11
2.85306
21
1.80794
31
-2.20154
12
2.36460
22
1.28159
32
-2.20154
0
3DFACE
8
layer1
62
1
10
2.85999
20
1.28159
30
-2.20154
11
2.85999
21
1.80794
31
-2.20154
12
2.36460
22
1.28159
32
-2.20154
0
3DFACE
8
layer1
62
1
10
1.75738
20
3.79562
30
-2.20154
11
1.67651
21
1.28159
31
-2.20154
12
1.67651
22
0.30977
32
-2.20154
0
3DFACE
8
layer1
62
1
10
1.64555
20
3.48120
30
-2.20154
11
1.67651
21
1.28159
31
-2.20154
12
1.75738
22
3.79562
32
-2.20154
0
3DFACE
8
layer1
62
1
10
1.58074
20
3.77597
30
-2.20154
11
1.64555
21
3.48120
31
-2.20154
12
1.75738
22
3.79562
32
-2.20154
0
3DFACE
8
layer1
62
1
10
1.52482
20
3.61876
30
-2.20154
11
1.64555
21
3.48120
31
-2.20154
12
1.58074
22
3.77597
32
-2.20154
0
3DFACE
8
layer1
62
1
10
1.50322
20
3.71701
30
-2.20154
11
1.52482
21
3.61876
31
-2.20154
12
1.58074
22
3.77597
32
-2.20154
0
3DFACE
8
layer1
62
1
10
1.64555
20
1.93792
30
-2.20154
11
1.67651
21
1.28159
31
-2.20154
12
1.64555
22
3.48120
32
-2.20154
0
3DFACE
8
layer1
62
1
10
1.21902
20
1.28159
30
-2.20154
11
1.67651
21
1.28159
31
-2.20154
12
1.64555
22
1.93792
32
-2.20154
0
3DFACE
8
layer1
62
1
10
0.53093
20
1.93792
30
-2.20154
11
1.21902
21
1.28159
31
-2.20154
12
1.64555
22
1.93792
32
-2.20154
0
3DFACE
8
layer1
62
1
10
1.05207
20
-2.96233
30
-2.20154
11
1.21902
21
1.28159
31
-2.20154
12
0.53093
22
1.93792
32
-2.20154
0
3DFACE
8
layer1
62
1
10
0.80887
20
-2.77955
30
-2.20154
11
1.05207
21
-2.96233
31
-2.20154
12
0.53093
22
1.93792
32
-2.20154
0
3DFACE
8
layer1
62
1
10
2.02353
20
-1.65638
30
-2.20154
11
2.33364
21
3.79562
31
-2.20154
12
1.75738
22
3.79562
32
-2.20154
0
3DFACE
8
layer1
62
1
10
1.76326
20
-0.74059
30
-2.20154
11
2.02353
21
-1.65638
31
-2.20154
12
1.75738
22
3.79562
32
-2.20154
0
3DFACE
8
layer1
62
1
10
1.67651
20
0.30977
30
-2.20154
11
1.76326
21
-0.74059
31
-2.20154
12
1.75738
22
3.79562
32
-2.20154
0
3DFACE
8
layer1
62
1
10
2.45732
20
-2.43761
30
-2.20154
11
2.50219
21
-0.97329
31
-2.20154
12
2.39900
22
-0.32206
32
-2.20154
0
3DFACE
8
layer1
62
1
10
2.02353
20
-1.65638
30
-2.20154
11
2.45732
21
-2.43761
31
-2.20154
12
2.39900
22
-0.32206
32
-2.20154
0
3DFACE
8
layer1
62
1
10
2.36460
20
0.40265
30
-2.20154
11
2.02353
21
-1.65638
31
-2.20154
12
2.39900
22
-0.32206
32
-2.20154
0
3DFACE
8
layer1
62
1
10
0.65623
20
-2.47493
30
-2.20154
11
0.80887
21
-2.77955
31
-2.20154
12
0.53093
22
1.93792
32
-2.20154
0
3DFACE
8
layer1
62
1
10
0.59416
20
-2.04846
30
-2.20154
11
0.65623
21
-2.47493
31
-2.20154
12
0.53093
22
1.93792
32
-2.20154
0
3DFACE
8
layer1
62
1
10
1.31174
20
-2.00507
30
-2.20154
11
1.21902
21
1.28159
31
-2.20154
12
1.05207
22
-2.96233
32
-2.20154
0
3DFACE
8
layer1
62
1
10
1.33377
20
-2.16287
30
-2.20154
11
1.31174
21
-2.00507
31
-2.20154
12
1.05207
22
-2.96233
32
-2.20154
0
3DFACE
8
layer1
62
1
10
1.37411
20
-2.27559
30
-2.20154
11
1.33377
21
-2.16287
31
-2.20154
12
1.05207
22
-2.96233
32
-2.20154
0
3DFACE
8
layer1
62
1
10
1.38584
20
-3.02325
30
-2.20154
11
1.37411
21
-2.27559
31
-2.20154
12
1.05207
22
-2.96233
32
-2.20154
0
3DFACE
8
layer1
62
1
10
1.50969
20
-2.36577
30
-2.20154
11
2.11216
21
-3.02325
31
-2.20154
12
2.14787
22
-2.36577
32
-2.20154
0
3DFACE
8
layer1
62
1
10
1.38584
20
-3.02325
30
-2.20154
11
2.11216
21
-3.02325
31
-2.20154
12
1.50969
22
-2.36577
32
-2.20154
0
3DFACE
8
layer1
62
1
10
1.43275
20
-2.34322
30
-2.20154
11
1.38584
21
-3.02325
31
-2.20154
12
1.50969
22
-2.36577
32
-2.20154
0
3DFACE
8
layer1
62
1
10
1.37411
20
-2.27559
30
-2.20154
11
1.38584
21
-3.02325
31
-2.20154
12
1.43275
22
-2.34322
32
-2.20154
0
3DFACE
8
layer1
62
1
10
3.60307
20
0.69945
30
-2.20154
11
3.60307
21
0.16697
31
-2.20154
12
4.02960
22
0.69945
32
-2.20154
0
3DFACE
8
layer1
62
1
10
2.91498
20
-0.73092
30
-2.20154
11
3.60307
21
0.16697
31
-2.20154
12
3.60307
22
0.69945
32
-2.20154
0
3DFACE
8
layer1
62
1
10
3.60307
20
1.06486
30
-2.20154
11
2.91498
21
-0.73092
31
-2.20154
12
3.60307
22
0.69945
32
-2.20154
0
3DFACE
8
layer1
62
1
10
2.91498
20
1.59733
30
-2.20154
11
2.91498
21
-0.73092
31
-2.20154
12
3.60307
22
1.06486
32
-2.20154
0
3DFACE
8
layer1
62
1
10
4.02960
20
1.59733
30
-2.20154
11
2.91498
21
1.59733
31
-2.20154
12
3.60307
22
1.06486
32
-2.20154
0
3DFACE
8
layer1
62
1
10
3.60307
20
-0.19844
30
-2.20154
11
3.60307
21
0.16697
31
-2.20154
12
2.91498
22
-0.73092
32
-2.20154
0
3DFACE
8
layer1
62
1
10
4.02960
20
-0.19844
30
-2.20154
11
3.60307
21
-0.19844
31
-2.20154
12
2.91498
22
-0.73092
32
-2.20154
0
3DFACE
8
layer1
62
1
10
4.02960
20
-0.73092
30
-2.20154
11
4.02960
21
-0.19844
31
-2.20154
12
2.91498
22
-0.73092
32
-2.20154
0
3DFACE
8
layer1
62
1
10
5.79503
20
-2.82905
30
-2.20154
11
5.92520
21
-2.06631
31
-2.20154
12
4.71769
22
-1.94094
32
-2.20154
0
3DFACE
8
layer1
62
1
10
5.68056
20
-2.88575
30
-2.20154
11
5.79503
21
-2.82905
31
-2.20154
12
4.71769
22
-1.94094
32
-2.20154
0
3DFACE
8
layer1
62
1
10
5.49409
20
-2.76383
30
-2.20154
11
5.68056
21
-2.88575
31
-2.20154
12
4.71769
22
-1.94094
32
-2.20154
0
3DFACE
8
layer1
62
1
10
3.16961
20
-2.30997
30
-2.20154
11
5.49409
21
-2.76383
31
-2.20154
12
4.71769
22
-1.94094
32
-2.20154
0
3DFACE
8
layer1
62
1
10
4.71769
20
-1.62880
30
-2.20154
11
3.16961
21
-2.30997
31
-2.20154
12
4.71769
22
-1.94094
32
-2.20154
0
3DFACE
8
layer1
62
1
10
5.59224
20
-2.89379
30
-2.20154
11
5.68056
21
-2.88575
31
-2.20154
12
5.49409
22
-2.76383
32
-2.20154
0
3DFACE
8
layer1
62
1
10
5.53009
20
-2.85315
30
-2.20154
11
5.59224
21
-2.89379
31
-2.20154
12
5.49409
22
-2.76383
32
-2.20154
0
3DFACE
8
layer1
62
1
10
6.07308
20
1.62707
30
-2.20154
11
6.16596
21
1.92790
31
-2.20154
12
6.03244
22
1.89266
32
-2.20154
0
3DFACE
8
layer1
62
1
10
5.98600
20
1.74224
30
-2.20154
11
6.07308
21
1.62707
31
-2.20154
12
6.03244
22
1.89266
32
-2.20154
0
3DFACE
8
layer1
62
1
10
5.97245
20
1.83077
30
-2.20154
11
5.98600
21
1.74224
31
-2.20154
12
6.03244
22
1.89266
32
-2.20154
0
3DFACE
8
layer1
62
1
10
7.27568
20
-0.29746
30
-2.20154
11
7.31714
21
1.04100
31
-2.20154
12
6.97474
22
1.87038
32
-2.20154
0
3DFACE
8
layer1
62
1
10
7.12855
20
-0.12936
30
-2.20154
11
7.27568
21
-0.29746
31
-2.20154
12
6.97474
22
1.87038
32
-2.20154
0
3DFACE
8
layer1
62
1
10
7.00923
20
0.06084
30
-2.20154
11
7.12855
21
-0.12936
31
-2.20154
12
6.97474
22
1.87038
32
-2.20154
0
3DFACE
8
layer1
62
1
10
6.91773
20
0.27314
30
-2.20154
11
7.00923
21
0.06084
31
-2.20154
12
6.97474
22
1.87038
32
-2.20154
0
3DFACE
8
layer1
62
1
10
6.72475
20
2.83014
30
-2.20154
11
6.91773
21
0.27314
31
-2.20154
12
6.97474
22
1.87038
32
-2.20154
0
3DFACE
8
layer1
62
1
10
7.75194
20
0.34198
30
-2.20154
11
7.31714
21
1.04100
31
-2.20154
12
7.27568
22
-0.29746
32
-2.20154
0
3DFACE
8
layer1
62
1
10
6.85406
20
-3.20788
30
-2.20154
11
6.85406
21
0.50755
31
-2.20154
12
6.07308
22
-3.20788
32
-2.20154
0
3DFACE
8
layer1
62
1
10
6.07308
20
1.62707
30
-2.20154
11
6.07308
21
-3.20788
31
-2.20154
12
6.16596
22
1.92790
32
-2.20154
0
3DFACE
8
layer1
62
1
10
3.54115
20
-2.56614
30
-2.20154
11
3.16961
21
-2.30997
31
-2.20154
12
3.06461
22
-3.08426
32
-2.20154
0
3DFACE
8
layer1
62
1
10
4.71769
20
-0.73092
30
-2.20154
11
4.02960
21
-1.86957
31
-2.20154
12
4.71769
22
-0.97248
32
-2.20154
0
3DFACE
8
layer1
62
1
10
4.71769
20
1.06486
30
-2.20154
11
4.02960
21
-1.86957
31
-2.20154
12
4.71769
22
0.69945
32
-2.20154
0
3DFACE
8
layer1
62
1
10
4.71769
20
2.73680
30
-2.20154
11
4.02960
21
-1.86957
31
-2.20154
12
4.71769
22
2.46426
32
-2.20154
0
3DFACE
8
layer1
62
1
10
4.02960
20
1.06486
30
-2.20154
11
4.02960
21
1.59733
31
-2.20154
12
3.60307
22
1.06486
32
-2.20154
0
3DFACE
8
layer1
62
1
10
4.02960
20
0.16697
30
-2.20154
11
4.02960
21
0.69945
31
-2.20154
12
3.60307
22
0.16697
32
-2.20154
0
3DFACE
8
layer1
62
1
10
2.33364
20
3.79562
30
-2.20154
11
2.02353
21
-1.65638
31
-2.20154
12
2.33364
22
1.93792
32
-2.20154
0
3DFACE
8
layer1
62
1
10
5.80135
20
3.32708
30
-2.20154
11
5.23743
21
3.35931
31
-2.20154
12
5.69607
22
2.64391
32
-2.20154
0
3DFACE
8
layer1
62
1
10
5.92520
20
1.80794
30
-2.20154
11
5.92520
21
2.46426
31
-2.20154
12
4.71769
22
1.80794
32
-2.20154
0
3DFACE
8
layer1
62
1
10
5.77039
20
-0.73092
30
-2.20154
11
5.77039
21
1.59733
31
-2.20154
12
5.16317
22
-0.73092
32
-2.20154
0
3DFACE
8
layer1
62
1
10
5.73943
20
-1.62880
30
-2.20154
11
5.73943
21
-0.97248
31
-2.20154
12
4.71769
22
-1.62880
32
-2.20154
0
3DFACE
8
layer1
62
1
10
2.50219
20
-0.97329
30
1.03332
11
2.67419
21
-1.55105
31
1.03332
12
2.45732
22
-2.43761
32
1.03332
0
3DFACE
8
layer1
62
1
10
2.45732
20
-2.43761
30
1.03332
11
2.67419
21
-1.55105
31
1.03332
12
2.91498
22
-2.05533
32
1.03332
0
3DFACE
8
layer1
62
1
10
2.45732
20
-2.43761
30
1.03332
11
2.91498
21
-2.05533
31
1.03332
12
3.06461
22
-3.08426
32
1.03332
0
3DFACE
8
layer1
62
1
10
3.06461
20
-3.08426
30
1.03332
11
2.91498
21
-2.05533
31
1.03332
12
2.91498
22
-1.71475
32
1.03332
0
3DFACE
8
layer1
62
1
10
3.06461
20
-3.08426
30
1.03332
11
2.91498
21
-1.71475
31
1.03332
12
3.16961
22
-2.30997
32
1.03332
0
3DFACE
8
layer1
62
1
10
3.16961
20
-2.30997
30
1.03332
11
2.91498
21
-1.71475
31
1.03332
12
4.02960
22
-1.86957
32
1.03332
0
3DFACE
8
layer1
62
1
10
3.16961
20
-2.30997
30
1.03332
11
4.02960
21
-1.86957
31
1.03332
12
4.71769
22
-1.62880
32
1.03332
0
3DFACE
8
layer1
62
1
10
4.71769
20
-1.62880
30
1.03332
11
4.02960
21
-1.86957
31
1.03332
12
4.71769
22
-0.97248
32
1.03332
0
3DFACE
8
layer1
62
1
10
4.71769
20
-1.62880
30
1.03332
11
4.71769
21
-0.97248
31
1.03332
12
5.73943
22
-0.97248
32
1.03332
0
3DFACE
8
layer1
62
1
10
4.71769
20
1.59733
30
1.03332
11
5.77039
21
1.59733
31
1.03332
12
5.08230
22
1.06486
32
1.03332
0
3DFACE
8
layer1
62
1
10
5.08230
20
1.06486
30
1.03332
11
5.77039
21
1.59733
31
1.03332
12
5.16317
22
-0.73092
32
1.03332
0
3DFACE
8
layer1
62
1
10
5.08230
20
1.06486
30
1.03332
11
5.16317
21
-0.73092
31
1.03332
12
5.08230
22
-0.19844
32
1.03332
0
3DFACE
8
layer1
62
1
10
5.08230
20
-0.19844
30
1.03332
11
5.16317
21
-0.73092
31
1.03332
12
4.71769
22
-0.73092
32
1.03332
0
3DFACE
8
layer1
62
1
10
5.08230
20
-0.19844
30
1.03332
11
4.71769
21
-0.73092
31
1.03332
12
4.71769
22
-0.19844
32
1.03332
0
3DFACE
8
layer1
62
1
10
4.71769
20
-0.19844
30
1.03332
11
4.71769
21
-0.73092
31
1.03332
12
4.02960
22
-1.86957
32
1.03332
0
3DFACE
8
layer1
62
1
10
4.71769
20
-0.19844
30
1.03332
11
4.02960
21
-1.86957
31
1.03332
12
4.71769
22
0.16697
32
1.03332
0
3DFACE
8
layer1
62
1
10
4.71769
20
0.16697
30
1.03332
11
4.02960
21
-1.86957
31
1.03332
12
4.71769
22
0.69945
32
1.03332
0
3DFACE
8
layer1
62
1
10
4.71769
20
0.16697
30
1.03332
11
4.71769
21
0.69945
31
1.03332
12
5.08230
22
0.69945
32
1.03332
0
3DFACE
8
layer1
62
1
10
5.08230
20
0.16697
30
1.03332
11
4.71769
21
0.16697
31
1.03332
12
5.08230
22
0.69945
32
1.03332
0
3DFACE
8
layer1
62
1
10
5.08230
20
0.16697
30
1.03332
11
5.08230
21
0.69945
31
1.03332
12
5.08230
22
1.06486
32
1.03332
0
3DFACE
8
layer1
62
1
10
5.08230
20
0.16697
30
1.03332
11
5.08230
21
1.06486
31
1.03332
12
5.08230
22
-0.19844
32
1.03332
0
3DFACE
8
layer1
62
1
10
5.08230
20
1.06486
30
1.03332
11
4.71769
21
1.06486
31
1.03332
12
4.71769
22
1.59733
32
1.03332
0
3DFACE
8
layer1
62
1
10
4.71769
20
1.59733
30
1.03332
11
4.71769
21
1.06486
31
1.03332
12
4.02960
22
-1.86957
32
1.03332
0
3DFACE
8
layer1
62
1
10
4.71769
20
1.59733
30
1.03332
11
4.02960
21
-1.86957
31
1.03332
12
4.71769
22
1.80794
32
1.03332
0
3DFACE
8
layer1
62
1
10
4.71769
20
1.80794
30
1.03332
11
4.02960
21
-1.86957
31
1.03332
12
4.71769
22
2.46426
32
1.03332
0
3DFACE
8
layer1
62
1
10
4.71769
20
1.80794
30
1.03332
11
4.71769
21
2.46426
31
1.03332
12
5.92520
22
2.46426
32
1.03332
0
3DFACE
8
layer1
62
1
10
4.92907
20
2.70801
30
1.03332
11
4.71769
21
2.73680
31
1.03332
12
4.63505
22
3.42247
32
1.03332
0
3DFACE
8
layer1
62
1
10
4.63505
20
3.42247
30
1.03332
11
4.71769
21
2.73680
31
1.03332
12
4.02960
22
-1.86957
32
1.03332
0
3DFACE
8
layer1
62
1
10
4.63505
20
3.42247
30
1.03332
11
4.02960
21
-1.86957
31
1.03332
12
4.02960
22
2.80455
32
1.03332
0
3DFACE
8
layer1
62
1
10
4.02960
20
2.80455
30
1.03332
11
4.02960
21
-1.86957
31
1.03332
12
4.02960
22
-1.62880
32
1.03332
0
3DFACE
8
layer1
62
1
10
4.02960
20
2.80455
30
1.03332
11
4.02960
21
-1.62880
31
1.03332
12
4.02960
22
-0.97248
32
1.03332
0
3DFACE
8
layer1
62
1
10
4.02960
20
-0.97248
30
1.03332
11
4.02960
21
-1.62880
31
1.03332
12
2.94593
22
-1.62880
32
1.03332
0
3DFACE
8
layer1
62
1
10
4.02960
20
-0.97248
30
1.03332
11
2.94593
21
-1.62880
31
1.03332
12
2.94593
22
-0.97248
32
1.03332
0
3DFACE
8
layer1
62
1
10
5.69607
20
2.64391
30
1.03332
11
5.41826
21
2.66156
31
1.03332
12
5.23743
22
3.35931
32
1.03332
0
3DFACE
8
layer1
62
1
10
5.23743
20
3.35931
30
1.03332
11
5.41826
21
2.66156
31
1.03332
12
5.16259
22
2.68293
32
1.03332
0
3DFACE
8
layer1
62
1
10
5.23743
20
3.35931
30
1.03332
11
5.16259
21
2.68293
31
1.03332
12
4.63505
22
3.42247
32
1.03332
0
3DFACE
8
layer1
62
1
10
4.63505
20
3.42247
30
1.03332
11
5.16259
21
2.68293
31
1.03332
12
4.92907
22
2.70801
32
1.03332
0
3DFACE
8
layer1
62
1
10
5.70660
20
3.58598
30
1.03332
11
5.71529
21
3.67406
31
1.03332
12
5.74689
22
3.52405
32
1.03332
0
3DFACE
8
layer1
62
1
10
5.74689
20
3.52405
30
1.03332
11
5.71529
21
3.67406
31
1.03332
12
5.77296
22
3.78830
32
1.03332
0
3DFACE
8
layer1
62
1
10
5.74689
20
3.52405
30
1.03332
11
5.77296
21
3.78830
31
1.03332
12
5.83615
22
3.48827
32
1.03332
0
3DFACE
8
layer1
62
1
10
5.83615
20
3.48827
30
1.03332
11
5.77296
21
3.78830
31
1.03332
12
6.16596
22
1.92790
32
1.03332
0
3DFACE
8
layer1
62
1
10
5.83615
20
3.48827
30
1.03332
11
6.16596
21
1.92790
31
1.03332
12
6.08773
22
2.20314
32
1.03332
0
3DFACE
8
layer1
62
1
10
5.83615
20
3.48827
30
1.03332
11
6.08773
21
2.20314
31
1.03332
12
6.00669
22
2.55496
32
1.03332
0
3DFACE
8
layer1
62
1
10
5.83615
20
3.48827
30
1.03332
11
6.00669
21
2.55496
31
1.03332
12
5.92283
22
2.98333
32
1.03332
0
3DFACE
8
layer1
62
1
10
6.91773
20
0.27314
30
1.03332
11
6.85406
21
0.50755
31
1.03332
12
6.72475
22
2.83014
32
1.03332
0
3DFACE
8
layer1
62
1
10
6.72475
20
2.83014
30
1.03332
11
6.85406
21
0.50755
31
1.03332
12
6.07308
22
-3.20788
32
1.03332
0
3DFACE
8
layer1
62
1
10
6.72475
20
2.83014
30
1.03332
11
6.07308
21
-3.20788
31
1.03332
12
6.56716
22
3.92028
32
1.03332
0
3DFACE
8
layer1
62
1
10
6.56716
20
3.92028
30
1.03332
11
6.07308
21
-3.20788
31
1.03332
12
6.16596
22
1.92790
32
1.03332
0
3DFACE
8
layer1
62
1
10
6.56716
20
3.92028
30
1.03332
11
6.16596
21
1.92790
31
1.03332
12
5.77296
22
3.78830
32
1.03332
0
3DFACE
8
layer1
62
1
10
3.51725
20
2.86335
30
1.03332
11
3.34593
21
2.89160
31
1.03332
12
3.31486
22
3.64162
32
1.03332
0
3DFACE
8
layer1
62
1
10
3.31486
20
3.64162
30
1.03332
11
3.34593
21
2.89160
31
1.03332
12
3.21564
22
2.86699
32
1.03332
0
3DFACE
8
layer1
62
1
10
3.31486
20
3.64162
30
1.03332
11
3.21564
21
2.86699
31
1.03332
12
3.10385
22
3.05513
32
1.03332
0
3DFACE
8
layer1
62
1
10
3.10385
20
3.05513
30
1.03332
11
3.21564
21
2.86699
31
1.03332
12
3.13186
22
2.88604
32
1.03332
0
3DFACE
8
layer1
62
1
10
3.10385
20
3.05513
30
1.03332
11
3.13186
21
2.88604
31
1.03332
12
3.09459
22
2.94875
32
1.03332
0
3DFACE
8
layer1
62
1
10
4.63505
20
3.42247
30
1.03332
11
4.02960
21
2.80455
31
1.03332
12
3.99419
22
3.51658
32
1.03332
0
3DFACE
8
layer1
62
1
10
3.99419
20
3.51658
30
1.03332
11
4.02960
21
2.80455
31
1.03332
12
3.85908
22
2.81983
32
1.03332
0
3DFACE
8
layer1
62
1
10
3.99419
20
3.51658
30
1.03332
11
3.85908
21
2.81983
31
1.03332
12
3.31486
22
3.64162
32
1.03332
0
3DFACE
8
layer1
62
1
10
3.31486
20
3.64162
30
1.03332
11
3.85908
21
2.81983
31
1.03332
12
3.68830
22
2.83943
32
1.03332
0
3DFACE
8
layer1
62
1
10
3.31486
20
3.64162
30
1.03332
11
3.68830
21
2.83943
31
1.03332
12
3.51725
22
2.86335
32
1.03332
0
3DFACE
8
layer1
62
1
10
4.02960
20
2.80455
30
1.03332
11
4.02960
21
-0.97248
31
1.03332
12
4.02960
22
-0.73092
32
1.03332
0
3DFACE
8
layer1
62
1
10
4.02960
20
2.80455
30
1.03332
11
4.02960
21
-0.73092
31
1.03332
12
4.02960
22
-0.19844
32
1.03332
0
3DFACE
8
layer1
62
1
10
4.02960
20
2.80455
30
1.03332
11
4.02960
21
-0.19844
31
1.03332
12
4.02960
22
0.16697
32
1.03332
0
3DFACE
8
layer1
62
1
10
4.02960
20
2.80455
30
1.03332
11
4.02960
21
0.16697
31
1.03332
12
4.02960
22
0.69945
32
1.03332
0
3DFACE
8
layer1
62
1
10
4.02960
20
2.80455
30
1.03332
11
4.02960
21
0.69945
31
1.03332
12
4.02960
22
1.06486
32
1.03332
0
3DFACE
8
layer1
62
1
10
4.02960
20
2.80455
30
1.03332
11
4.02960
21
1.06486
31
1.03332
12
4.02960
22
1.59733
32
1.03332
0
3DFACE
8
layer1
62
1
10
4.02960
20
2.80455
30
1.03332
11
4.02960
21
1.59733
31
1.03332
12
4.02960
22
1.80794
32
1.03332
0
3DFACE
8
layer1
62
1
10
4.02960
20
2.80455
30
1.03332
11
4.02960
21
1.80794
31
1.03332
12
4.02960
22
2.46426
32
1.03332
0
3DFACE
8
layer1
62
1
10
4.02960
20
1.80794
30
1.03332
11
2.85999
21
1.80794
31
1.03332
12
4.02960
22
2.46426
32
1.03332
0
3DFACE
8
layer1
62
1
10
4.02960
20
2.46426
30
1.03332
11
2.85999
21
1.80794
31
1.03332
12
2.85999
22
1.93792
32
1.03332
0
3DFACE
8
layer1
62
1
10
4.02960
20
2.46426
30
1.03332
11
2.85999
21
1.93792
31
1.03332
12
2.85306
22
2.46426
32
1.03332
0
3DFACE
8
layer1
62
1
10
2.85306
20
2.46426
30
1.03332
11
2.85999
21
1.93792
31
1.03332
12
2.85306
22
1.93792
32
1.03332
0
3DFACE
8
layer1
62
1
10
2.36460
20
1.28159
30
1.03332
11
2.36460
21
0.40265
31
1.03332
12
2.02353
22
-1.65638
32
1.03332
0
3DFACE
8
layer1
62
1
10
2.36460
20
1.28159
30
1.03332
11
2.02353
21
-1.65638
31
1.03332
12
2.33364
22
1.93792
32
1.03332
0
3DFACE
8
layer1
62
1
10
2.36460
20
1.28159
30
1.03332
11
2.33364
21
1.93792
31
1.03332
12
2.85306
22
1.93792
32
1.03332
0
3DFACE
8
layer1
62
1
10
2.36460
20
1.28159
30
1.03332
11
2.85306
21
1.93792
31
1.03332
12
2.85306
22
1.80794
32
1.03332
0
3DFACE
8
layer1
62
1
10
2.36460
20
1.28159
30
1.03332
11
2.85306
21
1.80794
31
1.03332
12
2.85999
22
1.80794
32
1.03332
0
3DFACE
8
layer1
62
1
10
2.36460
20
1.28159
30
1.03332
11
2.85999
21
1.80794
31
1.03332
12
2.85999
22
1.28159
32
1.03332
0
3DFACE
8
layer1
62
1
10
1.67651
20
0.30977
30
1.03332
11
1.67651
21
1.28159
31
1.03332
12
1.75738
22
3.79562
32
1.03332
0
3DFACE
8
layer1
62
1
10
1.75738
20
3.79562
30
1.03332
11
1.67651
21
1.28159
31
1.03332
12
1.64555
22
3.48120
32
1.03332
0
3DFACE
8
layer1
62
1
10
1.75738
20
3.79562
30
1.03332
11
1.64555
21
3.48120
31
1.03332
12
1.58074
22
3.77597
32
1.03332
0
3DFACE
8
layer1
62
1
10
1.58074
20
3.77597
30
1.03332
11
1.64555
21
3.48120
31
1.03332
12
1.52482
22
3.61876
32
1.03332
0
3DFACE
8
layer1
62
1
10
1.58074
20
3.77597
30
1.03332
11
1.52482
21
3.61876
31
1.03332
12
1.50322
22
3.71701
32
1.03332
0
3DFACE
8
layer1
62
1
10
1.64555
20
3.48120
30
1.03332
11
1.67651
21
1.28159
31
1.03332
12
1.64555
22
1.93792
32
1.03332
0
3DFACE
8
layer1
62
1
10
1.64555
20
1.93792
30
1.03332
11
1.67651
21
1.28159
31
1.03332
12
1.21902
22
1.28159
32
1.03332
0
3DFACE
8
layer1
62
1
10
1.64555
20
1.93792
30
1.03332
11
1.21902
21
1.28159
31
1.03332
12
0.53093
22
1.93792
32
1.03332
0
3DFACE
8
layer1
62
1
10
0.53093
20
1.93792
30
1.03332
11
1.21902
21
1.28159
31
1.03332
12
1.05207
22
-2.96233
32
1.03332
0
3DFACE
8
layer1
62
1
10
0.53093
20
1.93792
30
1.03332
11
1.05207
21
-2.96233
31
1.03332
12
0.80887
22
-2.77955
32
1.03332
0
3DFACE
8
layer1
62
1
10
1.75738
20
3.79562
30
1.03332
11
2.33364
21
3.79562
31
1.03332
12
2.02353
22
-1.65638
32
1.03332
0
3DFACE
8
layer1
62
1
10
1.75738
20
3.79562
30
1.03332
11
2.02353
21
-1.65638
31
1.03332
12
1.76326
22
-0.74059
32
1.03332
0
3DFACE
8
layer1
62
1
10
1.75738
20
3.79562
30
1.03332
11
1.76326
21
-0.74059
31
1.03332
12
1.67651
22
0.30977
32
1.03332
0
3DFACE
8
layer1
62
1
10
2.39900
20
-0.32206
30
1.03332
11
2.50219
21
-0.97329
31
1.03332
12
2.45732
22
-2.43761
32
1.03332
0
3DFACE
8
layer1
62
1
10
2.39900
20
-0.32206
30
1.03332
11
2.45732
21
-2.43761
31
1.03332
12
2.02353
22
-1.65638
32
1.03332
0
3DFACE
8
layer1
62
1
10
2.39900
20
-0.32206
30
1.03332
11
2.02353
21
-1.65638
31
1.03332
12
2.36460
22
0.40265
32
1.03332
0
3DFACE
8
layer1
62
1
10
0.53093
20
1.93792
30
1.03332
11
0.80887
21
-2.77955
31
1.03332
12
0.65623
22
-2.47493
32
1.03332
0
3DFACE
8
layer1
62
1
10
0.53093
20
1.93792
30
1.03332
11
0.65623
21
-2.47493
31
1.03332
12
0.59416
22
-2.04846
32
1.03332
0
3DFACE
8
layer1
62
1
10
1.05207
20
-2.96233
30
1.03332
11
1.21902
21
1.28159
31
1.03332
12
1.31174
22
-2.00507
32
1.03332
0
3DFACE
8
layer1
62
1
10
1.05207
20
-2.96233
30
1.03332
11
1.31174
21
-2.00507
31
1.03332
12
1.33377
22
-2.16287
32
1.03332
0
3DFACE
8
layer1
62
1
10
1.05207
20
-2.96233
30
1.03332
11
1.33377
21
-2.16287
31
1.03332
12
1.37411
22
-2.27559
32
1.03332
0
3DFACE
8
layer1
62
1
10
1.05207
20
-2.96233
30
1.03332
11
1.37411
21
-2.27559
31
1.03332
12
1.38584
22
-3.02325
32
1.03332
0
3DFACE
8
layer1
62
1
10
2.14787
20
-2.36577
30
1.03332
11
2.11216
21
-3.02325
31
1.03332
12
1.50969
22
-2.36577
32
1.03332
0
3DFACE
8
layer1
62
1
10
1.50969
20
-2.36577
30
1.03332
11
2.11216
21
-3.02325
31
1.03332
12
1.38584
22
-3.02325
32
1.03332
0
3DFACE
8
layer1
62
1
10
1.50969
20
-2.36577
30
1.03332
11
1.38584
21
-3.02325
31
1.03332
12
1.43275
22
-2.34322
32
1.03332
0
3DFACE
8
layer1
62
1
10
1.43275
20
-2.34322
30
1.03332
11
1.38584
21
-3.02325
31
1.03332
12
1.37411
22
-2.27559
32
1.03332
0
3DFACE
8
layer1
62
1
10
4.02960
20
0.69945
30
1.03332
11
3.60307
21
0.16697
31
1.03332
12
3.60307
22
0.69945
32
1.03332
0
3DFACE
8
layer1
62
1
10
3.60307
20
0.69945
30
1.03332
11
3.60307
21
0.16697
31
1.03332
12
2.91498
22
-0.73092
32
1.03332
0
3DFACE
8
layer1
62
1
10
3.60307
20
0.69945
30
1.03332
11
2.91498
21
-0.73092
31
1.03332
12
3.60307
22
1.06486
32
1.03332
0
3DFACE
8
layer1
62
1
10
3.60307
20
1.06486
30
1.03332
11
2.91498
21
-0.73092
31
1.03332
12
2.91498
22
1.59733
32
1.03332
0
3DFACE
8
layer1
62
1
10
3.60307
20
1.06486
30
1.03332
11
2.91498
21
1.59733
31
1.03332
12
4.02960
22
1.59733
32
1.03332
0
3DFACE
8
layer1
62
1
10
2.91498
20
-0.73092
30
1.03332
11
3.60307
21
0.16697
31
1.03332
12
3.60307
22
-0.19844
32
1.03332
0
3DFACE
8
layer1
62
1
10
2.91498
20
-0.73092
30
1.03332
11
3.60307
21
-0.19844
31
1.03332
12
4.02960
22
-0.19844
32
1.03332
0
3DFACE
8
layer1
62
1
10
2.91498
20
-0.73092
30
1.03332
11
4.02960
21
-0.19844
31
1.03332
12
4.02960
22
-0.73092
32
1.03332
0
3DFACE
8
layer1
62
1
10
4.71769
20
-1.94094
30
1.03332
11
5.92520
21
-2.06631
31
1.03332
12
5.79503
22
-2.82905
32
1.03332
0
3DFACE
8
layer1
62
1
10
4.71769
20
-1.94094
30
1.03332
11
5.79503
21
-2.82905
31
1.03332
12
5.68056
22
-2.88575
32
1.03332
0
3DFACE
8
layer1
62
1
10
4.71769
20
-1.94094
30
1.03332
11
5.68056
21
-2.88575
31
1.03332
12
5.49409
22
-2.76383
32
1.03332
0
3DFACE
8
layer1
62
1
10
4.71769
20
-1.94094
30
1.03332
11
5.49409
21
-2.76383
31
1.03332
12
3.16961
22
-2.30997
32
1.03332
0
3DFACE
8
layer1
62
1
10
4.71769
20
-1.94094
30
1.03332
11
3.16961
21
-2.30997
31
1.03332
12
4.71769
22
-1.62880
32
1.03332
0
3DFACE
8
layer1
62
1
10
5.49409
20
-2.76383
30
1.03332
11
5.68056
21
-2.88575
31
1.03332
12
5.59224
22
-2.89379
32
1.03332
0
3DFACE
8
layer1
62
1
10
5.49409
20
-2.76383
30
1.03332
11
5.59224
21
-2.89379
31
1.03332
12
5.53009
22
-2.85315
32
1.03332
0
3DFACE
8
layer1
62
1
10
6.03244
20
1.89266
30
1.03332
11
6.16596
21
1.92790
31
1.03332
12
6.07308
22
1.62707
32
1.03332
0
3DFACE
8
layer1
62
1
10
6.03244
20
1.89266
30
1.03332
11
6.07308
21
1.62707
31
1.03332
12
5.98600
22
1.74224
32
1.03332
0
3DFACE
8
layer1
62
1
10
6.03244
20
1.89266
30
1.03332
11
5.98600
21
1.74224
31
1.03332
12
5.97245
22
1.83077
32
1.03332
0
3DFACE
8
layer1
62
1
10
6.97474
20
1.87038
30
1.03332
11
7.31714
21
1.04100
31
1.03332
12
7.27568
22
-0.29746
32
1.03332
0
3DFACE
8
layer1
62
1
10
6.97474
20
1.87038
30
1.03332
11
7.27568
21
-0.29746
31
1.03332
12
7.12855
22
-0.12936
32
1.03332
0
3DFACE
8
layer1
62
1
10
6.97474
20
1.87038
30
1.03332
11
7.12855
21
-0.12936
31
1.03332
12
7.00923
22
0.06084
32
1.03332
0
3DFACE
8
layer1
62
1
10
6.97474
20
1.87038
30
1.03332
11
7.00923
21
0.06084
31
1.03332
12
6.91773
22
0.27314
32
1.03332
0
3DFACE
8
layer1
62
1
10
6.97474
20
1.87038
30
1.03332
11
6.91773
21
0.27314
31
1.03332
12
6.72475
22
2.83014
32
1.03332
0
3DFACE
8
layer1
62
1
10
7.27568
20
-0.29746
30
1.03332
11
7.31714
21
1.04100
31
1.03332
12
7.75194
22
0.34198
32
1.03332
0
3DFACE
8
layer1
62
1
10
6.07308
20
-3.20788
30
1.03332
11
6.85406
21
0.50755
31
1.03332
12
6.85406
22
-3.20788
32
1.03332
0
3DFACE
8
layer1
62
1
10
6.16596
20
1.92790
30
1.03332
11
6.07308
21
-3.20788
31
1.03332
12
6.07308
22
1.62707
32
1.03332
0
3DFACE
8
layer1
62
1
10
3.06461
20
-3.08426
30
1.03332
11
3.16961
21
-2.30997
31
1.03332
12
3.54115
22
-2.56614
32
1.03332
0
3DFACE
8
layer1
62
1
10
4.71769
20
-0.97248
30
1.03332
11
4.02960
21
-1.86957
31
1.03332
12
4.71769
22
-0.73092
32
1.03332
0
3DFACE
8
layer1
62
1
10
4.71769
20
0.69945
30
1.03332
11
4.02960
21
-1.86957
31
1.03332
12
4.71769
22
1.06486
32
1.03332
0
3DFACE
8
layer1
62
1
10
4.71769
20
2.46426
30
1.03332
11
4.02960
21
-1.86957
31
1.03332
12
4.71769
22
2.73680
32
1.03332
0
3DFACE
8
layer1
62
1
10
3.60307
20
1.06486
30
1.03332
11
4.02960
21
1.59733
31
1.03332
12
4.02960
22
1.06486
32
1.03332
0
3DFACE
8
layer1
62
1
10
3.60307
20
0.16697
30
1.03332
11
4.02960
21
0.69945
31
1.03332
12
4.02960
22
0.16697
32
1.03332
0
3DFACE
8
layer1
62
1
10
2.33364
20
1.93792
30
1.03332
11
2.02353
21
-1.65638
31
1.03332
12
2.33364
22
3.79562
32
1.03332
0
3DFACE
8
layer1
62
1
10
5.69607
20
2.64391
30
1.03332
11
5.23743
21
3.35931
31
1.03332
12
5.80135
22
3.32708
32
1.03332
0
3DFACE
8
layer1
62
1
10
4.71769
20
1.80794
30
1.03332
11
5.92520
21
2.46426
31
1.03332
12
5.92520
22
1.80794
32
1.03332
0
3DFACE
8
layer1
62
1
10
5.16317
20
-0.73092
30
1.03332
11
5.77039
21
1.59733
31
1.03332
12
5.77039
22
-0.73092
32
1.03332
0
3DFACE
8
layer1
62
1
10
4.71769
20
-1.62880
30
1.03332
11
5.73943
21
-0.97248
31
1.03332
12
5.73943
22
-1.62880
32
1.03332
0
3DFACE
8
layer1
62
1
10
3.06461
20
-3.08426
30
1.03332
11
3.54115
21
-2.56614
31
1.03332
12
3.54115
22
-2.56614
32
-2.20154
13
3.06461
23
-3.08426
33
-2.20154
0
3DFACE
8
layer1
62
1
10
2.45732
20
-2.43761
30
1.03332
11
3.06461
21
-3.08426
31
1.03332
12
3.06461
22
-3.08426
32
-2.20154
13
2.45732
23
-2.43761
33
-2.20154
0
3DFACE
8
layer1
62
1
10
2.02353
20
-1.65638
30
1.03332
11
2.45732
21
-2.43761
31
1.03332
12
2.45732
22
-2.43761
32
-2.20154
13
2.02353
23
-1.65638
33
-2.20154
0
3DFACE
8
layer1
62
1
10
1.76326
20
-0.74059
30
1.03332
11
2.02353
21
-1.65638
31
1.03332
12
2.02353
22
-1.65638
32
-2.20154
13
1.76326
23
-0.74059
33
-2.20154
0
3DFACE
8
layer1
62
1
10
1.67651
20
0.30977
30
1.03332
11
1.76326
21
-0.74059
31
1.03332
12
1.76326
22
-0.74059
32
-2.20154
13
1.67651
23
0.30977
33
-2.20154
0
3DFACE
8
layer1
62
1
10
1.67651
20
1.28159
30
1.03332
11
1.67651
21
0.30977
31
1.03332
12
1.67651
22
0.30977
32
-2.20154
13
1.67651
23
1.28159
33
-2.20154
0
3DFACE
8
layer1
62
1
10
1.21902
20
1.28159
30
1.03332
11
1.67651
21
1.28159
31
1.03332
12
1.67651
22
1.28159
32
-2.20154
13
1.21902
23
1.28159
33
-2.20154
0
3DFACE
8
layer1
62
1
10
1.31174
20
-2.00507
30
1.03332
11
1.21902
21
1.28159
31
1.03332
12
1.21902
22
1.28159
32
-2.20154
13
1.31174
23
-2.00507
33
-2.20154
0
3DFACE
8
layer1
62
1
10
1.33377
20
-2.16287
30
1.03332
11
1.31174
21
-2.00507
31
1.03332
12
1.31174
22
-2.00507
32
-2.20154
13
1.33377
23
-2.16287
33
-2.20154
0
3DFACE
8
layer1
62
1
10
1.37411
20
-2.27559
30
1.03332
11
1.33377
21
-2.16287
31
1.03332
12
1.33377
22
-2.16287
32
-2.20154
13
1.37411
23
-2.27559
33
-2.20154
0
3DFACE
8
layer1
62
1
10
1.43275
20
-2.34322
30
1.03332
11
1.37411
21
-2.27559
31
1.03332
12
1.37411
22
-2.27559
32
-2.20154
13
1.43275
23
-2.34322
33
-2.20154
0
3DFACE
8
layer1
62
1
10
1.50969
20
-2.36577
30
1.03332
11
1.43275
21
-2.34322
31
1.03332
12
1.43275
22
-2.34322
32
-2.20154
13
1.50969
23
-2.36577
33
-2.20154
0
3DFACE
8
layer1
62
1
10
2.14787
20
-2.36577
30
1.03332
11
1.50969
21
-2.36577
31
1.03332
12
1.50969
22
-2.36577
32
-2.20154
13
2.14787
23
-2.36577
33
-2.20154
0
3DFACE
8
layer1
62
1
10
2.11216
20
-3.02325
30
1.03332
11
2.14787
21
-2.36577
31
1.03332
12
2.14787
22
-2.36577
32
-2.20154
13
2.11216
23
-3.02325
33
-2.20154
0
3DFACE
8
layer1
62
1
10
1.38584
20
-3.02325
30
1.03332
11
2.11216
21
-3.02325
31
1.03332
12
2.11216
22
-3.02325
32
-2.20154
13
1.38584
23
-3.02325
33
-2.20154
0
3DFACE
8
layer1
62
1
10
1.05207
20
-2.96233
30
1.03332
11
1.38584
21
-3.02325
31
1.03332
12
1.38584
22
-3.02325
32
-2.20154
13
1.05207
23
-2.96233
33
-2.20154
0
3DFACE
8
layer1
62
1
10
0.80887
20
-2.77955
30
1.03332
11
1.05207
21
-2.96233
31
1.03332
12
1.05207
22
-2.96233
32
-2.20154
13
0.80887
23
-2.77955
33
-2.20154
0
3DFACE
8
layer1
62
1
10
0.65623
20
-2.47493
30
1.03332
11
0.80887
21
-2.77955
31
1.03332
12
0.80887
22
-2.77955
32
-2.20154
13
0.65623
23
-2.47493
33
-2.20154
0
3DFACE
8
layer1
62
1
10
0.59416
20
-2.04846
30
1.03332
11
0.65623
21
-2.47493
31
1.03332
12
0.65623
22
-2.47493
32
-2.20154
13
0.59416
23
-2.04846
33
-2.20154
0
3DFACE
8
layer1
62
1
10
0.53093
20
1.93792
30
1.03332
11
0.59416
21
-2.04846
31
1.03332
12
0.59416
22
-2.04846
32
-2.20154
13
0.53093
23
1.93792
33
-2.20154
0
3DFACE
8
layer1
62
1
10
1.64555
20
1.93792
30
1.03332
11
0.53093
21
1.93792
31
1.03332
12
0.53093
22
1.93792
32
-2.20154
13
1.64555
23
1.93792
33
-2.20154
0
3DFACE
8
layer1
62
1
10
1.64555
20
3.48120
30
1.03332
11
1.64555
21
1.93792
31
1.03332
12
1.64555
22
1.93792
32
-2.20154
13
1.64555
23
3.48120
33
-2.20154
0
3DFACE
8
layer1
62
1
10
1.52482
20
3.61876
30
1.03332
11
1.64555
21
3.48120
31
1.03332
12
1.64555
22
3.48120
32
-2.20154
13
1.52482
23
3.61876
33
-2.20154
0
3DFACE
8
layer1
62
1
10
1.50322
20
3.71701
30
1.03332
11
1.52482
21
3.61876
31
1.03332
12
1.52482
22
3.61876
32
-2.20154
13
1.50322
23
3.71701
33
-2.20154
0
3DFACE
8
layer1
62
1
10
1.58074
20
3.77597
30
1.03332
11
1.50322
21
3.71701
31
1.03332
12
1.50322
22
3.71701
32
-2.20154
13
1.58074
23
3.77597
33
-2.20154
0
3DFACE
8
layer1
62
1
10
1.75738
20
3.79562
30
1.03332
11
1.58074
21
3.77597
31
1.03332
12
1.58074
22
3.77597
32
-2.20154
13
1.75738
23
3.79562
33
-2.20154
0
3DFACE
8
layer1
62
1
10
2.33364
20
3.79562
30
1.03332
11
1.75738
21
3.79562
31
1.03332
12
1.75738
22
3.79562
32
-2.20154
13
2.33364
23
3.79562
33
-2.20154
0
3DFACE
8
layer1
62
1
10
2.33364
20
1.93792
30
1.03332
11
2.33364
21
3.79562
31
1.03332
12
2.33364
22
3.79562
32
-2.20154
13
2.33364
23
1.93792
33
-2.20154
0
3DFACE
8
layer1
62
1
10
2.85999
20
1.93792
30
1.03332
11
2.33364
21
1.93792
31
1.03332
12
2.33364
22
1.93792
32
-2.20154
13
2.85999
23
1.93792
33
-2.20154
0
3DFACE
8
layer1
62
1
10
2.85999
20
1.28159
30
1.03332
11
2.85999
21
1.93792
31
1.03332
12
2.85999
22
1.93792
32
-2.20154
13
2.85999
23
1.28159
33
-2.20154
0
3DFACE
8
layer1
62
1
10
2.36460
20
1.28159
30
1.03332
11
2.85999
21
1.28159
31
1.03332
12
2.85999
22
1.28159
32
-2.20154
13
2.36460
23
1.28159
33
-2.20154
0
3DFACE
8
layer1
62
1
10
2.36460
20
0.40265
30
1.03332
11
2.36460
21
1.28159
31
1.03332
12
2.36460
22
1.28159
32
-2.20154
13
2.36460
23
0.40265
33
-2.20154
0
3DFACE
8
layer1
62
1
10
2.39900
20
-0.32206
30
1.03332
11
2.36460
21
0.40265
31
1.03332
12
2.36460
22
0.40265
32
-2.20154
13
2.39900
23
-0.32206
33
-2.20154
0
3DFACE
8
layer1
62
1
10
2.50219
20
-0.97329
30
1.03332
11
2.39900
21
-0.32206
31
1.03332
12
2.39900
22
-0.32206
32
-2.20154
13
2.50219
23
-0.97329
33
-2.20154
0
3DFACE
8
layer1
62
1
10
2.67419
20
-1.55105
30
1.03332
11
2.50219
21
-0.97329
31
1.03332
12
2.50219
22
-0.97329
32
-2.20154
13
2.67419
23
-1.55105
33
-2.20154
0
3DFACE
8
layer1
62
1
10
2.91498
20
-2.05533
30
1.03332
11
2.67419
21
-1.55105
31
1.03332
12
2.67419
22
-1.55105
32
-2.20154
13
2.91498
23
-2.05533
33
-2.20154
0
3DFACE
8
layer1
62
1
10
2.91498
20
-1.71475
30
1.03332
11
2.91498
21
-2.05533
31
1.03332
12
2.91498
22
-2.05533
32
-2.20154
13
2.91498
23
-1.71475
33
-2.20154
0
3DFACE
8
layer1
62
1
10
4.02960
20
-1.86957
30
1.03332
11
2.91498
21
-1.71475
31
1.03332
12
2.91498
22
-1.71475
32
-2.20154
13
4.02960
23
-1.86957
33
-2.20154
0
3DFACE
8
layer1
62
1
10
4.02960
20
-1.62880
30
1.03332
11
4.02960
21
-1.86957
31
1.03332
12
4.02960
22
-1.86957
32
-2.20154
13
4.02960
23
-1.62880
33
-2.20154
0
3DFACE
8
layer1
62
1
10
2.94593
20
-1.62880
30
1.03332
11
4.02960
21
-1.62880
31
1.03332
12
4.02960
22
-1.62880
32
-2.20154
13
2.94593
23
-1.62880
33
-2.20154
0
3DFACE
8
layer1
62
1
10
2.94593
20
-0.97248
30
1.03332
11
2.94593
21
-1.62880
31
1.03332
12
2.94593
22
-1.62880
32
-2.20154
13
2.94593
23
-0.97248
33
-2.20154
0
3DFACE
8
layer1
62
1
10
4.02960
20
-0.97248
30
1.03332
11
2.94593
21
-0.97248
31
1.03332
12
2.94593
22
-0.97248
32
-2.20154
13
4.02960
23
-0.97248
33
-2.20154
0
3DFACE
8
layer1
62
1
10
4.02960
20
-0.73092
30
1.03332
11
4.02960
21
-0.97248
31
1.03332
12
4.02960
22
-0.97248
32
-2.20154
13
4.02960
23
-0.73092
33
-2.20154
0
3DFACE
8
layer1
62
1
10
2.91498
20
-0.73092
30
1.03332
11
4.02960
21
-0.73092
31
1.03332
12
4.02960
22
-0.73092
32
-2.20154
13
2.91498
23
-0.73092
33
-2.20154
0
3DFACE
8
layer1
62
1
10
2.91498
20
1.59733
30
1.03332
11
2.91498
21
-0.73092
31
1.03332
12
2.91498
22
-0.73092
32
-2.20154
13
2.91498
23
1.59733
33
-2.20154
0
3DFACE
8
layer1
62
1
10
4.02960
20
1.59733
30
1.03332
11
2.91498
21
1.59733
31
1.03332
12
2.91498
22
1.59733
32
-2.20154
13
4.02960
23
1.59733
33
-2.20154
0
3DFACE
8
layer1
62
1
10
4.02960
20
1.80794
30
1.03332
11
4.02960
21
1.59733
31
1.03332
12
4.02960
22
1.59733
32
-2.20154
13
4.02960
23
1.80794
33
-2.20154
0
3DFACE
8
layer1
62
1
10
2.85306
20
1.80794
30
1.03332
11
4.02960
21
1.80794
31
1.03332
12
4.02960
22
1.80794
32
-2.20154
13
2.85306
23
1.80794
33
-2.20154
0
3DFACE
8
layer1
62
1
10
2.85306
20
2.46426
30
1.03332
11
2.85306
21
1.80794
31
1.03332
12
2.85306
22
1.80794
32
-2.20154
13
2.85306
23
2.46426
33
-2.20154
0
3DFACE
8
layer1
62
1
10
4.02960
20
2.46426
30
1.03332
11
2.85306
21
2.46426
31
1.03332
12
2.85306
22
2.46426
32
-2.20154
13
4.02960
23
2.46426
33
-2.20154
0
3DFACE
8
layer1
62
1
10
4.02960
20
2.80455
30
1.03332
11
4.02960
21
2.46426
31
1.03332
12
4.02960
22
2.46426
32
-2.20154
13
4.02960
23
2.80455
33
-2.20154
0
3DFACE
8
layer1
62
1
10
3.85908
20
2.81983
30
1.03332
11
4.02960
21
2.80455
31
1.03332
12
4.02960
22
2.80455
32
-2.20154
13
3.85908
23
2.81983
33
-2.20154
0
3DFACE
8
layer1
62
1
10
3.68830
20
2.83943
30
1.03332
11
3.85908
21
2.81983
31
1.03332
12
3.85908
22
2.81983
32
-2.20154
13
3.68830
23
2.83943
33
-2.20154
0
3DFACE
8
layer1
62
1
10
3.51725
20
2.86335
30
1.03332
11
3.68830
21
2.83943
31
1.03332
12
3.68830
22
2.83943
32
-2.20154
13
3.51725
23
2.86335
33
-2.20154
0
3DFACE
8
layer1
62
1
10
3.34593
20
2.89160
30
1.03332
11
3.51725
21
2.86335
31
1.03332
12
3.51725
22
2.86335
32
-2.20154
13
3.34593
23
2.89160
33
-2.20154
0
3DFACE
8
layer1
62
1
10
3.21564
20
2.86699
30
1.03332
11
3.34593
21
2.89160
31
1.03332
12
3.34593
22
2.89160
32
-2.20154
13
3.21564
23
2.86699
33
-2.20154
0
3DFACE
8
layer1
62
1
10
3.13186
20
2.88604
30
1.03332
11
3.21564
21
2.86699
31
1.03332
12
3.21564
22
2.86699
32
-2.20154
13
3.13186
23
2.88604
33
-2.20154
0
3DFACE
8
layer1
62
1
10
3.09459
20
2.94875
30
1.03332
11
3.13186
21
2.88604
31
1.03332
12
3.13186
22
2.88604
32
-2.20154
13
3.09459
23
2.94875
33
-2.20154
0
3DFACE
8
layer1
62
1
10
3.10385
20
3.05513
30
1.03332
11
3.09459
21
2.94875
31
1.03332
12
3.09459
22
2.94875
32
-2.20154
13
3.10385
23
3.05513
33
-2.20154
0
3DFACE
8
layer1
62
1
10
3.31486
20
3.64162
30
1.03332
11
3.10385
21
3.05513
31
1.03332
12
3.10385
22
3.05513
32
-2.20154
13
3.31486
23
3.64162
33
-2.20154
0
3DFACE
8
layer1
62
1
10
3.99419
20
3.51658
30
1.03332
11
3.31486
21
3.64162
31
1.03332
12
3.31486
22
3.64162
32
-2.20154
13
3.99419
23
3.51658
33
-2.20154
0
3DFACE
8
layer1
62
1
10
4.63505
20
3.42247
30
1.03332
11
3.99419
21
3.51658
31
1.03332
12
3.99419
22
3.51658
32
-2.20154
13
4.63505
23
3.42247
33
-2.20154
0
3DFACE
8
layer1
62
1
10
5.23743
20
3.35931
30
1.03332
11
4.63505
21
3.42247
31
1.03332
12
4.63505
22
3.42247
32
-2.20154
13
5.23743
23
3.35931
33
-2.20154
0
3DFACE
8
layer1
62
1
10
5.80135
20
3.32708
30
1.03332
11
5.23743
21
3.35931
31
1.03332
12
5.23743
22
3.35931
32
-2.20154
13
5.80135
23
3.32708
33
-2.20154
0
3DFACE
8
layer1
62
1
10
5.69607
20
2.64391
30
1.03332
11
5.80135
21
3.32708
31
1.03332
12
5.80135
22
3.32708
32
-2.20154
13
5.69607
23
2.64391
33
-2.20154
0
3DFACE
8
layer1
62
1
10
5.41826
20
2.66156
30
1.03332
11
5.69607
21
2.64391
31
1.03332
12
5.69607
22
2.64391
32
-2.20154
13
5.41826
23
2.66156
33
-2.20154
0
3DFACE
8
layer1
62
1
10
5.16259
20
2.68293
30
1.03332
11
5.41826
21
2.66156
31
1.03332
12
5.41826
22
2.66156
32
-2.20154
13
5.16259
23
2.68293
33
-2.20154
0
3DFACE
8
layer1
62
1
10
4.92907
20
2.70801
30
1.03332
11
5.16259
21
2.68293
31
1.03332
12
5.16259
22
2.68293
32
-2.20154
13
4.92907
23
2.70801
33
-2.20154
0
3DFACE
8
layer1
62
1
10
4.71769
20
2.73680
30
1.03332
11
4.92907
21
2.70801
31
1.03332
12
4.92907
22
2.70801
32
-2.20154
13
4.71769
23
2.73680
33
-2.20154
0
3DFACE
8
layer1
62
1
10
4.71769
20
2.46426
30
1.03332
11
4.71769
21
2.73680
31
1.03332
12
4.71769
22
2.73680
32
-2.20154
13
4.71769
23
2.46426
33
-2.20154
0
3DFACE
8
layer1
62
1
10
5.92520
20
2.46426
30
1.03332
11
4.71769
21
2.46426
31
1.03332
12
4.71769
22
2.46426
32
-2.20154
13
5.92520
23
2.46426
33
-2.20154
0
3DFACE
8
layer1
62
1
10
5.92520
20
1.80794
30
1.03332
11
5.92520
21
2.46426
31
1.03332
12
5.92520
22
2.46426
32
-2.20154
13
5.92520
23
1.80794
33
-2.20154
0
3DFACE
8
layer1
62
1
10
4.71769
20
1.80794
30
1.03332
11
5.92520
21
1.80794
31
1.03332
12
5.92520
22
1.80794
32
-2.20154
13
4.71769
23
1.80794
33
-2.20154
0
3DFACE
8
layer1
62
1
10
4.71769
20
1.59733
30
1.03332
11
4.71769
21
1.80794
31
1.03332
12
4.71769
22
1.80794
32
-2.20154
13
4.71769
23
1.59733
33
-2.20154
0
3DFACE
8
layer1
62
1
10
5.77039
20
1.59733
30
1.03332
11
4.71769
21
1.59733
31
1.03332
12
4.71769
22
1.59733
32
-2.20154
13
5.77039
23
1.59733
33
-2.20154
0
3DFACE
8
layer1
62
1
10
5.77039
20
-0.73092
30
1.03332
11
5.77039
21
1.59733
31
1.03332
12
5.77039
22
1.59733
32
-2.20154
13
5.77039
23
-0.73092
33
-2.20154
0
3DFACE
8
layer1
62
1
10
5.16317
20
-0.73092
30
1.03332
11
5.77039
21
-0.73092
31
1.03332
12
5.77039
22
-0.73092
32
-2.20154
13
5.16317
23
-0.73092
33
-2.20154
0
3DFACE
8
layer1
62
1
10
4.71769
20
-0.73092
30
1.03332
11
5.16317
21
-0.73092
31
1.03332
12
5.16317
22
-0.73092
32
-2.20154
13
4.71769
23
-0.73092
33
-2.20154
0
3DFACE
8
layer1
62
1
10
4.71769
20
-0.97248
30
1.03332
11
4.71769
21
-0.73092
31
1.03332
12
4.71769
22
-0.73092
32
-2.20154
13
4.71769
23
-0.97248
33
-2.20154
0
3DFACE
8
layer1
62
1
10
5.73943
20
-0.97248
30
1.03332
11
4.71769
21
-0.97248
31
1.03332
12
4.71769
22
-0.97248
32
-2.20154
13
5.73943
23
-0.97248
33
-2.20154
0
3DFACE
8
layer1
62
1
10
5.73943
20
-1.62880
30
1.03332
11
5.73943
21
-0.97248
31
1.03332
12
5.73943
22
-0.97248
32
-2.20154
13
5.73943
23
-1.62880
33
-2.20154
0
3DFACE
8
layer1
62
1
10
4.71769
20
-1.62880
30
1.03332
11
5.73943
21
-1.62880
31
1.03332
12
5.73943
22
-1.62880
32
-2.20154
13
4.71769
23
-1.62880
33
-2.20154
0
3DFACE
8
layer1
62
1
10
4.71769
20
-1.94094
30
1.03332
11
4.71769
21
-1.62880
31
1.03332
12
4.71769
22
-1.62880
32
-2.20154
13
4.71769
23
-1.94094
33
-2.20154
0
3DFACE
8
layer1
62
1
10
5.92520
20
-2.06631
30
1.03332
11
4.71769
21
-1.94094
31
1.03332
12
4.71769
22
-1.94094
32
-2.20154
13
5.92520
23
-2.06631
33
-2.20154
0
3DFACE
8
layer1
62
1
10
5.79503
20
-2.82905
30
1.03332
11
5.92520
21
-2.06631
31
1.03332
12
5.92520
22
-2.06631
32
-2.20154
13
5.79503
23
-2.82905
33
-2.20154
0
3DFACE
8
layer1
62
1
10
5.68056
20
-2.88575
30
1.03332
11
5.79503
21
-2.82905
31
1.03332
12
5.79503
22
-2.82905
32
-2.20154
13
5.68056
23
-2.88575
33
-2.20154
0
3DFACE
8
layer1
62
1
10
5.59224
20
-2.89379
30
1.03332
11
5.68056
21
-2.88575
31
1.03332
12
5.68056
22
-2.88575
32
-2.20154
13
5.59224
23
-2.89379
33
-2.20154
0
3DFACE
8
layer1
62
1
10
5.53009
20
-2.85315
30
1.03332
11
5.59224
21
-2.89379
31
1.03332
12
5.59224
22
-2.89379
32
-2.20154
13
5.53009
23
-2.85315
33
-2.20154
0
3DFACE
8
layer1
62
1
10
5.49409
20
-2.76383
30
1.03332
11
5.53009
21
-2.85315
31
1.03332
12
5.53009
22
-2.85315
32
-2.20154
13
5.49409
23
-2.76383
33
-2.20154
0
3DFACE
8
layer1
62
1
10
3.16961
20
-2.30997
30
1.03332
11
5.49409
21
-2.76383
31
1.03332
12
5.49409
22
-2.76383
32
-2.20154
13
3.16961
23
-2.30997
33
-2.20154
0
3DFACE
8
layer1
62
1
10
3.54115
20
-2.56614
30
1.03332
11
3.16961
21
-2.30997
31
1.03332
12
3.16961
22
-2.30997
32
-2.20154
13
3.54115
23
-2.56614
33
-2.20154
0
3DFACE
8
layer1
62
1
10
5.70660
20
3.58598
30
1.03332
11
5.74689
21
3.52405
31
1.03332
12
5.74689
22
3.52405
32
-2.20154
13
5.70660
23
3.58598
33
-2.20154
0
3DFACE
8
layer1
62
1
10
5.71529
20
3.67406
30
1.03332
11
5.70660
21
3.58598
31
1.03332
12
5.70660
22
3.58598
32
-2.20154
13
5.71529
23
3.67406
33
-2.20154
0
3DFACE
8
layer1
62
1
10
5.77296
20
3.78830
30
1.03332
11
5.71529
21
3.67406
31
1.03332
12
5.71529
22
3.67406
32
-2.20154
13
5.77296
23
3.78830
33
-2.20154
0
3DFACE
8
layer1
62
1
10
6.56716
20
3.92028
30
1.03332
11
5.77296
21
3.78830
31
1.03332
12
5.77296
22
3.78830
32
-2.20154
13
6.56716
23
3.92028
33
-2.20154
0
3DFACE
8
layer1
62
1
10
6.72475
20
2.83014
30
1.03332
11
6.56716
21
3.92028
31
1.03332
12
6.56716
22
3.92028
32
-2.20154
13
6.72475
23
2.83014
33
-2.20154
0
3DFACE
8
layer1
62
1
10
6.97474
20
1.87038
30
1.03332
11
6.72475
21
2.83014
31
1.03332
12
6.72475
22
2.83014
32
-2.20154
13
6.97474
23
1.87038
33
-2.20154
0
3DFACE
8
layer1
62
1
10
7.31714
20
1.04100
30
1.03332
11
6.97474
21
1.87038
31
1.03332
12
6.97474
22
1.87038
32
-2.20154
13
7.31714
23
1.04100
33
-2.20154
0
3DFACE
8
layer1
62
1
10
7.75194
20
0.34198
30
1.03332
11
7.31714
21
1.04100
31
1.03332
12
7.31714
22
1.04100
32
-2.20154
13
7.75194
23
0.34198
33
-2.20154
0
3DFACE
8
layer1
62
1
10
7.27568
20
-0.29746
30
1.03332
11
7.75194
21
0.34198
31
1.03332
12
7.75194
22
0.34198
32
-2.20154
13
7.27568
23
-0.29746
33
-2.20154
0
3DFACE
8
layer1
62
1
10
7.12855
20
-0.12936
30
1.03332
11
7.27568
21
-0.29746
31
1.03332
12
7.27568
22
-0.29746
32
-2.20154
13
7.12855
23
-0.12936
33
-2.20154
0
3DFACE
8
layer1
62
1
10
7.00923
20
0.06084
30
1.03332
11
7.12855
21
-0.12936
31
1.03332
12
7.12855
22
-0.12936
32
-2.20154
13
7.00923
23
0.06084
33
-2.20154
0
3DFACE
8
layer1
62
1
10
6.91773
20
0.27314
30
1.03332
11
7.00923
21
0.06084
31
1.03332
12
7.00923
22
0.06084
32
-2.20154
13
6.91773
23
0.27314
33
-2.20154
0
3DFACE
8
layer1
62
1
10
6.85406
20
0.50755
30
1.03332
11
6.91773
21
0.27314
31
1.03332
12
6.91773
22
0.27314
32
-2.20154
13
6.85406
23
0.50755
33
-2.20154
0
3DFACE
8
layer1
62
1
10
6.85406
20
-3.20788
30
1.03332
11
6.85406
21
0.50755
31
1.03332
12
6.85406
22
0.50755
32
-2.20154
13
6.85406
23
-3.20788
33
-2.20154
0
3DFACE
8
layer1
62
1
10
6.07308
20
-3.20788
30
1.03332
11
6.85406
21
-3.20788
31
1.03332
12
6.85406
22
-3.20788
32
-2.20154
13
6.07308
23
-3.20788
33
-2.20154
0
3DFACE
8
layer1
62
1
10
6.07308
20
1.62707
30
1.03332
11
6.07308
21
-3.20788
31
1.03332
12
6.07308
22
-3.20788
32
-2.20154
13
6.07308
23
1.62707
33
-2.20154
0
3DFACE
8
layer1
62
1
10
5.98600
20
1.74224
30
1.03332
11
6.07308
21
1.62707
31
1.03332
12
6.07308
22
1.62707
32
-2.20154
13
5.98600
23
1.74224
33
-2.20154
0
3DFACE
8
layer1
62
1
10
5.97245
20
1.83077
30
1.03332
11
5.98600
21
1.74224
31
1.03332
12
5.98600
22
1.74224
32
-2.20154
13
5.97245
23
1.83077
33
-2.20154
0
3DFACE
8
layer1
62
1
10
6.03244
20
1.89266
30
1.03332
11
5.97245
21
1.83077
31
1.03332
12
5.97245
22
1.83077
32
-2.20154
13
6.03244
23
1.89266
33
-2.20154
0
3DFACE
8
layer1
62
1
10
6.16596
20
1.92790
30
1.03332
11
6.03244
21
1.89266
31
1.03332
12
6.03244
22
1.89266
32
-2.20154
13
6.16596
23
1.92790
33
-2.20154
0
3DFACE
8
layer1
62
1
10
6.08773
20
2.20314
30
1.03332
11
6.16596
21
1.92790
31
1.03332
12
6.16596
22
1.92790
32
-2.20154
13
6.08773
23
2.20314
33
-2.20154
0
3DFACE
8
layer1
62
1
10
6.00669
20
2.55496
30
1.03332
11
6.08773
21
2.20314
31
1.03332
12
6.08773
22
2.20314
32
-2.20154
13
6.00669
23
2.55496
33
-2.20154
0
3DFACE
8
layer1
62
1
10
5.92283
20
2.98333
30
1.03332
11
6.00669
21
2.55496
31
1.03332
12
6.00669
22
2.55496
32
-2.20154
13
5.92283
23
2.98333
33
-2.20154
0
3DFACE
8
layer1
62
1
10
5.83615
20
3.48827
30
1.03332
11
5.92283
21
2.98333
31
1.03332
12
5.92283
22
2.98333
32
-2.20154
13
5.83615
23
3.48827
33
-2.20154
0
3DFACE
8
layer1
62
1
10
5.74689
20
3.52405
30
1.03332
11
5.83615
21
3.48827
31
1.03332
12
5.83615
22
3.48827
32
-2.20154
13
5.74689
23
3.52405
33
-2.20154
0
3DFACE
8
layer1
62
1
10
3.60307
20
1.06486
30
1.03332
11
4.02960
21
1.06486
31
1.03332
12
4.02960
22
1.06486
32
-2.20154
13
3.60307
23
1.06486
33
-2.20154
0
3DFACE
8
layer1
62
1
10
3.60307
20
0.69945
30
1.03332
11
3.60307
21
1.06486
31
1.03332
12
3.60307
22
1.06486
32
-2.20154
13
3.60307
23
0.69945
33
-2.20154
0
3DFACE
8
layer1
62
1
10
4.02960
20
0.69945
30
1.03332
11
3.60307
21
0.69945
31
1.03332
12
3.60307
22
0.69945
32
-2.20154
13
4.02960
23
0.69945
33
-2.20154
0
3DFACE
8
layer1
62
1
10
4.02960
20
1.06486
30
1.03332
11
4.02960
21
0.69945
31
1.03332
12
4.02960
22
0.69945
32
-2.20154
13
4.02960
23
1.06486
33
-2.20154
0
3DFACE
8
layer1
62
1
10
3.60307
20
0.16697
30
1.03332
11
4.02960
21
0.16697
31
1.03332
12
4.02960
22
0.16697
32
-2.20154
13
3.60307
23
0.16697
33
-2.20154
0
3DFACE
8
layer1
62
1
10
3.60307
20
-0.19844
30
1.03332
11
3.60307
21
0.16697
31
1.03332
12
3.60307
22
0.16697
32
-2.20154
13
3.60307
23
-0.19844
33
-2.20154
0
3DFACE
8
layer1
62
1
10
4.02960
20
-0.19844
30
1.03332
11
3.60307
21
-0.19844
31
1.03332
12
3.60307
22
-0.19844
32
-2.20154
13
4.02960
23
-0.19844
33
-2.20154
0
3DFACE
8
layer1
62
1
10
4.02960
20
0.16697
30
1.03332
11
4.02960
21
-0.19844
31
1.03332
12
4.02960
22
-0.19844
32
-2.20154
13
4.02960
23
0.16697
33
-2.20154
0
3DFACE
8
layer1
62
1
10
4.71769
20
0.16697
30
1.03332
11
5.08230
21
0.16697
31
1.03332
12
5.08230
22
0.16697
32
-2.20154
13
4.71769
23
0.16697
33
-2.20154
0
3DFACE
8
layer1
62
1
10
4.71769
20
-0.19844
30
1.03332
11
4.71769
21
0.16697
31
1.03332
12
4.71769
22
0.16697
32
-2.20154
13
4.71769
23
-0.19844
33
-2.20154
0
3DFACE
8
layer1
62
1
10
5.08230
20
-0.19844
30
1.03332
11
4.71769
21
-0.19844
31
1.03332
12
4.71769
22
-0.19844
32
-2.20154
13
5.08230
23
-0.19844
33
-2.20154
0
3DFACE
8
layer1
62
1
10
5.08230
20
0.16697
30
1.03332
11
5.08230
21
-0.19844
31
1.03332
12
5.08230
22
-0.19844
32
-2.20154
13
5.08230
23
0.16697
33
-2.20154
0
3DFACE
8
layer1
62
1
10
4.71769
20
0.69945
30
1.03332
11
4.71769
21
1.06486
31
1.03332
12
4.71769
22
1.06486
32
-2.20154
13
4.71769
23
0.69945
33
-2.20154
0
3DFACE
8
layer1
62
1
10
5.08230
20
0.69945
30
1.03332
11
4.71769
21
0.69945
31
1.03332
12
4.71769
22
0.69945
32
-2.20154
13
5.08230
23
0.69945
33
-2.20154
0
3DFACE
8
layer1
62
1
10
5.08230
20
1.06486
30
1.03332
11
5.08230
21
0.69945
31
1.03332
12
5.08230
22
0.69945
32
-2.20154
13
5.08230
23
1.06486
33
-2.20154
0
3DFACE
8
layer1
62
1
10
4.71769
20
1.06486
30
1.03332
11
5.08230
21
1.06486
31
1.03332
12
5.08230
22
1.06486
32
-2.20154
13
4.71769
23
1.06486
33
-2.20154
0
3DFACE
8
layer1
62
1
10
-4.68739
20
-2.48031
30
-2.20154
11
-4.60872
21
3.73370
31
-2.20154
12
-5.38970
22
3.73370
32
-2.20154
0
3DFACE
8
layer1
62
1
10
-4.60872
20
2.03080
30
-2.20154
11
-4.60872
21
3.73370
31
-2.20154
12
-4.68739
22
-2.48031
32
-2.20154
0
3DFACE
8
layer1
62
1
10
-4.60872
20
1.28159
30
-2.20154
11
-4.60872
21
2.03080
31
-2.20154
12
-4.68739
22
-2.48031
32
-2.20154
0
3DFACE
8
layer1
62
1
10
-2.44140
20
2.03080
30
-2.20154
11
-4.60872
21
2.03080
31
-2.20154
12
-4.60872
22
1.28159
32
-2.20154
0
3DFACE
8
layer1
62
1
10
-2.44140
20
1.28159
30
-2.20154
11
-2.44140
21
2.03080
31
-2.20154
12
-4.60872
22
1.28159
32
-2.20154
0
3DFACE
8
layer1
62
1
10
-4.96050
20
-2.11599
30
-2.20154
11
-4.68739
21
-2.48031
31
-2.20154
12
-5.38970
22
3.73370
32
-2.20154
0
3DFACE
8
layer1
62
1
10
-5.15309
20
-1.71011
30
-2.20154
11
-4.96050
21
-2.11599
31
-2.20154
12
-5.38970
22
3.73370
32
-2.20154
0
3DFACE
8
layer1
62
1
10
-5.25661
20
-1.33723
30
-2.20154
11
-5.15309
21
-1.71011
31
-2.20154
12
-5.38970
22
3.73370
32
-2.20154
0
3DFACE
8
layer1
62
1
10
-5.33055
20
-0.86081
30
-2.20154
11
-5.25661
21
-1.33723
31
-2.20154
12
-5.38970
22
3.73370
32
-2.20154
0
3DFACE
8
layer1
62
1
10
-5.37492
20
-0.28085
30
-2.20154
11
-5.33055
21
-0.86081
31
-2.20154
12
-5.38970
22
3.73370
32
-2.20154
0
3DFACE
8
layer1
62
1
10
-5.38970
20
0.40265
30
-2.20154
11
-5.37492
21
-0.28085
31
-2.20154
12
-5.38970
22
3.73370
32
-2.20154
0
3DFACE
8
layer1
62
1
10
-5.38970
20
1.28159
30
-2.20154
11
-5.38970
21
0.40265
31
-2.20154
12
-5.38970
22
3.73370
32
-2.20154
0
3DFACE
8
layer1
62
1
10
-5.38970
20
2.03080
30
-2.20154
11
-5.38970
21
1.28159
31
-2.20154
12
-5.38970
22
3.73370
32
-2.20154
0
3DFACE
8
layer1
62
1
10
-4.60872
20
0.40265
30
-2.20154
11
-4.60872
21
1.28159
31
-2.20154
12
-4.68739
22
-2.48031
32
-2.20154
0
3DFACE
8
layer1
62
1
10
-4.59150
20
-0.24904
30
-2.20154
11
-4.60872
21
0.40265
31
-2.20154
12
-4.68739
22
-2.48031
32
-2.20154
0
3DFACE
8
layer1
62
1
10
-4.53984
20
-0.79762
30
-2.20154
11
-4.59150
21
-0.24904
31
-2.20154
12
-4.68739
22
-2.48031
32
-2.20154
0
3DFACE
8
layer1
62
1
10
-4.45373
20
-1.24311
30
-2.20154
11
-4.53984
21
-0.79762
31
-2.20154
12
-4.68739
22
-2.48031
32
-2.20154
0
3DFACE
8
layer1
62
1
10
-4.33378
20
-2.80306
30
-2.20154
11
-4.45373
21
-1.24311
31
-2.20154
12
-4.68739
22
-2.48031
32
-2.20154
0
3DFACE
8
layer1
62
1
10
-4.33318
20
-1.58550
30
-2.20154
11
-4.45373
21
-1.24311
31
-2.20154
12
-4.33378
22
-2.80306
32
-2.20154
0
3DFACE
8
layer1
62
1
10
-4.20933
20
-1.82967
30
-2.20154
11
-4.33318
21
-1.58550
31
-2.20154
12
-4.33378
22
-2.80306
32
-2.20154
0
3DFACE
8
layer1
62
1
10
-4.01272
20
-2.06650
30
-2.20154
11
-4.20933
21
-1.82967
31
-2.20154
12
-4.33378
22
-2.80306
32
-2.20154
0
3DFACE
8
layer1
62
1
10
-3.89966
20
-3.08426
30
-2.20154
11
-4.01272
21
-2.06650
31
-2.20154
12
-4.33378
22
-2.80306
32
-2.20154
0
3DFACE
8
layer1
62
1
10
-3.89966
20
-3.08426
30
-2.20154
11
-3.40122
21
-2.51813
31
-2.20154
12
-3.74335
22
-2.29599
32
-2.20154
0
3DFACE
8
layer1
62
1
10
-4.01272
20
-2.06650
30
-2.20154
11
-3.89966
21
-3.08426
31
-2.20154
12
-3.74335
22
-2.29599
32
-2.20154
0
3DFACE
8
layer1
62
1
10
-6.47335
20
1.28159
30
-2.20154
11
-5.38970
21
1.28159
31
-2.20154
12
-5.38970
22
2.03080
32
-2.20154
0
3DFACE
8
layer1
62
1
10
-6.47335
20
2.03080
30
-2.20154
11
-6.47335
21
1.28159
31
-2.20154
12
-5.38970
22
2.03080
32
-2.20154
0
3DFACE
8
layer1
62
1
10
-1.75944
20
-1.78141
30
-2.20154
11
-1.92199
21
-2.62020
31
-2.20154
12
-1.16516
22
-2.89963
32
-2.20154
0
3DFACE
8
layer1
62
1
10
-1.64333
20
-0.96290
30
-2.20154
11
-1.75944
21
-1.78141
31
-2.20154
12
-1.16516
22
-2.89963
32
-2.20154
0
3DFACE
8
layer1
62
1
10
-1.57367
20
-0.16468
30
-2.20154
11
-1.64333
21
-0.96290
31
-2.20154
12
-1.16516
22
-2.89963
32
-2.20154
0
3DFACE
8
layer1
62
1
10
-1.55045
20
0.61327
30
-2.20154
11
-1.57367
21
-0.16468
31
-2.20154
12
-1.16516
22
-2.89963
32
-2.20154
0
3DFACE
8
layer1
62
1
10
-1.58469
20
1.29393
30
-2.20154
11
-1.55045
21
0.61327
31
-2.20154
12
-1.16516
22
-2.89963
32
-2.20154
0
3DFACE
8
layer1
62
1
10
-1.16163
20
3.67258
30
-2.20154
11
-1.58469
21
1.29393
31
-2.20154
12
-1.16516
22
-2.89963
32
-2.20154
0
3DFACE
8
layer1
62
1
10
-1.00179
20
2.85252
30
-2.20154
11
-1.16163
21
3.67258
31
-2.20154
12
-1.16516
22
-2.89963
32
-2.20154
0
3DFACE
8
layer1
62
1
10
-0.96883
20
-2.00309
30
-2.20154
11
-1.00179
21
2.85252
31
-2.20154
12
-1.16516
22
-2.89963
32
-2.20154
0
3DFACE
8
layer1
62
1
10
-1.65803
20
1.98382
30
-2.20154
11
-1.58469
21
1.29393
31
-2.20154
12
-1.16163
22
3.67258
32
-2.20154
0
3DFACE
8
layer1
62
1
10
-1.77046
20
2.68297
30
-2.20154
11
-1.65803
21
1.98382
31
-2.20154
12
-1.16163
22
3.67258
32
-2.20154
0
3DFACE
8
layer1
62
1
10
-1.92199
20
3.39135
30
-2.20154
11
-1.77046
21
2.68297
31
-2.20154
12
-1.16163
22
3.67258
32
-2.20154
0
3DFACE
8
layer1
62
1
10
-0.80580
20
1.42306
30
-2.20154
11
-0.77109
21
-0.14645
31
-2.20154
12
-0.76966
22
0.81365
32
-2.20154
0
3DFACE
8
layer1
62
1
10
-0.83748
20
-1.08536
30
-2.20154
11
-0.77109
21
-0.14645
31
-2.20154
12
-0.80580
22
1.42306
32
-2.20154
0
3DFACE
8
layer1
62
1
10
-0.88318
20
2.10268
30
-2.20154
11
-0.83748
21
-1.08536
31
-2.20154
12
-0.80580
22
1.42306
32
-2.20154
0
3DFACE
8
layer1
62
1
10
-0.96883
20
-2.00309
30
-2.20154
11
-0.83748
21
-1.08536
31
-2.20154
12
-0.88318
22
2.10268
32
-2.20154
0
3DFACE
8
layer1
62
1
10
-1.00179
20
2.85252
30
-2.20154
11
-0.96883
21
-2.00309
31
-2.20154
12
-0.88318
22
2.10268
32
-2.20154
0
3DFACE
8
layer1
62
1
10
-5.38970
20
3.73370
30
1.03332
11
-4.60872
21
3.73370
31
1.03332
12
-4.68739
22
-2.48031
32
1.03332
0
3DFACE
8
layer1
62
1
10
-4.68739
20
-2.48031
30
1.03332
11
-4.60872
21
3.73370
31
1.03332
12
-4.60872
22
2.03080
32
1.03332
0
3DFACE
8
layer1
62
1
10
-4.68739
20
-2.48031
30
1.03332
11
-4.60872
21
2.03080
31
1.03332
12
-4.60872
22
1.28159
32
1.03332
0
3DFACE
8
layer1
62
1
10
-4.60872
20
1.28159
30
1.03332
11
-4.60872
21
2.03080
31
1.03332
12
-2.44140
22
2.03080
32
1.03332
0
3DFACE
8
layer1
62
1
10
-4.60872
20
1.28159
30
1.03332
11
-2.44140
21
2.03080
31
1.03332
12
-2.44140
22
1.28159
32
1.03332
0
3DFACE
8
layer1
62
1
10
-5.38970
20
3.73370
30
1.03332
11
-4.68739
21
-2.48031
31
1.03332
12
-4.96050
22
-2.11599
32
1.03332
0
3DFACE
8
layer1
62
1
10
-5.38970
20
3.73370
30
1.03332
11
-4.96050
21
-2.11599
31
1.03332
12
-5.15309
22
-1.71011
32
1.03332
0
3DFACE
8
layer1
62
1
10
-5.38970
20
3.73370
30
1.03332
11
-5.15309
21
-1.71011
31
1.03332
12
-5.25661
22
-1.33723
32
1.03332
0
3DFACE
8
layer1
62
1
10
-5.38970
20
3.73370
30
1.03332
11
-5.25661
21
-1.33723
31
1.03332
12
-5.33055
22
-0.86081
32
1.03332
0
3DFACE
8
layer1
62
1
10
-5.38970
20
3.73370
30
1.03332
11
-5.33055
21
-0.86081
31
1.03332
12
-5.37492
22
-0.28085
32
1.03332
0
3DFACE
8
layer1
62
1
10
-5.38970
20
3.73370
30
1.03332
11
-5.37492
21
-0.28085
31
1.03332
12
-5.38970
22
0.40265
32
1.03332
0
3DFACE
8
layer1
62
1
10
-5.38970
20
3.73370
30
1.03332
11
-5.38970
21
0.40265
31
1.03332
12
-5.38970
22
1.28159
32
1.03332
0
3DFACE
8
layer1
62
1
10
-5.38970
20
3.73370
30
1.03332
11
-5.38970
21
1.28159
31
1.03332
12
-5.38970
22
2.03080
32
1.03332
0
3DFACE
8
layer1
62
1
10
-4.68739
20
-2.48031
30
1.03332
11
-4.60872
21
1.28159
31
1.03332
12
-4.60872
22
0.40265
32
1.03332
0
3DFACE
8
layer1
62
1
10
-4.68739
20
-2.48031
30
1.03332
11
-4.60872
21
0.40265
31
1.03332
12
-4.59150
22
-0.24904
32
1.03332
0
3DFACE
8
layer1
62
1
10
-4.68739
20
-2.48031
30
1.03332
11
-4.59150
21
-0.24904
31
1.03332
12
-4.53984
22
-0.79762
32
1.03332
0
3DFACE
8
layer1
62
1
10
-4.68739
20
-2.48031
30
1.03332
11
-4.53984
21
-0.79762
31
1.03332
12
-4.45373
22
-1.24311
32
1.03332
0
3DFACE
8
layer1
62
1
10
-4.68739
20
-2.48031
30
1.03332
11
-4.45373
21
-1.24311
31
1.03332
12
-4.33378
22
-2.80306
32
1.03332
0
3DFACE
8
layer1
62
1
10
-4.33378
20
-2.80306
30
1.03332
11
-4.45373
21
-1.24311
31
1.03332
12
-4.33318
22
-1.58550
32
1.03332
0
3DFACE
8
layer1
62
1
10
-4.33378
20
-2.80306
30
1.03332
11
-4.33318
21
-1.58550
31
1.03332
12
-4.20933
22
-1.82967
32
1.03332
0
3DFACE
8
layer1
62
1
10
-4.33378
20
-2.80306
30
1.03332
11
-4.20933
21
-1.82967
31
1.03332
12
-4.01272
22
-2.06650
32
1.03332
0
3DFACE
8
layer1
62
1
10
-4.33378
20
-2.80306
30
1.03332
11
-4.01272
21
-2.06650
31
1.03332
12
-3.89966
22
-3.08426
32
1.03332
0
3DFACE
8
layer1
62
1
10
-3.74335
20
-2.29599
30
1.03332
11
-3.40122
21
-2.51813
31
1.03332
12
-3.89966
22
-3.08426
32
1.03332
0
3DFACE
8
layer1
62
1
10
-3.74335
20
-2.29599
30
1.03332
11
-3.89966
21
-3.08426
31
1.03332
12
-4.01272
22
-2.06650
32
1.03332
0
3DFACE
8
layer1
62
1
10
-5.38970
20
2.03080
30
1.03332
11
-5.38970
21
1.28159
31
1.03332
12
-6.47335
22
1.28159
32
1.03332
0
3DFACE
8
layer1
62
1
10
-5.38970
20
2.03080
30
1.03332
11
-6.47335
21
1.28159
31
1.03332
12
-6.47335
22
2.03080
32
1.03332
0
3DFACE
8
layer1
62
1
10
-1.16516
20
-2.89963
30
1.03332
11
-1.92199
21
-2.62020
31
1.03332
12
-1.75944
22
-1.78141
32
1.03332
0
3DFACE
8
layer1
62
1
10
-1.16516
20
-2.89963
30
1.03332
11
-1.75944
21
-1.78141
31
1.03332
12
-1.64333
22
-0.96290
32
1.03332
0
3DFACE
8
layer1
62
1
10
-1.16516
20
-2.89963
30
1.03332
11
-1.64333
21
-0.96290
31
1.03332
12
-1.57367
22
-0.16468
32
1.03332
0
3DFACE
8
layer1
62
1
10
-1.16516
20
-2.89963
30
1.03332
11
-1.57367
21
-0.16468
31
1.03332
12
-1.55045
22
0.61327
32
1.03332
0
3DFACE
8
layer1
62
1
10
-1.16516
20
-2.89963
30
1.03332
11
-1.55045
21
0.61327
31
1.03332
12
-1.58469
22
1.29393
32
1.03332
0
3DFACE
8
layer1
62
1
10
-1.16516
20
-2.89963
30
1.03332
11
-1.58469
21
1.29393
31
1.03332
12
-1.16163
22
3.67258
32
1.03332
0
3DFACE
8
layer1
62
1
10
-1.16516
20
-2.89963
30
1.03332
11
-1.16163
21
3.67258
31
1.03332
12
-1.00179
22
2.85252
32
1.03332
0
3DFACE
8
layer1
62
1
10
-1.16516
20
-2.89963
30
1.03332
11
-1.00179
21
2.85252
31
1.03332
12
-0.96883
22
-2.00309
32
1.03332
0
3DFACE
8
layer1
62
1
10
-1.16163
20
3.67258
30
1.03332
11
-1.58469
21
1.29393
31
1.03332
12
-1.65803
22
1.98382
32
1.03332
0
3DFACE
8
layer1
62
1
10
-1.16163
20
3.67258
30
1.03332
11
-1.65803
21
1.98382
31
1.03332
12
-1.77046
22
2.68297
32
1.03332
0
3DFACE
8
layer1
62
1
10
-1.16163
20
3.67258
30
1.03332
11
-1.77046
21
2.68297
31
1.03332
12
-1.92199
22
3.39135
32
1.03332
0
3DFACE
8
layer1
62
1
10
-0.76966
20
0.81365
30
1.03332
11
-0.77109
21
-0.14645
31
1.03332
12
-0.80580
22
1.42306
32
1.03332
0
3DFACE
8
layer1
62
1
10
-0.80580
20
1.42306
30
1.03332
11
-0.77109
21
-0.14645
31
1.03332
12
-0.83748
22
-1.08536
32
1.03332
0
3DFACE
8
layer1
62
1
10
-0.80580
20
1.42306
30
1.03332
11
-0.83748
21
-1.08536
31
1.03332
12
-0.88318
22
2.10268
32
1.03332
0
3DFACE
8
layer1
62
1
10
-0.88318
20
2.10268
30
1.03332
11
-0.83748
21
-1.08536
31
1.03332
12
-0.96883
22
-2.00309
32
1.03332
0
3DFACE
8
layer1
62
1
10
-0.88318
20
2.10268
30
1.03332
11
-0.96883
21
-2.00309
31
1.03332
12
-1.00179
22
2.85252
32
1.03332
0
3DFACE
8
layer1
62
1
10
-5.38970
20
3.73370
30
1.03332
11
-5.38970
21
2.03080
31
1.03332
12
-5.38970
22
2.03080
32
-2.20154
13
-5.38970
23
3.73370
33
-2.20154
0
3DFACE
8
layer1
62
1
10
-4.60872
20
3.73370
30
1.03332
11
-5.38970
21
3.73370
31
1.03332
12
-5.38970
22
3.73370
32
-2.20154
13
-4.60872
23
3.73370
33
-2.20154
0
3DFACE
8
layer1
62
1
10
-4.60872
20
2.03080
30
1.03332
11
-4.60872
21
3.73370
31
1.03332
12
-4.60872
22
3.73370
32
-2.20154
13
-4.60872
23
2.03080
33
-2.20154
0
3DFACE
8
layer1
62
1
10
-2.44140
20
2.03080
30
1.03332
11
-4.60872
21
2.03080
31
1.03332
12
-4.60872
22
2.03080
32
-2.20154
13
-2.44140
23
2.03080
33
-2.20154
0
3DFACE
8
layer1
62
1
10
-2.44140
20
1.28159
30
1.03332
11
-2.44140
21
2.03080
31
1.03332
12
-2.44140
22
2.03080
32
-2.20154
13
-2.44140
23
1.28159
33
-2.20154
0
3DFACE
8
layer1
62
1
10
-4.60872
20
1.28159
30
1.03332
11
-2.44140
21
1.28159
31
1.03332
12
-2.44140
22
1.28159
32
-2.20154
13
-4.60872
23
1.28159
33
-2.20154
0
3DFACE
8
layer1
62
1
10
-4.60872
20
0.40265
30
1.03332
11
-4.60872
21
1.28159
31
1.03332
12
-4.60872
22
1.28159
32
-2.20154
13
-4.60872
23
0.40265
33
-2.20154
0
3DFACE
8
layer1
62
1
10
-4.59150
20
-0.24904
30
1.03332
11
-4.60872
21
0.40265
31
1.03332
12
-4.60872
22
0.40265
32
-2.20154
13
-4.59150
23
-0.24904
33
-2.20154
0
3DFACE
8
layer1
62
1
10
-4.53984
20
-0.79762
30
1.03332
11
-4.59150
21
-0.24904
31
1.03332
12
-4.59150
22
-0.24904
32
-2.20154
13
-4.53984
23
-0.79762
33
-2.20154
0
3DFACE
8
layer1
62
1
10
-4.45373
20
-1.24311
30
1.03332
11
-4.53984
21
-0.79762
31
1.03332
12
-4.53984
22
-0.79762
32
-2.20154
13
-4.45373
23
-1.24311
33
-2.20154
0
3DFACE
8
layer1
62
1
10
-4.33318
20
-1.58550
30
1.03332
11
-4.45373
21
-1.24311
31
1.03332
12
-4.45373
22
-1.24311
32
-2.20154
13
-4.33318
23
-1.58550
33
-2.20154
0
3DFACE
8
layer1
62
1
10
-4.20933
20
-1.82967
30
1.03332
11
-4.33318
21
-1.58550
31
1.03332
12
-4.33318
22
-1.58550
32
-2.20154
13
-4.20933
23
-1.82967
33
-2.20154
0
3DFACE
8
layer1
62
1
10
-4.01272
20
-2.06650
30
1.03332
11
-4.20933
21
-1.82967
31
1.03332
12
-4.20933
22
-1.82967
32
-2.20154
13
-4.01272
23
-2.06650
33
-2.20154
0
3DFACE
8
layer1
62
1
10
-3.74335
20
-2.29599
30
1.03332
11
-4.01272
21
-2.06650
31
1.03332
12
-4.01272
22
-2.06650
32
-2.20154
13
-3.74335
23
-2.29599
33
-2.20154
0
3DFACE
8
layer1
62
1
10
-3.40122
20
-2.51813
30
1.03332
11
-3.74335
21
-2.29599
31
1.03332
12
-3.74335
22
-2.29599
32
-2.20154
13
-3.40122
23
-2.51813
33
-2.20154
0
3DFACE
8
layer1
62
1
10
-3.89966
20
-3.08426
30
1.03332
11
-3.40122
21
-2.51813
31
1.03332
12
-3.40122
22
-2.51813
32
-2.20154
13
-3.89966
23
-3.08426
33
-2.20154
0
3DFACE
8
layer1
62
1
10
-4.33378
20
-2.80306
30
1.03332
11
-3.89966
21
-3.08426
31
1.03332
12
-3.89966
22
-3.08426
32
-2.20154
13
-4.33378
23
-2.80306
33
-2.20154
0
3DFACE
8
layer1
62
1
10
-4.68739
20
-2.48031
30
1.03332
11
-4.33378
21
-2.80306
31
1.03332
12
-4.33378
22
-2.80306
32
-2.20154
13
-4.68739
23
-2.48031
33
-2.20154
0
3DFACE
8
layer1
62
1
10
-4.96050
20
-2.11599
30
1.03332
11
-4.68739
21
-2.48031
31
1.03332
12
-4.68739
22
-2.48031
32
-2.20154
13
-4.96050
23
-2.11599
33
-2.20154
0
3DFACE
8
layer1
62
1
10
-5.15309
20
-1.71011
30
1.03332
11
-4.96050
21
-2.11599
31
1.03332
12
-4.96050
22
-2.11599
32
-2.20154
13
-5.15309
23
-1.71011
33
-2.20154
0
3DFACE
8
layer1
62
1
10
-5.25661
20
-1.33723
30
1.03332
11
-5.15309
21
-1.71011
31
1.03332
12
-5.15309
22
-1.71011
32
-2.20154
13
-5.25661
23
-1.33723
33
-2.20154
0
3DFACE
8
layer1
62
1
10
-5.33055
20
-0.86081
30
1.03332
11
-5.25661
21
-1.33723
31
1.03332
12
-5.25661
22
-1.33723
32
-2.20154
13
-5.33055
23
-0.86081
33
-2.20154
0
3DFACE
8
layer1
62
1
10
-5.37492
20
-0.28085
30
1.03332
11
-5.33055
21
-0.86081
31
1.03332
12
-5.33055
22
-0.86081
32
-2.20154
13
-5.37492
23
-0.28085
33
-2.20154
0
3DFACE
8
layer1
62
1
10
-5.38970
20
0.40265
30
1.03332
11
-5.37492
21
-0.28085
31
1.03332
12
-5.37492
22
-0.28085
32
-2.20154
13
-5.38970
23
0.40265
33
-2.20154
0
3DFACE
8
layer1
62
1
10
-5.38970
20
1.28159
30
1.03332
11
-5.38970
21
0.40265
31
1.03332
12
-5.38970
22
0.40265
32
-2.20154
13
-5.38970
23
1.28159
33
-2.20154
0
3DFACE
8
layer1
62
1
10
-6.47335
20
1.28159
30
1.03332
11
-5.38970
21
1.28159
31
1.03332
12
-5.38970
22
1.28159
32
-2.20154
13
-6.47335
23
1.28159
33
-2.20154
0
3DFACE
8
layer1
62
1
10
-6.47335
20
2.03080
30
1.03332
11
-6.47335
21
1.28159
31
1.03332
12
-6.47335
22
1.28159
32
-2.20154
13
-6.47335
23
2.03080
33
-2.20154
0
3DFACE
8
layer1
62
1
10
-5.38970
20
2.03080
30
1.03332
11
-6.47335
21
2.03080
31
1.03332
12
-6.47335
22
2.03080
32
-2.20154
13
-5.38970
23
2.03080
33
-2.20154
0
3DFACE
8
layer1
62
1
10
-1.00179
20
2.85252
30
1.03332
11
-1.16163
21
3.67258
31
1.03332
12
-1.16163
22
3.67258
32
-2.20154
13
-1.00179
23
2.85252
33
-2.20154
0
3DFACE
8
layer1
62
1
10
-0.88318
20
2.10268
30
1.03332
11
-1.00179
21
2.85252
31
1.03332
12
-1.00179
22
2.85252
32
-2.20154
13
-0.88318
23
2.10268
33
-2.20154
0
3DFACE
8
layer1
62
1
10
-0.80580
20
1.42306
30
1.03332
11
-0.88318
21
2.10268
31
1.03332
12
-0.88318
22
2.10268
32
-2.20154
13
-0.80580
23
1.42306
33
-2.20154
0
3DFACE
8
layer1
62
1
10
-0.76966
20
0.81365
30
1.03332
11
-0.80580
21
1.42306
31
1.03332
12
-0.80580
22
1.42306
32
-2.20154
13
-0.76966
23
0.81365
33
-2.20154
0
3DFACE
8
layer1
62
1
10
-0.77109
20
-0.14645
30
1.03332
11
-0.76966
21
0.81365
31
1.03332
12
-0.76966
22
0.81365
32
-2.20154
13
-0.77109
23
-0.14645
33
-2.20154
0
3DFACE
8
layer1
62
1
10
-0.83748
20
-1.08536
30
1.03332
11
-0.77109
21
-0.14645
31
1.03332
12
-0.77109
22
-0.14645
32
-2.20154
13
-0.83748
23
-1.08536
33
-2.20154
0
3DFACE
8
layer1
62
1
10
-0.96883
20
-2.00309
30
1.03332
11
-0.83748
21
-1.08536
31
1.03332
12
-0.83748
22
-1.08536
32
-2.20154
13
-0.96883
23
-2.00309
33
-2.20154
0
3DFACE
8
layer1
62
1
10
-1.16516
20
-2.89963
30
1.03332
11
-0.96883
21
-2.00309
31
1.03332
12
-0.96883
22
-2.00309
32
-2.20154
13
-1.16516
23
-2.89963
33
-2.20154
0
3DFACE
8
layer1
62
1
10
-1.92199
20
-2.62020
30
1.03332
11
-1.16516
21
-2.89963
31
1.03332
12
-1.16516
22
-2.89963
32
-2.20154
13
-1.92199
23
-2.62020
33
-2.20154
0
3DFACE
8
layer1
62
1
10
-1.75944
20
-1.78141
30
1.03332
11
-1.92199
21
-2.62020
31
1.03332
12
-1.92199
22
-2.62020
32
-2.20154
13
-1.75944
23
-1.78141
33
-2.20154
0
3DFACE
8
layer1
62
1
10
-1.64333
20
-0.96290
30
1.03332
11
-1.75944
21
-1.78141
31
1.03332
12
-1.75944
22
-1.78141
32
-2.20154
13
-1.64333
23
-0.96290
33
-2.20154
0
3DFACE
8
layer1
62
1
10
-1.57367
20
-0.16468
30
1.03332
11
-1.64333
21
-0.96290
31
1.03332
12
-1.64333
22
-0.96290
32
-2.20154
13
-1.57367
23
-0.16468
33
-2.20154
0
3DFACE
8
layer1
62
1
10
-1.55045
20
0.61327
30
1.03332
11
-1.57367
21
-0.16468
31
1.03332
12
-1.57367
22
-0.16468
32
-2.20154
13
-1.55045
23
0.61327
33
-2.20154
0
3DFACE
8
layer1
62
1
10
-1.58469
20
1.29393
30
1.03332
11
-1.55045
21
0.61327
31
1.03332
12
-1.55045
22
0.61327
32
-2.20154
13
-1.58469
23
1.29393
33
-2.20154
0
3DFACE
8
layer1
62
1
10
-1.65803
20
1.98382
30
1.03332
11
-1.58469
21
1.29393
31
1.03332
12
-1.58469
22
1.29393
32
-2.20154
13
-1.65803
23
1.98382
33
-2.20154
0
3DFACE
8
layer1
62
1
10
-1.77046
20
2.68297
30
1.03332
11
-1.65803
21
1.98382
31
1.03332
12
-1.65803
22
1.98382
32
-2.20154
13
-1.77046
23
2.68297
33
-2.20154
0
3DFACE
8
layer1
62
1
10
-1.92199
20
3.39135
30
1.03332
11
-1.77046
21
2.68297
31
1.03332
12
-1.77046
22
2.68297
32
-2.20154
13
-1.92199
23
3.39135
33
-2.20154
0
3DFACE
8
layer1
62
1
10
-1.16163
20
3.67258
30
1.03332
11
-1.92199
21
3.39135
31
1.03332
12
-1.92199
22
3.39135
32
-2.20154
13
-1.16163
23
3.67258
33
-2.20154
0
3DFACE
8
layer1
62
1
10
-10.31751
20
-0.54515
30
-2.20154
11
-10.15917
21
2.99062
31
-2.20154
12
-11.31168
22
2.99062
32
-2.20154
0
3DFACE
8
layer1
62
1
10
-11.15208
20
-0.54515
30
-2.20154
11
-10.31751
21
-0.54515
31
-2.20154
12
-11.31168
22
2.99062
32
-2.20154
0
3DFACE
8
layer1
62
1
10
-11.24977
20
-2.46477
30
-2.20154
11
-10.22110
21
-2.46477
31
-2.20154
12
-10.22110
22
-1.40595
32
-2.20154
0
3DFACE
8
layer1
62
1
10
-11.24977
20
-1.40595
30
-2.20154
11
-11.24977
21
-2.46477
31
-2.20154
12
-10.22110
22
-1.40595
32
-2.20154
0
3DFACE
8
layer1
62
1
10
-11.31168
20
2.99062
30
1.03332
11
-10.15917
21
2.99062
31
1.03332
12
-10.31751
22
-0.54515
32
1.03332
0
3DFACE
8
layer1
62
1
10
-11.31168
20
2.99062
30
1.03332
11
-10.31751
21
-0.54515
31
1.03332
12
-11.15208
22
-0.54515
32
1.03332
0
3DFACE
8
layer1
62
1
10
-10.22110
20
-1.40595
30
1.03332
11
-10.22110
21
-2.46477
31
1.03332
12
-11.24977
22
-2.46477
32
1.03332
0
3DFACE
8
layer1
62
1
10
-10.22110
20
-1.40595
30
1.03332
11
-11.24977
21
-2.46477
31
1.03332
12
-11.24977
22
-1.40595
32
1.03332
0
3DFACE
8
layer1
62
1
10
-11.15208
20
-0.54515
30
1.03332
11
-10.31751
21
-0.54515
31
1.03332
12
-10.31751
22
-0.54515
32
-2.20154
13
-11.15208
23
-0.54515
33
-2.20154
0
3DFACE
8
layer1
62
1
10
-11.31168
20
2.99062
30
1.03332
11
-11.15208
21
-0.54515
31
1.03332
12
-11.15208
22
-0.54515
32
-2.20154
13
-11.31168
23
2.99062
33
-2.20154
0
3DFACE
8
layer1
62
1
10
-10.15917
20
2.99062
30
1.03332
11
-11.31168
21
2.99062
31
1.03332
12
-11.31168
22
2.99062
32
-2.20154
13
-10.15917
23
2.99062
33
-2.20154
0
3DFACE
8
layer1
62
1
10
-10.31751
20
-0.54515
30
1.03332
11
-10.15917
21
2.99062
31
1.03332
12
-10.15917
22
2.99062
32
-2.20154
13
-10.31751
23
-0.54515
33
-2.20154
0
3DFACE
8
layer1
62
1
10
-11.24977
20
-2.46477
30
1.03332
11
-10.22110
21
-2.46477
31
1.03332
12
-10.22110
22
-2.46477
32
-2.20154
13
-11.24977
23
-2.46477
33
-2.20154
0
3DFACE
8
layer1
62
1
10
-11.24977
20
-1.40595
30
1.03332
11
-11.24977
21
-2.46477
31
1.03332
12
-11.24977
22
-2.46477
32
-2.20154
13
-11.24977
23
-1.40595
33
-2.20154
0
3DFACE
8
layer1
62
1
10
-10.22110
20
-1.40595
30
1.03332
11
-11.24977
21
-1.40595
31
1.03332
12
-11.24977
22
-1.40595
32
-2.20154
13
-10.22110
23
-1.40595
33
-2.20154
0
3DFACE
8
layer1
62
1
10
-10.22110
20
-2.46477
30
1.03332
11
-10.22110
21
-1.40595
31
1.03332
12
-10.22110
22
-1.40595
32
-2.20154
13
-10.22110
23
-2.46477
33
-2.20154
0
3DFACE
8
layer1
62
1
10
-18.40546
20
-0.54515
30
-2.20154
11
-18.24711
21
2.99062
31
-2.20154
12
-19.39964
22
2.99062
32
-2.20154
0
3DFACE
8
layer1
62
1
10
-19.24002
20
-0.54515
30
-2.20154
11
-18.40546
21
-0.54515
31
-2.20154
12
-19.39964
22
2.99062
32
-2.20154
0
3DFACE
8
layer1
62
1
10
-19.33772
20
-2.46477
30
-2.20154
11
-18.30904
21
-2.46477
31
-2.20154
12
-18.30904
22
-1.40595
32
-2.20154
0
3DFACE
8
layer1
62
1
10
-19.33772
20
-1.40595
30
-2.20154
11
-19.33772
21
-2.46477
31
-2.20154
12
-18.30904
22
-1.40595
32
-2.20154
0
3DFACE
8
layer1
62
1
10
-19.39964
20
2.99062
30
1.03332
11
-18.24711
21
2.99062
31
1.03332
12
-18.40546
22
-0.54515
32
1.03332
0
3DFACE
8
layer1
62
1
10
-19.39964
20
2.99062
30
1.03332
11
-18.40546
21
-0.54515
31
1.03332
12
-19.24002
22
-0.54515
32
1.03332
0
3DFACE
8
layer1
62
1
10
-18.30904
20
-1.40595
30
1.03332
11
-18.30904
21
-2.46477
31
1.03332
12
-19.33772
22
-2.46477
32
1.03332
0
3DFACE
8
layer1
62
1
10
-18.30904
20
-1.40595
30
1.03332
11
-19.33772
21
-2.46477
31
1.03332
12
-19.33772
22
-1.40595
32
1.03332
0
3DFACE
8
layer1
62
1
10
-19.24002
20
-0.54515
30
1.03332
11
-18.40546
21
-0.54515
31
1.03332
12
-18.40546
22
-0.54515
32
-2.20154
13
-19.24002
23
-0.54515
33
-2.20154
0
3DFACE
8
layer1
62
1
10
-19.39964
20
2.99062
30
1.03332
11
-19.24002
21
-0.54515
31
1.03332
12
-19.24002
22
-0.54515
32
-2.20154
13
-19.39964
23
2.99062
33
-2.20154
0
3DFACE
8
layer1
62
1
10
-18.24711
20
2.99062
30
1.03332
11
-19.39964
21
2.99062
31
1.03332
12
-19.39964
22
2.99062
32
-2.20154
13
-18.24711
23
2.99062
33
-2.20154
0
3DFACE
8
layer1
62
1
10
-18.40546
20
-0.54515
30
1.03332
11
-18.24711
21
2.99062
31
1.03332
12
-18.24711
22
2.99062
32
-2.20154
13
-18.40546
23
-0.54515
33
-2.20154
0
3DFACE
8
layer1
62
1
10
-19.33772
20
-2.46477
30
1.03332
11
-18.30904
21
-2.46477
31
1.03332
12
-18.30904
22
-2.46477
32
-2.20154
13
-19.33772
23
-2.46477
33
-2.20154
0
3DFACE
8
layer1
62
1
10
-19.33772
20
-1.40595
30
1.03332
11
-19.33772
21
-2.46477
31
1.03332
12
-19.33772
22
-2.46477
32
-2.20154
13
-19.33772
23
-1.40595
33
-2.20154
0
3DFACE
8
layer1
62
1
10
-18.30904
20
-1.40595
30
1.03332
11
-19.33772
21
-1.40595
31
1.03332
12
-19.33772
22
-1.40595
32
-2.20154
13
-18.30904
23
-1.40595
33
-2.20154
0
3DFACE
8
layer1
62
1
10
-18.30904
20
-2.46477
30
1.03332
11
-18.30904
21
-1.40595
31
1.03332
12
-18.30904
22
-1.40595
32
-2.20154
13
-18.30904
23
-2.46477
33
-2.20154
0
ENDSEC
0
EOF
