0
SECTION
2
ENTITIES
999
Created by Metasequoia
0
3DFACE
8
layer1
62
1
10
9.95178
20
-5.61051
30
10.95357
11
9.20507
21
-5.61051
31
10.95357
12
9.95178
22
-5.40330
32
10.95357
0
3DFACE
8
layer1
62
1
10
9.95178
20
-5.40330
30
10.95357
11
9.20507
21
-5.61051
31
10.95357
12
9.95178
22
-4.68698
32
10.95357
0
3DFACE
8
layer1
62
1
10
9.95178
20
-5.40330
30
10.95357
11
9.95178
21
-4.68698
31
10.95357
12
11.27725
22
-5.40330
32
10.95357
0
3DFACE
8
layer1
62
1
10
11.27725
20
-5.40330
30
10.95357
11
9.95178
21
-4.68698
31
10.95357
12
12.02395
22
-5.40330
32
10.95357
0
3DFACE
8
layer1
62
1
10
11.27725
20
-5.40330
30
10.95357
11
12.02395
21
-5.40330
31
10.95357
12
11.27725
22
-8.69031
32
10.95357
0
3DFACE
8
layer1
62
1
10
11.27725
20
-8.69031
30
10.95357
11
12.02395
21
-5.40330
31
10.95357
12
12.02395
22
-6.19672
32
10.95357
0
3DFACE
8
layer1
62
1
10
11.27725
20
-8.69031
30
10.95357
11
12.02395
21
-6.19672
31
10.95357
12
12.02395
22
-6.91303
32
10.95357
0
3DFACE
8
layer1
62
1
10
12.02395
20
-6.91303
30
10.95357
11
12.02395
21
-6.19672
31
10.95357
12
15.10261
22
-6.19672
32
10.95357
0
3DFACE
8
layer1
62
1
10
12.02395
20
-6.91303
30
10.95357
11
15.10261
21
-6.19672
31
10.95357
12
15.10261
22
-6.91303
32
10.95357
0
3DFACE
8
layer1
62
1
10
11.27725
20
-6.91303
30
10.95357
11
8.22817
21
-6.91303
31
10.95357
12
11.27725
22
-6.19672
32
10.95357
0
3DFACE
8
layer1
62
1
10
11.27725
20
-6.91303
30
10.95357
11
11.27725
21
-6.19672
31
10.95357
12
11.27725
22
-5.40330
32
10.95357
0
3DFACE
8
layer1
62
1
10
11.27725
20
-6.91303
30
10.95357
11
11.27725
21
-5.40330
31
10.95357
12
11.27725
22
-8.69031
32
10.95357
0
3DFACE
8
layer1
62
1
10
14.12574
20
-1.99314
30
10.95357
11
13.37904
21
-5.72892
31
10.95357
12
13.37904
22
-2.70946
32
10.95357
0
3DFACE
8
layer1
62
1
10
13.37904
20
-2.70946
30
10.95357
11
13.37904
21
-5.72892
31
10.95357
12
13.37904
22
-5.40330
32
10.95357
0
3DFACE
8
layer1
62
1
10
13.37904
20
-2.70946
30
10.95357
11
13.37904
21
-5.40330
31
10.95357
12
13.37904
22
-4.68698
32
10.95357
0
3DFACE
8
layer1
62
1
10
13.37904
20
-4.68698
30
10.95357
11
13.37904
21
-5.40330
31
10.95357
12
12.02395
22
-5.40330
32
10.95357
0
3DFACE
8
layer1
62
1
10
13.37904
20
-4.68698
30
10.95357
11
12.02395
21
-5.40330
31
10.95357
12
9.95178
22
-4.68698
32
10.95357
0
3DFACE
8
layer1
62
1
10
14.12574
20
-1.99314
30
10.95357
11
13.37904
21
-2.70946
31
10.95357
12
9.20507
22
-1.99314
32
10.95357
0
3DFACE
8
layer1
62
1
10
9.20507
20
-1.99314
30
10.95357
11
13.37904
21
-2.70946
31
10.95357
12
9.95178
22
-2.70946
32
10.95357
0
3DFACE
8
layer1
62
1
10
9.20507
20
-1.99314
30
10.95357
11
9.95178
21
-2.70946
31
10.95357
12
9.20507
22
-5.61051
32
10.95357
0
3DFACE
8
layer1
62
1
10
9.20507
20
-5.61051
30
10.95357
11
9.95178
21
-2.70946
31
10.95357
12
9.95178
22
-3.32525
32
10.95357
0
3DFACE
8
layer1
62
1
10
9.20507
20
-5.61051
30
10.95357
11
9.95178
21
-3.32525
31
10.95357
12
9.95178
22
-4.04158
32
10.95357
0
3DFACE
8
layer1
62
1
10
9.95178
20
-4.04158
30
10.95357
11
9.95178
21
-3.32525
31
10.95357
12
13.37904
22
-3.32525
32
10.95357
0
3DFACE
8
layer1
62
1
10
9.95178
20
-4.04158
30
10.95357
11
13.37904
21
-3.32525
31
10.95357
12
13.37904
22
-4.04158
32
10.95357
0
3DFACE
8
layer1
62
1
10
13.37904
20
-4.04158
30
10.95357
11
13.37904
21
-3.32525
31
10.95357
12
13.37904
22
-2.70946
32
10.95357
0
3DFACE
8
layer1
62
1
10
13.37904
20
-4.04158
30
10.95357
11
13.37904
21
-2.70946
31
10.95357
12
13.37904
22
-4.68698
32
10.95357
0
3DFACE
8
layer1
62
1
10
11.27725
20
-8.69031
30
10.95357
11
12.02395
21
-6.91303
31
10.95357
12
12.02395
22
-8.69031
32
10.95357
0
3DFACE
8
layer1
62
1
10
11.27725
20
-6.19672
30
10.95357
11
8.22817
21
-6.91303
31
10.95357
12
8.22817
22
-6.19672
32
10.95357
0
3DFACE
8
layer1
62
1
10
9.95178
20
-4.68698
30
10.95357
11
9.20507
21
-5.61051
31
10.95357
12
9.95178
22
-4.04158
32
10.95357
0
3DFACE
8
layer1
62
1
10
13.37904
20
-5.72892
30
10.95357
11
14.12574
21
-1.99314
31
10.95357
12
14.12574
22
-5.72892
32
10.95357
0
3DFACE
8
layer1
62
1
10
9.95178
20
-5.40330
30
14.04643
11
9.20507
21
-5.61051
31
14.04643
12
9.95178
22
-5.61051
32
14.04643
0
3DFACE
8
layer1
62
1
10
9.95178
20
-4.68698
30
14.04643
11
9.20507
21
-5.61051
31
14.04643
12
9.95178
22
-5.40330
32
14.04643
0
3DFACE
8
layer1
62
1
10
11.27725
20
-5.40330
30
14.04643
11
9.95178
21
-4.68698
31
14.04643
12
9.95178
22
-5.40330
32
14.04643
0
3DFACE
8
layer1
62
1
10
12.02395
20
-5.40330
30
14.04643
11
9.95178
21
-4.68698
31
14.04643
12
11.27725
22
-5.40330
32
14.04643
0
3DFACE
8
layer1
62
1
10
11.27725
20
-8.69031
30
14.04643
11
12.02395
21
-5.40330
31
14.04643
12
11.27725
22
-5.40330
32
14.04643
0
3DFACE
8
layer1
62
1
10
12.02395
20
-6.19672
30
14.04643
11
12.02395
21
-5.40330
31
14.04643
12
11.27725
22
-8.69031
32
14.04643
0
3DFACE
8
layer1
62
1
10
12.02395
20
-6.91303
30
14.04643
11
12.02395
21
-6.19672
31
14.04643
12
11.27725
22
-8.69031
32
14.04643
0
3DFACE
8
layer1
62
1
10
15.10261
20
-6.19672
30
14.04643
11
12.02395
21
-6.19672
31
14.04643
12
12.02395
22
-6.91303
32
14.04643
0
3DFACE
8
layer1
62
1
10
15.10261
20
-6.91303
30
14.04643
11
15.10261
21
-6.19672
31
14.04643
12
12.02395
22
-6.91303
32
14.04643
0
3DFACE
8
layer1
62
1
10
11.27725
20
-6.19672
30
14.04643
11
8.22817
21
-6.91303
31
14.04643
12
11.27725
22
-6.91303
32
14.04643
0
3DFACE
8
layer1
62
1
10
11.27725
20
-5.40330
30
14.04643
11
11.27725
21
-6.19672
31
14.04643
12
11.27725
22
-6.91303
32
14.04643
0
3DFACE
8
layer1
62
1
10
11.27725
20
-8.69031
30
14.04643
11
11.27725
21
-5.40330
31
14.04643
12
11.27725
22
-6.91303
32
14.04643
0
3DFACE
8
layer1
62
1
10
13.37904
20
-2.70946
30
14.04643
11
13.37904
21
-5.72892
31
14.04643
12
14.12574
22
-1.99314
32
14.04643
0
3DFACE
8
layer1
62
1
10
13.37904
20
-5.40330
30
14.04643
11
13.37904
21
-5.72892
31
14.04643
12
13.37904
22
-2.70946
32
14.04643
0
3DFACE
8
layer1
62
1
10
13.37904
20
-4.68698
30
14.04643
11
13.37904
21
-5.40330
31
14.04643
12
13.37904
22
-2.70946
32
14.04643
0
3DFACE
8
layer1
62
1
10
12.02395
20
-5.40330
30
14.04643
11
13.37904
21
-5.40330
31
14.04643
12
13.37904
22
-4.68698
32
14.04643
0
3DFACE
8
layer1
62
1
10
9.95178
20
-4.68698
30
14.04643
11
12.02395
21
-5.40330
31
14.04643
12
13.37904
22
-4.68698
32
14.04643
0
3DFACE
8
layer1
62
1
10
9.20507
20
-1.99314
30
14.04643
11
13.37904
21
-2.70946
31
14.04643
12
14.12574
22
-1.99314
32
14.04643
0
3DFACE
8
layer1
62
1
10
9.95178
20
-2.70946
30
14.04643
11
13.37904
21
-2.70946
31
14.04643
12
9.20507
22
-1.99314
32
14.04643
0
3DFACE
8
layer1
62
1
10
9.20507
20
-5.61051
30
14.04643
11
9.95178
21
-2.70946
31
14.04643
12
9.20507
22
-1.99314
32
14.04643
0
3DFACE
8
layer1
62
1
10
9.95178
20
-3.32525
30
14.04643
11
9.95178
21
-2.70946
31
14.04643
12
9.20507
22
-5.61051
32
14.04643
0
3DFACE
8
layer1
62
1
10
9.95178
20
-4.04158
30
14.04643
11
9.95178
21
-3.32525
31
14.04643
12
9.20507
22
-5.61051
32
14.04643
0
3DFACE
8
layer1
62
1
10
13.37904
20
-3.32525
30
14.04643
11
9.95178
21
-3.32525
31
14.04643
12
9.95178
22
-4.04158
32
14.04643
0
3DFACE
8
layer1
62
1
10
13.37904
20
-4.04158
30
14.04643
11
13.37904
21
-3.32525
31
14.04643
12
9.95178
22
-4.04158
32
14.04643
0
3DFACE
8
layer1
62
1
10
13.37904
20
-2.70946
30
14.04643
11
13.37904
21
-3.32525
31
14.04643
12
13.37904
22
-4.04158
32
14.04643
0
3DFACE
8
layer1
62
1
10
13.37904
20
-4.68698
30
14.04643
11
13.37904
21
-2.70946
31
14.04643
12
13.37904
22
-4.04158
32
14.04643
0
3DFACE
8
layer1
62
1
10
12.02395
20
-8.69031
30
14.04643
11
12.02395
21
-6.91303
31
14.04643
12
11.27725
22
-8.69031
32
14.04643
0
3DFACE
8
layer1
62
1
10
8.22817
20
-6.19672
30
14.04643
11
8.22817
21
-6.91303
31
14.04643
12
11.27725
22
-6.19672
32
14.04643
0
3DFACE
8
layer1
62
1
10
9.95178
20
-4.04158
30
14.04643
11
9.20507
21
-5.61051
31
14.04643
12
9.95178
22
-4.68698
32
14.04643
0
3DFACE
8
layer1
62
1
10
14.12574
20
-5.72892
30
14.04643
11
14.12574
21
-1.99314
31
14.04643
12
13.37904
22
-5.72892
32
14.04643
0
3DFACE
8
layer1
62
1
10
9.20507
20
-1.99314
30
10.95357
11
9.20507
21
-5.61051
31
10.95357
12
9.20507
22
-5.61051
32
14.04643
13
9.20507
23
-1.99314
33
14.04643
0
3DFACE
8
layer1
62
1
10
14.12574
20
-1.99314
30
10.95357
11
9.20507
21
-1.99314
31
10.95357
12
9.20507
22
-1.99314
32
14.04643
13
14.12574
23
-1.99314
33
14.04643
0
3DFACE
8
layer1
62
1
10
14.12574
20
-5.72892
30
10.95357
11
14.12574
21
-1.99314
31
10.95357
12
14.12574
22
-1.99314
32
14.04643
13
14.12574
23
-5.72892
33
14.04643
0
3DFACE
8
layer1
62
1
10
13.37904
20
-5.72892
30
10.95357
11
14.12574
21
-5.72892
31
10.95357
12
14.12574
22
-5.72892
32
14.04643
13
13.37904
23
-5.72892
33
14.04643
0
3DFACE
8
layer1
62
1
10
13.37904
20
-5.40330
30
10.95357
11
13.37904
21
-5.72892
31
10.95357
12
13.37904
22
-5.72892
32
14.04643
13
13.37904
23
-5.40330
33
14.04643
0
3DFACE
8
layer1
62
1
10
12.02395
20
-5.40330
30
10.95357
11
13.37904
21
-5.40330
31
10.95357
12
13.37904
22
-5.40330
32
14.04643
13
12.02395
23
-5.40330
33
14.04643
0
3DFACE
8
layer1
62
1
10
12.02395
20
-6.19672
30
10.95357
11
12.02395
21
-5.40330
31
10.95357
12
12.02395
22
-5.40330
32
14.04643
13
12.02395
23
-6.19672
33
14.04643
0
3DFACE
8
layer1
62
1
10
15.10261
20
-6.19672
30
10.95357
11
12.02395
21
-6.19672
31
10.95357
12
12.02395
22
-6.19672
32
14.04643
13
15.10261
23
-6.19672
33
14.04643
0
3DFACE
8
layer1
62
1
10
15.10261
20
-6.91303
30
10.95357
11
15.10261
21
-6.19672
31
10.95357
12
15.10261
22
-6.19672
32
14.04643
13
15.10261
23
-6.91303
33
14.04643
0
3DFACE
8
layer1
62
1
10
12.02395
20
-6.91303
30
10.95357
11
15.10261
21
-6.91303
31
10.95357
12
15.10261
22
-6.91303
32
14.04643
13
12.02395
23
-6.91303
33
14.04643
0
3DFACE
8
layer1
62
1
10
12.02395
20
-8.69031
30
10.95357
11
12.02395
21
-6.91303
31
10.95357
12
12.02395
22
-6.91303
32
14.04643
13
12.02395
23
-8.69031
33
14.04643
0
3DFACE
8
layer1
62
1
10
11.27725
20
-8.69031
30
10.95357
11
12.02395
21
-8.69031
31
10.95357
12
12.02395
22
-8.69031
32
14.04643
13
11.27725
23
-8.69031
33
14.04643
0
3DFACE
8
layer1
62
1
10
11.27725
20
-6.91303
30
10.95357
11
11.27725
21
-8.69031
31
10.95357
12
11.27725
22
-8.69031
32
14.04643
13
11.27725
23
-6.91303
33
14.04643
0
3DFACE
8
layer1
62
1
10
8.22817
20
-6.91303
30
10.95357
11
11.27725
21
-6.91303
31
10.95357
12
11.27725
22
-6.91303
32
14.04643
13
8.22817
23
-6.91303
33
14.04643
0
3DFACE
8
layer1
62
1
10
8.22817
20
-6.19672
30
10.95357
11
8.22817
21
-6.91303
31
10.95357
12
8.22817
22
-6.91303
32
14.04643
13
8.22817
23
-6.19672
33
14.04643
0
3DFACE
8
layer1
62
1
10
11.27725
20
-6.19672
30
10.95357
11
8.22817
21
-6.19672
31
10.95357
12
8.22817
22
-6.19672
32
14.04643
13
11.27725
23
-6.19672
33
14.04643
0
3DFACE
8
layer1
62
1
10
11.27725
20
-5.40330
30
10.95357
11
11.27725
21
-6.19672
31
10.95357
12
11.27725
22
-6.19672
32
14.04643
13
11.27725
23
-5.40330
33
14.04643
0
3DFACE
8
layer1
62
1
10
9.95178
20
-5.40330
30
10.95357
11
11.27725
21
-5.40330
31
10.95357
12
11.27725
22
-5.40330
32
14.04643
13
9.95178
23
-5.40330
33
14.04643
0
3DFACE
8
layer1
62
1
10
9.95178
20
-5.61051
30
10.95357
11
9.95178
21
-5.40330
31
10.95357
12
9.95178
22
-5.40330
32
14.04643
13
9.95178
23
-5.61051
33
14.04643
0
3DFACE
8
layer1
62
1
10
9.20507
20
-5.61051
30
10.95357
11
9.95178
21
-5.61051
31
10.95357
12
9.95178
22
-5.61051
32
14.04643
13
9.20507
23
-5.61051
33
14.04643
0
3DFACE
8
layer1
62
1
10
13.37904
20
-2.70946
30
10.95357
11
13.37904
21
-3.32525
31
10.95357
12
13.37904
22
-3.32525
32
14.04643
13
13.37904
23
-2.70946
33
14.04643
0
3DFACE
8
layer1
62
1
10
9.95178
20
-2.70946
30
10.95357
11
13.37904
21
-2.70946
31
10.95357
12
13.37904
22
-2.70946
32
14.04643
13
9.95178
23
-2.70946
33
14.04643
0
3DFACE
8
layer1
62
1
10
9.95178
20
-3.32525
30
10.95357
11
9.95178
21
-2.70946
31
10.95357
12
9.95178
22
-2.70946
32
14.04643
13
9.95178
23
-3.32525
33
14.04643
0
3DFACE
8
layer1
62
1
10
13.37904
20
-3.32525
30
10.95357
11
9.95178
21
-3.32525
31
10.95357
12
9.95178
22
-3.32525
32
14.04643
13
13.37904
23
-3.32525
33
14.04643
0
3DFACE
8
layer1
62
1
10
13.37904
20
-4.04158
30
10.95357
11
13.37904
21
-4.68698
31
10.95357
12
13.37904
22
-4.68698
32
14.04643
13
13.37904
23
-4.04158
33
14.04643
0
3DFACE
8
layer1
62
1
10
9.95178
20
-4.04158
30
10.95357
11
13.37904
21
-4.04158
31
10.95357
12
13.37904
22
-4.04158
32
14.04643
13
9.95178
23
-4.04158
33
14.04643
0
3DFACE
8
layer1
62
1
10
9.95178
20
-4.68698
30
10.95357
11
9.95178
21
-4.04158
31
10.95357
12
9.95178
22
-4.04158
32
14.04643
13
9.95178
23
-4.68698
33
14.04643
0
3DFACE
8
layer1
62
1
10
13.37904
20
-4.68698
30
10.95357
11
9.95178
21
-4.68698
31
10.95357
12
9.95178
22
-4.68698
32
14.04643
13
13.37904
23
-4.68698
33
14.04643
0
3DFACE
8
layer1
62
1
10
6.39459
20
-4.89337
30
10.95357
11
5.95995
21
-4.45376
31
10.95357
12
5.88834
22
-3.23052
32
10.95357
0
3DFACE
8
layer1
62
1
10
5.88834
20
-3.23052
30
10.95357
11
5.95995
21
-4.45376
31
10.95357
12
5.47324
22
-3.89379
32
10.95357
0
3DFACE
8
layer1
62
1
10
5.88834
20
-3.23052
30
10.95357
11
5.47324
21
-3.89379
31
10.95357
12
5.41368
22
-2.58339
32
10.95357
0
3DFACE
8
layer1
62
1
10
5.41368
20
-2.58339
30
10.95357
11
5.47324
21
-3.89379
31
10.95357
12
4.93445
22
-3.21347
32
10.95357
0
3DFACE
8
layer1
62
1
10
5.41368
20
-2.58339
30
10.95357
11
4.93445
21
-3.21347
31
10.95357
12
4.97531
22
-1.90355
32
10.95357
0
3DFACE
8
layer1
62
1
10
4.97531
20
-1.90355
30
10.95357
11
4.93445
21
-3.21347
31
10.95357
12
4.34361
22
-2.41280
32
10.95357
0
3DFACE
8
layer1
62
1
10
6.39928
20
-3.84494
30
10.95357
11
6.94650
21
-4.42666
31
10.95357
12
6.82579
22
-6.23218
32
10.95357
0
3DFACE
8
layer1
62
1
10
6.39928
20
-3.84494
30
10.95357
11
6.82579
21
-6.23218
31
10.95357
12
6.65261
22
-5.26677
32
10.95357
0
3DFACE
8
layer1
62
1
10
6.39928
20
-3.84494
30
10.95357
11
6.65261
21
-5.26677
31
10.95357
12
6.63648
22
-5.20016
32
10.95357
0
3DFACE
8
layer1
62
1
10
6.39928
20
-3.84494
30
10.95357
11
6.63648
21
-5.20016
31
10.95357
12
6.58810
22
-5.11572
32
10.95357
0
3DFACE
8
layer1
62
1
10
6.39928
20
-3.84494
30
10.95357
11
6.58810
21
-5.11572
31
10.95357
12
6.50747
22
-5.01346
32
10.95357
0
3DFACE
8
layer1
62
1
10
6.39928
20
-3.84494
30
10.95357
11
6.50747
21
-5.01346
31
10.95357
12
6.39459
22
-4.89337
32
10.95357
0
3DFACE
8
layer1
62
1
10
6.39928
20
-3.84494
30
10.95357
11
6.39459
21
-4.89337
31
10.95357
12
5.88834
22
-3.23052
32
10.95357
0
3DFACE
8
layer1
62
1
10
6.82579
20
-6.23218
30
10.95357
11
6.94650
21
-4.42666
31
10.95357
12
7.08965
22
-5.95386
32
10.95357
0
3DFACE
8
layer1
62
1
10
7.08965
20
-5.95386
30
10.95357
11
6.94650
21
-4.42666
31
10.95357
12
7.15756
22
-4.67028
32
10.95357
0
3DFACE
8
layer1
62
1
10
7.08965
20
-5.95386
30
10.95357
11
7.15756
21
-4.67028
31
10.95357
12
7.27813
22
-5.69525
32
10.95357
0
3DFACE
8
layer1
62
1
10
7.27813
20
-5.69525
30
10.95357
11
7.15756
21
-4.67028
31
10.95357
12
7.30831
22
-4.88657
32
10.95357
0
3DFACE
8
layer1
62
1
10
7.27813
20
-5.69525
30
10.95357
11
7.30831
21
-4.88657
31
10.95357
12
7.39122
22
-5.45635
32
10.95357
0
3DFACE
8
layer1
62
1
10
7.39122
20
-5.45635
30
10.95357
11
7.30831
21
-4.88657
31
10.95357
12
7.39876
22
-5.07553
32
10.95357
0
3DFACE
8
layer1
62
1
10
7.39122
20
-5.45635
30
10.95357
11
7.39876
21
-5.07553
31
10.95357
12
7.42891
22
-5.23717
32
10.95357
0
3DFACE
8
layer1
62
1
10
4.67594
20
-7.38561
30
10.95357
11
4.95897
21
-7.05430
31
10.95357
12
4.87789
22
-8.57212
32
10.95357
0
3DFACE
8
layer1
62
1
10
4.67594
20
-7.38561
30
10.95357
11
4.87789
21
-8.57212
31
10.95357
12
4.22519
22
-7.97024
32
10.95357
0
3DFACE
8
layer1
62
1
10
4.67594
20
-7.38561
30
10.95357
11
4.22519
21
-7.97024
31
10.95357
12
4.43135
22
-7.69093
32
10.95357
0
3DFACE
8
layer1
62
1
10
5.93822
20
-6.02491
30
10.95357
11
5.77412
21
-7.40937
31
10.95357
12
5.62063
22
-6.34590
32
10.95357
0
3DFACE
8
layer1
62
1
10
5.62063
20
-6.34590
30
10.95357
11
5.77412
21
-7.40937
31
10.95357
12
5.30657
22
-7.99255
32
10.95357
0
3DFACE
8
layer1
62
1
10
5.62063
20
-6.34590
30
10.95357
11
5.30657
21
-7.99255
31
10.95357
12
5.28044
22
-6.69699
32
10.95357
0
3DFACE
8
layer1
62
1
10
5.28044
20
-6.69699
30
10.95357
11
5.30657
21
-7.99255
31
10.95357
12
4.87789
22
-8.57212
32
10.95357
0
3DFACE
8
layer1
62
1
10
5.28044
20
-6.69699
30
10.95357
11
4.87789
21
-8.57212
31
10.95357
12
4.95897
22
-7.05430
32
10.95357
0
3DFACE
8
layer1
62
1
10
6.23322
20
-5.73402
30
10.95357
11
6.50563
21
-5.47322
31
10.95357
12
6.28051
22
-6.82258
32
10.95357
0
3DFACE
8
layer1
62
1
10
6.23322
20
-5.73402
30
10.95357
11
6.28051
21
-6.82258
31
10.95357
12
5.77412
22
-7.40937
32
10.95357
0
3DFACE
8
layer1
62
1
10
6.23322
20
-5.73402
30
10.95357
11
5.77412
21
-7.40937
31
10.95357
12
5.93822
22
-6.02491
32
10.95357
0
3DFACE
8
layer1
62
1
10
6.28051
20
-6.82258
30
10.95357
11
6.50563
21
-5.47322
31
10.95357
12
6.56993
22
-5.41438
32
10.95357
0
3DFACE
8
layer1
62
1
10
6.28051
20
-6.82258
30
10.95357
11
6.56993
21
-5.41438
31
10.95357
12
6.61587
22
-5.36037
32
10.95357
0
3DFACE
8
layer1
62
1
10
6.28051
20
-6.82258
30
10.95357
11
6.61587
21
-5.36037
31
10.95357
12
6.64342
22
-5.31116
32
10.95357
0
3DFACE
8
layer1
62
1
10
6.28051
20
-6.82258
30
10.95357
11
6.64342
21
-5.31116
31
10.95357
12
6.82579
22
-6.23218
32
10.95357
0
3DFACE
8
layer1
62
1
10
6.82579
20
-6.23218
30
10.95357
11
6.64342
21
-5.31116
31
10.95357
12
6.65261
22
-5.26677
32
10.95357
0
3DFACE
8
layer1
62
1
10
5.88834
20
-3.23052
30
14.04643
11
5.95995
21
-4.45376
31
14.04643
12
6.39459
22
-4.89337
32
14.04643
0
3DFACE
8
layer1
62
1
10
5.47324
20
-3.89379
30
14.04643
11
5.95995
21
-4.45376
31
14.04643
12
5.88834
22
-3.23052
32
14.04643
0
3DFACE
8
layer1
62
1
10
5.41368
20
-2.58339
30
14.04643
11
5.47324
21
-3.89379
31
14.04643
12
5.88834
22
-3.23052
32
14.04643
0
3DFACE
8
layer1
62
1
10
4.93445
20
-3.21347
30
14.04643
11
5.47324
21
-3.89379
31
14.04643
12
5.41368
22
-2.58339
32
14.04643
0
3DFACE
8
layer1
62
1
10
4.97531
20
-1.90355
30
14.04643
11
4.93445
21
-3.21347
31
14.04643
12
5.41368
22
-2.58339
32
14.04643
0
3DFACE
8
layer1
62
1
10
4.34361
20
-2.41280
30
14.04643
11
4.93445
21
-3.21347
31
14.04643
12
4.97531
22
-1.90355
32
14.04643
0
3DFACE
8
layer1
62
1
10
6.82579
20
-6.23218
30
14.04643
11
6.94650
21
-4.42666
31
14.04643
12
6.39928
22
-3.84494
32
14.04643
0
3DFACE
8
layer1
62
1
10
6.65261
20
-5.26677
30
14.04643
11
6.82579
21
-6.23218
31
14.04643
12
6.39928
22
-3.84494
32
14.04643
0
3DFACE
8
layer1
62
1
10
6.63648
20
-5.20016
30
14.04643
11
6.65261
21
-5.26677
31
14.04643
12
6.39928
22
-3.84494
32
14.04643
0
3DFACE
8
layer1
62
1
10
6.58810
20
-5.11572
30
14.04643
11
6.63648
21
-5.20016
31
14.04643
12
6.39928
22
-3.84494
32
14.04643
0
3DFACE
8
layer1
62
1
10
6.50747
20
-5.01346
30
14.04643
11
6.58810
21
-5.11572
31
14.04643
12
6.39928
22
-3.84494
32
14.04643
0
3DFACE
8
layer1
62
1
10
6.39459
20
-4.89337
30
14.04643
11
6.50747
21
-5.01346
31
14.04643
12
6.39928
22
-3.84494
32
14.04643
0
3DFACE
8
layer1
62
1
10
5.88834
20
-3.23052
30
14.04643
11
6.39459
21
-4.89337
31
14.04643
12
6.39928
22
-3.84494
32
14.04643
0
3DFACE
8
layer1
62
1
10
7.08965
20
-5.95386
30
14.04643
11
6.94650
21
-4.42666
31
14.04643
12
6.82579
22
-6.23218
32
14.04643
0
3DFACE
8
layer1
62
1
10
7.15756
20
-4.67028
30
14.04643
11
6.94650
21
-4.42666
31
14.04643
12
7.08965
22
-5.95386
32
14.04643
0
3DFACE
8
layer1
62
1
10
7.27813
20
-5.69525
30
14.04643
11
7.15756
21
-4.67028
31
14.04643
12
7.08965
22
-5.95386
32
14.04643
0
3DFACE
8
layer1
62
1
10
7.30831
20
-4.88657
30
14.04643
11
7.15756
21
-4.67028
31
14.04643
12
7.27813
22
-5.69525
32
14.04643
0
3DFACE
8
layer1
62
1
10
7.39122
20
-5.45635
30
14.04643
11
7.30831
21
-4.88657
31
14.04643
12
7.27813
22
-5.69525
32
14.04643
0
3DFACE
8
layer1
62
1
10
7.39876
20
-5.07553
30
14.04643
11
7.30831
21
-4.88657
31
14.04643
12
7.39122
22
-5.45635
32
14.04643
0
3DFACE
8
layer1
62
1
10
7.42891
20
-5.23717
30
14.04643
11
7.39876
21
-5.07553
31
14.04643
12
7.39122
22
-5.45635
32
14.04643
0
3DFACE
8
layer1
62
1
10
4.87789
20
-8.57212
30
14.04643
11
4.95897
21
-7.05430
31
14.04643
12
4.67594
22
-7.38561
32
14.04643
0
3DFACE
8
layer1
62
1
10
4.22519
20
-7.97024
30
14.04643
11
4.87789
21
-8.57212
31
14.04643
12
4.67594
22
-7.38561
32
14.04643
0
3DFACE
8
layer1
62
1
10
4.43135
20
-7.69093
30
14.04643
11
4.22519
21
-7.97024
31
14.04643
12
4.67594
22
-7.38561
32
14.04643
0
3DFACE
8
layer1
62
1
10
5.62063
20
-6.34590
30
14.04643
11
5.77412
21
-7.40937
31
14.04643
12
5.93822
22
-6.02491
32
14.04643
0
3DFACE
8
layer1
62
1
10
5.30657
20
-7.99255
30
14.04643
11
5.77412
21
-7.40937
31
14.04643
12
5.62063
22
-6.34590
32
14.04643
0
3DFACE
8
layer1
62
1
10
5.28044
20
-6.69699
30
14.04643
11
5.30657
21
-7.99255
31
14.04643
12
5.62063
22
-6.34590
32
14.04643
0
3DFACE
8
layer1
62
1
10
4.87789
20
-8.57212
30
14.04643
11
5.30657
21
-7.99255
31
14.04643
12
5.28044
22
-6.69699
32
14.04643
0
3DFACE
8
layer1
62
1
10
4.95897
20
-7.05430
30
14.04643
11
4.87789
21
-8.57212
31
14.04643
12
5.28044
22
-6.69699
32
14.04643
0
3DFACE
8
layer1
62
1
10
6.28051
20
-6.82258
30
14.04643
11
6.50563
21
-5.47322
31
14.04643
12
6.23322
22
-5.73402
32
14.04643
0
3DFACE
8
layer1
62
1
10
5.77412
20
-7.40937
30
14.04643
11
6.28051
21
-6.82258
31
14.04643
12
6.23322
22
-5.73402
32
14.04643
0
3DFACE
8
layer1
62
1
10
5.93822
20
-6.02491
30
14.04643
11
5.77412
21
-7.40937
31
14.04643
12
6.23322
22
-5.73402
32
14.04643
0
3DFACE
8
layer1
62
1
10
6.56993
20
-5.41438
30
14.04643
11
6.50563
21
-5.47322
31
14.04643
12
6.28051
22
-6.82258
32
14.04643
0
3DFACE
8
layer1
62
1
10
6.61587
20
-5.36037
30
14.04643
11
6.56993
21
-5.41438
31
14.04643
12
6.28051
22
-6.82258
32
14.04643
0
3DFACE
8
layer1
62
1
10
6.64342
20
-5.31116
30
14.04643
11
6.61587
21
-5.36037
31
14.04643
12
6.28051
22
-6.82258
32
14.04643
0
3DFACE
8
layer1
62
1
10
6.82579
20
-6.23218
30
14.04643
11
6.64342
21
-5.31116
31
14.04643
12
6.28051
22
-6.82258
32
14.04643
0
3DFACE
8
layer1
62
1
10
6.65261
20
-5.26677
30
14.04643
11
6.64342
21
-5.31116
31
14.04643
12
6.82579
22
-6.23218
32
14.04643
0
3DFACE
8
layer1
62
1
10
6.61587
20
-5.36037
30
10.95357
11
6.56993
21
-5.41438
31
10.95357
12
6.56993
22
-5.41438
32
14.04643
13
6.61587
23
-5.36037
33
14.04643
0
3DFACE
8
layer1
62
1
10
6.64342
20
-5.31116
30
10.95357
11
6.61587
21
-5.36037
31
10.95357
12
6.61587
22
-5.36037
32
14.04643
13
6.64342
23
-5.31116
33
14.04643
0
3DFACE
8
layer1
62
1
10
6.65261
20
-5.26677
30
10.95357
11
6.64342
21
-5.31116
31
10.95357
12
6.64342
22
-5.31116
32
14.04643
13
6.65261
23
-5.26677
33
14.04643
0
3DFACE
8
layer1
62
1
10
6.63648
20
-5.20016
30
10.95357
11
6.65261
21
-5.26677
31
10.95357
12
6.65261
22
-5.26677
32
14.04643
13
6.63648
23
-5.20016
33
14.04643
0
3DFACE
8
layer1
62
1
10
6.58810
20
-5.11572
30
10.95357
11
6.63648
21
-5.20016
31
10.95357
12
6.63648
22
-5.20016
32
14.04643
13
6.58810
23
-5.11572
33
14.04643
0
3DFACE
8
layer1
62
1
10
6.50747
20
-5.01346
30
10.95357
11
6.58810
21
-5.11572
31
10.95357
12
6.58810
22
-5.11572
32
14.04643
13
6.50747
23
-5.01346
33
14.04643
0
3DFACE
8
layer1
62
1
10
6.39459
20
-4.89337
30
10.95357
11
6.50747
21
-5.01346
31
10.95357
12
6.50747
22
-5.01346
32
14.04643
13
6.39459
23
-4.89337
33
14.04643
0
3DFACE
8
layer1
62
1
10
5.95995
20
-4.45376
30
10.95357
11
6.39459
21
-4.89337
31
10.95357
12
6.39459
22
-4.89337
32
14.04643
13
5.95995
23
-4.45376
33
14.04643
0
3DFACE
8
layer1
62
1
10
5.47324
20
-3.89379
30
10.95357
11
5.95995
21
-4.45376
31
10.95357
12
5.95995
22
-4.45376
32
14.04643
13
5.47324
23
-3.89379
33
14.04643
0
3DFACE
8
layer1
62
1
10
4.93445
20
-3.21347
30
10.95357
11
5.47324
21
-3.89379
31
10.95357
12
5.47324
22
-3.89379
32
14.04643
13
4.93445
23
-3.21347
33
14.04643
0
3DFACE
8
layer1
62
1
10
4.34361
20
-2.41280
30
10.95357
11
4.93445
21
-3.21347
31
10.95357
12
4.93445
22
-3.21347
32
14.04643
13
4.34361
23
-2.41280
33
14.04643
0
3DFACE
8
layer1
62
1
10
4.97531
20
-1.90355
30
10.95357
11
4.34361
21
-2.41280
31
10.95357
12
4.34361
22
-2.41280
32
14.04643
13
4.97531
23
-1.90355
33
14.04643
0
3DFACE
8
layer1
62
1
10
5.41368
20
-2.58339
30
10.95357
11
4.97531
21
-1.90355
31
10.95357
12
4.97531
22
-1.90355
32
14.04643
13
5.41368
23
-2.58339
33
14.04643
0
3DFACE
8
layer1
62
1
10
5.88834
20
-3.23052
30
10.95357
11
5.41368
21
-2.58339
31
10.95357
12
5.41368
22
-2.58339
32
14.04643
13
5.88834
23
-3.23052
33
14.04643
0
3DFACE
8
layer1
62
1
10
6.39928
20
-3.84494
30
10.95357
11
5.88834
21
-3.23052
31
10.95357
12
5.88834
22
-3.23052
32
14.04643
13
6.39928
23
-3.84494
33
14.04643
0
3DFACE
8
layer1
62
1
10
6.94650
20
-4.42666
30
10.95357
11
6.39928
21
-3.84494
31
10.95357
12
6.39928
22
-3.84494
32
14.04643
13
6.94650
23
-4.42666
33
14.04643
0
3DFACE
8
layer1
62
1
10
7.15756
20
-4.67028
30
10.95357
11
6.94650
21
-4.42666
31
10.95357
12
6.94650
22
-4.42666
32
14.04643
13
7.15756
23
-4.67028
33
14.04643
0
3DFACE
8
layer1
62
1
10
7.30831
20
-4.88657
30
10.95357
11
7.15756
21
-4.67028
31
10.95357
12
7.15756
22
-4.67028
32
14.04643
13
7.30831
23
-4.88657
33
14.04643
0
3DFACE
8
layer1
62
1
10
7.39876
20
-5.07553
30
10.95357
11
7.30831
21
-4.88657
31
10.95357
12
7.30831
22
-4.88657
32
14.04643
13
7.39876
23
-5.07553
33
14.04643
0
3DFACE
8
layer1
62
1
10
7.42891
20
-5.23717
30
10.95357
11
7.39876
21
-5.07553
31
10.95357
12
7.39876
22
-5.07553
32
14.04643
13
7.42891
23
-5.23717
33
14.04643
0
3DFACE
8
layer1
62
1
10
7.39122
20
-5.45635
30
10.95357
11
7.42891
21
-5.23717
31
10.95357
12
7.42891
22
-5.23717
32
14.04643
13
7.39122
23
-5.45635
33
14.04643
0
3DFACE
8
layer1
62
1
10
7.27813
20
-5.69525
30
10.95357
11
7.39122
21
-5.45635
31
10.95357
12
7.39122
22
-5.45635
32
14.04643
13
7.27813
23
-5.69525
33
14.04643
0
3DFACE
8
layer1
62
1
10
7.08965
20
-5.95386
30
10.95357
11
7.27813
21
-5.69525
31
10.95357
12
7.27813
22
-5.69525
32
14.04643
13
7.08965
23
-5.95386
33
14.04643
0
3DFACE
8
layer1
62
1
10
6.82579
20
-6.23218
30
10.95357
11
7.08965
21
-5.95386
31
10.95357
12
7.08965
22
-5.95386
32
14.04643
13
6.82579
23
-6.23218
33
14.04643
0
3DFACE
8
layer1
62
1
10
6.28051
20
-6.82258
30
10.95357
11
6.82579
21
-6.23218
31
10.95357
12
6.82579
22
-6.23218
32
14.04643
13
6.28051
23
-6.82258
33
14.04643
0
3DFACE
8
layer1
62
1
10
5.77412
20
-7.40937
30
10.95357
11
6.28051
21
-6.82258
31
10.95357
12
6.28051
22
-6.82258
32
14.04643
13
5.77412
23
-7.40937
33
14.04643
0
3DFACE
8
layer1
62
1
10
5.30657
20
-7.99255
30
10.95357
11
5.77412
21
-7.40937
31
10.95357
12
5.77412
22
-7.40937
32
14.04643
13
5.30657
23
-7.99255
33
14.04643
0
3DFACE
8
layer1
62
1
10
4.87789
20
-8.57212
30
10.95357
11
5.30657
21
-7.99255
31
10.95357
12
5.30657
22
-7.99255
32
14.04643
13
4.87789
23
-8.57212
33
14.04643
0
3DFACE
8
layer1
62
1
10
4.22519
20
-7.97024
30
10.95357
11
4.87789
21
-8.57212
31
10.95357
12
4.87789
22
-8.57212
32
14.04643
13
4.22519
23
-7.97024
33
14.04643
0
3DFACE
8
layer1
62
1
10
4.43135
20
-7.69093
30
10.95357
11
4.22519
21
-7.97024
31
10.95357
12
4.22519
22
-7.97024
32
14.04643
13
4.43135
23
-7.69093
33
14.04643
0
3DFACE
8
layer1
62
1
10
4.67594
20
-7.38561
30
10.95357
11
4.43135
21
-7.69093
31
10.95357
12
4.43135
22
-7.69093
32
14.04643
13
4.67594
23
-7.38561
33
14.04643
0
3DFACE
8
layer1
62
1
10
4.95897
20
-7.05430
30
10.95357
11
4.67594
21
-7.38561
31
10.95357
12
4.67594
22
-7.38561
32
14.04643
13
4.95897
23
-7.05430
33
14.04643
0
3DFACE
8
layer1
62
1
10
5.28044
20
-6.69699
30
10.95357
11
4.95897
21
-7.05430
31
10.95357
12
4.95897
22
-7.05430
32
14.04643
13
5.28044
23
-6.69699
33
14.04643
0
3DFACE
8
layer1
62
1
10
5.62063
20
-6.34590
30
10.95357
11
5.28044
21
-6.69699
31
10.95357
12
5.28044
22
-6.69699
32
14.04643
13
5.62063
23
-6.34590
33
14.04643
0
3DFACE
8
layer1
62
1
10
5.93822
20
-6.02491
30
10.95357
11
5.62063
21
-6.34590
31
10.95357
12
5.62063
22
-6.34590
32
14.04643
13
5.93822
23
-6.02491
33
14.04643
0
3DFACE
8
layer1
62
1
10
6.23322
20
-5.73402
30
10.95357
11
5.93822
21
-6.02491
31
10.95357
12
5.93822
22
-6.02491
32
14.04643
13
6.23322
23
-5.73402
33
14.04643
0
3DFACE
8
layer1
62
1
10
6.50563
20
-5.47322
30
10.95357
11
6.23322
21
-5.73402
31
10.95357
12
6.23322
22
-5.73402
32
14.04643
13
6.50563
23
-5.47322
33
14.04643
0
3DFACE
8
layer1
62
1
10
6.56993
20
-5.41438
30
10.95357
11
6.50563
21
-5.47322
31
10.95357
12
6.50563
22
-5.47322
32
14.04643
13
6.56993
23
-5.41438
33
14.04643
0
3DFACE
8
layer1
62
1
10
-1.33939
20
-6.52311
30
10.95357
11
-1.17494
21
-7.07551
31
10.95357
12
-1.38229
22
-7.92315
32
10.95357
0
3DFACE
8
layer1
62
1
10
-1.38229
20
-7.92315
30
10.95357
11
-1.17494
21
-7.07551
31
10.95357
12
-0.94472
22
-7.55766
32
10.95357
0
3DFACE
8
layer1
62
1
10
-1.38229
20
-7.92315
30
10.95357
11
-0.94472
21
-7.55766
31
10.95357
12
-0.80165
22
-8.54142
32
10.95357
0
3DFACE
8
layer1
62
1
10
-0.80165
20
-8.54142
30
10.95357
11
-0.94472
21
-7.55766
31
10.95357
12
-0.94472
22
-7.23203
32
10.95357
0
3DFACE
8
layer1
62
1
10
-0.80165
20
-8.54142
30
10.95357
11
-0.94472
21
-7.23203
31
10.95357
12
-0.70127
22
-7.80111
32
10.95357
0
3DFACE
8
layer1
62
1
10
-0.70127
20
-7.80111
30
10.95357
11
-0.94472
21
-7.23203
31
10.95357
12
0.12097
22
-7.38005
32
10.95357
0
3DFACE
8
layer1
62
1
10
-0.70127
20
-7.80111
30
10.95357
11
0.12097
21
-7.38005
31
10.95357
12
0.77886
22
-7.14985
32
10.95357
0
3DFACE
8
layer1
62
1
10
0.77886
20
-7.14985
30
10.95357
11
0.12097
21
-7.38005
31
10.95357
12
0.77886
22
-6.52234
32
10.95357
0
3DFACE
8
layer1
62
1
10
0.77886
20
-7.14985
30
10.95357
11
0.77886
21
-6.52234
31
10.95357
12
1.75576
22
-6.52234
32
10.95357
0
3DFACE
8
layer1
62
1
10
0.77886
20
-4.06533
30
10.95357
11
1.78535
21
-4.06533
31
10.95357
12
1.12747
22
-4.57443
32
10.95357
0
3DFACE
8
layer1
62
1
10
1.12747
20
-4.57443
30
10.95357
11
1.78535
21
-4.06533
31
10.95357
12
1.20479
22
-6.29138
32
10.95357
0
3DFACE
8
layer1
62
1
10
1.12747
20
-4.57443
30
10.95357
11
1.20479
21
-6.29138
31
10.95357
12
1.12747
22
-5.78228
32
10.95357
0
3DFACE
8
layer1
62
1
10
1.12747
20
-5.78228
30
10.95357
11
1.20479
21
-6.29138
31
10.95357
12
0.77886
22
-6.29138
32
10.95357
0
3DFACE
8
layer1
62
1
10
1.12747
20
-5.78228
30
10.95357
11
0.77886
21
-6.29138
31
10.95357
12
0.77886
22
-5.78228
32
10.95357
0
3DFACE
8
layer1
62
1
10
0.77886
20
-5.78228
30
10.95357
11
0.77886
21
-6.29138
31
10.95357
12
0.12097
22
-7.38005
32
10.95357
0
3DFACE
8
layer1
62
1
10
0.77886
20
-5.78228
30
10.95357
11
0.12097
21
-7.38005
31
10.95357
12
0.77886
22
-5.43290
32
10.95357
0
3DFACE
8
layer1
62
1
10
0.77886
20
-5.43290
30
10.95357
11
0.12097
21
-7.38005
31
10.95357
12
0.77886
22
-4.92380
32
10.95357
0
3DFACE
8
layer1
62
1
10
0.77886
20
-5.43290
30
10.95357
11
0.77886
21
-4.92380
31
10.95357
12
1.12747
22
-4.92380
32
10.95357
0
3DFACE
8
layer1
62
1
10
1.12747
20
-5.43290
30
10.95357
11
0.77886
21
-5.43290
31
10.95357
12
1.12747
22
-4.92380
32
10.95357
0
3DFACE
8
layer1
62
1
10
1.12747
20
-5.43290
30
10.95357
11
1.12747
21
-4.92380
31
10.95357
12
1.12747
22
-4.57443
32
10.95357
0
3DFACE
8
layer1
62
1
10
1.12747
20
-5.43290
30
10.95357
11
1.12747
21
-4.57443
31
10.95357
12
1.12747
22
-5.78228
32
10.95357
0
3DFACE
8
layer1
62
1
10
1.12747
20
-4.57443
30
10.95357
11
0.77886
21
-4.57443
31
10.95357
12
0.77886
22
-4.06533
32
10.95357
0
3DFACE
8
layer1
62
1
10
0.77886
20
-4.06533
30
10.95357
11
0.77886
21
-4.57443
31
10.95357
12
0.12097
22
-7.38005
32
10.95357
0
3DFACE
8
layer1
62
1
10
0.77886
20
-4.06533
30
10.95357
11
0.12097
21
-7.38005
31
10.95357
12
0.77886
22
-3.86397
32
10.95357
0
3DFACE
8
layer1
62
1
10
0.77886
20
-3.86397
30
10.95357
11
0.12097
21
-7.38005
31
10.95357
12
0.77886
22
-3.23645
32
10.95357
0
3DFACE
8
layer1
62
1
10
0.77886
20
-3.86397
30
10.95357
11
0.77886
21
-3.23645
31
10.95357
12
1.93336
22
-3.23645
32
10.95357
0
3DFACE
8
layer1
62
1
10
0.98096
20
-3.00341
30
10.95357
11
0.77886
21
-2.97588
31
10.95357
12
0.69984
22
-2.32030
32
10.95357
0
3DFACE
8
layer1
62
1
10
0.69984
20
-2.32030
30
10.95357
11
0.77886
21
-2.97588
31
10.95357
12
0.12097
22
-7.38005
32
10.95357
0
3DFACE
8
layer1
62
1
10
0.69984
20
-2.32030
30
10.95357
11
0.12097
21
-7.38005
31
10.95357
12
0.12097
22
-2.91110
32
10.95357
0
3DFACE
8
layer1
62
1
10
0.12097
20
-2.91110
30
10.95357
11
0.12097
21
-7.38005
31
10.95357
12
0.12097
22
-7.14985
32
10.95357
0
3DFACE
8
layer1
62
1
10
0.12097
20
-2.91110
30
10.95357
11
0.12097
21
-7.14985
31
10.95357
12
0.12097
22
-6.52234
32
10.95357
0
3DFACE
8
layer1
62
1
10
0.12097
20
-6.52234
30
10.95357
11
0.12097
21
-7.14985
31
10.95357
12
-0.91512
22
-7.14985
32
10.95357
0
3DFACE
8
layer1
62
1
10
0.12097
20
-6.52234
30
10.95357
11
-0.91512
21
-7.14985
31
10.95357
12
-0.91512
22
-6.52234
32
10.95357
0
3DFACE
8
layer1
62
1
10
1.71429
20
-3.06469
30
10.95357
11
1.44868
21
-3.04781
31
10.95357
12
1.27579
22
-2.38069
32
10.95357
0
3DFACE
8
layer1
62
1
10
1.27579
20
-2.38069
30
10.95357
11
1.44868
21
-3.04781
31
10.95357
12
1.20423
22
-3.02739
32
10.95357
0
3DFACE
8
layer1
62
1
10
1.27579
20
-2.38069
30
10.95357
11
1.20423
21
-3.02739
31
10.95357
12
0.69984
22
-2.32030
32
10.95357
0
3DFACE
8
layer1
62
1
10
0.69984
20
-2.32030
30
10.95357
11
1.20423
21
-3.02739
31
10.95357
12
0.98096
22
-3.00341
32
10.95357
0
3DFACE
8
layer1
62
1
10
1.72436
20
-2.16397
30
10.95357
11
1.73267
21
-2.07976
31
10.95357
12
1.76288
22
-2.22319
32
10.95357
0
3DFACE
8
layer1
62
1
10
1.76288
20
-2.22319
30
10.95357
11
1.73267
21
-2.07976
31
10.95357
12
1.78781
22
-1.97053
32
10.95357
0
3DFACE
8
layer1
62
1
10
1.76288
20
-2.22319
30
10.95357
11
1.78781
21
-1.97053
31
10.95357
12
1.84823
22
-2.25739
32
10.95357
0
3DFACE
8
layer1
62
1
10
1.84823
20
-2.25739
30
10.95357
11
1.78781
21
-1.97053
31
10.95357
12
2.16355
22
-3.74928
32
10.95357
0
3DFACE
8
layer1
62
1
10
1.84823
20
-2.25739
30
10.95357
11
2.16355
21
-3.74928
31
10.95357
12
2.08876
22
-3.48611
32
10.95357
0
3DFACE
8
layer1
62
1
10
1.84823
20
-2.25739
30
10.95357
11
2.08876
21
-3.48611
31
10.95357
12
2.01128
22
-3.14974
32
10.95357
0
3DFACE
8
layer1
62
1
10
1.84823
20
-2.25739
30
10.95357
11
2.01128
21
-3.14974
31
10.95357
12
1.93110
22
-2.74017
32
10.95357
0
3DFACE
8
layer1
62
1
10
2.88233
20
-5.33139
30
10.95357
11
2.82145
21
-5.10727
31
10.95357
12
2.69782
22
-2.88664
32
10.95357
0
3DFACE
8
layer1
62
1
10
2.69782
20
-2.88664
30
10.95357
11
2.82145
21
-5.10727
31
10.95357
12
2.07475
22
-8.65961
32
10.95357
0
3DFACE
8
layer1
62
1
10
2.69782
20
-2.88664
30
10.95357
11
2.07475
21
-8.65961
31
10.95357
12
2.54715
22
-1.84435
32
10.95357
0
3DFACE
8
layer1
62
1
10
2.54715
20
-1.84435
30
10.95357
11
2.07475
21
-8.65961
31
10.95357
12
2.16355
22
-3.74928
32
10.95357
0
3DFACE
8
layer1
62
1
10
2.54715
20
-1.84435
30
10.95357
11
2.16355
21
-3.74928
31
10.95357
12
1.78781
22
-1.97053
32
10.95357
0
3DFACE
8
layer1
62
1
10
-0.36889
20
-2.85488
30
10.95357
11
-0.53268
21
-2.82787
31
10.95357
12
-0.56239
22
-2.11077
32
10.95357
0
3DFACE
8
layer1
62
1
10
-0.56239
20
-2.11077
30
10.95357
11
-0.53268
21
-2.82787
31
10.95357
12
-0.65726
22
-2.85140
32
10.95357
0
3DFACE
8
layer1
62
1
10
-0.56239
20
-2.11077
30
10.95357
11
-0.65726
21
-2.85140
31
10.95357
12
-0.76414
22
-2.67152
32
10.95357
0
3DFACE
8
layer1
62
1
10
-0.76414
20
-2.67152
30
10.95357
11
-0.65726
21
-2.85140
31
10.95357
12
-0.73736
22
-2.83319
32
10.95357
0
3DFACE
8
layer1
62
1
10
-0.76414
20
-2.67152
30
10.95357
11
-0.73736
21
-2.83319
31
10.95357
12
-0.77299
22
-2.77323
32
10.95357
0
3DFACE
8
layer1
62
1
10
0.69984
20
-2.32030
30
10.95357
11
0.12097
21
-2.91110
31
10.95357
12
0.08712
22
-2.23033
32
10.95357
0
3DFACE
8
layer1
62
1
10
0.08712
20
-2.23033
30
10.95357
11
0.12097
21
-2.91110
31
10.95357
12
-0.04206
22
-2.89650
32
10.95357
0
3DFACE
8
layer1
62
1
10
0.08712
20
-2.23033
30
10.95357
11
-0.04206
21
-2.89650
31
10.95357
12
-0.56239
22
-2.11077
32
10.95357
0
3DFACE
8
layer1
62
1
10
-0.56239
20
-2.11077
30
10.95357
11
-0.04206
21
-2.89650
31
10.95357
12
-0.20535
22
-2.87776
32
10.95357
0
3DFACE
8
layer1
62
1
10
-0.56239
20
-2.11077
30
10.95357
11
-0.20535
21
-2.87776
31
10.95357
12
-0.36889
22
-2.85488
32
10.95357
0
3DFACE
8
layer1
62
1
10
0.12097
20
-2.91110
30
10.95357
11
0.12097
21
-6.52234
31
10.95357
12
0.12097
22
-6.29138
32
10.95357
0
3DFACE
8
layer1
62
1
10
0.12097
20
-2.91110
30
10.95357
11
0.12097
21
-6.29138
31
10.95357
12
0.12097
22
-5.78228
32
10.95357
0
3DFACE
8
layer1
62
1
10
0.12097
20
-2.91110
30
10.95357
11
0.12097
21
-5.78228
31
10.95357
12
0.12097
22
-5.43290
32
10.95357
0
3DFACE
8
layer1
62
1
10
0.12097
20
-2.91110
30
10.95357
11
0.12097
21
-5.43290
31
10.95357
12
0.12097
22
-4.92380
32
10.95357
0
3DFACE
8
layer1
62
1
10
0.12097
20
-2.91110
30
10.95357
11
0.12097
21
-4.92380
31
10.95357
12
0.12097
22
-4.57443
32
10.95357
0
3DFACE
8
layer1
62
1
10
0.12097
20
-2.91110
30
10.95357
11
0.12097
21
-4.57443
31
10.95357
12
0.12097
22
-4.06533
32
10.95357
0
3DFACE
8
layer1
62
1
10
0.12097
20
-2.91110
30
10.95357
11
0.12097
21
-4.06533
31
10.95357
12
0.12097
22
-3.86397
32
10.95357
0
3DFACE
8
layer1
62
1
10
0.12097
20
-2.91110
30
10.95357
11
0.12097
21
-3.86397
31
10.95357
12
0.12097
22
-3.23645
32
10.95357
0
3DFACE
8
layer1
62
1
10
0.12097
20
-3.86397
30
10.95357
11
-0.99730
21
-3.86397
31
10.95357
12
0.12097
22
-3.23645
32
10.95357
0
3DFACE
8
layer1
62
1
10
0.12097
20
-3.23645
30
10.95357
11
-0.99730
21
-3.86397
31
10.95357
12
-0.99730
22
-3.73970
32
10.95357
0
3DFACE
8
layer1
62
1
10
0.12097
20
-3.23645
30
10.95357
11
-0.99730
21
-3.73970
31
10.95357
12
-1.00392
22
-3.23645
32
10.95357
0
3DFACE
8
layer1
62
1
10
-1.00392
20
-3.23645
30
10.95357
11
-0.99730
21
-3.73970
31
10.95357
12
-1.00392
22
-3.73970
32
10.95357
0
3DFACE
8
layer1
62
1
10
-1.47094
20
-4.36721
30
10.95357
11
-1.47094
21
-5.20757
31
10.95357
12
-1.79703
22
-7.17622
32
10.95357
0
3DFACE
8
layer1
62
1
10
-1.47094
20
-4.36721
30
10.95357
11
-1.79703
21
-7.17622
31
10.95357
12
-1.50054
22
-3.73970
32
10.95357
0
3DFACE
8
layer1
62
1
10
-1.47094
20
-4.36721
30
10.95357
11
-1.50054
21
-3.73970
31
10.95357
12
-1.00392
22
-3.73970
32
10.95357
0
3DFACE
8
layer1
62
1
10
-1.47094
20
-4.36721
30
10.95357
11
-1.00392
21
-3.73970
31
10.95357
12
-1.00392
22
-3.86397
32
10.95357
0
3DFACE
8
layer1
62
1
10
-1.47094
20
-4.36721
30
10.95357
11
-1.00392
21
-3.86397
31
10.95357
12
-0.99730
22
-3.86397
32
10.95357
0
3DFACE
8
layer1
62
1
10
-1.47094
20
-4.36721
30
10.95357
11
-0.99730
21
-3.86397
31
10.95357
12
-0.99730
22
-4.36721
32
10.95357
0
3DFACE
8
layer1
62
1
10
-2.12883
20
-5.29637
30
10.95357
11
-2.12883
21
-4.36721
31
10.95357
12
-2.05151
22
-1.96354
32
10.95357
0
3DFACE
8
layer1
62
1
10
-2.05151
20
-1.96354
30
10.95357
11
-2.12883
21
-4.36721
31
10.95357
12
-2.15843
22
-2.26416
32
10.95357
0
3DFACE
8
layer1
62
1
10
-2.05151
20
-1.96354
30
10.95357
11
-2.15843
21
-2.26416
31
10.95357
12
-2.22040
22
-1.98233
32
10.95357
0
3DFACE
8
layer1
62
1
10
-2.22040
20
-1.98233
30
10.95357
11
-2.15843
21
-2.26416
31
10.95357
12
-2.27386
22
-2.13264
32
10.95357
0
3DFACE
8
layer1
62
1
10
-2.22040
20
-1.98233
30
10.95357
11
-2.27386
21
-2.13264
31
10.95357
12
-2.29451
22
-2.03869
32
10.95357
0
3DFACE
8
layer1
62
1
10
-2.15843
20
-2.26416
30
10.95357
11
-2.12883
21
-4.36721
31
10.95357
12
-2.15843
22
-3.73970
32
10.95357
0
3DFACE
8
layer1
62
1
10
-2.15843
20
-3.73970
30
10.95357
11
-2.12883
21
-4.36721
31
10.95357
12
-2.56624
22
-4.36721
32
10.95357
0
3DFACE
8
layer1
62
1
10
-2.15843
20
-3.73970
30
10.95357
11
-2.56624
21
-4.36721
31
10.95357
12
-3.22412
22
-3.73970
32
10.95357
0
3DFACE
8
layer1
62
1
10
-3.22412
20
-3.73970
30
10.95357
11
-2.56624
21
-4.36721
31
10.95357
12
-2.72586
22
-8.42484
32
10.95357
0
3DFACE
8
layer1
62
1
10
-3.22412
20
-3.73970
30
10.95357
11
-2.72586
21
-8.42484
31
10.95357
12
-2.95838
22
-8.25009
32
10.95357
0
3DFACE
8
layer1
62
1
10
-2.05151
20
-1.96354
30
10.95357
11
-1.50054
21
-1.96354
31
10.95357
12
-1.79703
22
-7.17622
32
10.95357
0
3DFACE
8
layer1
62
1
10
-2.05151
20
-1.96354
30
10.95357
11
-1.79703
21
-7.17622
31
10.95357
12
-2.04588
22
-6.30063
32
10.95357
0
3DFACE
8
layer1
62
1
10
-2.05151
20
-1.96354
30
10.95357
11
-2.04588
21
-6.30063
31
10.95357
12
-2.12883
22
-5.29637
32
10.95357
0
3DFACE
8
layer1
62
1
10
-1.43805
20
-5.90046
30
10.95357
11
-1.33939
21
-6.52311
31
10.95357
12
-1.38229
22
-7.92315
32
10.95357
0
3DFACE
8
layer1
62
1
10
-1.43805
20
-5.90046
30
10.95357
11
-1.38229
21
-7.92315
31
10.95357
12
-1.79703
22
-7.17622
32
10.95357
0
3DFACE
8
layer1
62
1
10
-1.43805
20
-5.90046
30
10.95357
11
-1.79703
21
-7.17622
31
10.95357
12
-1.47094
22
-5.20757
32
10.95357
0
3DFACE
8
layer1
62
1
10
-3.22412
20
-3.73970
30
10.95357
11
-2.95838
21
-8.25009
31
10.95357
12
-3.10432
22
-7.95884
32
10.95357
0
3DFACE
8
layer1
62
1
10
-3.22412
20
-3.73970
30
10.95357
11
-3.10432
21
-7.95884
31
10.95357
12
-3.16367
22
-7.55109
32
10.95357
0
3DFACE
8
layer1
62
1
10
-2.72586
20
-8.42484
30
10.95357
11
-2.56624
21
-4.36721
31
10.95357
12
-2.47758
22
-7.50960
32
10.95357
0
3DFACE
8
layer1
62
1
10
-2.72586
20
-8.42484
30
10.95357
11
-2.47758
21
-7.50960
31
10.95357
12
-2.45652
22
-7.66048
32
10.95357
0
3DFACE
8
layer1
62
1
10
-2.72586
20
-8.42484
30
10.95357
11
-2.45652
21
-7.66048
31
10.95357
12
-2.41795
22
-7.76825
32
10.95357
0
3DFACE
8
layer1
62
1
10
-2.72586
20
-8.42484
30
10.95357
11
-2.41795
21
-7.76825
31
10.95357
12
-2.40674
22
-8.48309
32
10.95357
0
3DFACE
8
layer1
62
1
10
-1.67815
20
-7.85447
30
10.95357
11
-1.71230
21
-8.48309
31
10.95357
12
-2.28833
22
-7.85447
32
10.95357
0
3DFACE
8
layer1
62
1
10
-2.28833
20
-7.85447
30
10.95357
11
-1.71230
21
-8.48309
31
10.95357
12
-2.40674
22
-8.48309
32
10.95357
0
3DFACE
8
layer1
62
1
10
-2.28833
20
-7.85447
30
10.95357
11
-2.40674
21
-8.48309
31
10.95357
12
-2.36189
22
-7.83291
32
10.95357
0
3DFACE
8
layer1
62
1
10
-2.36189
20
-7.83291
30
10.95357
11
-2.40674
21
-8.48309
31
10.95357
12
-2.41795
22
-7.76825
32
10.95357
0
3DFACE
8
layer1
62
1
10
0.12097
20
-4.92380
30
10.95357
11
-0.28684
21
-5.43290
31
10.95357
12
-0.28684
22
-4.92380
32
10.95357
0
3DFACE
8
layer1
62
1
10
-0.28684
20
-4.92380
30
10.95357
11
-0.28684
21
-5.43290
31
10.95357
12
-0.94472
22
-6.29138
32
10.95357
0
3DFACE
8
layer1
62
1
10
-0.28684
20
-4.92380
30
10.95357
11
-0.94472
21
-6.29138
31
10.95357
12
-0.28684
22
-4.57443
32
10.95357
0
3DFACE
8
layer1
62
1
10
-0.28684
20
-4.57443
30
10.95357
11
-0.94472
21
-6.29138
31
10.95357
12
-0.94472
22
-4.06533
32
10.95357
0
3DFACE
8
layer1
62
1
10
-0.28684
20
-4.57443
30
10.95357
11
-0.94472
21
-4.06533
31
10.95357
12
0.12097
22
-4.06533
32
10.95357
0
3DFACE
8
layer1
62
1
10
-0.94472
20
-6.29138
30
10.95357
11
-0.28684
21
-5.43290
31
10.95357
12
-0.28684
22
-5.78228
32
10.95357
0
3DFACE
8
layer1
62
1
10
-0.94472
20
-6.29138
30
10.95357
11
-0.28684
21
-5.78228
31
10.95357
12
0.12097
22
-5.78228
32
10.95357
0
3DFACE
8
layer1
62
1
10
-0.94472
20
-6.29138
30
10.95357
11
0.12097
21
-5.78228
31
10.95357
12
0.12097
22
-6.29138
32
10.95357
0
3DFACE
8
layer1
62
1
10
0.77886
20
-7.44829
30
10.95357
11
1.93336
21
-7.56816
31
10.95357
12
1.80891
22
-8.29741
32
10.95357
0
3DFACE
8
layer1
62
1
10
0.77886
20
-7.44829
30
10.95357
11
1.80891
21
-8.29741
31
10.95357
12
1.69946
22
-8.35163
32
10.95357
0
3DFACE
8
layer1
62
1
10
0.77886
20
-7.44829
30
10.95357
11
1.69946
21
-8.35163
31
10.95357
12
1.52118
22
-8.23506
32
10.95357
0
3DFACE
8
layer1
62
1
10
0.77886
20
-7.44829
30
10.95357
11
1.52118
21
-8.23506
31
10.95357
12
-0.70127
22
-7.80111
32
10.95357
0
3DFACE
8
layer1
62
1
10
0.77886
20
-7.44829
30
10.95357
11
-0.70127
21
-7.80111
31
10.95357
12
0.77886
22
-7.14985
32
10.95357
0
3DFACE
8
layer1
62
1
10
1.52118
20
-8.23506
30
10.95357
11
1.69946
21
-8.35163
31
10.95357
12
1.61502
22
-8.35931
32
10.95357
0
3DFACE
8
layer1
62
1
10
1.52118
20
-8.23506
30
10.95357
11
1.61502
21
-8.35931
31
10.95357
12
1.55559
22
-8.32045
32
10.95357
0
3DFACE
8
layer1
62
1
10
2.03589
20
-3.78297
30
10.95357
11
2.16355
21
-3.74928
31
10.95357
12
2.07475
22
-4.03690
32
10.95357
0
3DFACE
8
layer1
62
1
10
2.03589
20
-3.78297
30
10.95357
11
2.07475
21
-4.03690
31
10.95357
12
1.99149
22
-3.92678
32
10.95357
0
3DFACE
8
layer1
62
1
10
2.03589
20
-3.78297
30
10.95357
11
1.99149
21
-3.92678
31
10.95357
12
1.97854
22
-3.84214
32
10.95357
0
3DFACE
8
layer1
62
1
10
2.93684
20
-3.80427
30
10.95357
11
3.26420
21
-4.59725
31
10.95357
12
3.22457
22
-5.87694
32
10.95357
0
3DFACE
8
layer1
62
1
10
2.93684
20
-3.80427
30
10.95357
11
3.22457
21
-5.87694
31
10.95357
12
3.08389
22
-5.71623
32
10.95357
0
3DFACE
8
layer1
62
1
10
2.93684
20
-3.80427
30
10.95357
11
3.08389
21
-5.71623
31
10.95357
12
2.96981
22
-5.53438
32
10.95357
0
3DFACE
8
layer1
62
1
10
2.93684
20
-3.80427
30
10.95357
11
2.96981
21
-5.53438
31
10.95357
12
2.88233
22
-5.33139
32
10.95357
0
3DFACE
8
layer1
62
1
10
2.93684
20
-3.80427
30
10.95357
11
2.88233
21
-5.33139
31
10.95357
12
2.69782
22
-2.88664
32
10.95357
0
3DFACE
8
layer1
62
1
10
3.22457
20
-5.87694
30
10.95357
11
3.26420
21
-4.59725
31
10.95357
12
3.67992
22
-5.26557
32
10.95357
0
3DFACE
8
layer1
62
1
10
2.07475
20
-8.65961
30
10.95357
11
2.82145
21
-5.10727
31
10.95357
12
2.82145
22
-8.65961
32
10.95357
0
3DFACE
8
layer1
62
1
10
2.16355
20
-3.74928
30
10.95357
11
2.07475
21
-8.65961
31
10.95357
12
2.07475
22
-4.03690
32
10.95357
0
3DFACE
8
layer1
62
1
10
-0.80165
20
-8.54142
30
10.95357
11
-0.70127
21
-7.80111
31
10.95357
12
-0.34604
22
-8.04604
32
10.95357
0
3DFACE
8
layer1
62
1
10
0.77886
20
-6.52234
30
10.95357
11
0.12097
21
-7.38005
31
10.95357
12
0.77886
22
-6.29138
32
10.95357
0
3DFACE
8
layer1
62
1
10
0.77886
20
-4.92380
30
10.95357
11
0.12097
21
-7.38005
31
10.95357
12
0.77886
22
-4.57443
32
10.95357
0
3DFACE
8
layer1
62
1
10
0.77886
20
-3.23645
30
10.95357
11
0.12097
21
-7.38005
31
10.95357
12
0.77886
22
-2.97588
32
10.95357
0
3DFACE
8
layer1
62
1
10
-0.28684
20
-4.57443
30
10.95357
11
0.12097
21
-4.06533
31
10.95357
12
0.12097
22
-4.57443
32
10.95357
0
3DFACE
8
layer1
62
1
10
-0.28684
20
-5.43290
30
10.95357
11
0.12097
21
-4.92380
31
10.95357
12
0.12097
22
-5.43290
32
10.95357
0
3DFACE
8
layer1
62
1
10
-1.50054
20
-3.73970
30
10.95357
11
-1.79703
21
-7.17622
31
10.95357
12
-1.50054
22
-1.96354
32
10.95357
0
3DFACE
8
layer1
62
1
10
1.71429
20
-3.06469
30
10.95357
11
1.27579
21
-2.38069
31
10.95357
12
1.81495
22
-2.41151
32
10.95357
0
3DFACE
8
layer1
62
1
10
0.77886
20
-3.86397
30
10.95357
11
1.93336
21
-3.23645
31
10.95357
12
1.93336
22
-3.86397
32
10.95357
0
3DFACE
8
layer1
62
1
10
1.20479
20
-6.29138
30
10.95357
11
1.78535
21
-4.06533
31
10.95357
12
1.78535
22
-6.29138
32
10.95357
0
3DFACE
8
layer1
62
1
10
0.77886
20
-7.14985
30
10.95357
11
1.75576
21
-6.52234
31
10.95357
12
1.75576
22
-7.14985
32
10.95357
0
3DFACE
8
layer1
62
1
10
-1.38229
20
-7.92315
30
14.04643
11
-1.17494
21
-7.07551
31
14.04643
12
-1.33939
22
-6.52311
32
14.04643
0
3DFACE
8
layer1
62
1
10
-0.94472
20
-7.55766
30
14.04643
11
-1.17494
21
-7.07551
31
14.04643
12
-1.38229
22
-7.92315
32
14.04643
0
3DFACE
8
layer1
62
1
10
-0.80165
20
-8.54142
30
14.04643
11
-0.94472
21
-7.55766
31
14.04643
12
-1.38229
22
-7.92315
32
14.04643
0
3DFACE
8
layer1
62
1
10
-0.94472
20
-7.23203
30
14.04643
11
-0.94472
21
-7.55766
31
14.04643
12
-0.80165
22
-8.54142
32
14.04643
0
3DFACE
8
layer1
62
1
10
-0.70127
20
-7.80111
30
14.04643
11
-0.94472
21
-7.23203
31
14.04643
12
-0.80165
22
-8.54142
32
14.04643
0
3DFACE
8
layer1
62
1
10
0.12097
20
-7.38005
30
14.04643
11
-0.94472
21
-7.23203
31
14.04643
12
-0.70127
22
-7.80111
32
14.04643
0
3DFACE
8
layer1
62
1
10
0.77886
20
-7.14985
30
14.04643
11
0.12097
21
-7.38005
31
14.04643
12
-0.70127
22
-7.80111
32
14.04643
0
3DFACE
8
layer1
62
1
10
0.77886
20
-6.52234
30
14.04643
11
0.12097
21
-7.38005
31
14.04643
12
0.77886
22
-7.14985
32
14.04643
0
3DFACE
8
layer1
62
1
10
1.75576
20
-6.52234
30
14.04643
11
0.77886
21
-6.52234
31
14.04643
12
0.77886
22
-7.14985
32
14.04643
0
3DFACE
8
layer1
62
1
10
1.12747
20
-4.57443
30
14.04643
11
1.78535
21
-4.06533
31
14.04643
12
0.77886
22
-4.06533
32
14.04643
0
3DFACE
8
layer1
62
1
10
1.20479
20
-6.29138
30
14.04643
11
1.78535
21
-4.06533
31
14.04643
12
1.12747
22
-4.57443
32
14.04643
0
3DFACE
8
layer1
62
1
10
1.12747
20
-5.78228
30
14.04643
11
1.20479
21
-6.29138
31
14.04643
12
1.12747
22
-4.57443
32
14.04643
0
3DFACE
8
layer1
62
1
10
0.77886
20
-6.29138
30
14.04643
11
1.20479
21
-6.29138
31
14.04643
12
1.12747
22
-5.78228
32
14.04643
0
3DFACE
8
layer1
62
1
10
0.77886
20
-5.78228
30
14.04643
11
0.77886
21
-6.29138
31
14.04643
12
1.12747
22
-5.78228
32
14.04643
0
3DFACE
8
layer1
62
1
10
0.12097
20
-7.38005
30
14.04643
11
0.77886
21
-6.29138
31
14.04643
12
0.77886
22
-5.78228
32
14.04643
0
3DFACE
8
layer1
62
1
10
0.77886
20
-5.43290
30
14.04643
11
0.12097
21
-7.38005
31
14.04643
12
0.77886
22
-5.78228
32
14.04643
0
3DFACE
8
layer1
62
1
10
0.77886
20
-4.92380
30
14.04643
11
0.12097
21
-7.38005
31
14.04643
12
0.77886
22
-5.43290
32
14.04643
0
3DFACE
8
layer1
62
1
10
1.12747
20
-4.92380
30
14.04643
11
0.77886
21
-4.92380
31
14.04643
12
0.77886
22
-5.43290
32
14.04643
0
3DFACE
8
layer1
62
1
10
1.12747
20
-4.92380
30
14.04643
11
0.77886
21
-5.43290
31
14.04643
12
1.12747
22
-5.43290
32
14.04643
0
3DFACE
8
layer1
62
1
10
1.12747
20
-4.57443
30
14.04643
11
1.12747
21
-4.92380
31
14.04643
12
1.12747
22
-5.43290
32
14.04643
0
3DFACE
8
layer1
62
1
10
1.12747
20
-5.78228
30
14.04643
11
1.12747
21
-4.57443
31
14.04643
12
1.12747
22
-5.43290
32
14.04643
0
3DFACE
8
layer1
62
1
10
0.77886
20
-4.06533
30
14.04643
11
0.77886
21
-4.57443
31
14.04643
12
1.12747
22
-4.57443
32
14.04643
0
3DFACE
8
layer1
62
1
10
0.12097
20
-7.38005
30
14.04643
11
0.77886
21
-4.57443
31
14.04643
12
0.77886
22
-4.06533
32
14.04643
0
3DFACE
8
layer1
62
1
10
0.77886
20
-3.86397
30
14.04643
11
0.12097
21
-7.38005
31
14.04643
12
0.77886
22
-4.06533
32
14.04643
0
3DFACE
8
layer1
62
1
10
0.77886
20
-3.23645
30
14.04643
11
0.12097
21
-7.38005
31
14.04643
12
0.77886
22
-3.86397
32
14.04643
0
3DFACE
8
layer1
62
1
10
1.93336
20
-3.23645
30
14.04643
11
0.77886
21
-3.23645
31
14.04643
12
0.77886
22
-3.86397
32
14.04643
0
3DFACE
8
layer1
62
1
10
0.69984
20
-2.32030
30
14.04643
11
0.77886
21
-2.97588
31
14.04643
12
0.98096
22
-3.00341
32
14.04643
0
3DFACE
8
layer1
62
1
10
0.12097
20
-7.38005
30
14.04643
11
0.77886
21
-2.97588
31
14.04643
12
0.69984
22
-2.32030
32
14.04643
0
3DFACE
8
layer1
62
1
10
0.12097
20
-2.91110
30
14.04643
11
0.12097
21
-7.38005
31
14.04643
12
0.69984
22
-2.32030
32
14.04643
0
3DFACE
8
layer1
62
1
10
0.12097
20
-7.14985
30
14.04643
11
0.12097
21
-7.38005
31
14.04643
12
0.12097
22
-2.91110
32
14.04643
0
3DFACE
8
layer1
62
1
10
0.12097
20
-6.52234
30
14.04643
11
0.12097
21
-7.14985
31
14.04643
12
0.12097
22
-2.91110
32
14.04643
0
3DFACE
8
layer1
62
1
10
-0.91512
20
-7.14985
30
14.04643
11
0.12097
21
-7.14985
31
14.04643
12
0.12097
22
-6.52234
32
14.04643
0
3DFACE
8
layer1
62
1
10
-0.91512
20
-6.52234
30
14.04643
11
-0.91512
21
-7.14985
31
14.04643
12
0.12097
22
-6.52234
32
14.04643
0
3DFACE
8
layer1
62
1
10
1.27579
20
-2.38069
30
14.04643
11
1.44868
21
-3.04781
31
14.04643
12
1.71429
22
-3.06469
32
14.04643
0
3DFACE
8
layer1
62
1
10
1.20423
20
-3.02739
30
14.04643
11
1.44868
21
-3.04781
31
14.04643
12
1.27579
22
-2.38069
32
14.04643
0
3DFACE
8
layer1
62
1
10
0.69984
20
-2.32030
30
14.04643
11
1.20423
21
-3.02739
31
14.04643
12
1.27579
22
-2.38069
32
14.04643
0
3DFACE
8
layer1
62
1
10
0.98096
20
-3.00341
30
14.04643
11
1.20423
21
-3.02739
31
14.04643
12
0.69984
22
-2.32030
32
14.04643
0
3DFACE
8
layer1
62
1
10
1.76288
20
-2.22319
30
14.04643
11
1.73267
21
-2.07976
31
14.04643
12
1.72436
22
-2.16397
32
14.04643
0
3DFACE
8
layer1
62
1
10
1.78781
20
-1.97053
30
14.04643
11
1.73267
21
-2.07976
31
14.04643
12
1.76288
22
-2.22319
32
14.04643
0
3DFACE
8
layer1
62
1
10
1.84823
20
-2.25739
30
14.04643
11
1.78781
21
-1.97053
31
14.04643
12
1.76288
22
-2.22319
32
14.04643
0
3DFACE
8
layer1
62
1
10
2.16355
20
-3.74928
30
14.04643
11
1.78781
21
-1.97053
31
14.04643
12
1.84823
22
-2.25739
32
14.04643
0
3DFACE
8
layer1
62
1
10
2.08876
20
-3.48611
30
14.04643
11
2.16355
21
-3.74928
31
14.04643
12
1.84823
22
-2.25739
32
14.04643
0
3DFACE
8
layer1
62
1
10
2.01128
20
-3.14974
30
14.04643
11
2.08876
21
-3.48611
31
14.04643
12
1.84823
22
-2.25739
32
14.04643
0
3DFACE
8
layer1
62
1
10
1.93110
20
-2.74017
30
14.04643
11
2.01128
21
-3.14974
31
14.04643
12
1.84823
22
-2.25739
32
14.04643
0
3DFACE
8
layer1
62
1
10
2.69782
20
-2.88664
30
14.04643
11
2.82145
21
-5.10727
31
14.04643
12
2.88233
22
-5.33139
32
14.04643
0
3DFACE
8
layer1
62
1
10
2.07475
20
-8.65961
30
14.04643
11
2.82145
21
-5.10727
31
14.04643
12
2.69782
22
-2.88664
32
14.04643
0
3DFACE
8
layer1
62
1
10
2.54715
20
-1.84435
30
14.04643
11
2.07475
21
-8.65961
31
14.04643
12
2.69782
22
-2.88664
32
14.04643
0
3DFACE
8
layer1
62
1
10
2.16355
20
-3.74928
30
14.04643
11
2.07475
21
-8.65961
31
14.04643
12
2.54715
22
-1.84435
32
14.04643
0
3DFACE
8
layer1
62
1
10
1.78781
20
-1.97053
30
14.04643
11
2.16355
21
-3.74928
31
14.04643
12
2.54715
22
-1.84435
32
14.04643
0
3DFACE
8
layer1
62
1
10
-0.56239
20
-2.11077
30
14.04643
11
-0.53268
21
-2.82787
31
14.04643
12
-0.36889
22
-2.85488
32
14.04643
0
3DFACE
8
layer1
62
1
10
-0.65726
20
-2.85140
30
14.04643
11
-0.53268
21
-2.82787
31
14.04643
12
-0.56239
22
-2.11077
32
14.04643
0
3DFACE
8
layer1
62
1
10
-0.76414
20
-2.67152
30
14.04643
11
-0.65726
21
-2.85140
31
14.04643
12
-0.56239
22
-2.11077
32
14.04643
0
3DFACE
8
layer1
62
1
10
-0.73736
20
-2.83319
30
14.04643
11
-0.65726
21
-2.85140
31
14.04643
12
-0.76414
22
-2.67152
32
14.04643
0
3DFACE
8
layer1
62
1
10
-0.77299
20
-2.77323
30
14.04643
11
-0.73736
21
-2.83319
31
14.04643
12
-0.76414
22
-2.67152
32
14.04643
0
3DFACE
8
layer1
62
1
10
0.08712
20
-2.23033
30
14.04643
11
0.12097
21
-2.91110
31
14.04643
12
0.69984
22
-2.32030
32
14.04643
0
3DFACE
8
layer1
62
1
10
-0.04206
20
-2.89650
30
14.04643
11
0.12097
21
-2.91110
31
14.04643
12
0.08712
22
-2.23033
32
14.04643
0
3DFACE
8
layer1
62
1
10
-0.56239
20
-2.11077
30
14.04643
11
-0.04206
21
-2.89650
31
14.04643
12
0.08712
22
-2.23033
32
14.04643
0
3DFACE
8
layer1
62
1
10
-0.20535
20
-2.87776
30
14.04643
11
-0.04206
21
-2.89650
31
14.04643
12
-0.56239
22
-2.11077
32
14.04643
0
3DFACE
8
layer1
62
1
10
-0.36889
20
-2.85488
30
14.04643
11
-0.20535
21
-2.87776
31
14.04643
12
-0.56239
22
-2.11077
32
14.04643
0
3DFACE
8
layer1
62
1
10
0.12097
20
-6.29138
30
14.04643
11
0.12097
21
-6.52234
31
14.04643
12
0.12097
22
-2.91110
32
14.04643
0
3DFACE
8
layer1
62
1
10
0.12097
20
-5.78228
30
14.04643
11
0.12097
21
-6.29138
31
14.04643
12
0.12097
22
-2.91110
32
14.04643
0
3DFACE
8
layer1
62
1
10
0.12097
20
-5.43290
30
14.04643
11
0.12097
21
-5.78228
31
14.04643
12
0.12097
22
-2.91110
32
14.04643
0
3DFACE
8
layer1
62
1
10
0.12097
20
-4.92380
30
14.04643
11
0.12097
21
-5.43290
31
14.04643
12
0.12097
22
-2.91110
32
14.04643
0
3DFACE
8
layer1
62
1
10
0.12097
20
-4.57443
30
14.04643
11
0.12097
21
-4.92380
31
14.04643
12
0.12097
22
-2.91110
32
14.04643
0
3DFACE
8
layer1
62
1
10
0.12097
20
-4.06533
30
14.04643
11
0.12097
21
-4.57443
31
14.04643
12
0.12097
22
-2.91110
32
14.04643
0
3DFACE
8
layer1
62
1
10
0.12097
20
-3.86397
30
14.04643
11
0.12097
21
-4.06533
31
14.04643
12
0.12097
22
-2.91110
32
14.04643
0
3DFACE
8
layer1
62
1
10
0.12097
20
-3.23645
30
14.04643
11
0.12097
21
-3.86397
31
14.04643
12
0.12097
22
-2.91110
32
14.04643
0
3DFACE
8
layer1
62
1
10
0.12097
20
-3.23645
30
14.04643
11
-0.99730
21
-3.86397
31
14.04643
12
0.12097
22
-3.86397
32
14.04643
0
3DFACE
8
layer1
62
1
10
-0.99730
20
-3.73970
30
14.04643
11
-0.99730
21
-3.86397
31
14.04643
12
0.12097
22
-3.23645
32
14.04643
0
3DFACE
8
layer1
62
1
10
-1.00392
20
-3.23645
30
14.04643
11
-0.99730
21
-3.73970
31
14.04643
12
0.12097
22
-3.23645
32
14.04643
0
3DFACE
8
layer1
62
1
10
-1.00392
20
-3.73970
30
14.04643
11
-0.99730
21
-3.73970
31
14.04643
12
-1.00392
22
-3.23645
32
14.04643
0
3DFACE
8
layer1
62
1
10
-1.79703
20
-7.17622
30
14.04643
11
-1.47094
21
-5.20757
31
14.04643
12
-1.47094
22
-4.36721
32
14.04643
0
3DFACE
8
layer1
62
1
10
-1.50054
20
-3.73970
30
14.04643
11
-1.79703
21
-7.17622
31
14.04643
12
-1.47094
22
-4.36721
32
14.04643
0
3DFACE
8
layer1
62
1
10
-1.00392
20
-3.73970
30
14.04643
11
-1.50054
21
-3.73970
31
14.04643
12
-1.47094
22
-4.36721
32
14.04643
0
3DFACE
8
layer1
62
1
10
-1.00392
20
-3.86397
30
14.04643
11
-1.00392
21
-3.73970
31
14.04643
12
-1.47094
22
-4.36721
32
14.04643
0
3DFACE
8
layer1
62
1
10
-0.99730
20
-3.86397
30
14.04643
11
-1.00392
21
-3.86397
31
14.04643
12
-1.47094
22
-4.36721
32
14.04643
0
3DFACE
8
layer1
62
1
10
-0.99730
20
-4.36721
30
14.04643
11
-0.99730
21
-3.86397
31
14.04643
12
-1.47094
22
-4.36721
32
14.04643
0
3DFACE
8
layer1
62
1
10
-2.05151
20
-1.96354
30
14.04643
11
-2.12883
21
-4.36721
31
14.04643
12
-2.12883
22
-5.29637
32
14.04643
0
3DFACE
8
layer1
62
1
10
-2.15843
20
-2.26416
30
14.04643
11
-2.12883
21
-4.36721
31
14.04643
12
-2.05151
22
-1.96354
32
14.04643
0
3DFACE
8
layer1
62
1
10
-2.22040
20
-1.98233
30
14.04643
11
-2.15843
21
-2.26416
31
14.04643
12
-2.05151
22
-1.96354
32
14.04643
0
3DFACE
8
layer1
62
1
10
-2.27386
20
-2.13264
30
14.04643
11
-2.15843
21
-2.26416
31
14.04643
12
-2.22040
22
-1.98233
32
14.04643
0
3DFACE
8
layer1
62
1
10
-2.29451
20
-2.03869
30
14.04643
11
-2.27386
21
-2.13264
31
14.04643
12
-2.22040
22
-1.98233
32
14.04643
0
3DFACE
8
layer1
62
1
10
-2.15843
20
-3.73970
30
14.04643
11
-2.12883
21
-4.36721
31
14.04643
12
-2.15843
22
-2.26416
32
14.04643
0
3DFACE
8
layer1
62
1
10
-2.56624
20
-4.36721
30
14.04643
11
-2.12883
21
-4.36721
31
14.04643
12
-2.15843
22
-3.73970
32
14.04643
0
3DFACE
8
layer1
62
1
10
-3.22412
20
-3.73970
30
14.04643
11
-2.56624
21
-4.36721
31
14.04643
12
-2.15843
22
-3.73970
32
14.04643
0
3DFACE
8
layer1
62
1
10
-2.72586
20
-8.42484
30
14.04643
11
-2.56624
21
-4.36721
31
14.04643
12
-3.22412
22
-3.73970
32
14.04643
0
3DFACE
8
layer1
62
1
10
-2.95838
20
-8.25009
30
14.04643
11
-2.72586
21
-8.42484
31
14.04643
12
-3.22412
22
-3.73970
32
14.04643
0
3DFACE
8
layer1
62
1
10
-1.79703
20
-7.17622
30
14.04643
11
-1.50054
21
-1.96354
31
14.04643
12
-2.05151
22
-1.96354
32
14.04643
0
3DFACE
8
layer1
62
1
10
-2.04588
20
-6.30063
30
14.04643
11
-1.79703
21
-7.17622
31
14.04643
12
-2.05151
22
-1.96354
32
14.04643
0
3DFACE
8
layer1
62
1
10
-2.12883
20
-5.29637
30
14.04643
11
-2.04588
21
-6.30063
31
14.04643
12
-2.05151
22
-1.96354
32
14.04643
0
3DFACE
8
layer1
62
1
10
-1.38229
20
-7.92315
30
14.04643
11
-1.33939
21
-6.52311
31
14.04643
12
-1.43805
22
-5.90046
32
14.04643
0
3DFACE
8
layer1
62
1
10
-1.79703
20
-7.17622
30
14.04643
11
-1.38229
21
-7.92315
31
14.04643
12
-1.43805
22
-5.90046
32
14.04643
0
3DFACE
8
layer1
62
1
10
-1.47094
20
-5.20757
30
14.04643
11
-1.79703
21
-7.17622
31
14.04643
12
-1.43805
22
-5.90046
32
14.04643
0
3DFACE
8
layer1
62
1
10
-3.10432
20
-7.95884
30
14.04643
11
-2.95838
21
-8.25009
31
14.04643
12
-3.22412
22
-3.73970
32
14.04643
0
3DFACE
8
layer1
62
1
10
-3.16367
20
-7.55109
30
14.04643
11
-3.10432
21
-7.95884
31
14.04643
12
-3.22412
22
-3.73970
32
14.04643
0
3DFACE
8
layer1
62
1
10
-2.47758
20
-7.50960
30
14.04643
11
-2.56624
21
-4.36721
31
14.04643
12
-2.72586
22
-8.42484
32
14.04643
0
3DFACE
8
layer1
62
1
10
-2.45652
20
-7.66048
30
14.04643
11
-2.47758
21
-7.50960
31
14.04643
12
-2.72586
22
-8.42484
32
14.04643
0
3DFACE
8
layer1
62
1
10
-2.41795
20
-7.76825
30
14.04643
11
-2.45652
21
-7.66048
31
14.04643
12
-2.72586
22
-8.42484
32
14.04643
0
3DFACE
8
layer1
62
1
10
-2.40674
20
-8.48309
30
14.04643
11
-2.41795
21
-7.76825
31
14.04643
12
-2.72586
22
-8.42484
32
14.04643
0
3DFACE
8
layer1
62
1
10
-2.28833
20
-7.85447
30
14.04643
11
-1.71230
21
-8.48309
31
14.04643
12
-1.67815
22
-7.85447
32
14.04643
0
3DFACE
8
layer1
62
1
10
-2.40674
20
-8.48309
30
14.04643
11
-1.71230
21
-8.48309
31
14.04643
12
-2.28833
22
-7.85447
32
14.04643
0
3DFACE
8
layer1
62
1
10
-2.36189
20
-7.83291
30
14.04643
11
-2.40674
21
-8.48309
31
14.04643
12
-2.28833
22
-7.85447
32
14.04643
0
3DFACE
8
layer1
62
1
10
-2.41795
20
-7.76825
30
14.04643
11
-2.40674
21
-8.48309
31
14.04643
12
-2.36189
22
-7.83291
32
14.04643
0
3DFACE
8
layer1
62
1
10
-0.28684
20
-4.92380
30
14.04643
11
-0.28684
21
-5.43290
31
14.04643
12
0.12097
22
-4.92380
32
14.04643
0
3DFACE
8
layer1
62
1
10
-0.94472
20
-6.29138
30
14.04643
11
-0.28684
21
-5.43290
31
14.04643
12
-0.28684
22
-4.92380
32
14.04643
0
3DFACE
8
layer1
62
1
10
-0.28684
20
-4.57443
30
14.04643
11
-0.94472
21
-6.29138
31
14.04643
12
-0.28684
22
-4.92380
32
14.04643
0
3DFACE
8
layer1
62
1
10
-0.94472
20
-4.06533
30
14.04643
11
-0.94472
21
-6.29138
31
14.04643
12
-0.28684
22
-4.57443
32
14.04643
0
3DFACE
8
layer1
62
1
10
0.12097
20
-4.06533
30
14.04643
11
-0.94472
21
-4.06533
31
14.04643
12
-0.28684
22
-4.57443
32
14.04643
0
3DFACE
8
layer1
62
1
10
-0.28684
20
-5.78228
30
14.04643
11
-0.28684
21
-5.43290
31
14.04643
12
-0.94472
22
-6.29138
32
14.04643
0
3DFACE
8
layer1
62
1
10
0.12097
20
-5.78228
30
14.04643
11
-0.28684
21
-5.78228
31
14.04643
12
-0.94472
22
-6.29138
32
14.04643
0
3DFACE
8
layer1
62
1
10
0.12097
20
-6.29138
30
14.04643
11
0.12097
21
-5.78228
31
14.04643
12
-0.94472
22
-6.29138
32
14.04643
0
3DFACE
8
layer1
62
1
10
1.80891
20
-8.29741
30
14.04643
11
1.93336
21
-7.56816
31
14.04643
12
0.77886
22
-7.44829
32
14.04643
0
3DFACE
8
layer1
62
1
10
1.69946
20
-8.35163
30
14.04643
11
1.80891
21
-8.29741
31
14.04643
12
0.77886
22
-7.44829
32
14.04643
0
3DFACE
8
layer1
62
1
10
1.52118
20
-8.23506
30
14.04643
11
1.69946
21
-8.35163
31
14.04643
12
0.77886
22
-7.44829
32
14.04643
0
3DFACE
8
layer1
62
1
10
-0.70127
20
-7.80111
30
14.04643
11
1.52118
21
-8.23506
31
14.04643
12
0.77886
22
-7.44829
32
14.04643
0
3DFACE
8
layer1
62
1
10
0.77886
20
-7.14985
30
14.04643
11
-0.70127
21
-7.80111
31
14.04643
12
0.77886
22
-7.44829
32
14.04643
0
3DFACE
8
layer1
62
1
10
1.61502
20
-8.35931
30
14.04643
11
1.69946
21
-8.35163
31
14.04643
12
1.52118
22
-8.23506
32
14.04643
0
3DFACE
8
layer1
62
1
10
1.55559
20
-8.32045
30
14.04643
11
1.61502
21
-8.35931
31
14.04643
12
1.52118
22
-8.23506
32
14.04643
0
3DFACE
8
layer1
62
1
10
2.07475
20
-4.03690
30
14.04643
11
2.16355
21
-3.74928
31
14.04643
12
2.03589
22
-3.78297
32
14.04643
0
3DFACE
8
layer1
62
1
10
1.99149
20
-3.92678
30
14.04643
11
2.07475
21
-4.03690
31
14.04643
12
2.03589
22
-3.78297
32
14.04643
0
3DFACE
8
layer1
62
1
10
1.97854
20
-3.84214
30
14.04643
11
1.99149
21
-3.92678
31
14.04643
12
2.03589
22
-3.78297
32
14.04643
0
3DFACE
8
layer1
62
1
10
3.22457
20
-5.87694
30
14.04643
11
3.26420
21
-4.59725
31
14.04643
12
2.93684
22
-3.80427
32
14.04643
0
3DFACE
8
layer1
62
1
10
3.08389
20
-5.71623
30
14.04643
11
3.22457
21
-5.87694
31
14.04643
12
2.93684
22
-3.80427
32
14.04643
0
3DFACE
8
layer1
62
1
10
2.96981
20
-5.53438
30
14.04643
11
3.08389
21
-5.71623
31
14.04643
12
2.93684
22
-3.80427
32
14.04643
0
3DFACE
8
layer1
62
1
10
2.88233
20
-5.33139
30
14.04643
11
2.96981
21
-5.53438
31
14.04643
12
2.93684
22
-3.80427
32
14.04643
0
3DFACE
8
layer1
62
1
10
2.69782
20
-2.88664
30
14.04643
11
2.88233
21
-5.33139
31
14.04643
12
2.93684
22
-3.80427
32
14.04643
0
3DFACE
8
layer1
62
1
10
3.67992
20
-5.26557
30
14.04643
11
3.26420
21
-4.59725
31
14.04643
12
3.22457
22
-5.87694
32
14.04643
0
3DFACE
8
layer1
62
1
10
2.82145
20
-8.65961
30
14.04643
11
2.82145
21
-5.10727
31
14.04643
12
2.07475
22
-8.65961
32
14.04643
0
3DFACE
8
layer1
62
1
10
2.07475
20
-4.03690
30
14.04643
11
2.07475
21
-8.65961
31
14.04643
12
2.16355
22
-3.74928
32
14.04643
0
3DFACE
8
layer1
62
1
10
-0.34604
20
-8.04604
30
14.04643
11
-0.70127
21
-7.80111
31
14.04643
12
-0.80165
22
-8.54142
32
14.04643
0
3DFACE
8
layer1
62
1
10
0.77886
20
-6.29138
30
14.04643
11
0.12097
21
-7.38005
31
14.04643
12
0.77886
22
-6.52234
32
14.04643
0
3DFACE
8
layer1
62
1
10
0.77886
20
-4.57443
30
14.04643
11
0.12097
21
-7.38005
31
14.04643
12
0.77886
22
-4.92380
32
14.04643
0
3DFACE
8
layer1
62
1
10
0.77886
20
-2.97588
30
14.04643
11
0.12097
21
-7.38005
31
14.04643
12
0.77886
22
-3.23645
32
14.04643
0
3DFACE
8
layer1
62
1
10
0.12097
20
-4.57443
30
14.04643
11
0.12097
21
-4.06533
31
14.04643
12
-0.28684
22
-4.57443
32
14.04643
0
3DFACE
8
layer1
62
1
10
0.12097
20
-5.43290
30
14.04643
11
0.12097
21
-4.92380
31
14.04643
12
-0.28684
22
-5.43290
32
14.04643
0
3DFACE
8
layer1
62
1
10
-1.50054
20
-1.96354
30
14.04643
11
-1.79703
21
-7.17622
31
14.04643
12
-1.50054
22
-3.73970
32
14.04643
0
3DFACE
8
layer1
62
1
10
1.81495
20
-2.41151
30
14.04643
11
1.27579
21
-2.38069
31
14.04643
12
1.71429
22
-3.06469
32
14.04643
0
3DFACE
8
layer1
62
1
10
1.93336
20
-3.86397
30
14.04643
11
1.93336
21
-3.23645
31
14.04643
12
0.77886
22
-3.86397
32
14.04643
0
3DFACE
8
layer1
62
1
10
1.78535
20
-6.29138
30
14.04643
11
1.78535
21
-4.06533
31
14.04643
12
1.20479
22
-6.29138
32
14.04643
0
3DFACE
8
layer1
62
1
10
1.75576
20
-7.14985
30
14.04643
11
1.75576
21
-6.52234
31
14.04643
12
0.77886
22
-7.14985
32
14.04643
0
3DFACE
8
layer1
62
1
10
-0.80165
20
-8.54142
30
10.95357
11
-0.34604
21
-8.04604
31
10.95357
12
-0.34604
22
-8.04604
32
14.04643
13
-0.80165
23
-8.54142
33
14.04643
0
3DFACE
8
layer1
62
1
10
-1.38229
20
-7.92315
30
10.95357
11
-0.80165
21
-8.54142
31
10.95357
12
-0.80165
22
-8.54142
32
14.04643
13
-1.38229
23
-7.92315
33
14.04643
0
3DFACE
8
layer1
62
1
10
-1.79703
20
-7.17622
30
10.95357
11
-1.38229
21
-7.92315
31
10.95357
12
-1.38229
22
-7.92315
32
14.04643
13
-1.79703
23
-7.17622
33
14.04643
0
3DFACE
8
layer1
62
1
10
-2.04588
20
-6.30063
30
10.95357
11
-1.79703
21
-7.17622
31
10.95357
12
-1.79703
22
-7.17622
32
14.04643
13
-2.04588
23
-6.30063
33
14.04643
0
3DFACE
8
layer1
62
1
10
-2.12883
20
-5.29637
30
10.95357
11
-2.04588
21
-6.30063
31
10.95357
12
-2.04588
22
-6.30063
32
14.04643
13
-2.12883
23
-5.29637
33
14.04643
0
3DFACE
8
layer1
62
1
10
-2.12883
20
-4.36721
30
10.95357
11
-2.12883
21
-5.29637
31
10.95357
12
-2.12883
22
-5.29637
32
14.04643
13
-2.12883
23
-4.36721
33
14.04643
0
3DFACE
8
layer1
62
1
10
-2.56624
20
-4.36721
30
10.95357
11
-2.12883
21
-4.36721
31
10.95357
12
-2.12883
22
-4.36721
32
14.04643
13
-2.56624
23
-4.36721
33
14.04643
0
3DFACE
8
layer1
62
1
10
-2.47758
20
-7.50960
30
10.95357
11
-2.56624
21
-4.36721
31
10.95357
12
-2.56624
22
-4.36721
32
14.04643
13
-2.47758
23
-7.50960
33
14.04643
0
3DFACE
8
layer1
62
1
10
-2.45652
20
-7.66048
30
10.95357
11
-2.47758
21
-7.50960
31
10.95357
12
-2.47758
22
-7.50960
32
14.04643
13
-2.45652
23
-7.66048
33
14.04643
0
3DFACE
8
layer1
62
1
10
-2.41795
20
-7.76825
30
10.95357
11
-2.45652
21
-7.66048
31
10.95357
12
-2.45652
22
-7.66048
32
14.04643
13
-2.41795
23
-7.76825
33
14.04643
0
3DFACE
8
layer1
62
1
10
-2.36189
20
-7.83291
30
10.95357
11
-2.41795
21
-7.76825
31
10.95357
12
-2.41795
22
-7.76825
32
14.04643
13
-2.36189
23
-7.83291
33
14.04643
0
3DFACE
8
layer1
62
1
10
-2.28833
20
-7.85447
30
10.95357
11
-2.36189
21
-7.83291
31
10.95357
12
-2.36189
22
-7.83291
32
14.04643
13
-2.28833
23
-7.85447
33
14.04643
0
3DFACE
8
layer1
62
1
10
-1.67815
20
-7.85447
30
10.95357
11
-2.28833
21
-7.85447
31
10.95357
12
-2.28833
22
-7.85447
32
14.04643
13
-1.67815
23
-7.85447
33
14.04643
0
3DFACE
8
layer1
62
1
10
-1.71230
20
-8.48309
30
10.95357
11
-1.67815
21
-7.85447
31
10.95357
12
-1.67815
22
-7.85447
32
14.04643
13
-1.71230
23
-8.48309
33
14.04643
0
3DFACE
8
layer1
62
1
10
-2.40674
20
-8.48309
30
10.95357
11
-1.71230
21
-8.48309
31
10.95357
12
-1.71230
22
-8.48309
32
14.04643
13
-2.40674
23
-8.48309
33
14.04643
0
3DFACE
8
layer1
62
1
10
-2.72586
20
-8.42484
30
10.95357
11
-2.40674
21
-8.48309
31
10.95357
12
-2.40674
22
-8.48309
32
14.04643
13
-2.72586
23
-8.42484
33
14.04643
0
3DFACE
8
layer1
62
1
10
-2.95838
20
-8.25009
30
10.95357
11
-2.72586
21
-8.42484
31
10.95357
12
-2.72586
22
-8.42484
32
14.04643
13
-2.95838
23
-8.25009
33
14.04643
0
3DFACE
8
layer1
62
1
10
-3.10432
20
-7.95884
30
10.95357
11
-2.95838
21
-8.25009
31
10.95357
12
-2.95838
22
-8.25009
32
14.04643
13
-3.10432
23
-7.95884
33
14.04643
0
3DFACE
8
layer1
62
1
10
-3.16367
20
-7.55109
30
10.95357
11
-3.10432
21
-7.95884
31
10.95357
12
-3.10432
22
-7.95884
32
14.04643
13
-3.16367
23
-7.55109
33
14.04643
0
3DFACE
8
layer1
62
1
10
-3.22412
20
-3.73970
30
10.95357
11
-3.16367
21
-7.55109
31
10.95357
12
-3.16367
22
-7.55109
32
14.04643
13
-3.22412
23
-3.73970
33
14.04643
0
3DFACE
8
layer1
62
1
10
-2.15843
20
-3.73970
30
10.95357
11
-3.22412
21
-3.73970
31
10.95357
12
-3.22412
22
-3.73970
32
14.04643
13
-2.15843
23
-3.73970
33
14.04643
0
3DFACE
8
layer1
62
1
10
-2.15843
20
-2.26416
30
10.95357
11
-2.15843
21
-3.73970
31
10.95357
12
-2.15843
22
-3.73970
32
14.04643
13
-2.15843
23
-2.26416
33
14.04643
0
3DFACE
8
layer1
62
1
10
-2.27386
20
-2.13264
30
10.95357
11
-2.15843
21
-2.26416
31
10.95357
12
-2.15843
22
-2.26416
32
14.04643
13
-2.27386
23
-2.13264
33
14.04643
0
3DFACE
8
layer1
62
1
10
-2.29451
20
-2.03869
30
10.95357
11
-2.27386
21
-2.13264
31
10.95357
12
-2.27386
22
-2.13264
32
14.04643
13
-2.29451
23
-2.03869
33
14.04643
0
3DFACE
8
layer1
62
1
10
-2.22040
20
-1.98233
30
10.95357
11
-2.29451
21
-2.03869
31
10.95357
12
-2.29451
22
-2.03869
32
14.04643
13
-2.22040
23
-1.98233
33
14.04643
0
3DFACE
8
layer1
62
1
10
-2.05151
20
-1.96354
30
10.95357
11
-2.22040
21
-1.98233
31
10.95357
12
-2.22040
22
-1.98233
32
14.04643
13
-2.05151
23
-1.96354
33
14.04643
0
3DFACE
8
layer1
62
1
10
-1.50054
20
-1.96354
30
10.95357
11
-2.05151
21
-1.96354
31
10.95357
12
-2.05151
22
-1.96354
32
14.04643
13
-1.50054
23
-1.96354
33
14.04643
0
3DFACE
8
layer1
62
1
10
-1.50054
20
-3.73970
30
10.95357
11
-1.50054
21
-1.96354
31
10.95357
12
-1.50054
22
-1.96354
32
14.04643
13
-1.50054
23
-3.73970
33
14.04643
0
3DFACE
8
layer1
62
1
10
-0.99730
20
-3.73970
30
10.95357
11
-1.50054
21
-3.73970
31
10.95357
12
-1.50054
22
-3.73970
32
14.04643
13
-0.99730
23
-3.73970
33
14.04643
0
3DFACE
8
layer1
62
1
10
-0.99730
20
-4.36721
30
10.95357
11
-0.99730
21
-3.73970
31
10.95357
12
-0.99730
22
-3.73970
32
14.04643
13
-0.99730
23
-4.36721
33
14.04643
0
3DFACE
8
layer1
62
1
10
-1.47094
20
-4.36721
30
10.95357
11
-0.99730
21
-4.36721
31
10.95357
12
-0.99730
22
-4.36721
32
14.04643
13
-1.47094
23
-4.36721
33
14.04643
0
3DFACE
8
layer1
62
1
10
-1.47094
20
-5.20757
30
10.95357
11
-1.47094
21
-4.36721
31
10.95357
12
-1.47094
22
-4.36721
32
14.04643
13
-1.47094
23
-5.20757
33
14.04643
0
3DFACE
8
layer1
62
1
10
-1.43805
20
-5.90046
30
10.95357
11
-1.47094
21
-5.20757
31
10.95357
12
-1.47094
22
-5.20757
32
14.04643
13
-1.43805
23
-5.90046
33
14.04643
0
3DFACE
8
layer1
62
1
10
-1.33939
20
-6.52311
30
10.95357
11
-1.43805
21
-5.90046
31
10.95357
12
-1.43805
22
-5.90046
32
14.04643
13
-1.33939
23
-6.52311
33
14.04643
0
3DFACE
8
layer1
62
1
10
-1.17494
20
-7.07551
30
10.95357
11
-1.33939
21
-6.52311
31
10.95357
12
-1.33939
22
-6.52311
32
14.04643
13
-1.17494
23
-7.07551
33
14.04643
0
3DFACE
8
layer1
62
1
10
-0.94472
20
-7.55766
30
10.95357
11
-1.17494
21
-7.07551
31
10.95357
12
-1.17494
22
-7.07551
32
14.04643
13
-0.94472
23
-7.55766
33
14.04643
0
3DFACE
8
layer1
62
1
10
-0.94472
20
-7.23203
30
10.95357
11
-0.94472
21
-7.55766
31
10.95357
12
-0.94472
22
-7.55766
32
14.04643
13
-0.94472
23
-7.23203
33
14.04643
0
3DFACE
8
layer1
62
1
10
0.12097
20
-7.38005
30
10.95357
11
-0.94472
21
-7.23203
31
10.95357
12
-0.94472
22
-7.23203
32
14.04643
13
0.12097
23
-7.38005
33
14.04643
0
3DFACE
8
layer1
62
1
10
0.12097
20
-7.14985
30
10.95357
11
0.12097
21
-7.38005
31
10.95357
12
0.12097
22
-7.38005
32
14.04643
13
0.12097
23
-7.14985
33
14.04643
0
3DFACE
8
layer1
62
1
10
-0.91512
20
-7.14985
30
10.95357
11
0.12097
21
-7.14985
31
10.95357
12
0.12097
22
-7.14985
32
14.04643
13
-0.91512
23
-7.14985
33
14.04643
0
3DFACE
8
layer1
62
1
10
-0.91512
20
-6.52234
30
10.95357
11
-0.91512
21
-7.14985
31
10.95357
12
-0.91512
22
-7.14985
32
14.04643
13
-0.91512
23
-6.52234
33
14.04643
0
3DFACE
8
layer1
62
1
10
0.12097
20
-6.52234
30
10.95357
11
-0.91512
21
-6.52234
31
10.95357
12
-0.91512
22
-6.52234
32
14.04643
13
0.12097
23
-6.52234
33
14.04643
0
3DFACE
8
layer1
62
1
10
0.12097
20
-6.29138
30
10.95357
11
0.12097
21
-6.52234
31
10.95357
12
0.12097
22
-6.52234
32
14.04643
13
0.12097
23
-6.29138
33
14.04643
0
3DFACE
8
layer1
62
1
10
-0.94472
20
-6.29138
30
10.95357
11
0.12097
21
-6.29138
31
10.95357
12
0.12097
22
-6.29138
32
14.04643
13
-0.94472
23
-6.29138
33
14.04643
0
3DFACE
8
layer1
62
1
10
-0.94472
20
-4.06533
30
10.95357
11
-0.94472
21
-6.29138
31
10.95357
12
-0.94472
22
-6.29138
32
14.04643
13
-0.94472
23
-4.06533
33
14.04643
0
3DFACE
8
layer1
62
1
10
0.12097
20
-4.06533
30
10.95357
11
-0.94472
21
-4.06533
31
10.95357
12
-0.94472
22
-4.06533
32
14.04643
13
0.12097
23
-4.06533
33
14.04643
0
3DFACE
8
layer1
62
1
10
0.12097
20
-3.86397
30
10.95357
11
0.12097
21
-4.06533
31
10.95357
12
0.12097
22
-4.06533
32
14.04643
13
0.12097
23
-3.86397
33
14.04643
0
3DFACE
8
layer1
62
1
10
-1.00392
20
-3.86397
30
10.95357
11
0.12097
21
-3.86397
31
10.95357
12
0.12097
22
-3.86397
32
14.04643
13
-1.00392
23
-3.86397
33
14.04643
0
3DFACE
8
layer1
62
1
10
-1.00392
20
-3.23645
30
10.95357
11
-1.00392
21
-3.86397
31
10.95357
12
-1.00392
22
-3.86397
32
14.04643
13
-1.00392
23
-3.23645
33
14.04643
0
3DFACE
8
layer1
62
1
10
0.12097
20
-3.23645
30
10.95357
11
-1.00392
21
-3.23645
31
10.95357
12
-1.00392
22
-3.23645
32
14.04643
13
0.12097
23
-3.23645
33
14.04643
0
3DFACE
8
layer1
62
1
10
0.12097
20
-2.91110
30
10.95357
11
0.12097
21
-3.23645
31
10.95357
12
0.12097
22
-3.23645
32
14.04643
13
0.12097
23
-2.91110
33
14.04643
0
3DFACE
8
layer1
62
1
10
-0.04206
20
-2.89650
30
10.95357
11
0.12097
21
-2.91110
31
10.95357
12
0.12097
22
-2.91110
32
14.04643
13
-0.04206
23
-2.89650
33
14.04643
0
3DFACE
8
layer1
62
1
10
-0.20535
20
-2.87776
30
10.95357
11
-0.04206
21
-2.89650
31
10.95357
12
-0.04206
22
-2.89650
32
14.04643
13
-0.20535
23
-2.87776
33
14.04643
0
3DFACE
8
layer1
62
1
10
-0.36889
20
-2.85488
30
10.95357
11
-0.20535
21
-2.87776
31
10.95357
12
-0.20535
22
-2.87776
32
14.04643
13
-0.36889
23
-2.85488
33
14.04643
0
3DFACE
8
layer1
62
1
10
-0.53268
20
-2.82787
30
10.95357
11
-0.36889
21
-2.85488
31
10.95357
12
-0.36889
22
-2.85488
32
14.04643
13
-0.53268
23
-2.82787
33
14.04643
0
3DFACE
8
layer1
62
1
10
-0.65726
20
-2.85140
30
10.95357
11
-0.53268
21
-2.82787
31
10.95357
12
-0.53268
22
-2.82787
32
14.04643
13
-0.65726
23
-2.85140
33
14.04643
0
3DFACE
8
layer1
62
1
10
-0.73736
20
-2.83319
30
10.95357
11
-0.65726
21
-2.85140
31
10.95357
12
-0.65726
22
-2.85140
32
14.04643
13
-0.73736
23
-2.83319
33
14.04643
0
3DFACE
8
layer1
62
1
10
-0.77299
20
-2.77323
30
10.95357
11
-0.73736
21
-2.83319
31
10.95357
12
-0.73736
22
-2.83319
32
14.04643
13
-0.77299
23
-2.77323
33
14.04643
0
3DFACE
8
layer1
62
1
10
-0.76414
20
-2.67152
30
10.95357
11
-0.77299
21
-2.77323
31
10.95357
12
-0.77299
22
-2.77323
32
14.04643
13
-0.76414
23
-2.67152
33
14.04643
0
3DFACE
8
layer1
62
1
10
-0.56239
20
-2.11077
30
10.95357
11
-0.76414
21
-2.67152
31
10.95357
12
-0.76414
22
-2.67152
32
14.04643
13
-0.56239
23
-2.11077
33
14.04643
0
3DFACE
8
layer1
62
1
10
0.08712
20
-2.23033
30
10.95357
11
-0.56239
21
-2.11077
31
10.95357
12
-0.56239
22
-2.11077
32
14.04643
13
0.08712
23
-2.23033
33
14.04643
0
3DFACE
8
layer1
62
1
10
0.69984
20
-2.32030
30
10.95357
11
0.08712
21
-2.23033
31
10.95357
12
0.08712
22
-2.23033
32
14.04643
13
0.69984
23
-2.32030
33
14.04643
0
3DFACE
8
layer1
62
1
10
1.27579
20
-2.38069
30
10.95357
11
0.69984
21
-2.32030
31
10.95357
12
0.69984
22
-2.32030
32
14.04643
13
1.27579
23
-2.38069
33
14.04643
0
3DFACE
8
layer1
62
1
10
1.81495
20
-2.41151
30
10.95357
11
1.27579
21
-2.38069
31
10.95357
12
1.27579
22
-2.38069
32
14.04643
13
1.81495
23
-2.41151
33
14.04643
0
3DFACE
8
layer1
62
1
10
1.71429
20
-3.06469
30
10.95357
11
1.81495
21
-2.41151
31
10.95357
12
1.81495
22
-2.41151
32
14.04643
13
1.71429
23
-3.06469
33
14.04643
0
3DFACE
8
layer1
62
1
10
1.44868
20
-3.04781
30
10.95357
11
1.71429
21
-3.06469
31
10.95357
12
1.71429
22
-3.06469
32
14.04643
13
1.44868
23
-3.04781
33
14.04643
0
3DFACE
8
layer1
62
1
10
1.20423
20
-3.02739
30
10.95357
11
1.44868
21
-3.04781
31
10.95357
12
1.44868
22
-3.04781
32
14.04643
13
1.20423
23
-3.02739
33
14.04643
0
3DFACE
8
layer1
62
1
10
0.98096
20
-3.00341
30
10.95357
11
1.20423
21
-3.02739
31
10.95357
12
1.20423
22
-3.02739
32
14.04643
13
0.98096
23
-3.00341
33
14.04643
0
3DFACE
8
layer1
62
1
10
0.77886
20
-2.97588
30
10.95357
11
0.98096
21
-3.00341
31
10.95357
12
0.98096
22
-3.00341
32
14.04643
13
0.77886
23
-2.97588
33
14.04643
0
3DFACE
8
layer1
62
1
10
0.77886
20
-3.23645
30
10.95357
11
0.77886
21
-2.97588
31
10.95357
12
0.77886
22
-2.97588
32
14.04643
13
0.77886
23
-3.23645
33
14.04643
0
3DFACE
8
layer1
62
1
10
1.93336
20
-3.23645
30
10.95357
11
0.77886
21
-3.23645
31
10.95357
12
0.77886
22
-3.23645
32
14.04643
13
1.93336
23
-3.23645
33
14.04643
0
3DFACE
8
layer1
62
1
10
1.93336
20
-3.86397
30
10.95357
11
1.93336
21
-3.23645
31
10.95357
12
1.93336
22
-3.23645
32
14.04643
13
1.93336
23
-3.86397
33
14.04643
0
3DFACE
8
layer1
62
1
10
0.77886
20
-3.86397
30
10.95357
11
1.93336
21
-3.86397
31
10.95357
12
1.93336
22
-3.86397
32
14.04643
13
0.77886
23
-3.86397
33
14.04643
0
3DFACE
8
layer1
62
1
10
0.77886
20
-4.06533
30
10.95357
11
0.77886
21
-3.86397
31
10.95357
12
0.77886
22
-3.86397
32
14.04643
13
0.77886
23
-4.06533
33
14.04643
0
3DFACE
8
layer1
62
1
10
1.78535
20
-4.06533
30
10.95357
11
0.77886
21
-4.06533
31
10.95357
12
0.77886
22
-4.06533
32
14.04643
13
1.78535
23
-4.06533
33
14.04643
0
3DFACE
8
layer1
62
1
10
1.78535
20
-6.29138
30
10.95357
11
1.78535
21
-4.06533
31
10.95357
12
1.78535
22
-4.06533
32
14.04643
13
1.78535
23
-6.29138
33
14.04643
0
3DFACE
8
layer1
62
1
10
1.20479
20
-6.29138
30
10.95357
11
1.78535
21
-6.29138
31
10.95357
12
1.78535
22
-6.29138
32
14.04643
13
1.20479
23
-6.29138
33
14.04643
0
3DFACE
8
layer1
62
1
10
0.77886
20
-6.29138
30
10.95357
11
1.20479
21
-6.29138
31
10.95357
12
1.20479
22
-6.29138
32
14.04643
13
0.77886
23
-6.29138
33
14.04643
0
3DFACE
8
layer1
62
1
10
0.77886
20
-6.52234
30
10.95357
11
0.77886
21
-6.29138
31
10.95357
12
0.77886
22
-6.29138
32
14.04643
13
0.77886
23
-6.52234
33
14.04643
0
3DFACE
8
layer1
62
1
10
1.75576
20
-6.52234
30
10.95357
11
0.77886
21
-6.52234
31
10.95357
12
0.77886
22
-6.52234
32
14.04643
13
1.75576
23
-6.52234
33
14.04643
0
3DFACE
8
layer1
62
1
10
1.75576
20
-7.14985
30
10.95357
11
1.75576
21
-6.52234
31
10.95357
12
1.75576
22
-6.52234
32
14.04643
13
1.75576
23
-7.14985
33
14.04643
0
3DFACE
8
layer1
62
1
10
0.77886
20
-7.14985
30
10.95357
11
1.75576
21
-7.14985
31
10.95357
12
1.75576
22
-7.14985
32
14.04643
13
0.77886
23
-7.14985
33
14.04643
0
3DFACE
8
layer1
62
1
10
0.77886
20
-7.44829
30
10.95357
11
0.77886
21
-7.14985
31
10.95357
12
0.77886
22
-7.14985
32
14.04643
13
0.77886
23
-7.44829
33
14.04643
0
3DFACE
8
layer1
62
1
10
1.93336
20
-7.56816
30
10.95357
11
0.77886
21
-7.44829
31
10.95357
12
0.77886
22
-7.44829
32
14.04643
13
1.93336
23
-7.56816
33
14.04643
0
3DFACE
8
layer1
62
1
10
1.80891
20
-8.29741
30
10.95357
11
1.93336
21
-7.56816
31
10.95357
12
1.93336
22
-7.56816
32
14.04643
13
1.80891
23
-8.29741
33
14.04643
0
3DFACE
8
layer1
62
1
10
1.69946
20
-8.35163
30
10.95357
11
1.80891
21
-8.29741
31
10.95357
12
1.80891
22
-8.29741
32
14.04643
13
1.69946
23
-8.35163
33
14.04643
0
3DFACE
8
layer1
62
1
10
1.61502
20
-8.35931
30
10.95357
11
1.69946
21
-8.35163
31
10.95357
12
1.69946
22
-8.35163
32
14.04643
13
1.61502
23
-8.35931
33
14.04643
0
3DFACE
8
layer1
62
1
10
1.55559
20
-8.32045
30
10.95357
11
1.61502
21
-8.35931
31
10.95357
12
1.61502
22
-8.35931
32
14.04643
13
1.55559
23
-8.32045
33
14.04643
0
3DFACE
8
layer1
62
1
10
1.52118
20
-8.23506
30
10.95357
11
1.55559
21
-8.32045
31
10.95357
12
1.55559
22
-8.32045
32
14.04643
13
1.52118
23
-8.23506
33
14.04643
0
3DFACE
8
layer1
62
1
10
-0.70127
20
-7.80111
30
10.95357
11
1.52118
21
-8.23506
31
10.95357
12
1.52118
22
-8.23506
32
14.04643
13
-0.70127
23
-7.80111
33
14.04643
0
3DFACE
8
layer1
62
1
10
-0.34604
20
-8.04604
30
10.95357
11
-0.70127
21
-7.80111
31
10.95357
12
-0.70127
22
-7.80111
32
14.04643
13
-0.34604
23
-8.04604
33
14.04643
0
3DFACE
8
layer1
62
1
10
1.72436
20
-2.16397
30
10.95357
11
1.76288
21
-2.22319
31
10.95357
12
1.76288
22
-2.22319
32
14.04643
13
1.72436
23
-2.16397
33
14.04643
0
3DFACE
8
layer1
62
1
10
1.73267
20
-2.07976
30
10.95357
11
1.72436
21
-2.16397
31
10.95357
12
1.72436
22
-2.16397
32
14.04643
13
1.73267
23
-2.07976
33
14.04643
0
3DFACE
8
layer1
62
1
10
1.78781
20
-1.97053
30
10.95357
11
1.73267
21
-2.07976
31
10.95357
12
1.73267
22
-2.07976
32
14.04643
13
1.78781
23
-1.97053
33
14.04643
0
3DFACE
8
layer1
62
1
10
2.54715
20
-1.84435
30
10.95357
11
1.78781
21
-1.97053
31
10.95357
12
1.78781
22
-1.97053
32
14.04643
13
2.54715
23
-1.84435
33
14.04643
0
3DFACE
8
layer1
62
1
10
2.69782
20
-2.88664
30
10.95357
11
2.54715
21
-1.84435
31
10.95357
12
2.54715
22
-1.84435
32
14.04643
13
2.69782
23
-2.88664
33
14.04643
0
3DFACE
8
layer1
62
1
10
2.93684
20
-3.80427
30
10.95357
11
2.69782
21
-2.88664
31
10.95357
12
2.69782
22
-2.88664
32
14.04643
13
2.93684
23
-3.80427
33
14.04643
0
3DFACE
8
layer1
62
1
10
3.26420
20
-4.59725
30
10.95357
11
2.93684
21
-3.80427
31
10.95357
12
2.93684
22
-3.80427
32
14.04643
13
3.26420
23
-4.59725
33
14.04643
0
3DFACE
8
layer1
62
1
10
3.67992
20
-5.26557
30
10.95357
11
3.26420
21
-4.59725
31
10.95357
12
3.26420
22
-4.59725
32
14.04643
13
3.67992
23
-5.26557
33
14.04643
0
3DFACE
8
layer1
62
1
10
3.22457
20
-5.87694
30
10.95357
11
3.67992
21
-5.26557
31
10.95357
12
3.67992
22
-5.26557
32
14.04643
13
3.22457
23
-5.87694
33
14.04643
0
3DFACE
8
layer1
62
1
10
3.08389
20
-5.71623
30
10.95357
11
3.22457
21
-5.87694
31
10.95357
12
3.22457
22
-5.87694
32
14.04643
13
3.08389
23
-5.71623
33
14.04643
0
3DFACE
8
layer1
62
1
10
2.96981
20
-5.53438
30
10.95357
11
3.08389
21
-5.71623
31
10.95357
12
3.08389
22
-5.71623
32
14.04643
13
2.96981
23
-5.53438
33
14.04643
0
3DFACE
8
layer1
62
1
10
2.88233
20
-5.33139
30
10.95357
11
2.96981
21
-5.53438
31
10.95357
12
2.96981
22
-5.53438
32
14.04643
13
2.88233
23
-5.33139
33
14.04643
0
3DFACE
8
layer1
62
1
10
2.82145
20
-5.10727
30
10.95357
11
2.88233
21
-5.33139
31
10.95357
12
2.88233
22
-5.33139
32
14.04643
13
2.82145
23
-5.10727
33
14.04643
0
3DFACE
8
layer1
62
1
10
2.82145
20
-8.65961
30
10.95357
11
2.82145
21
-5.10727
31
10.95357
12
2.82145
22
-5.10727
32
14.04643
13
2.82145
23
-8.65961
33
14.04643
0
3DFACE
8
layer1
62
1
10
2.07475
20
-8.65961
30
10.95357
11
2.82145
21
-8.65961
31
10.95357
12
2.82145
22
-8.65961
32
14.04643
13
2.07475
23
-8.65961
33
14.04643
0
3DFACE
8
layer1
62
1
10
2.07475
20
-4.03690
30
10.95357
11
2.07475
21
-8.65961
31
10.95357
12
2.07475
22
-8.65961
32
14.04643
13
2.07475
23
-4.03690
33
14.04643
0
3DFACE
8
layer1
62
1
10
1.99149
20
-3.92678
30
10.95357
11
2.07475
21
-4.03690
31
10.95357
12
2.07475
22
-4.03690
32
14.04643
13
1.99149
23
-3.92678
33
14.04643
0
3DFACE
8
layer1
62
1
10
1.97854
20
-3.84214
30
10.95357
11
1.99149
21
-3.92678
31
10.95357
12
1.99149
22
-3.92678
32
14.04643
13
1.97854
23
-3.84214
33
14.04643
0
3DFACE
8
layer1
62
1
10
2.03589
20
-3.78297
30
10.95357
11
1.97854
21
-3.84214
31
10.95357
12
1.97854
22
-3.84214
32
14.04643
13
2.03589
23
-3.78297
33
14.04643
0
3DFACE
8
layer1
62
1
10
2.16355
20
-3.74928
30
10.95357
11
2.03589
21
-3.78297
31
10.95357
12
2.03589
22
-3.78297
32
14.04643
13
2.16355
23
-3.74928
33
14.04643
0
3DFACE
8
layer1
62
1
10
2.08876
20
-3.48611
30
10.95357
11
2.16355
21
-3.74928
31
10.95357
12
2.16355
22
-3.74928
32
14.04643
13
2.08876
23
-3.48611
33
14.04643
0
3DFACE
8
layer1
62
1
10
2.01128
20
-3.14974
30
10.95357
11
2.08876
21
-3.48611
31
10.95357
12
2.08876
22
-3.48611
32
14.04643
13
2.01128
23
-3.14974
33
14.04643
0
3DFACE
8
layer1
62
1
10
1.93110
20
-2.74017
30
10.95357
11
2.01128
21
-3.14974
31
10.95357
12
2.01128
22
-3.14974
32
14.04643
13
1.93110
23
-2.74017
33
14.04643
0
3DFACE
8
layer1
62
1
10
1.84823
20
-2.25739
30
10.95357
11
1.93110
21
-2.74017
31
10.95357
12
1.93110
22
-2.74017
32
14.04643
13
1.84823
23
-2.25739
33
14.04643
0
3DFACE
8
layer1
62
1
10
1.76288
20
-2.22319
30
10.95357
11
1.84823
21
-2.25739
31
10.95357
12
1.84823
22
-2.25739
32
14.04643
13
1.76288
23
-2.22319
33
14.04643
0
3DFACE
8
layer1
62
1
10
-0.28684
20
-4.57443
30
10.95357
11
0.12097
21
-4.57443
31
10.95357
12
0.12097
22
-4.57443
32
14.04643
13
-0.28684
23
-4.57443
33
14.04643
0
3DFACE
8
layer1
62
1
10
-0.28684
20
-4.92380
30
10.95357
11
-0.28684
21
-4.57443
31
10.95357
12
-0.28684
22
-4.57443
32
14.04643
13
-0.28684
23
-4.92380
33
14.04643
0
3DFACE
8
layer1
62
1
10
0.12097
20
-4.92380
30
10.95357
11
-0.28684
21
-4.92380
31
10.95357
12
-0.28684
22
-4.92380
32
14.04643
13
0.12097
23
-4.92380
33
14.04643
0
3DFACE
8
layer1
62
1
10
0.12097
20
-4.57443
30
10.95357
11
0.12097
21
-4.92380
31
10.95357
12
0.12097
22
-4.92380
32
14.04643
13
0.12097
23
-4.57443
33
14.04643
0
3DFACE
8
layer1
62
1
10
-0.28684
20
-5.43290
30
10.95357
11
0.12097
21
-5.43290
31
10.95357
12
0.12097
22
-5.43290
32
14.04643
13
-0.28684
23
-5.43290
33
14.04643
0
3DFACE
8
layer1
62
1
10
-0.28684
20
-5.78228
30
10.95357
11
-0.28684
21
-5.43290
31
10.95357
12
-0.28684
22
-5.43290
32
14.04643
13
-0.28684
23
-5.78228
33
14.04643
0
3DFACE
8
layer1
62
1
10
0.12097
20
-5.78228
30
10.95357
11
-0.28684
21
-5.78228
31
10.95357
12
-0.28684
22
-5.78228
32
14.04643
13
0.12097
23
-5.78228
33
14.04643
0
3DFACE
8
layer1
62
1
10
0.12097
20
-5.43290
30
10.95357
11
0.12097
21
-5.78228
31
10.95357
12
0.12097
22
-5.78228
32
14.04643
13
0.12097
23
-5.43290
33
14.04643
0
3DFACE
8
layer1
62
1
10
0.77886
20
-5.43290
30
10.95357
11
1.12747
21
-5.43290
31
10.95357
12
1.12747
22
-5.43290
32
14.04643
13
0.77886
23
-5.43290
33
14.04643
0
3DFACE
8
layer1
62
1
10
0.77886
20
-5.78228
30
10.95357
11
0.77886
21
-5.43290
31
10.95357
12
0.77886
22
-5.43290
32
14.04643
13
0.77886
23
-5.78228
33
14.04643
0
3DFACE
8
layer1
62
1
10
1.12747
20
-5.78228
30
10.95357
11
0.77886
21
-5.78228
31
10.95357
12
0.77886
22
-5.78228
32
14.04643
13
1.12747
23
-5.78228
33
14.04643
0
3DFACE
8
layer1
62
1
10
1.12747
20
-5.43290
30
10.95357
11
1.12747
21
-5.78228
31
10.95357
12
1.12747
22
-5.78228
32
14.04643
13
1.12747
23
-5.43290
33
14.04643
0
3DFACE
8
layer1
62
1
10
0.77886
20
-4.92380
30
10.95357
11
0.77886
21
-4.57443
31
10.95357
12
0.77886
22
-4.57443
32
14.04643
13
0.77886
23
-4.92380
33
14.04643
0
3DFACE
8
layer1
62
1
10
1.12747
20
-4.92380
30
10.95357
11
0.77886
21
-4.92380
31
10.95357
12
0.77886
22
-4.92380
32
14.04643
13
1.12747
23
-4.92380
33
14.04643
0
3DFACE
8
layer1
62
1
10
1.12747
20
-4.57443
30
10.95357
11
1.12747
21
-4.92380
31
10.95357
12
1.12747
22
-4.92380
32
14.04643
13
1.12747
23
-4.57443
33
14.04643
0
3DFACE
8
layer1
62
1
10
0.77886
20
-4.57443
30
10.95357
11
1.12747
21
-4.57443
31
10.95357
12
1.12747
22
-4.57443
32
14.04643
13
0.77886
23
-4.57443
33
14.04643
0
3DFACE
8
layer1
62
1
10
-8.88486
20
-2.02274
30
10.95357
11
-8.13817
21
-2.02274
31
10.95357
12
-8.21338
22
-7.96398
32
10.95357
0
3DFACE
8
layer1
62
1
10
-8.21338
20
-7.96398
30
10.95357
11
-8.13817
21
-2.02274
31
10.95357
12
-8.13817
22
-3.65088
32
10.95357
0
3DFACE
8
layer1
62
1
10
-8.21338
20
-7.96398
30
10.95357
11
-8.13817
21
-3.65088
31
10.95357
12
-8.13817
22
-4.36721
32
10.95357
0
3DFACE
8
layer1
62
1
10
-8.13817
20
-4.36721
30
10.95357
11
-8.13817
21
-3.65088
31
10.95357
12
-6.06598
22
-3.65088
32
10.95357
0
3DFACE
8
layer1
62
1
10
-8.13817
20
-4.36721
30
10.95357
11
-6.06598
21
-3.65088
31
10.95357
12
-6.06598
22
-4.36721
32
10.95357
0
3DFACE
8
layer1
62
1
10
-8.88486
20
-2.02274
30
10.95357
11
-8.21338
21
-7.96398
31
10.95357
12
-8.47450
22
-7.61565
32
10.95357
0
3DFACE
8
layer1
62
1
10
-8.88486
20
-2.02274
30
10.95357
11
-8.47450
21
-7.61565
31
10.95357
12
-8.65864
22
-7.22759
32
10.95357
0
3DFACE
8
layer1
62
1
10
-8.88486
20
-2.02274
30
10.95357
11
-8.65864
21
-7.22759
31
10.95357
12
-8.75761
22
-6.87108
32
10.95357
0
3DFACE
8
layer1
62
1
10
-8.88486
20
-2.02274
30
10.95357
11
-8.75761
21
-6.87108
31
10.95357
12
-8.82831
22
-6.41557
32
10.95357
0
3DFACE
8
layer1
62
1
10
-8.88486
20
-2.02274
30
10.95357
11
-8.82831
21
-6.41557
31
10.95357
12
-8.87073
22
-5.86107
32
10.95357
0
3DFACE
8
layer1
62
1
10
-8.88486
20
-2.02274
30
10.95357
11
-8.87073
21
-5.86107
31
10.95357
12
-8.88486
22
-5.20757
32
10.95357
0
3DFACE
8
layer1
62
1
10
-8.88486
20
-2.02274
30
10.95357
11
-8.88486
21
-5.20757
31
10.95357
12
-8.88486
22
-4.36721
32
10.95357
0
3DFACE
8
layer1
62
1
10
-8.88486
20
-2.02274
30
10.95357
11
-8.88486
21
-4.36721
31
10.95357
12
-8.88486
22
-3.65088
32
10.95357
0
3DFACE
8
layer1
62
1
10
-8.21338
20
-7.96398
30
10.95357
11
-8.13817
21
-4.36721
31
10.95357
12
-8.13817
22
-5.20757
32
10.95357
0
3DFACE
8
layer1
62
1
10
-8.21338
20
-7.96398
30
10.95357
11
-8.13817
21
-5.20757
31
10.95357
12
-8.12170
22
-5.83065
32
10.95357
0
3DFACE
8
layer1
62
1
10
-8.21338
20
-7.96398
30
10.95357
11
-8.12170
21
-5.83065
31
10.95357
12
-8.07231
22
-6.35515
32
10.95357
0
3DFACE
8
layer1
62
1
10
-8.21338
20
-7.96398
30
10.95357
11
-8.07231
21
-6.35515
31
10.95357
12
-7.98998
22
-6.78108
32
10.95357
0
3DFACE
8
layer1
62
1
10
-8.21338
20
-7.96398
30
10.95357
11
-7.98998
21
-6.78108
31
10.95357
12
-7.87529
22
-8.27256
32
10.95357
0
3DFACE
8
layer1
62
1
10
-7.87529
20
-8.27256
30
10.95357
11
-7.98998
21
-6.78108
31
10.95357
12
-7.87472
22
-7.10845
32
10.95357
0
3DFACE
8
layer1
62
1
10
-7.87529
20
-8.27256
30
10.95357
11
-7.87472
21
-7.10845
31
10.95357
12
-7.75630
22
-7.34190
32
10.95357
0
3DFACE
8
layer1
62
1
10
-7.87529
20
-8.27256
30
10.95357
11
-7.75630
21
-7.34190
31
10.95357
12
-7.56832
22
-7.56834
32
10.95357
0
3DFACE
8
layer1
62
1
10
-7.87529
20
-8.27256
30
10.95357
11
-7.56832
21
-7.56834
31
10.95357
12
-7.46023
22
-8.54142
32
10.95357
0
3DFACE
8
layer1
62
1
10
-7.31078
20
-7.78775
30
10.95357
11
-6.98366
21
-8.00014
31
10.95357
12
-7.46023
22
-8.54142
32
10.95357
0
3DFACE
8
layer1
62
1
10
-7.31078
20
-7.78775
30
10.95357
11
-7.46023
21
-8.54142
31
10.95357
12
-7.56832
22
-7.56834
32
10.95357
0
3DFACE
8
layer1
62
1
10
-8.88486
20
-3.65088
30
10.95357
11
-8.88486
21
-4.36721
31
10.95357
12
-9.92095
22
-4.36721
32
10.95357
0
3DFACE
8
layer1
62
1
10
-8.88486
20
-3.65088
30
10.95357
11
-9.92095
21
-4.36721
31
10.95357
12
-9.92095
22
-3.65088
32
10.95357
0
3DFACE
8
layer1
62
1
10
-4.84576
20
-8.36490
30
10.95357
11
-5.56937
21
-8.09773
31
10.95357
12
-5.41395
22
-7.29576
32
10.95357
0
3DFACE
8
layer1
62
1
10
-4.84576
20
-8.36490
30
10.95357
11
-5.41395
21
-7.29576
31
10.95357
12
-5.30294
22
-6.51318
32
10.95357
0
3DFACE
8
layer1
62
1
10
-4.84576
20
-8.36490
30
10.95357
11
-5.30294
21
-6.51318
31
10.95357
12
-5.23634
22
-5.74999
32
10.95357
0
3DFACE
8
layer1
62
1
10
-4.84576
20
-8.36490
30
10.95357
11
-5.23634
21
-5.74999
31
10.95357
12
-5.21414
22
-5.00620
32
10.95357
0
3DFACE
8
layer1
62
1
10
-4.84576
20
-8.36490
30
10.95357
11
-5.21414
21
-5.00620
31
10.95357
12
-5.24688
22
-4.35542
32
10.95357
0
3DFACE
8
layer1
62
1
10
-4.84576
20
-8.36490
30
10.95357
11
-5.24688
21
-4.35542
31
10.95357
12
-4.84239
22
-2.08118
32
10.95357
0
3DFACE
8
layer1
62
1
10
-4.84576
20
-8.36490
30
10.95357
11
-4.84239
21
-2.08118
31
10.95357
12
-4.68956
22
-2.86524
32
10.95357
0
3DFACE
8
layer1
62
1
10
-4.84576
20
-8.36490
30
10.95357
11
-4.68956
21
-2.86524
31
10.95357
12
-4.65805
22
-7.50771
32
10.95357
0
3DFACE
8
layer1
62
1
10
-4.84239
20
-2.08118
30
10.95357
11
-5.24688
21
-4.35542
31
10.95357
12
-5.31699
22
-3.69580
32
10.95357
0
3DFACE
8
layer1
62
1
10
-4.84239
20
-2.08118
30
10.95357
11
-5.31699
21
-3.69580
31
10.95357
12
-5.42449
22
-3.02735
32
10.95357
0
3DFACE
8
layer1
62
1
10
-4.84239
20
-2.08118
30
10.95357
11
-5.42449
21
-3.02735
31
10.95357
12
-5.56937
22
-2.35006
32
10.95357
0
3DFACE
8
layer1
62
1
10
-4.46762
20
-4.81461
30
10.95357
11
-4.46898
21
-5.73257
31
10.95357
12
-4.50218
22
-4.23195
32
10.95357
0
3DFACE
8
layer1
62
1
10
-4.50218
20
-4.23195
30
10.95357
11
-4.46898
21
-5.73257
31
10.95357
12
-4.53246
22
-6.63027
32
10.95357
0
3DFACE
8
layer1
62
1
10
-4.50218
20
-4.23195
30
10.95357
11
-4.53246
21
-6.63027
31
10.95357
12
-4.57616
22
-3.58216
32
10.95357
0
3DFACE
8
layer1
62
1
10
-4.57616
20
-3.58216
30
10.95357
11
-4.53246
21
-6.63027
31
10.95357
12
-4.65805
22
-7.50771
32
10.95357
0
3DFACE
8
layer1
62
1
10
-4.57616
20
-3.58216
30
10.95357
11
-4.65805
21
-7.50771
31
10.95357
12
-4.68956
22
-2.86524
32
10.95357
0
3DFACE
8
layer1
62
1
10
-8.21338
20
-7.96398
30
14.04643
11
-8.13817
21
-2.02274
31
14.04643
12
-8.88486
22
-2.02274
32
14.04643
0
3DFACE
8
layer1
62
1
10
-8.13817
20
-3.65088
30
14.04643
11
-8.13817
21
-2.02274
31
14.04643
12
-8.21338
22
-7.96398
32
14.04643
0
3DFACE
8
layer1
62
1
10
-8.13817
20
-4.36721
30
14.04643
11
-8.13817
21
-3.65088
31
14.04643
12
-8.21338
22
-7.96398
32
14.04643
0
3DFACE
8
layer1
62
1
10
-6.06598
20
-3.65088
30
14.04643
11
-8.13817
21
-3.65088
31
14.04643
12
-8.13817
22
-4.36721
32
14.04643
0
3DFACE
8
layer1
62
1
10
-6.06598
20
-4.36721
30
14.04643
11
-6.06598
21
-3.65088
31
14.04643
12
-8.13817
22
-4.36721
32
14.04643
0
3DFACE
8
layer1
62
1
10
-8.47450
20
-7.61565
30
14.04643
11
-8.21338
21
-7.96398
31
14.04643
12
-8.88486
22
-2.02274
32
14.04643
0
3DFACE
8
layer1
62
1
10
-8.65864
20
-7.22759
30
14.04643
11
-8.47450
21
-7.61565
31
14.04643
12
-8.88486
22
-2.02274
32
14.04643
0
3DFACE
8
layer1
62
1
10
-8.75761
20
-6.87108
30
14.04643
11
-8.65864
21
-7.22759
31
14.04643
12
-8.88486
22
-2.02274
32
14.04643
0
3DFACE
8
layer1
62
1
10
-8.82831
20
-6.41557
30
14.04643
11
-8.75761
21
-6.87108
31
14.04643
12
-8.88486
22
-2.02274
32
14.04643
0
3DFACE
8
layer1
62
1
10
-8.87073
20
-5.86107
30
14.04643
11
-8.82831
21
-6.41557
31
14.04643
12
-8.88486
22
-2.02274
32
14.04643
0
3DFACE
8
layer1
62
1
10
-8.88486
20
-5.20757
30
14.04643
11
-8.87073
21
-5.86107
31
14.04643
12
-8.88486
22
-2.02274
32
14.04643
0
3DFACE
8
layer1
62
1
10
-8.88486
20
-4.36721
30
14.04643
11
-8.88486
21
-5.20757
31
14.04643
12
-8.88486
22
-2.02274
32
14.04643
0
3DFACE
8
layer1
62
1
10
-8.88486
20
-3.65088
30
14.04643
11
-8.88486
21
-4.36721
31
14.04643
12
-8.88486
22
-2.02274
32
14.04643
0
3DFACE
8
layer1
62
1
10
-8.13817
20
-5.20757
30
14.04643
11
-8.13817
21
-4.36721
31
14.04643
12
-8.21338
22
-7.96398
32
14.04643
0
3DFACE
8
layer1
62
1
10
-8.12170
20
-5.83065
30
14.04643
11
-8.13817
21
-5.20757
31
14.04643
12
-8.21338
22
-7.96398
32
14.04643
0
3DFACE
8
layer1
62
1
10
-8.07231
20
-6.35515
30
14.04643
11
-8.12170
21
-5.83065
31
14.04643
12
-8.21338
22
-7.96398
32
14.04643
0
3DFACE
8
layer1
62
1
10
-7.98998
20
-6.78108
30
14.04643
11
-8.07231
21
-6.35515
31
14.04643
12
-8.21338
22
-7.96398
32
14.04643
0
3DFACE
8
layer1
62
1
10
-7.87529
20
-8.27256
30
14.04643
11
-7.98998
21
-6.78108
31
14.04643
12
-8.21338
22
-7.96398
32
14.04643
0
3DFACE
8
layer1
62
1
10
-7.87472
20
-7.10845
30
14.04643
11
-7.98998
21
-6.78108
31
14.04643
12
-7.87529
22
-8.27256
32
14.04643
0
3DFACE
8
layer1
62
1
10
-7.75630
20
-7.34190
30
14.04643
11
-7.87472
21
-7.10845
31
14.04643
12
-7.87529
22
-8.27256
32
14.04643
0
3DFACE
8
layer1
62
1
10
-7.56832
20
-7.56834
30
14.04643
11
-7.75630
21
-7.34190
31
14.04643
12
-7.87529
22
-8.27256
32
14.04643
0
3DFACE
8
layer1
62
1
10
-7.46023
20
-8.54142
30
14.04643
11
-7.56832
21
-7.56834
31
14.04643
12
-7.87529
22
-8.27256
32
14.04643
0
3DFACE
8
layer1
62
1
10
-7.46023
20
-8.54142
30
14.04643
11
-6.98366
21
-8.00014
31
14.04643
12
-7.31078
22
-7.78775
32
14.04643
0
3DFACE
8
layer1
62
1
10
-7.56832
20
-7.56834
30
14.04643
11
-7.46023
21
-8.54142
31
14.04643
12
-7.31078
22
-7.78775
32
14.04643
0
3DFACE
8
layer1
62
1
10
-9.92095
20
-4.36721
30
14.04643
11
-8.88486
21
-4.36721
31
14.04643
12
-8.88486
22
-3.65088
32
14.04643
0
3DFACE
8
layer1
62
1
10
-9.92095
20
-3.65088
30
14.04643
11
-9.92095
21
-4.36721
31
14.04643
12
-8.88486
22
-3.65088
32
14.04643
0
3DFACE
8
layer1
62
1
10
-5.41395
20
-7.29576
30
14.04643
11
-5.56937
21
-8.09773
31
14.04643
12
-4.84576
22
-8.36490
32
14.04643
0
3DFACE
8
layer1
62
1
10
-5.30294
20
-6.51318
30
14.04643
11
-5.41395
21
-7.29576
31
14.04643
12
-4.84576
22
-8.36490
32
14.04643
0
3DFACE
8
layer1
62
1
10
-5.23634
20
-5.74999
30
14.04643
11
-5.30294
21
-6.51318
31
14.04643
12
-4.84576
22
-8.36490
32
14.04643
0
3DFACE
8
layer1
62
1
10
-5.21414
20
-5.00620
30
14.04643
11
-5.23634
21
-5.74999
31
14.04643
12
-4.84576
22
-8.36490
32
14.04643
0
3DFACE
8
layer1
62
1
10
-5.24688
20
-4.35542
30
14.04643
11
-5.21414
21
-5.00620
31
14.04643
12
-4.84576
22
-8.36490
32
14.04643
0
3DFACE
8
layer1
62
1
10
-4.84239
20
-2.08118
30
14.04643
11
-5.24688
21
-4.35542
31
14.04643
12
-4.84576
22
-8.36490
32
14.04643
0
3DFACE
8
layer1
62
1
10
-4.68956
20
-2.86524
30
14.04643
11
-4.84239
21
-2.08118
31
14.04643
12
-4.84576
22
-8.36490
32
14.04643
0
3DFACE
8
layer1
62
1
10
-4.65805
20
-7.50771
30
14.04643
11
-4.68956
21
-2.86524
31
14.04643
12
-4.84576
22
-8.36490
32
14.04643
0
3DFACE
8
layer1
62
1
10
-5.31699
20
-3.69580
30
14.04643
11
-5.24688
21
-4.35542
31
14.04643
12
-4.84239
22
-2.08118
32
14.04643
0
3DFACE
8
layer1
62
1
10
-5.42449
20
-3.02735
30
14.04643
11
-5.31699
21
-3.69580
31
14.04643
12
-4.84239
22
-2.08118
32
14.04643
0
3DFACE
8
layer1
62
1
10
-5.56937
20
-2.35006
30
14.04643
11
-5.42449
21
-3.02735
31
14.04643
12
-4.84239
22
-2.08118
32
14.04643
0
3DFACE
8
layer1
62
1
10
-4.50218
20
-4.23195
30
14.04643
11
-4.46898
21
-5.73257
31
14.04643
12
-4.46762
22
-4.81461
32
14.04643
0
3DFACE
8
layer1
62
1
10
-4.53246
20
-6.63027
30
14.04643
11
-4.46898
21
-5.73257
31
14.04643
12
-4.50218
22
-4.23195
32
14.04643
0
3DFACE
8
layer1
62
1
10
-4.57616
20
-3.58216
30
14.04643
11
-4.53246
21
-6.63027
31
14.04643
12
-4.50218
22
-4.23195
32
14.04643
0
3DFACE
8
layer1
62
1
10
-4.65805
20
-7.50771
30
14.04643
11
-4.53246
21
-6.63027
31
14.04643
12
-4.57616
22
-3.58216
32
14.04643
0
3DFACE
8
layer1
62
1
10
-4.68956
20
-2.86524
30
14.04643
11
-4.65805
21
-7.50771
31
14.04643
12
-4.57616
22
-3.58216
32
14.04643
0
3DFACE
8
layer1
62
1
10
-8.88486
20
-2.02274
30
10.95357
11
-8.88486
21
-3.65088
31
10.95357
12
-8.88486
22
-3.65088
32
14.04643
13
-8.88486
23
-2.02274
33
14.04643
0
3DFACE
8
layer1
62
1
10
-8.13817
20
-2.02274
30
10.95357
11
-8.88486
21
-2.02274
31
10.95357
12
-8.88486
22
-2.02274
32
14.04643
13
-8.13817
23
-2.02274
33
14.04643
0
3DFACE
8
layer1
62
1
10
-8.13817
20
-3.65088
30
10.95357
11
-8.13817
21
-2.02274
31
10.95357
12
-8.13817
22
-2.02274
32
14.04643
13
-8.13817
23
-3.65088
33
14.04643
0
3DFACE
8
layer1
62
1
10
-6.06598
20
-3.65088
30
10.95357
11
-8.13817
21
-3.65088
31
10.95357
12
-8.13817
22
-3.65088
32
14.04643
13
-6.06598
23
-3.65088
33
14.04643
0
3DFACE
8
layer1
62
1
10
-6.06598
20
-4.36721
30
10.95357
11
-6.06598
21
-3.65088
31
10.95357
12
-6.06598
22
-3.65088
32
14.04643
13
-6.06598
23
-4.36721
33
14.04643
0
3DFACE
8
layer1
62
1
10
-8.13817
20
-4.36721
30
10.95357
11
-6.06598
21
-4.36721
31
10.95357
12
-6.06598
22
-4.36721
32
14.04643
13
-8.13817
23
-4.36721
33
14.04643
0
3DFACE
8
layer1
62
1
10
-8.13817
20
-5.20757
30
10.95357
11
-8.13817
21
-4.36721
31
10.95357
12
-8.13817
22
-4.36721
32
14.04643
13
-8.13817
23
-5.20757
33
14.04643
0
3DFACE
8
layer1
62
1
10
-8.12170
20
-5.83065
30
10.95357
11
-8.13817
21
-5.20757
31
10.95357
12
-8.13817
22
-5.20757
32
14.04643
13
-8.12170
23
-5.83065
33
14.04643
0
3DFACE
8
layer1
62
1
10
-8.07231
20
-6.35515
30
10.95357
11
-8.12170
21
-5.83065
31
10.95357
12
-8.12170
22
-5.83065
32
14.04643
13
-8.07231
23
-6.35515
33
14.04643
0
3DFACE
8
layer1
62
1
10
-7.98998
20
-6.78108
30
10.95357
11
-8.07231
21
-6.35515
31
10.95357
12
-8.07231
22
-6.35515
32
14.04643
13
-7.98998
23
-6.78108
33
14.04643
0
3DFACE
8
layer1
62
1
10
-7.87472
20
-7.10845
30
10.95357
11
-7.98998
21
-6.78108
31
10.95357
12
-7.98998
22
-6.78108
32
14.04643
13
-7.87472
23
-7.10845
33
14.04643
0
3DFACE
8
layer1
62
1
10
-7.75630
20
-7.34190
30
10.95357
11
-7.87472
21
-7.10845
31
10.95357
12
-7.87472
22
-7.10845
32
14.04643
13
-7.75630
23
-7.34190
33
14.04643
0
3DFACE
8
layer1
62
1
10
-7.56832
20
-7.56834
30
10.95357
11
-7.75630
21
-7.34190
31
10.95357
12
-7.75630
22
-7.34190
32
14.04643
13
-7.56832
23
-7.56834
33
14.04643
0
3DFACE
8
layer1
62
1
10
-7.31078
20
-7.78775
30
10.95357
11
-7.56832
21
-7.56834
31
10.95357
12
-7.56832
22
-7.56834
32
14.04643
13
-7.31078
23
-7.78775
33
14.04643
0
3DFACE
8
layer1
62
1
10
-6.98366
20
-8.00014
30
10.95357
11
-7.31078
21
-7.78775
31
10.95357
12
-7.31078
22
-7.78775
32
14.04643
13
-6.98366
23
-8.00014
33
14.04643
0
3DFACE
8
layer1
62
1
10
-7.46023
20
-8.54142
30
10.95357
11
-6.98366
21
-8.00014
31
10.95357
12
-6.98366
22
-8.00014
32
14.04643
13
-7.46023
23
-8.54142
33
14.04643
0
3DFACE
8
layer1
62
1
10
-7.87529
20
-8.27256
30
10.95357
11
-7.46023
21
-8.54142
31
10.95357
12
-7.46023
22
-8.54142
32
14.04643
13
-7.87529
23
-8.27256
33
14.04643
0
3DFACE
8
layer1
62
1
10
-8.21338
20
-7.96398
30
10.95357
11
-7.87529
21
-8.27256
31
10.95357
12
-7.87529
22
-8.27256
32
14.04643
13
-8.21338
23
-7.96398
33
14.04643
0
3DFACE
8
layer1
62
1
10
-8.47450
20
-7.61565
30
10.95357
11
-8.21338
21
-7.96398
31
10.95357
12
-8.21338
22
-7.96398
32
14.04643
13
-8.47450
23
-7.61565
33
14.04643
0
3DFACE
8
layer1
62
1
10
-8.65864
20
-7.22759
30
10.95357
11
-8.47450
21
-7.61565
31
10.95357
12
-8.47450
22
-7.61565
32
14.04643
13
-8.65864
23
-7.22759
33
14.04643
0
3DFACE
8
layer1
62
1
10
-8.75761
20
-6.87108
30
10.95357
11
-8.65864
21
-7.22759
31
10.95357
12
-8.65864
22
-7.22759
32
14.04643
13
-8.75761
23
-6.87108
33
14.04643
0
3DFACE
8
layer1
62
1
10
-8.82831
20
-6.41557
30
10.95357
11
-8.75761
21
-6.87108
31
10.95357
12
-8.75761
22
-6.87108
32
14.04643
13
-8.82831
23
-6.41557
33
14.04643
0
3DFACE
8
layer1
62
1
10
-8.87073
20
-5.86107
30
10.95357
11
-8.82831
21
-6.41557
31
10.95357
12
-8.82831
22
-6.41557
32
14.04643
13
-8.87073
23
-5.86107
33
14.04643
0
3DFACE
8
layer1
62
1
10
-8.88486
20
-5.20757
30
10.95357
11
-8.87073
21
-5.86107
31
10.95357
12
-8.87073
22
-5.86107
32
14.04643
13
-8.88486
23
-5.20757
33
14.04643
0
3DFACE
8
layer1
62
1
10
-8.88486
20
-4.36721
30
10.95357
11
-8.88486
21
-5.20757
31
10.95357
12
-8.88486
22
-5.20757
32
14.04643
13
-8.88486
23
-4.36721
33
14.04643
0
3DFACE
8
layer1
62
1
10
-9.92095
20
-4.36721
30
10.95357
11
-8.88486
21
-4.36721
31
10.95357
12
-8.88486
22
-4.36721
32
14.04643
13
-9.92095
23
-4.36721
33
14.04643
0
3DFACE
8
layer1
62
1
10
-9.92095
20
-3.65088
30
10.95357
11
-9.92095
21
-4.36721
31
10.95357
12
-9.92095
22
-4.36721
32
14.04643
13
-9.92095
23
-3.65088
33
14.04643
0
3DFACE
8
layer1
62
1
10
-8.88486
20
-3.65088
30
10.95357
11
-9.92095
21
-3.65088
31
10.95357
12
-9.92095
22
-3.65088
32
14.04643
13
-8.88486
23
-3.65088
33
14.04643
0
3DFACE
8
layer1
62
1
10
-4.68956
20
-2.86524
30
10.95357
11
-4.84239
21
-2.08118
31
10.95357
12
-4.84239
22
-2.08118
32
14.04643
13
-4.68956
23
-2.86524
33
14.04643
0
3DFACE
8
layer1
62
1
10
-4.57616
20
-3.58216
30
10.95357
11
-4.68956
21
-2.86524
31
10.95357
12
-4.68956
22
-2.86524
32
14.04643
13
-4.57616
23
-3.58216
33
14.04643
0
3DFACE
8
layer1
62
1
10
-4.50218
20
-4.23195
30
10.95357
11
-4.57616
21
-3.58216
31
10.95357
12
-4.57616
22
-3.58216
32
14.04643
13
-4.50218
23
-4.23195
33
14.04643
0
3DFACE
8
layer1
62
1
10
-4.46762
20
-4.81461
30
10.95357
11
-4.50218
21
-4.23195
31
10.95357
12
-4.50218
22
-4.23195
32
14.04643
13
-4.46762
23
-4.81461
33
14.04643
0
3DFACE
8
layer1
62
1
10
-4.46898
20
-5.73257
30
10.95357
11
-4.46762
21
-4.81461
31
10.95357
12
-4.46762
22
-4.81461
32
14.04643
13
-4.46898
23
-5.73257
33
14.04643
0
3DFACE
8
layer1
62
1
10
-4.53246
20
-6.63027
30
10.95357
11
-4.46898
21
-5.73257
31
10.95357
12
-4.46898
22
-5.73257
32
14.04643
13
-4.53246
23
-6.63027
33
14.04643
0
3DFACE
8
layer1
62
1
10
-4.65805
20
-7.50771
30
10.95357
11
-4.53246
21
-6.63027
31
10.95357
12
-4.53246
22
-6.63027
32
14.04643
13
-4.65805
23
-7.50771
33
14.04643
0
3DFACE
8
layer1
62
1
10
-4.84576
20
-8.36490
30
10.95357
11
-4.65805
21
-7.50771
31
10.95357
12
-4.65805
22
-7.50771
32
14.04643
13
-4.84576
23
-8.36490
33
14.04643
0
3DFACE
8
layer1
62
1
10
-5.56937
20
-8.09773
30
10.95357
11
-4.84576
21
-8.36490
31
10.95357
12
-4.84576
22
-8.36490
32
14.04643
13
-5.56937
23
-8.09773
33
14.04643
0
3DFACE
8
layer1
62
1
10
-5.41395
20
-7.29576
30
10.95357
11
-5.56937
21
-8.09773
31
10.95357
12
-5.56937
22
-8.09773
32
14.04643
13
-5.41395
23
-7.29576
33
14.04643
0
3DFACE
8
layer1
62
1
10
-5.30294
20
-6.51318
30
10.95357
11
-5.41395
21
-7.29576
31
10.95357
12
-5.41395
22
-7.29576
32
14.04643
13
-5.30294
23
-6.51318
33
14.04643
0
3DFACE
8
layer1
62
1
10
-5.23634
20
-5.74999
30
10.95357
11
-5.30294
21
-6.51318
31
10.95357
12
-5.30294
22
-6.51318
32
14.04643
13
-5.23634
23
-5.74999
33
14.04643
0
3DFACE
8
layer1
62
1
10
-5.21414
20
-5.00620
30
10.95357
11
-5.23634
21
-5.74999
31
10.95357
12
-5.23634
22
-5.74999
32
14.04643
13
-5.21414
23
-5.00620
33
14.04643
0
3DFACE
8
layer1
62
1
10
-5.24688
20
-4.35542
30
10.95357
11
-5.21414
21
-5.00620
31
10.95357
12
-5.21414
22
-5.00620
32
14.04643
13
-5.24688
23
-4.35542
33
14.04643
0
3DFACE
8
layer1
62
1
10
-5.31699
20
-3.69580
30
10.95357
11
-5.24688
21
-4.35542
31
10.95357
12
-5.24688
22
-4.35542
32
14.04643
13
-5.31699
23
-3.69580
33
14.04643
0
3DFACE
8
layer1
62
1
10
-5.42449
20
-3.02735
30
10.95357
11
-5.31699
21
-3.69580
31
10.95357
12
-5.31699
22
-3.69580
32
14.04643
13
-5.42449
23
-3.02735
33
14.04643
0
3DFACE
8
layer1
62
1
10
-5.56937
20
-2.35006
30
10.95357
11
-5.42449
21
-3.02735
31
10.95357
12
-5.42449
22
-3.02735
32
14.04643
13
-5.56937
23
-2.35006
33
14.04643
0
3DFACE
8
layer1
62
1
10
-4.84239
20
-2.08118
30
10.95357
11
-5.56937
21
-2.35006
31
10.95357
12
-5.56937
22
-2.35006
32
14.04643
13
-4.84239
23
-2.08118
33
14.04643
0
3DFACE
8
layer1
62
1
10
-14.54690
20
-2.73320
30
10.95357
11
-13.44497
21
-2.73320
31
10.95357
12
-13.59636
22
-6.11377
32
10.95357
0
3DFACE
8
layer1
62
1
10
-14.54690
20
-2.73320
30
10.95357
11
-13.59636
21
-6.11377
31
10.95357
12
-14.39429
22
-6.11377
32
10.95357
0
3DFACE
8
layer1
62
1
10
-13.50419
20
-6.93678
30
10.95357
11
-13.50419
21
-7.94912
31
10.95357
12
-14.48770
22
-7.94912
32
10.95357
0
3DFACE
8
layer1
62
1
10
-13.50419
20
-6.93678
30
10.95357
11
-14.48770
21
-7.94912
31
10.95357
12
-14.48770
22
-6.93678
32
10.95357
0
3DFACE
8
layer1
62
1
10
-13.59636
20
-6.11377
30
14.04643
11
-13.44497
21
-2.73320
31
14.04643
12
-14.54690
22
-2.73320
32
14.04643
0
3DFACE
8
layer1
62
1
10
-14.39429
20
-6.11377
30
14.04643
11
-13.59636
21
-6.11377
31
14.04643
12
-14.54690
22
-2.73320
32
14.04643
0
3DFACE
8
layer1
62
1
10
-14.48770
20
-7.94912
30
14.04643
11
-13.50419
21
-7.94912
31
14.04643
12
-13.50419
22
-6.93678
32
14.04643
0
3DFACE
8
layer1
62
1
10
-14.48770
20
-6.93678
30
14.04643
11
-14.48770
21
-7.94912
31
14.04643
12
-13.50419
22
-6.93678
32
14.04643
0
3DFACE
8
layer1
62
1
10
-14.39429
20
-6.11377
30
10.95357
11
-13.59636
21
-6.11377
31
10.95357
12
-13.59636
22
-6.11377
32
14.04643
13
-14.39429
23
-6.11377
33
14.04643
0
3DFACE
8
layer1
62
1
10
-14.54690
20
-2.73320
30
10.95357
11
-14.39429
21
-6.11377
31
10.95357
12
-14.39429
22
-6.11377
32
14.04643
13
-14.54690
23
-2.73320
33
14.04643
0
3DFACE
8
layer1
62
1
10
-13.44497
20
-2.73320
30
10.95357
11
-14.54690
21
-2.73320
31
10.95357
12
-14.54690
22
-2.73320
32
14.04643
13
-13.44497
23
-2.73320
33
14.04643
0
3DFACE
8
layer1
62
1
10
-13.59636
20
-6.11377
30
10.95357
11
-13.44497
21
-2.73320
31
10.95357
12
-13.44497
22
-2.73320
32
14.04643
13
-13.59636
23
-6.11377
33
14.04643
0
3DFACE
8
layer1
62
1
10
-14.48770
20
-7.94912
30
10.95357
11
-13.50419
21
-7.94912
31
10.95357
12
-13.50419
22
-7.94912
32
14.04643
13
-14.48770
23
-7.94912
33
14.04643
0
3DFACE
8
layer1
62
1
10
-14.48770
20
-6.93678
30
10.95357
11
-14.48770
21
-7.94912
31
10.95357
12
-14.48770
22
-7.94912
32
14.04643
13
-14.48770
23
-6.93678
33
14.04643
0
3DFACE
8
layer1
62
1
10
-13.50419
20
-6.93678
30
10.95357
11
-14.48770
21
-6.93678
31
10.95357
12
-14.48770
22
-6.93678
32
14.04643
13
-13.50419
23
-6.93678
33
14.04643
0
3DFACE
8
layer1
62
1
10
-13.50419
20
-7.94912
30
10.95357
11
-13.50419
21
-6.93678
31
10.95357
12
-13.50419
22
-6.93678
32
14.04643
13
-13.50419
23
-7.94912
33
14.04643
0
3DFACE
8
layer1
62
1
10
-22.27983
20
-2.73320
30
10.95357
11
-21.17789
21
-2.73320
31
10.95357
12
-21.32929
22
-6.11377
32
10.95357
0
3DFACE
8
layer1
62
1
10
-22.27983
20
-2.73320
30
10.95357
11
-21.32929
21
-6.11377
31
10.95357
12
-22.12722
22
-6.11377
32
10.95357
0
3DFACE
8
layer1
62
1
10
-21.23712
20
-6.93678
30
10.95357
11
-21.23712
21
-7.94912
31
10.95357
12
-22.22063
22
-7.94912
32
10.95357
0
3DFACE
8
layer1
62
1
10
-21.23712
20
-6.93678
30
10.95357
11
-22.22063
21
-7.94912
31
10.95357
12
-22.22063
22
-6.93678
32
10.95357
0
3DFACE
8
layer1
62
1
10
-21.32929
20
-6.11377
30
14.04643
11
-21.17789
21
-2.73320
31
14.04643
12
-22.27983
22
-2.73320
32
14.04643
0
3DFACE
8
layer1
62
1
10
-22.12722
20
-6.11377
30
14.04643
11
-21.32929
21
-6.11377
31
14.04643
12
-22.27983
22
-2.73320
32
14.04643
0
3DFACE
8
layer1
62
1
10
-22.22063
20
-7.94912
30
14.04643
11
-21.23712
21
-7.94912
31
14.04643
12
-21.23712
22
-6.93678
32
14.04643
0
3DFACE
8
layer1
62
1
10
-22.22063
20
-6.93678
30
14.04643
11
-22.22063
21
-7.94912
31
14.04643
12
-21.23712
22
-6.93678
32
14.04643
0
3DFACE
8
layer1
62
1
10
-22.12722
20
-6.11377
30
10.95357
11
-21.32929
21
-6.11377
31
10.95357
12
-21.32929
22
-6.11377
32
14.04643
13
-22.12722
23
-6.11377
33
14.04643
0
3DFACE
8
layer1
62
1
10
-22.27983
20
-2.73320
30
10.95357
11
-22.12722
21
-6.11377
31
10.95357
12
-22.12722
22
-6.11377
32
14.04643
13
-22.27983
23
-2.73320
33
14.04643
0
3DFACE
8
layer1
62
1
10
-21.17789
20
-2.73320
30
10.95357
11
-22.27983
21
-2.73320
31
10.95357
12
-22.27983
22
-2.73320
32
14.04643
13
-21.17789
23
-2.73320
33
14.04643
0
3DFACE
8
layer1
62
1
10
-21.32929
20
-6.11377
30
10.95357
11
-21.17789
21
-2.73320
31
10.95357
12
-21.17789
22
-2.73320
32
14.04643
13
-21.32929
23
-6.11377
33
14.04643
0
3DFACE
8
layer1
62
1
10
-22.22063
20
-7.94912
30
10.95357
11
-21.23712
21
-7.94912
31
10.95357
12
-21.23712
22
-7.94912
32
14.04643
13
-22.22063
23
-7.94912
33
14.04643
0
3DFACE
8
layer1
62
1
10
-22.22063
20
-6.93678
30
10.95357
11
-22.22063
21
-7.94912
31
10.95357
12
-22.22063
22
-7.94912
32
14.04643
13
-22.22063
23
-6.93678
33
14.04643
0
3DFACE
8
layer1
62
1
10
-21.23712
20
-6.93678
30
10.95357
11
-22.22063
21
-6.93678
31
10.95357
12
-22.22063
22
-6.93678
32
14.04643
13
-21.23712
23
-6.93678
33
14.04643
0
3DFACE
8
layer1
62
1
10
-21.23712
20
-7.94912
30
10.95357
11
-21.23712
21
-6.93678
31
10.95357
12
-21.23712
22
-6.93678
32
14.04643
13
-21.23712
23
-7.94912
33
14.04643
0
ENDSEC
0
EOF
