0
SECTION
2
ENTITIES
999
Created by Metasequoia
0
3DFACE
8
layer1
62
1
10
1.51550
20
0.00000
30
-3.03100
11
1.51550
21
0.47420
31
-2.99370
12
-1.51550
22
0.47420
32
-2.99370
13
-1.51550
23
0.00000
33
-3.03100
0
3DFACE
8
layer1
62
1
10
1.51550
20
0.28450
30
-1.79620
11
1.51550
21
0.00000
31
-1.81860
12
-1.51550
22
0.00000
32
-1.81860
13
-1.51550
23
0.28450
33
-1.79620
0
3DFACE
8
layer1
62
1
10
1.51550
20
0.47420
30
-2.99370
11
1.51550
21
0.93660
31
-2.88270
12
-1.51550
22
0.93660
32
-2.88270
13
-1.51550
23
0.47420
33
-2.99370
0
3DFACE
8
layer1
62
1
10
1.51550
20
0.56200
30
-1.72960
11
1.51550
21
0.28450
31
-1.79620
12
-1.51550
22
0.28450
32
-1.79620
13
-1.51550
23
0.56200
33
-1.72960
0
3DFACE
8
layer1
62
1
10
1.51550
20
0.93660
30
-2.88270
11
1.51550
21
1.37610
31
-2.70070
12
-1.51550
22
1.37610
32
-2.70070
13
-1.51550
23
0.93660
33
-2.88270
0
3DFACE
8
layer1
62
1
10
1.51550
20
0.82560
30
-1.62040
11
1.51550
21
0.56200
31
-1.72960
12
-1.51550
22
0.56200
32
-1.72960
13
-1.51550
23
0.82560
33
-1.62040
0
3DFACE
8
layer1
62
1
10
1.51550
20
1.37610
30
-2.70070
11
1.51550
21
1.78160
31
-2.45220
12
-1.51550
22
1.78160
32
-2.45220
13
-1.51550
23
1.37610
33
-2.70070
0
3DFACE
8
layer1
62
1
10
1.51550
20
1.06900
30
-1.47130
11
1.51550
21
0.82560
31
-1.62040
12
-1.51550
22
0.82560
32
-1.62040
13
-1.51550
23
1.06900
33
-1.47130
0
3DFACE
8
layer1
62
1
10
1.51550
20
1.78160
30
-2.45220
11
1.51550
21
2.14330
31
-2.14330
12
-1.51550
22
2.14330
32
-2.14330
13
-1.51550
23
1.78160
33
-2.45220
0
3DFACE
8
layer1
62
1
10
1.51550
20
1.28600
30
-1.28600
11
1.51550
21
1.06900
31
-1.47130
12
-1.51550
22
1.06900
32
-1.47130
13
-1.51550
23
1.28600
33
-1.28600
0
3DFACE
8
layer1
62
1
10
1.51550
20
2.14330
30
-2.14330
11
1.51550
21
2.45220
31
-1.78160
12
-1.51550
22
2.45220
32
-1.78160
13
-1.51550
23
2.14330
33
-2.14330
0
3DFACE
8
layer1
62
1
10
1.51550
20
1.47130
30
-1.06900
11
1.51550
21
1.28600
31
-1.28600
12
-1.51550
22
1.28600
32
-1.28600
13
-1.51550
23
1.47130
33
-1.06900
0
3DFACE
8
layer1
62
1
10
1.51550
20
2.45220
30
-1.78160
11
1.51550
21
2.70070
31
-1.37610
12
-1.51550
22
2.70070
32
-1.37610
13
-1.51550
23
2.45220
33
-1.78160
0
3DFACE
8
layer1
62
1
10
1.51550
20
1.62040
30
-0.82560
11
1.51550
21
1.47130
31
-1.06900
12
-1.51550
22
1.47130
32
-1.06900
13
-1.51550
23
1.62040
33
-0.82560
0
3DFACE
8
layer1
62
1
10
1.51550
20
2.70070
30
-1.37610
11
1.51550
21
2.88270
31
-0.93660
12
-1.51550
22
2.88270
32
-0.93660
13
-1.51550
23
2.70070
33
-1.37610
0
3DFACE
8
layer1
62
1
10
1.51550
20
1.72960
30
-0.56200
11
1.51550
21
1.62040
31
-0.82560
12
-1.51550
22
1.62040
32
-0.82560
13
-1.51550
23
1.72960
33
-0.56200
0
3DFACE
8
layer1
62
1
10
1.51550
20
2.88270
30
-0.93660
11
1.51550
21
2.99370
31
-0.47420
12
-1.51550
22
2.99370
32
-0.47420
13
-1.51550
23
2.88270
33
-0.93660
0
3DFACE
8
layer1
62
1
10
1.51550
20
1.79620
30
-0.28450
11
1.51550
21
1.72960
31
-0.56200
12
-1.51550
22
1.72960
32
-0.56200
13
-1.51550
23
1.79620
33
-0.28450
0
3DFACE
8
layer1
62
1
10
1.51550
20
2.99370
30
-0.47420
11
1.51550
21
3.03100
31
0.00000
12
-1.51550
22
3.03100
32
0.00000
13
-1.51550
23
2.99370
33
-0.47420
0
3DFACE
8
layer1
62
1
10
1.51550
20
1.81860
30
0.00000
11
1.51550
21
1.79620
31
-0.28450
12
-1.51550
22
1.79620
32
-0.28450
13
-1.51550
23
1.81860
33
0.00000
0
3DFACE
8
layer1
62
1
10
1.51550
20
3.03100
30
0.00000
11
1.51550
21
2.99370
31
0.47420
12
-1.51550
22
2.99370
32
0.47420
13
-1.51550
23
3.03100
33
0.00000
0
3DFACE
8
layer1
62
1
10
1.51550
20
1.79620
30
0.28450
11
1.51550
21
1.81860
31
0.00000
12
-1.51550
22
1.81860
32
0.00000
13
-1.51550
23
1.79620
33
0.28450
0
3DFACE
8
layer1
62
1
10
1.51550
20
2.99370
30
0.47420
11
1.51550
21
2.88270
31
0.93660
12
-1.51550
22
2.88270
32
0.93660
13
-1.51550
23
2.99370
33
0.47420
0
3DFACE
8
layer1
62
1
10
1.51550
20
1.72960
30
0.56200
11
1.51550
21
1.79620
31
0.28450
12
-1.51550
22
1.79620
32
0.28450
13
-1.51550
23
1.72960
33
0.56200
0
3DFACE
8
layer1
62
1
10
1.51550
20
2.88270
30
0.93660
11
1.51550
21
2.70070
31
1.37610
12
-1.51550
22
2.70070
32
1.37610
13
-1.51550
23
2.88270
33
0.93660
0
3DFACE
8
layer1
62
1
10
1.51550
20
1.62040
30
0.82560
11
1.51550
21
1.72960
31
0.56200
12
-1.51550
22
1.72960
32
0.56200
13
-1.51550
23
1.62040
33
0.82560
0
3DFACE
8
layer1
62
1
10
1.51550
20
2.70070
30
1.37610
11
1.51550
21
2.45220
31
1.78160
12
-1.51550
22
2.45220
32
1.78160
13
-1.51550
23
2.70070
33
1.37610
0
3DFACE
8
layer1
62
1
10
1.51550
20
1.47130
30
1.06900
11
1.51550
21
1.62040
31
0.82560
12
-1.51550
22
1.62040
32
0.82560
13
-1.51550
23
1.47130
33
1.06900
0
3DFACE
8
layer1
62
1
10
1.51550
20
2.45220
30
1.78160
11
1.51550
21
2.14330
31
2.14330
12
-1.51550
22
2.14330
32
2.14330
13
-1.51550
23
2.45220
33
1.78160
0
3DFACE
8
layer1
62
1
10
1.51550
20
1.28600
30
1.28600
11
1.51550
21
1.47130
31
1.06900
12
-1.51550
22
1.47130
32
1.06900
13
-1.51550
23
1.28600
33
1.28600
0
3DFACE
8
layer1
62
1
10
1.51550
20
2.14330
30
2.14330
11
1.51550
21
1.78160
31
2.45220
12
-1.51550
22
1.78160
32
2.45220
13
-1.51550
23
2.14330
33
2.14330
0
3DFACE
8
layer1
62
1
10
1.51550
20
1.06900
30
1.47130
11
1.51550
21
1.28600
31
1.28600
12
-1.51550
22
1.28600
32
1.28600
13
-1.51550
23
1.06900
33
1.47130
0
3DFACE
8
layer1
62
1
10
1.51550
20
1.78160
30
2.45220
11
1.51550
21
1.37610
31
2.70070
12
-1.51550
22
1.37610
32
2.70070
13
-1.51550
23
1.78160
33
2.45220
0
3DFACE
8
layer1
62
1
10
1.51550
20
0.82560
30
1.62040
11
1.51550
21
1.06900
31
1.47130
12
-1.51550
22
1.06900
32
1.47130
13
-1.51550
23
0.82560
33
1.62040
0
3DFACE
8
layer1
62
1
10
1.51550
20
1.37610
30
2.70070
11
1.51550
21
0.93660
31
2.88270
12
-1.51550
22
0.93660
32
2.88270
13
-1.51550
23
1.37610
33
2.70070
0
3DFACE
8
layer1
62
1
10
1.51550
20
0.56200
30
1.72960
11
1.51550
21
0.82560
31
1.62040
12
-1.51550
22
0.82560
32
1.62040
13
-1.51550
23
0.56200
33
1.72960
0
3DFACE
8
layer1
62
1
10
1.51550
20
0.93660
30
2.88270
11
1.51550
21
0.47420
31
2.99370
12
-1.51550
22
0.47420
32
2.99370
13
-1.51550
23
0.93660
33
2.88270
0
3DFACE
8
layer1
62
1
10
1.51550
20
0.28450
30
1.79620
11
1.51550
21
0.56200
31
1.72960
12
-1.51550
22
0.56200
32
1.72960
13
-1.51550
23
0.28450
33
1.79620
0
3DFACE
8
layer1
62
1
10
1.51550
20
0.47420
30
2.99370
11
1.51550
21
-0.00000
31
3.03100
12
-1.51550
22
0.00000
32
3.03100
13
-1.51550
23
0.47420
33
2.99370
0
3DFACE
8
layer1
62
1
10
1.51550
20
-0.00000
30
1.81860
11
1.51550
21
0.28450
31
1.79620
12
-1.51550
22
0.28450
32
1.79620
13
-1.51550
23
0.00000
33
1.81860
0
3DFACE
8
layer1
62
1
10
1.51550
20
-0.00000
30
3.03100
11
1.51550
21
-0.47420
31
2.99370
12
-1.51550
22
-0.47420
32
2.99370
13
-1.51550
23
0.00000
33
3.03100
0
3DFACE
8
layer1
62
1
10
1.51550
20
-0.28450
30
1.79620
11
1.51550
21
-0.00000
31
1.81860
12
-1.51550
22
0.00000
32
1.81860
13
-1.51550
23
-0.28450
33
1.79620
0
3DFACE
8
layer1
62
1
10
1.51550
20
-0.47420
30
2.99370
11
1.51550
21
-0.93660
31
2.88270
12
-1.51550
22
-0.93660
32
2.88270
13
-1.51550
23
-0.47420
33
2.99370
0
3DFACE
8
layer1
62
1
10
1.51550
20
-0.56200
30
1.72960
11
1.51550
21
-0.28450
31
1.79620
12
-1.51550
22
-0.28450
32
1.79620
13
-1.51550
23
-0.56200
33
1.72960
0
3DFACE
8
layer1
62
1
10
1.51550
20
-0.93660
30
2.88270
11
1.51550
21
-1.37610
31
2.70070
12
-1.51550
22
-1.37610
32
2.70070
13
-1.51550
23
-0.93660
33
2.88270
0
3DFACE
8
layer1
62
1
10
1.51550
20
-0.82560
30
1.62040
11
1.51550
21
-0.56200
31
1.72960
12
-1.51550
22
-0.56200
32
1.72960
13
-1.51550
23
-0.82560
33
1.62040
0
3DFACE
8
layer1
62
1
10
1.51550
20
-1.37610
30
2.70070
11
1.51550
21
-1.78160
31
2.45210
12
-1.51550
22
-1.78160
32
2.45210
13
-1.51550
23
-1.37610
33
2.70070
0
3DFACE
8
layer1
62
1
10
1.51550
20
-1.06900
30
1.47130
11
1.51550
21
-0.82560
31
1.62040
12
-1.51550
22
-0.82560
32
1.62040
13
-1.51550
23
-1.06900
33
1.47130
0
3DFACE
8
layer1
62
1
10
1.51550
20
-1.78160
30
2.45210
11
1.51550
21
-2.14330
31
2.14330
12
-1.51550
22
-2.14330
32
2.14330
13
-1.51550
23
-1.78160
33
2.45210
0
3DFACE
8
layer1
62
1
10
1.51550
20
-1.28600
30
1.28600
11
1.51550
21
-1.06900
31
1.47130
12
-1.51550
22
-1.06900
32
1.47130
13
-1.51550
23
-1.28600
33
1.28600
0
3DFACE
8
layer1
62
1
10
1.51550
20
-2.14330
30
2.14330
11
1.51550
21
-2.45220
31
1.78160
12
-1.51550
22
-2.45220
32
1.78160
13
-1.51550
23
-2.14330
33
2.14330
0
3DFACE
8
layer1
62
1
10
1.51550
20
-1.47130
30
1.06900
11
1.51550
21
-1.28600
31
1.28600
12
-1.51550
22
-1.28600
32
1.28600
13
-1.51550
23
-1.47130
33
1.06900
0
3DFACE
8
layer1
62
1
10
1.51550
20
-2.45220
30
1.78160
11
1.51550
21
-2.70070
31
1.37610
12
-1.51550
22
-2.70070
32
1.37610
13
-1.51550
23
-2.45220
33
1.78160
0
3DFACE
8
layer1
62
1
10
1.51550
20
-1.62040
30
0.82560
11
1.51550
21
-1.47130
31
1.06900
12
-1.51550
22
-1.47130
32
1.06900
13
-1.51550
23
-1.62040
33
0.82560
0
3DFACE
8
layer1
62
1
10
1.51550
20
-2.70070
30
1.37610
11
1.51550
21
-2.88270
31
0.93660
12
-1.51550
22
-2.88270
32
0.93660
13
-1.51550
23
-2.70070
33
1.37610
0
3DFACE
8
layer1
62
1
10
1.51550
20
-1.72960
30
0.56200
11
1.51550
21
-1.62040
31
0.82560
12
-1.51550
22
-1.62040
32
0.82560
13
-1.51550
23
-1.72960
33
0.56200
0
3DFACE
8
layer1
62
1
10
1.51550
20
-2.88270
30
0.93660
11
1.51550
21
-2.99370
31
0.47420
12
-1.51550
22
-2.99370
32
0.47420
13
-1.51550
23
-2.88270
33
0.93660
0
3DFACE
8
layer1
62
1
10
1.51550
20
-1.79620
30
0.28450
11
1.51550
21
-1.72960
31
0.56200
12
-1.51550
22
-1.72960
32
0.56200
13
-1.51550
23
-1.79620
33
0.28450
0
3DFACE
8
layer1
62
1
10
1.51550
20
-2.99370
30
0.47420
11
1.51550
21
-3.03100
31
-0.00000
12
-1.51550
22
-3.03100
32
0.00000
13
-1.51550
23
-2.99370
33
0.47420
0
3DFACE
8
layer1
62
1
10
1.51550
20
-1.81860
30
-0.00000
11
1.51550
21
-1.79620
31
0.28450
12
-1.51550
22
-1.79620
32
0.28450
13
-1.51550
23
-1.81860
33
0.00000
0
3DFACE
8
layer1
62
1
10
1.51550
20
-3.03100
30
-0.00000
11
1.51550
21
-2.99370
31
-0.47420
12
-1.51550
22
-2.99370
32
-0.47420
13
-1.51550
23
-3.03100
33
0.00000
0
3DFACE
8
layer1
62
1
10
1.51550
20
-1.79620
30
-0.28450
11
1.51550
21
-1.81860
31
-0.00000
12
-1.51550
22
-1.81860
32
0.00000
13
-1.51550
23
-1.79620
33
-0.28450
0
3DFACE
8
layer1
62
1
10
1.51550
20
-2.99370
30
-0.47420
11
1.51550
21
-2.88270
31
-0.93660
12
-1.51550
22
-2.88270
32
-0.93660
13
-1.51550
23
-2.99370
33
-0.47420
0
3DFACE
8
layer1
62
1
10
1.51550
20
-1.72960
30
-0.56200
11
1.51550
21
-1.79620
31
-0.28450
12
-1.51550
22
-1.79620
32
-0.28450
13
-1.51550
23
-1.72960
33
-0.56200
0
3DFACE
8
layer1
62
1
10
1.51550
20
-2.88270
30
-0.93660
11
1.51550
21
-2.70070
31
-1.37610
12
-1.51550
22
-2.70070
32
-1.37610
13
-1.51550
23
-2.88270
33
-0.93660
0
3DFACE
8
layer1
62
1
10
1.51550
20
-1.62040
30
-0.82560
11
1.51550
21
-1.72960
31
-0.56200
12
-1.51550
22
-1.72960
32
-0.56200
13
-1.51550
23
-1.62040
33
-0.82560
0
3DFACE
8
layer1
62
1
10
1.51550
20
-2.70070
30
-1.37610
11
1.51550
21
-2.45210
31
-1.78160
12
-1.51550
22
-2.45210
32
-1.78160
13
-1.51550
23
-2.70070
33
-1.37610
0
3DFACE
8
layer1
62
1
10
1.51550
20
-1.47130
30
-1.06900
11
1.51550
21
-1.62040
31
-0.82560
12
-1.51550
22
-1.62040
32
-0.82560
13
-1.51550
23
-1.47130
33
-1.06900
0
3DFACE
8
layer1
62
1
10
1.51550
20
-2.45210
30
-1.78160
11
1.51550
21
-2.14330
31
-2.14330
12
-1.51550
22
-2.14330
32
-2.14330
13
-1.51550
23
-2.45210
33
-1.78160
0
3DFACE
8
layer1
62
1
10
1.51550
20
-1.28600
30
-1.28600
11
1.51550
21
-1.47130
31
-1.06900
12
-1.51550
22
-1.47130
32
-1.06900
13
-1.51550
23
-1.28600
33
-1.28600
0
3DFACE
8
layer1
62
1
10
1.51550
20
-2.14330
30
-2.14330
11
1.51550
21
-1.78160
31
-2.45220
12
-1.51550
22
-1.78160
32
-2.45220
13
-1.51550
23
-2.14330
33
-2.14330
0
3DFACE
8
layer1
62
1
10
1.51550
20
-1.06900
30
-1.47130
11
1.51550
21
-1.28600
31
-1.28600
12
-1.51550
22
-1.28600
32
-1.28600
13
-1.51550
23
-1.06900
33
-1.47130
0
3DFACE
8
layer1
62
1
10
1.51550
20
-1.78160
30
-2.45220
11
1.51550
21
-1.37610
31
-2.70070
12
-1.51550
22
-1.37610
32
-2.70070
13
-1.51550
23
-1.78160
33
-2.45220
0
3DFACE
8
layer1
62
1
10
1.51550
20
-0.82560
30
-1.62040
11
1.51550
21
-1.06900
31
-1.47130
12
-1.51550
22
-1.06900
32
-1.47130
13
-1.51550
23
-0.82560
33
-1.62040
0
3DFACE
8
layer1
62
1
10
1.51550
20
-1.37610
30
-2.70070
11
1.51550
21
-0.93660
31
-2.88270
12
-1.51550
22
-0.93660
32
-2.88270
13
-1.51550
23
-1.37610
33
-2.70070
0
3DFACE
8
layer1
62
1
10
1.51550
20
-0.56200
30
-1.72960
11
1.51550
21
-0.82560
31
-1.62040
12
-1.51550
22
-0.82560
32
-1.62040
13
-1.51550
23
-0.56200
33
-1.72960
0
3DFACE
8
layer1
62
1
10
1.51550
20
-0.93660
30
-2.88270
11
1.51550
21
-0.47410
31
-2.99370
12
-1.51550
22
-0.47410
32
-2.99370
13
-1.51550
23
-0.93660
33
-2.88270
0
3DFACE
8
layer1
62
1
10
1.51550
20
-0.28450
30
-1.79620
11
1.51550
21
-0.56200
31
-1.72960
12
-1.51550
22
-0.56200
32
-1.72960
13
-1.51550
23
-0.28450
33
-1.79620
0
3DFACE
8
layer1
62
1
10
1.51550
20
-0.47410
30
-2.99370
11
1.51550
21
0.00000
31
-3.03100
12
-1.51550
22
0.00000
32
-3.03100
13
-1.51550
23
-0.47410
33
-2.99370
0
3DFACE
8
layer1
62
1
10
1.51550
20
0.00000
30
-1.81860
11
1.51550
21
-0.28450
31
-1.79620
12
-1.51550
22
-0.28450
32
-1.79620
13
-1.51550
23
0.00000
33
-1.81860
0
3DFACE
8
layer1
62
1
10
1.51550
20
0.00000
30
-3.03100
11
1.51550
21
0.00000
31
-1.81860
12
1.51550
22
0.28450
32
-1.79620
13
1.51550
23
0.47420
33
-2.99370
0
3DFACE
8
layer1
62
1
10
-1.51550
20
0.00000
30
-3.03100
11
-1.51550
21
0.47420
31
-2.99370
12
-1.51550
22
0.28450
32
-1.79620
13
-1.51550
23
0.00000
33
-1.81860
0
3DFACE
8
layer1
62
1
10
1.51550
20
0.47420
30
-2.99370
11
1.51550
21
0.28450
31
-1.79620
12
1.51550
22
0.56200
32
-1.72960
13
1.51550
23
0.93660
33
-2.88270
0
3DFACE
8
layer1
62
1
10
-1.51550
20
0.47420
30
-2.99370
11
-1.51550
21
0.93660
31
-2.88270
12
-1.51550
22
0.56200
32
-1.72960
13
-1.51550
23
0.28450
33
-1.79620
0
3DFACE
8
layer1
62
1
10
1.51550
20
0.93660
30
-2.88270
11
1.51550
21
0.56200
31
-1.72960
12
1.51550
22
0.82560
32
-1.62040
13
1.51550
23
1.37610
33
-2.70070
0
3DFACE
8
layer1
62
1
10
-1.51550
20
0.93660
30
-2.88270
11
-1.51550
21
1.37610
31
-2.70070
12
-1.51550
22
0.82560
32
-1.62040
13
-1.51550
23
0.56200
33
-1.72960
0
3DFACE
8
layer1
62
1
10
1.51550
20
1.37610
30
-2.70070
11
1.51550
21
0.82560
31
-1.62040
12
1.51550
22
1.06900
32
-1.47130
13
1.51550
23
1.78160
33
-2.45220
0
3DFACE
8
layer1
62
1
10
-1.51550
20
1.37610
30
-2.70070
11
-1.51550
21
1.78160
31
-2.45220
12
-1.51550
22
1.06900
32
-1.47130
13
-1.51550
23
0.82560
33
-1.62040
0
3DFACE
8
layer1
62
1
10
1.51550
20
1.78160
30
-2.45220
11
1.51550
21
1.06900
31
-1.47130
12
1.51550
22
1.28600
32
-1.28600
13
1.51550
23
2.14330
33
-2.14330
0
3DFACE
8
layer1
62
1
10
-1.51550
20
1.78160
30
-2.45220
11
-1.51550
21
2.14330
31
-2.14330
12
-1.51550
22
1.28600
32
-1.28600
13
-1.51550
23
1.06900
33
-1.47130
0
3DFACE
8
layer1
62
1
10
1.51550
20
2.14330
30
-2.14330
11
1.51550
21
1.28600
31
-1.28600
12
1.51550
22
1.47130
32
-1.06900
13
1.51550
23
2.45220
33
-1.78160
0
3DFACE
8
layer1
62
1
10
-1.51550
20
2.14330
30
-2.14330
11
-1.51550
21
2.45220
31
-1.78160
12
-1.51550
22
1.47130
32
-1.06900
13
-1.51550
23
1.28600
33
-1.28600
0
3DFACE
8
layer1
62
1
10
1.51550
20
2.45220
30
-1.78160
11
1.51550
21
1.47130
31
-1.06900
12
1.51550
22
1.62040
32
-0.82560
13
1.51550
23
2.70070
33
-1.37610
0
3DFACE
8
layer1
62
1
10
-1.51550
20
2.45220
30
-1.78160
11
-1.51550
21
2.70070
31
-1.37610
12
-1.51550
22
1.62040
32
-0.82560
13
-1.51550
23
1.47130
33
-1.06900
0
3DFACE
8
layer1
62
1
10
1.51550
20
2.70070
30
-1.37610
11
1.51550
21
1.62040
31
-0.82560
12
1.51550
22
1.72960
32
-0.56200
13
1.51550
23
2.88270
33
-0.93660
0
3DFACE
8
layer1
62
1
10
-1.51550
20
2.70070
30
-1.37610
11
-1.51550
21
2.88270
31
-0.93660
12
-1.51550
22
1.72960
32
-0.56200
13
-1.51550
23
1.62040
33
-0.82560
0
3DFACE
8
layer1
62
1
10
1.51550
20
2.88270
30
-0.93660
11
1.51550
21
1.72960
31
-0.56200
12
1.51550
22
1.79620
32
-0.28450
13
1.51550
23
2.99370
33
-0.47420
0
3DFACE
8
layer1
62
1
10
-1.51550
20
2.88270
30
-0.93660
11
-1.51550
21
2.99370
31
-0.47420
12
-1.51550
22
1.79620
32
-0.28450
13
-1.51550
23
1.72960
33
-0.56200
0
3DFACE
8
layer1
62
1
10
1.51550
20
2.99370
30
-0.47420
11
1.51550
21
1.79620
31
-0.28450
12
1.51550
22
1.81860
32
0.00000
13
1.51550
23
3.03100
33
0.00000
0
3DFACE
8
layer1
62
1
10
-1.51550
20
2.99370
30
-0.47420
11
-1.51550
21
3.03100
31
0.00000
12
-1.51550
22
1.81860
32
0.00000
13
-1.51550
23
1.79620
33
-0.28450
0
3DFACE
8
layer1
62
1
10
1.51550
20
3.03100
30
0.00000
11
1.51550
21
1.81860
31
0.00000
12
1.51550
22
1.79620
32
0.28450
13
1.51550
23
2.99370
33
0.47420
0
3DFACE
8
layer1
62
1
10
-1.51550
20
3.03100
30
0.00000
11
-1.51550
21
2.99370
31
0.47420
12
-1.51550
22
1.79620
32
0.28450
13
-1.51550
23
1.81860
33
0.00000
0
3DFACE
8
layer1
62
1
10
1.51550
20
2.99370
30
0.47420
11
1.51550
21
1.79620
31
0.28450
12
1.51550
22
1.72960
32
0.56200
13
1.51550
23
2.88270
33
0.93660
0
3DFACE
8
layer1
62
1
10
-1.51550
20
2.99370
30
0.47420
11
-1.51550
21
2.88270
31
0.93660
12
-1.51550
22
1.72960
32
0.56200
13
-1.51550
23
1.79620
33
0.28450
0
3DFACE
8
layer1
62
1
10
1.51550
20
2.88270
30
0.93660
11
1.51550
21
1.72960
31
0.56200
12
1.51550
22
1.62040
32
0.82560
13
1.51550
23
2.70070
33
1.37610
0
3DFACE
8
layer1
62
1
10
-1.51550
20
2.88270
30
0.93660
11
-1.51550
21
2.70070
31
1.37610
12
-1.51550
22
1.62040
32
0.82560
13
-1.51550
23
1.72960
33
0.56200
0
3DFACE
8
layer1
62
1
10
1.51550
20
2.70070
30
1.37610
11
1.51550
21
1.62040
31
0.82560
12
1.51550
22
1.47130
32
1.06900
13
1.51550
23
2.45220
33
1.78160
0
3DFACE
8
layer1
62
1
10
-1.51550
20
2.70070
30
1.37610
11
-1.51550
21
2.45220
31
1.78160
12
-1.51550
22
1.47130
32
1.06900
13
-1.51550
23
1.62040
33
0.82560
0
3DFACE
8
layer1
62
1
10
1.51550
20
2.45220
30
1.78160
11
1.51550
21
1.47130
31
1.06900
12
1.51550
22
1.28600
32
1.28600
13
1.51550
23
2.14330
33
2.14330
0
3DFACE
8
layer1
62
1
10
-1.51550
20
2.45220
30
1.78160
11
-1.51550
21
2.14330
31
2.14330
12
-1.51550
22
1.28600
32
1.28600
13
-1.51550
23
1.47130
33
1.06900
0
3DFACE
8
layer1
62
1
10
1.51550
20
2.14330
30
2.14330
11
1.51550
21
1.28600
31
1.28600
12
1.51550
22
1.06900
32
1.47130
13
1.51550
23
1.78160
33
2.45220
0
3DFACE
8
layer1
62
1
10
-1.51550
20
2.14330
30
2.14330
11
-1.51550
21
1.78160
31
2.45220
12
-1.51550
22
1.06900
32
1.47130
13
-1.51550
23
1.28600
33
1.28600
0
3DFACE
8
layer1
62
1
10
1.51550
20
1.78160
30
2.45220
11
1.51550
21
1.06900
31
1.47130
12
1.51550
22
0.82560
32
1.62040
13
1.51550
23
1.37610
33
2.70070
0
3DFACE
8
layer1
62
1
10
-1.51550
20
1.78160
30
2.45220
11
-1.51550
21
1.37610
31
2.70070
12
-1.51550
22
0.82560
32
1.62040
13
-1.51550
23
1.06900
33
1.47130
0
3DFACE
8
layer1
62
1
10
1.51550
20
1.37610
30
2.70070
11
1.51550
21
0.82560
31
1.62040
12
1.51550
22
0.56200
32
1.72960
13
1.51550
23
0.93660
33
2.88270
0
3DFACE
8
layer1
62
1
10
-1.51550
20
1.37610
30
2.70070
11
-1.51550
21
0.93660
31
2.88270
12
-1.51550
22
0.56200
32
1.72960
13
-1.51550
23
0.82560
33
1.62040
0
3DFACE
8
layer1
62
1
10
1.51550
20
0.93660
30
2.88270
11
1.51550
21
0.56200
31
1.72960
12
1.51550
22
0.28450
32
1.79620
13
1.51550
23
0.47420
33
2.99370
0
3DFACE
8
layer1
62
1
10
-1.51550
20
0.93660
30
2.88270
11
-1.51550
21
0.47420
31
2.99370
12
-1.51550
22
0.28450
32
1.79620
13
-1.51550
23
0.56200
33
1.72960
0
3DFACE
8
layer1
62
1
10
1.51550
20
0.47420
30
2.99370
11
1.51550
21
0.28450
31
1.79620
12
1.51550
22
-0.00000
32
1.81860
13
1.51550
23
-0.00000
33
3.03100
0
3DFACE
8
layer1
62
1
10
-1.51550
20
0.47420
30
2.99370
11
-1.51550
21
0.00000
31
3.03100
12
-1.51550
22
0.00000
32
1.81860
13
-1.51550
23
0.28450
33
1.79620
0
3DFACE
8
layer1
62
1
10
1.51550
20
-0.00000
30
3.03100
11
1.51550
21
-0.00000
31
1.81860
12
1.51550
22
-0.28450
32
1.79620
13
1.51550
23
-0.47420
33
2.99370
0
3DFACE
8
layer1
62
1
10
-1.51550
20
0.00000
30
3.03100
11
-1.51550
21
-0.47420
31
2.99370
12
-1.51550
22
-0.28450
32
1.79620
13
-1.51550
23
0.00000
33
1.81860
0
3DFACE
8
layer1
62
1
10
1.51550
20
-0.47420
30
2.99370
11
1.51550
21
-0.28450
31
1.79620
12
1.51550
22
-0.56200
32
1.72960
13
1.51550
23
-0.93660
33
2.88270
0
3DFACE
8
layer1
62
1
10
-1.51550
20
-0.47420
30
2.99370
11
-1.51550
21
-0.93660
31
2.88270
12
-1.51550
22
-0.56200
32
1.72960
13
-1.51550
23
-0.28450
33
1.79620
0
3DFACE
8
layer1
62
1
10
1.51550
20
-0.93660
30
2.88270
11
1.51550
21
-0.56200
31
1.72960
12
1.51550
22
-0.82560
32
1.62040
13
1.51550
23
-1.37610
33
2.70070
0
3DFACE
8
layer1
62
1
10
-1.51550
20
-0.93660
30
2.88270
11
-1.51550
21
-1.37610
31
2.70070
12
-1.51550
22
-0.82560
32
1.62040
13
-1.51550
23
-0.56200
33
1.72960
0
3DFACE
8
layer1
62
1
10
1.51550
20
-1.37610
30
2.70070
11
1.51550
21
-0.82560
31
1.62040
12
1.51550
22
-1.06900
32
1.47130
13
1.51550
23
-1.78160
33
2.45210
0
3DFACE
8
layer1
62
1
10
-1.51550
20
-1.37610
30
2.70070
11
-1.51550
21
-1.78160
31
2.45210
12
-1.51550
22
-1.06900
32
1.47130
13
-1.51550
23
-0.82560
33
1.62040
0
3DFACE
8
layer1
62
1
10
1.51550
20
-1.78160
30
2.45210
11
1.51550
21
-1.06900
31
1.47130
12
1.51550
22
-1.28600
32
1.28600
13
1.51550
23
-2.14330
33
2.14330
0
3DFACE
8
layer1
62
1
10
-1.51550
20
-1.78160
30
2.45210
11
-1.51550
21
-2.14330
31
2.14330
12
-1.51550
22
-1.28600
32
1.28600
13
-1.51550
23
-1.06900
33
1.47130
0
3DFACE
8
layer1
62
1
10
1.51550
20
-2.14330
30
2.14330
11
1.51550
21
-1.28600
31
1.28600
12
1.51550
22
-1.47130
32
1.06900
13
1.51550
23
-2.45220
33
1.78160
0
3DFACE
8
layer1
62
1
10
-1.51550
20
-2.14330
30
2.14330
11
-1.51550
21
-2.45220
31
1.78160
12
-1.51550
22
-1.47130
32
1.06900
13
-1.51550
23
-1.28600
33
1.28600
0
3DFACE
8
layer1
62
1
10
1.51550
20
-2.45220
30
1.78160
11
1.51550
21
-1.47130
31
1.06900
12
1.51550
22
-1.62040
32
0.82560
13
1.51550
23
-2.70070
33
1.37610
0
3DFACE
8
layer1
62
1
10
-1.51550
20
-2.45220
30
1.78160
11
-1.51550
21
-2.70070
31
1.37610
12
-1.51550
22
-1.62040
32
0.82560
13
-1.51550
23
-1.47130
33
1.06900
0
3DFACE
8
layer1
62
1
10
1.51550
20
-2.70070
30
1.37610
11
1.51550
21
-1.62040
31
0.82560
12
1.51550
22
-1.72960
32
0.56200
13
1.51550
23
-2.88270
33
0.93660
0
3DFACE
8
layer1
62
1
10
-1.51550
20
-2.70070
30
1.37610
11
-1.51550
21
-2.88270
31
0.93660
12
-1.51550
22
-1.72960
32
0.56200
13
-1.51550
23
-1.62040
33
0.82560
0
3DFACE
8
layer1
62
1
10
1.51550
20
-2.88270
30
0.93660
11
1.51550
21
-1.72960
31
0.56200
12
1.51550
22
-1.79620
32
0.28450
13
1.51550
23
-2.99370
33
0.47420
0
3DFACE
8
layer1
62
1
10
-1.51550
20
-2.88270
30
0.93660
11
-1.51550
21
-2.99370
31
0.47420
12
-1.51550
22
-1.79620
32
0.28450
13
-1.51550
23
-1.72960
33
0.56200
0
3DFACE
8
layer1
62
1
10
1.51550
20
-2.99370
30
0.47420
11
1.51550
21
-1.79620
31
0.28450
12
1.51550
22
-1.81860
32
-0.00000
13
1.51550
23
-3.03100
33
-0.00000
0
3DFACE
8
layer1
62
1
10
-1.51550
20
-2.99370
30
0.47420
11
-1.51550
21
-3.03100
31
0.00000
12
-1.51550
22
-1.81860
32
0.00000
13
-1.51550
23
-1.79620
33
0.28450
0
3DFACE
8
layer1
62
1
10
1.51550
20
-3.03100
30
-0.00000
11
1.51550
21
-1.81860
31
-0.00000
12
1.51550
22
-1.79620
32
-0.28450
13
1.51550
23
-2.99370
33
-0.47420
0
3DFACE
8
layer1
62
1
10
-1.51550
20
-3.03100
30
0.00000
11
-1.51550
21
-2.99370
31
-0.47420
12
-1.51550
22
-1.79620
32
-0.28450
13
-1.51550
23
-1.81860
33
0.00000
0
3DFACE
8
layer1
62
1
10
1.51550
20
-2.99370
30
-0.47420
11
1.51550
21
-1.79620
31
-0.28450
12
1.51550
22
-1.72960
32
-0.56200
13
1.51550
23
-2.88270
33
-0.93660
0
3DFACE
8
layer1
62
1
10
-1.51550
20
-2.99370
30
-0.47420
11
-1.51550
21
-2.88270
31
-0.93660
12
-1.51550
22
-1.72960
32
-0.56200
13
-1.51550
23
-1.79620
33
-0.28450
0
3DFACE
8
layer1
62
1
10
1.51550
20
-2.88270
30
-0.93660
11
1.51550
21
-1.72960
31
-0.56200
12
1.51550
22
-1.62040
32
-0.82560
13
1.51550
23
-2.70070
33
-1.37610
0
3DFACE
8
layer1
62
1
10
-1.51550
20
-2.88270
30
-0.93660
11
-1.51550
21
-2.70070
31
-1.37610
12
-1.51550
22
-1.62040
32
-0.82560
13
-1.51550
23
-1.72960
33
-0.56200
0
3DFACE
8
layer1
62
1
10
1.51550
20
-2.70070
30
-1.37610
11
1.51550
21
-1.62040
31
-0.82560
12
1.51550
22
-1.47130
32
-1.06900
13
1.51550
23
-2.45210
33
-1.78160
0
3DFACE
8
layer1
62
1
10
-1.51550
20
-2.70070
30
-1.37610
11
-1.51550
21
-2.45210
31
-1.78160
12
-1.51550
22
-1.47130
32
-1.06900
13
-1.51550
23
-1.62040
33
-0.82560
0
3DFACE
8
layer1
62
1
10
1.51550
20
-2.45210
30
-1.78160
11
1.51550
21
-1.47130
31
-1.06900
12
1.51550
22
-1.28600
32
-1.28600
13
1.51550
23
-2.14330
33
-2.14330
0
3DFACE
8
layer1
62
1
10
-1.51550
20
-2.45210
30
-1.78160
11
-1.51550
21
-2.14330
31
-2.14330
12
-1.51550
22
-1.28600
32
-1.28600
13
-1.51550
23
-1.47130
33
-1.06900
0
3DFACE
8
layer1
62
1
10
1.51550
20
-2.14330
30
-2.14330
11
1.51550
21
-1.28600
31
-1.28600
12
1.51550
22
-1.06900
32
-1.47130
13
1.51550
23
-1.78160
33
-2.45220
0
3DFACE
8
layer1
62
1
10
-1.51550
20
-2.14330
30
-2.14330
11
-1.51550
21
-1.78160
31
-2.45220
12
-1.51550
22
-1.06900
32
-1.47130
13
-1.51550
23
-1.28600
33
-1.28600
0
3DFACE
8
layer1
62
1
10
1.51550
20
-1.78160
30
-2.45220
11
1.51550
21
-1.06900
31
-1.47130
12
1.51550
22
-0.82560
32
-1.62040
13
1.51550
23
-1.37610
33
-2.70070
0
3DFACE
8
layer1
62
1
10
-1.51550
20
-1.78160
30
-2.45220
11
-1.51550
21
-1.37610
31
-2.70070
12
-1.51550
22
-0.82560
32
-1.62040
13
-1.51550
23
-1.06900
33
-1.47130
0
3DFACE
8
layer1
62
1
10
1.51550
20
-1.37610
30
-2.70070
11
1.51550
21
-0.82560
31
-1.62040
12
1.51550
22
-0.56200
32
-1.72960
13
1.51550
23
-0.93660
33
-2.88270
0
3DFACE
8
layer1
62
1
10
-1.51550
20
-1.37610
30
-2.70070
11
-1.51550
21
-0.93660
31
-2.88270
12
-1.51550
22
-0.56200
32
-1.72960
13
-1.51550
23
-0.82560
33
-1.62040
0
3DFACE
8
layer1
62
1
10
1.51550
20
-0.93660
30
-2.88270
11
1.51550
21
-0.56200
31
-1.72960
12
1.51550
22
-0.28450
32
-1.79620
13
1.51550
23
-0.47410
33
-2.99370
0
3DFACE
8
layer1
62
1
10
-1.51550
20
-0.93660
30
-2.88270
11
-1.51550
21
-0.47410
31
-2.99370
12
-1.51550
22
-0.28450
32
-1.79620
13
-1.51550
23
-0.56200
33
-1.72960
0
3DFACE
8
layer1
62
1
10
1.51550
20
-0.47410
30
-2.99370
11
1.51550
21
-0.28450
31
-1.79620
12
1.51550
22
0.00000
32
-1.81860
13
1.51550
23
0.00000
33
-3.03100
0
3DFACE
8
layer1
62
1
10
-1.51550
20
-0.47410
30
-2.99370
11
-1.51550
21
0.00000
31
-3.03100
12
-1.51550
22
0.00000
32
-1.81860
13
-1.51550
23
-0.28450
33
-1.79620
0
3DFACE
8
layer1
62
1
10
0.75780
20
0.47420
30
-2.99370
11
0.75780
21
0.00000
31
-3.03100
12
-0.75780
22
0.00000
32
-3.03100
13
-0.75780
23
0.47420
33
-2.99370
0
3DFACE
8
layer1
62
1
10
0.75780
20
0.93660
30
-2.88270
11
0.75780
21
0.47420
31
-2.99370
12
-0.75780
22
0.47420
32
-2.99370
13
-0.75780
23
0.93660
33
-2.88270
0
3DFACE
8
layer1
62
1
10
0.75780
20
1.37610
30
-2.70070
11
0.75780
21
0.93660
31
-2.88270
12
-0.75780
22
0.93660
32
-2.88270
13
-0.75780
23
1.37610
33
-2.70070
0
3DFACE
8
layer1
62
1
10
0.75780
20
1.78160
30
-2.45220
11
0.75780
21
1.37610
31
-2.70070
12
-0.75780
22
1.37610
32
-2.70070
13
-0.75780
23
1.78160
33
-2.45220
0
3DFACE
8
layer1
62
1
10
0.75780
20
2.14330
30
-2.14330
11
0.75780
21
1.78160
31
-2.45220
12
-0.75780
22
1.78160
32
-2.45220
13
-0.75780
23
2.14330
33
-2.14330
0
3DFACE
8
layer1
62
1
10
0.75780
20
2.45220
30
-1.78160
11
0.75780
21
2.14330
31
-2.14330
12
-0.75780
22
2.14330
32
-2.14330
13
-0.75780
23
2.45220
33
-1.78160
0
3DFACE
8
layer1
62
1
10
0.75780
20
2.70070
30
-1.37610
11
0.75780
21
2.45220
31
-1.78160
12
-0.75780
22
2.45220
32
-1.78160
13
-0.75780
23
2.70070
33
-1.37610
0
3DFACE
8
layer1
62
1
10
0.75780
20
2.88270
30
-0.93660
11
0.75780
21
2.70070
31
-1.37610
12
-0.75780
22
2.70070
32
-1.37610
13
-0.75780
23
2.88270
33
-0.93660
0
3DFACE
8
layer1
62
1
10
0.75780
20
2.99370
30
-0.47420
11
0.75780
21
2.88270
31
-0.93660
12
-0.75780
22
2.88270
32
-0.93660
13
-0.75780
23
2.99370
33
-0.47420
0
3DFACE
8
layer1
62
1
10
0.75780
20
3.03100
30
0.00000
11
0.75780
21
2.99370
31
-0.47420
12
-0.75780
22
2.99370
32
-0.47420
13
-0.75780
23
3.03100
33
0.00000
0
3DFACE
8
layer1
62
1
10
0.75780
20
2.99370
30
0.47420
11
0.75780
21
3.03100
31
0.00000
12
-0.75780
22
3.03100
32
0.00000
13
-0.75780
23
2.99370
33
0.47420
0
3DFACE
8
layer1
62
1
10
0.75780
20
2.88270
30
0.93660
11
0.75780
21
2.99370
31
0.47420
12
-0.75780
22
2.99370
32
0.47420
13
-0.75780
23
2.88270
33
0.93660
0
3DFACE
8
layer1
62
1
10
0.75780
20
2.70070
30
1.37610
11
0.75780
21
2.88270
31
0.93660
12
-0.75780
22
2.88270
32
0.93660
13
-0.75780
23
2.70070
33
1.37610
0
3DFACE
8
layer1
62
1
10
0.75780
20
2.45220
30
1.78160
11
0.75780
21
2.70070
31
1.37610
12
-0.75780
22
2.70070
32
1.37610
13
-0.75780
23
2.45220
33
1.78160
0
3DFACE
8
layer1
62
1
10
0.75780
20
2.14330
30
2.14330
11
0.75780
21
2.45220
31
1.78160
12
-0.75780
22
2.45220
32
1.78160
13
-0.75780
23
2.14330
33
2.14330
0
3DFACE
8
layer1
62
1
10
0.75780
20
1.78160
30
2.45220
11
0.75780
21
2.14330
31
2.14330
12
-0.75780
22
2.14330
32
2.14330
13
-0.75780
23
1.78160
33
2.45220
0
3DFACE
8
layer1
62
1
10
0.75780
20
1.37610
30
2.70070
11
0.75780
21
1.78160
31
2.45220
12
-0.75780
22
1.78160
32
2.45220
13
-0.75780
23
1.37610
33
2.70070
0
3DFACE
8
layer1
62
1
10
0.75780
20
0.93660
30
2.88270
11
0.75780
21
1.37610
31
2.70070
12
-0.75780
22
1.37610
32
2.70070
13
-0.75780
23
0.93660
33
2.88270
0
3DFACE
8
layer1
62
1
10
0.75780
20
0.47420
30
2.99370
11
0.75780
21
0.93660
31
2.88270
12
-0.75780
22
0.93660
32
2.88270
13
-0.75780
23
0.47420
33
2.99370
0
3DFACE
8
layer1
62
1
10
0.75780
20
-0.00000
30
3.03100
11
0.75780
21
0.47420
31
2.99370
12
-0.75780
22
0.47420
32
2.99370
13
-0.75780
23
0.00000
33
3.03100
0
3DFACE
8
layer1
62
1
10
0.75780
20
-0.47420
30
2.99370
11
0.75780
21
-0.00000
31
3.03100
12
-0.75780
22
0.00000
32
3.03100
13
-0.75780
23
-0.47420
33
2.99370
0
3DFACE
8
layer1
62
1
10
0.75780
20
-0.93660
30
2.88270
11
0.75780
21
-0.47420
31
2.99370
12
-0.75780
22
-0.47420
32
2.99370
13
-0.75780
23
-0.93660
33
2.88270
0
3DFACE
8
layer1
62
1
10
0.75780
20
-1.37610
30
2.70070
11
0.75780
21
-0.93660
31
2.88270
12
-0.75780
22
-0.93660
32
2.88270
13
-0.75780
23
-1.37610
33
2.70070
0
3DFACE
8
layer1
62
1
10
0.75780
20
-1.78160
30
2.45210
11
0.75780
21
-1.37610
31
2.70070
12
-0.75780
22
-1.37610
32
2.70070
13
-0.75780
23
-1.78160
33
2.45210
0
3DFACE
8
layer1
62
1
10
0.75780
20
-2.14330
30
2.14330
11
0.75780
21
-1.78160
31
2.45210
12
-0.75780
22
-1.78160
32
2.45210
13
-0.75780
23
-2.14330
33
2.14330
0
3DFACE
8
layer1
62
1
10
0.75780
20
-2.45220
30
1.78160
11
0.75780
21
-2.14330
31
2.14330
12
-0.75780
22
-2.14330
32
2.14330
13
-0.75780
23
-2.45220
33
1.78160
0
3DFACE
8
layer1
62
1
10
0.75780
20
-2.70070
30
1.37610
11
0.75780
21
-2.45220
31
1.78160
12
-0.75780
22
-2.45220
32
1.78160
13
-0.75780
23
-2.70070
33
1.37610
0
3DFACE
8
layer1
62
1
10
0.75780
20
-2.88270
30
0.93660
11
0.75780
21
-2.70070
31
1.37610
12
-0.75780
22
-2.70070
32
1.37610
13
-0.75780
23
-2.88270
33
0.93660
0
3DFACE
8
layer1
62
1
10
0.75780
20
-2.99370
30
0.47420
11
0.75780
21
-2.88270
31
0.93660
12
-0.75780
22
-2.88270
32
0.93660
13
-0.75780
23
-2.99370
33
0.47420
0
3DFACE
8
layer1
62
1
10
0.75780
20
-3.03100
30
-0.00000
11
0.75780
21
-2.99370
31
0.47420
12
-0.75780
22
-2.99370
32
0.47420
13
-0.75780
23
-3.03100
33
0.00000
0
3DFACE
8
layer1
62
1
10
0.75780
20
-2.99370
30
-0.47420
11
0.75780
21
-3.03100
31
-0.00000
12
-0.75780
22
-3.03100
32
0.00000
13
-0.75780
23
-2.99370
33
-0.47420
0
3DFACE
8
layer1
62
1
10
0.75780
20
-2.88270
30
-0.93660
11
0.75780
21
-2.99370
31
-0.47420
12
-0.75780
22
-2.99370
32
-0.47420
13
-0.75780
23
-2.88270
33
-0.93660
0
3DFACE
8
layer1
62
1
10
0.75780
20
-2.70070
30
-1.37610
11
0.75780
21
-2.88270
31
-0.93660
12
-0.75780
22
-2.88270
32
-0.93660
13
-0.75780
23
-2.70070
33
-1.37610
0
3DFACE
8
layer1
62
1
10
0.75780
20
-2.45210
30
-1.78160
11
0.75780
21
-2.70070
31
-1.37610
12
-0.75780
22
-2.70070
32
-1.37610
13
-0.75780
23
-2.45210
33
-1.78160
0
3DFACE
8
layer1
62
1
10
0.75780
20
-2.14330
30
-2.14330
11
0.75780
21
-2.45210
31
-1.78160
12
-0.75780
22
-2.45210
32
-1.78160
13
-0.75780
23
-2.14330
33
-2.14330
0
3DFACE
8
layer1
62
1
10
0.75780
20
-1.78160
30
-2.45220
11
0.75780
21
-2.14330
31
-2.14330
12
-0.75780
22
-2.14330
32
-2.14330
13
-0.75780
23
-1.78160
33
-2.45220
0
3DFACE
8
layer1
62
1
10
0.75780
20
-1.37610
30
-2.70070
11
0.75780
21
-1.78160
31
-2.45220
12
-0.75780
22
-1.78160
32
-2.45220
13
-0.75780
23
-1.37610
33
-2.70070
0
3DFACE
8
layer1
62
1
10
0.75780
20
-0.93660
30
-2.88270
11
0.75780
21
-1.37610
31
-2.70070
12
-0.75780
22
-1.37610
32
-2.70070
13
-0.75780
23
-0.93660
33
-2.88270
0
3DFACE
8
layer1
62
1
10
0.75780
20
-0.47410
30
-2.99370
11
0.75780
21
-0.93660
31
-2.88270
12
-0.75780
22
-0.93660
32
-2.88270
13
-0.75780
23
-0.47410
33
-2.99370
0
3DFACE
8
layer1
62
1
10
0.75780
20
0.00000
30
-3.03100
11
0.75780
21
-0.47410
31
-2.99370
12
-0.75780
22
-0.47410
32
-2.99370
13
-0.75780
23
0.00000
33
-3.03100
0
3DFACE
8
layer1
62
1
10
0.75780
20
0.00000
30
-6.06210
11
0.75780
21
0.47560
31
-6.04340
12
-0.75780
22
0.47560
32
-6.04340
13
-0.75780
23
0.00000
33
-6.06210
0
3DFACE
8
layer1
62
1
10
0.75780
20
0.22590
30
-2.87060
11
0.75780
21
0.00000
31
-2.87950
12
-0.75780
22
0.00000
32
-2.87950
13
-0.75780
23
0.22590
33
-2.87060
0
3DFACE
8
layer1
62
1
10
0.75780
20
0.47560
30
-6.04340
11
0.75780
21
0.94830
31
-5.98740
12
-0.75780
22
0.94830
32
-5.98740
13
-0.75780
23
0.47560
33
-6.04340
0
3DFACE
8
layer1
62
1
10
0.75780
20
0.45050
30
-2.84400
11
0.75780
21
0.22590
31
-2.87060
12
-0.75780
22
0.22590
32
-2.87060
13
-0.75780
23
0.45050
33
-2.84400
0
3DFACE
8
layer1
62
1
10
0.75780
20
0.94830
30
-5.98740
11
0.75780
21
1.41520
31
-5.89460
12
-0.75780
22
1.41520
32
-5.89460
13
-0.75780
23
0.94830
33
-5.98740
0
3DFACE
8
layer1
62
1
10
0.75780
20
0.67220
30
-2.79990
11
0.75780
21
0.45050
31
-2.84400
12
-0.75780
22
0.45050
32
-2.84400
13
-0.75780
23
0.67220
33
-2.79990
0
3DFACE
8
layer1
62
1
10
0.75780
20
1.41520
30
-5.89460
11
0.75780
21
1.87330
31
-5.76540
12
-0.75780
22
1.87330
32
-5.76540
13
-0.75780
23
1.41520
33
-5.89460
0
3DFACE
8
layer1
62
1
10
0.75780
20
0.88980
30
-2.73850
11
0.75780
21
0.67220
31
-2.79990
12
-0.75780
22
0.67220
32
-2.79990
13
-0.75780
23
0.88980
33
-2.73850
0
3DFACE
8
layer1
62
1
10
0.75780
20
1.87330
30
-5.76540
11
0.75780
21
2.31980
31
-5.60060
12
-0.75780
22
2.31980
32
-5.60060
13
-0.75780
23
1.87330
33
-5.76540
0
3DFACE
8
layer1
62
1
10
0.75780
20
1.10190
30
-2.66030
11
0.75780
21
0.88980
31
-2.73850
12
-0.75780
22
0.88980
32
-2.73850
13
-0.75780
23
1.10190
33
-2.66030
0
3DFACE
8
layer1
62
1
10
0.75780
20
2.31980
30
-5.60060
11
0.75780
21
2.75210
31
-5.40130
12
-0.75780
22
2.75210
32
-5.40130
13
-0.75780
23
2.31980
33
-5.60060
0
3DFACE
8
layer1
62
1
10
0.75780
20
1.30730
30
-2.56560
11
0.75780
21
1.10190
31
-2.66030
12
-0.75780
22
1.10190
32
-2.66030
13
-0.75780
23
1.30730
33
-2.56560
0
3DFACE
8
layer1
62
1
10
0.75780
20
2.75210
30
-5.40130
11
0.75780
21
3.16740
31
-5.16880
12
-0.75780
22
3.16740
32
-5.16880
13
-0.75780
23
2.75210
33
-5.40130
0
3DFACE
8
layer1
62
1
10
0.75780
20
1.50450
30
-2.45520
11
0.75780
21
1.30730
31
-2.56560
12
-0.75780
22
1.30730
32
-2.56560
13
-0.75780
23
1.50450
33
-2.45520
0
3DFACE
8
layer1
62
1
10
0.75780
20
3.16740
30
-5.16880
11
0.75780
21
3.56320
31
-4.90430
12
-0.75780
22
3.56320
32
-4.90430
13
-0.75780
23
3.16740
33
-5.16880
0
3DFACE
8
layer1
62
1
10
0.75780
20
1.69250
30
-2.32950
11
0.75780
21
1.50450
31
-2.45520
12
-0.75780
22
1.50450
32
-2.45520
13
-0.75780
23
1.69250
33
-2.32950
0
3DFACE
8
layer1
62
1
10
0.75780
20
3.56320
30
-4.90430
11
0.75780
21
3.93700
31
-4.60960
12
-0.75780
22
3.93700
32
-4.60960
13
-0.75780
23
3.56320
33
-4.90430
0
3DFACE
8
layer1
62
1
10
0.75780
20
1.87010
30
-2.18960
11
0.75780
21
1.69250
31
-2.32950
12
-0.75780
22
1.69250
32
-2.32950
13
-0.75780
23
1.87010
33
-2.18960
0
3DFACE
8
layer1
62
1
10
0.75780
20
3.93700
30
-4.60960
11
0.75780
21
4.28650
31
-4.28650
12
-0.75780
22
4.28650
32
-4.28650
13
-0.75780
23
3.93700
33
-4.60960
0
3DFACE
8
layer1
62
1
10
0.75780
20
2.03610
30
-2.03610
11
0.75780
21
1.87010
31
-2.18960
12
-0.75780
22
1.87010
32
-2.18960
13
-0.75780
23
2.03610
33
-2.03610
0
3DFACE
8
layer1
62
1
10
0.75780
20
4.28650
30
-4.28650
11
0.75780
21
4.60960
31
-3.93700
12
-0.75780
22
4.60960
32
-3.93700
13
-0.75780
23
4.28650
33
-4.28650
0
3DFACE
8
layer1
62
1
10
0.75780
20
2.18960
30
-1.87010
11
0.75780
21
2.03610
31
-2.03610
12
-0.75780
22
2.03610
32
-2.03610
13
-0.75780
23
2.18960
33
-1.87010
0
3DFACE
8
layer1
62
1
10
0.75780
20
4.60960
30
-3.93700
11
0.75780
21
4.90430
31
-3.56320
12
-0.75780
22
4.90430
32
-3.56320
13
-0.75780
23
4.60960
33
-3.93700
0
3DFACE
8
layer1
62
1
10
0.75780
20
2.32950
30
-1.69250
11
0.75780
21
2.18960
31
-1.87010
12
-0.75780
22
2.18960
32
-1.87010
13
-0.75780
23
2.32950
33
-1.69250
0
3DFACE
8
layer1
62
1
10
0.75780
20
4.90430
30
-3.56320
11
0.75780
21
5.16870
31
-3.16740
12
-0.75780
22
5.16870
32
-3.16740
13
-0.75780
23
4.90430
33
-3.56320
0
3DFACE
8
layer1
62
1
10
0.75780
20
2.45520
30
-1.50450
11
0.75780
21
2.32950
31
-1.69250
12
-0.75780
22
2.32950
32
-1.69250
13
-0.75780
23
2.45520
33
-1.50450
0
3DFACE
8
layer1
62
1
10
0.75780
20
5.16870
30
-3.16740
11
0.75780
21
5.40130
31
-2.75210
12
-0.75780
22
5.40130
32
-2.75210
13
-0.75780
23
5.16870
33
-3.16740
0
3DFACE
8
layer1
62
1
10
0.75780
20
2.56560
30
-1.30730
11
0.75780
21
2.45520
31
-1.50450
12
-0.75780
22
2.45520
32
-1.50450
13
-0.75780
23
2.56560
33
-1.30730
0
3DFACE
8
layer1
62
1
10
0.75780
20
5.40130
30
-2.75210
11
0.75780
21
5.60060
31
-2.31980
12
-0.75780
22
5.60060
32
-2.31980
13
-0.75780
23
5.40130
33
-2.75210
0
3DFACE
8
layer1
62
1
10
0.75780
20
2.66030
30
-1.10190
11
0.75780
21
2.56560
31
-1.30730
12
-0.75780
22
2.56560
32
-1.30730
13
-0.75780
23
2.66030
33
-1.10190
0
3DFACE
8
layer1
62
1
10
0.75780
20
5.60060
30
-2.31980
11
0.75780
21
5.76540
31
-1.87330
12
-0.75780
22
5.76540
32
-1.87330
13
-0.75780
23
5.60060
33
-2.31980
0
3DFACE
8
layer1
62
1
10
0.75780
20
2.73850
30
-0.88980
11
0.75780
21
2.66030
31
-1.10190
12
-0.75780
22
2.66030
32
-1.10190
13
-0.75780
23
2.73850
33
-0.88980
0
3DFACE
8
layer1
62
1
10
0.75780
20
5.76540
30
-1.87330
11
0.75780
21
5.89460
31
-1.41520
12
-0.75780
22
5.89460
32
-1.41520
13
-0.75780
23
5.76540
33
-1.87330
0
3DFACE
8
layer1
62
1
10
0.75780
20
2.79990
30
-0.67220
11
0.75780
21
2.73850
31
-0.88980
12
-0.75780
22
2.73850
32
-0.88980
13
-0.75780
23
2.79990
33
-0.67220
0
3DFACE
8
layer1
62
1
10
0.75780
20
5.89460
30
-1.41520
11
0.75780
21
5.98740
31
-0.94830
12
-0.75780
22
5.98740
32
-0.94830
13
-0.75780
23
5.89460
33
-1.41520
0
3DFACE
8
layer1
62
1
10
0.75780
20
2.84400
30
-0.45040
11
0.75780
21
2.79990
31
-0.67220
12
-0.75780
22
2.79990
32
-0.67220
13
-0.75780
23
2.84400
33
-0.45040
0
3DFACE
8
layer1
62
1
10
0.75780
20
5.98740
30
-0.94830
11
0.75780
21
6.04340
31
-0.47560
12
-0.75780
22
6.04340
32
-0.47560
13
-0.75780
23
5.98740
33
-0.94830
0
3DFACE
8
layer1
62
1
10
0.75780
20
2.87060
30
-0.22590
11
0.75780
21
2.84400
31
-0.45040
12
-0.75780
22
2.84400
32
-0.45040
13
-0.75780
23
2.87060
33
-0.22590
0
3DFACE
8
layer1
62
1
10
0.75780
20
6.04340
30
-0.47560
11
0.75780
21
6.06210
31
0.00000
12
-0.75780
22
6.06210
32
0.00000
13
-0.75780
23
6.04340
33
-0.47560
0
3DFACE
8
layer1
62
1
10
0.75780
20
2.87950
30
0.00000
11
0.75780
21
2.87060
31
-0.22590
12
-0.75780
22
2.87060
32
-0.22590
13
-0.75780
23
2.87950
33
0.00000
0
3DFACE
8
layer1
62
1
10
0.75780
20
6.06210
30
0.00000
11
0.75780
21
6.04340
31
0.47560
12
-0.75780
22
6.04340
32
0.47560
13
-0.75780
23
6.06210
33
0.00000
0
3DFACE
8
layer1
62
1
10
0.75780
20
2.87060
30
0.22590
11
0.75780
21
2.87950
31
0.00000
12
-0.75780
22
2.87950
32
0.00000
13
-0.75780
23
2.87060
33
0.22590
0
3DFACE
8
layer1
62
1
10
0.75780
20
6.04340
30
0.47560
11
0.75780
21
5.98740
31
0.94830
12
-0.75780
22
5.98740
32
0.94830
13
-0.75780
23
6.04340
33
0.47560
0
3DFACE
8
layer1
62
1
10
0.75780
20
2.84400
30
0.45050
11
0.75780
21
2.87060
31
0.22590
12
-0.75780
22
2.87060
32
0.22590
13
-0.75780
23
2.84400
33
0.45050
0
3DFACE
8
layer1
62
1
10
0.75780
20
5.98740
30
0.94830
11
0.75780
21
5.89460
31
1.41520
12
-0.75780
22
5.89460
32
1.41520
13
-0.75780
23
5.98740
33
0.94830
0
3DFACE
8
layer1
62
1
10
0.75780
20
2.79990
30
0.67220
11
0.75780
21
2.84400
31
0.45050
12
-0.75780
22
2.84400
32
0.45050
13
-0.75780
23
2.79990
33
0.67220
0
3DFACE
8
layer1
62
1
10
0.75780
20
5.89460
30
1.41520
11
0.75780
21
5.76540
31
1.87330
12
-0.75780
22
5.76540
32
1.87330
13
-0.75780
23
5.89460
33
1.41520
0
3DFACE
8
layer1
62
1
10
0.75780
20
2.73850
30
0.88980
11
0.75780
21
2.79990
31
0.67220
12
-0.75780
22
2.79990
32
0.67220
13
-0.75780
23
2.73850
33
0.88980
0
3DFACE
8
layer1
62
1
10
0.75780
20
5.76540
30
1.87330
11
0.75780
21
5.60060
31
2.31990
12
-0.75780
22
5.60060
32
2.31990
13
-0.75780
23
5.76540
33
1.87330
0
3DFACE
8
layer1
62
1
10
0.75780
20
2.66030
30
1.10190
11
0.75780
21
2.73850
31
0.88980
12
-0.75780
22
2.73850
32
0.88980
13
-0.75780
23
2.66030
33
1.10190
0
3DFACE
8
layer1
62
1
10
0.75780
20
5.60060
30
2.31990
11
0.75780
21
5.40130
31
2.75210
12
-0.75780
22
5.40130
32
2.75210
13
-0.75780
23
5.60060
33
2.31990
0
3DFACE
8
layer1
62
1
10
0.75780
20
2.56560
30
1.30730
11
0.75780
21
2.66030
31
1.10190
12
-0.75780
22
2.66030
32
1.10190
13
-0.75780
23
2.56560
33
1.30730
0
3DFACE
8
layer1
62
1
10
0.75780
20
5.40130
30
2.75210
11
0.75780
21
5.16870
31
3.16740
12
-0.75780
22
5.16870
32
3.16740
13
-0.75780
23
5.40130
33
2.75210
0
3DFACE
8
layer1
62
1
10
0.75780
20
2.45520
30
1.50450
11
0.75780
21
2.56560
31
1.30730
12
-0.75780
22
2.56560
32
1.30730
13
-0.75780
23
2.45520
33
1.50450
0
3DFACE
8
layer1
62
1
10
0.75780
20
5.16870
30
3.16740
11
0.75780
21
4.90430
31
3.56320
12
-0.75780
22
4.90430
32
3.56320
13
-0.75780
23
5.16870
33
3.16740
0
3DFACE
8
layer1
62
1
10
0.75780
20
2.32950
30
1.69250
11
0.75780
21
2.45520
31
1.50450
12
-0.75780
22
2.45520
32
1.50450
13
-0.75780
23
2.32950
33
1.69250
0
3DFACE
8
layer1
62
1
10
0.75780
20
4.90430
30
3.56320
11
0.75780
21
4.60960
31
3.93700
12
-0.75780
22
4.60960
32
3.93700
13
-0.75780
23
4.90430
33
3.56320
0
3DFACE
8
layer1
62
1
10
0.75780
20
2.18960
30
1.87010
11
0.75780
21
2.32950
31
1.69250
12
-0.75780
22
2.32950
32
1.69250
13
-0.75780
23
2.18960
33
1.87010
0
3DFACE
8
layer1
62
1
10
0.75780
20
4.60960
30
3.93700
11
0.75780
21
4.28650
31
4.28650
12
-0.75780
22
4.28650
32
4.28650
13
-0.75780
23
4.60960
33
3.93700
0
3DFACE
8
layer1
62
1
10
0.75780
20
2.03610
30
2.03610
11
0.75780
21
2.18960
31
1.87010
12
-0.75780
22
2.18960
32
1.87010
13
-0.75780
23
2.03610
33
2.03610
0
3DFACE
8
layer1
62
1
10
0.75780
20
4.28650
30
4.28650
11
0.75780
21
3.93700
31
4.60960
12
-0.75780
22
3.93700
32
4.60960
13
-0.75780
23
4.28650
33
4.28650
0
3DFACE
8
layer1
62
1
10
0.75780
20
1.87010
30
2.18960
11
0.75780
21
2.03610
31
2.03610
12
-0.75780
22
2.03610
32
2.03610
13
-0.75780
23
1.87010
33
2.18960
0
3DFACE
8
layer1
62
1
10
0.75780
20
3.93700
30
4.60960
11
0.75780
21
3.56320
31
4.90430
12
-0.75780
22
3.56320
32
4.90430
13
-0.75780
23
3.93700
33
4.60960
0
3DFACE
8
layer1
62
1
10
0.75780
20
1.69250
30
2.32950
11
0.75780
21
1.87010
31
2.18960
12
-0.75780
22
1.87010
32
2.18960
13
-0.75780
23
1.69250
33
2.32950
0
3DFACE
8
layer1
62
1
10
0.75780
20
3.56320
30
4.90430
11
0.75780
21
3.16740
31
5.16880
12
-0.75780
22
3.16740
32
5.16880
13
-0.75780
23
3.56320
33
4.90430
0
3DFACE
8
layer1
62
1
10
0.75780
20
1.50450
30
2.45520
11
0.75780
21
1.69250
31
2.32950
12
-0.75780
22
1.69250
32
2.32950
13
-0.75780
23
1.50450
33
2.45520
0
3DFACE
8
layer1
62
1
10
0.75780
20
3.16740
30
5.16880
11
0.75780
21
2.75210
31
5.40130
12
-0.75780
22
2.75210
32
5.40130
13
-0.75780
23
3.16740
33
5.16880
0
3DFACE
8
layer1
62
1
10
0.75780
20
1.30730
30
2.56560
11
0.75780
21
1.50450
31
2.45520
12
-0.75780
22
1.50450
32
2.45520
13
-0.75780
23
1.30730
33
2.56560
0
3DFACE
8
layer1
62
1
10
0.75780
20
2.75210
30
5.40130
11
0.75780
21
2.31980
31
5.60060
12
-0.75780
22
2.31980
32
5.60060
13
-0.75780
23
2.75210
33
5.40130
0
3DFACE
8
layer1
62
1
10
0.75780
20
1.10190
30
2.66030
11
0.75780
21
1.30730
31
2.56560
12
-0.75780
22
1.30730
32
2.56560
13
-0.75780
23
1.10190
33
2.66030
0
3DFACE
8
layer1
62
1
10
0.75780
20
2.31980
30
5.60060
11
0.75780
21
1.87330
31
5.76540
12
-0.75780
22
1.87330
32
5.76540
13
-0.75780
23
2.31980
33
5.60060
0
3DFACE
8
layer1
62
1
10
0.75780
20
0.88980
30
2.73850
11
0.75780
21
1.10190
31
2.66030
12
-0.75780
22
1.10190
32
2.66030
13
-0.75780
23
0.88980
33
2.73850
0
3DFACE
8
layer1
62
1
10
0.75780
20
1.87330
30
5.76540
11
0.75780
21
1.41520
31
5.89460
12
-0.75780
22
1.41520
32
5.89460
13
-0.75780
23
1.87330
33
5.76540
0
3DFACE
8
layer1
62
1
10
0.75780
20
0.67220
30
2.79990
11
0.75780
21
0.88980
31
2.73850
12
-0.75780
22
0.88980
32
2.73850
13
-0.75780
23
0.67220
33
2.79990
0
3DFACE
8
layer1
62
1
10
0.75780
20
1.41520
30
5.89460
11
0.75780
21
0.94830
31
5.98740
12
-0.75780
22
0.94830
32
5.98740
13
-0.75780
23
1.41520
33
5.89460
0
3DFACE
8
layer1
62
1
10
0.75780
20
0.45040
30
2.84400
11
0.75780
21
0.67220
31
2.79990
12
-0.75780
22
0.67220
32
2.79990
13
-0.75780
23
0.45040
33
2.84400
0
3DFACE
8
layer1
62
1
10
0.75780
20
0.94830
30
5.98740
11
0.75780
21
0.47560
31
6.04340
12
-0.75780
22
0.47560
32
6.04340
13
-0.75780
23
0.94830
33
5.98740
0
3DFACE
8
layer1
62
1
10
0.75780
20
0.22590
30
2.87060
11
0.75780
21
0.45040
31
2.84400
12
-0.75780
22
0.45040
32
2.84400
13
-0.75780
23
0.22590
33
2.87060
0
3DFACE
8
layer1
62
1
10
0.75780
20
0.47560
30
6.04340
11
0.75780
21
-0.00000
31
6.06210
12
-0.75780
22
0.00000
32
6.06210
13
-0.75780
23
0.47560
33
6.04340
0
3DFACE
8
layer1
62
1
10
0.75780
20
-0.00000
30
2.87950
11
0.75780
21
0.22590
31
2.87060
12
-0.75780
22
0.22590
32
2.87060
13
-0.75780
23
0.00000
33
2.87950
0
3DFACE
8
layer1
62
1
10
0.75780
20
-0.00000
30
6.06210
11
0.75780
21
-0.47560
31
6.04340
12
-0.75780
22
-0.47560
32
6.04340
13
-0.75780
23
0.00000
33
6.06210
0
3DFACE
8
layer1
62
1
10
0.75780
20
-0.22590
30
2.87060
11
0.75780
21
-0.00000
31
2.87950
12
-0.75780
22
0.00000
32
2.87950
13
-0.75780
23
-0.22590
33
2.87060
0
3DFACE
8
layer1
62
1
10
0.75780
20
-0.47560
30
6.04340
11
0.75780
21
-0.94830
31
5.98740
12
-0.75780
22
-0.94830
32
5.98740
13
-0.75780
23
-0.47560
33
6.04340
0
3DFACE
8
layer1
62
1
10
0.75780
20
-0.45050
30
2.84400
11
0.75780
21
-0.22590
31
2.87060
12
-0.75780
22
-0.22590
32
2.87060
13
-0.75780
23
-0.45050
33
2.84400
0
3DFACE
8
layer1
62
1
10
0.75780
20
-0.94830
30
5.98740
11
0.75780
21
-1.41520
31
5.89460
12
-0.75780
22
-1.41520
32
5.89460
13
-0.75780
23
-0.94830
33
5.98740
0
3DFACE
8
layer1
62
1
10
0.75780
20
-0.67220
30
2.79990
11
0.75780
21
-0.45050
31
2.84400
12
-0.75780
22
-0.45050
32
2.84400
13
-0.75780
23
-0.67220
33
2.79990
0
3DFACE
8
layer1
62
1
10
0.75780
20
-1.41520
30
5.89460
11
0.75780
21
-1.87330
31
5.76540
12
-0.75780
22
-1.87330
32
5.76540
13
-0.75780
23
-1.41520
33
5.89460
0
3DFACE
8
layer1
62
1
10
0.75780
20
-0.88980
30
2.73850
11
0.75780
21
-0.67220
31
2.79990
12
-0.75780
22
-0.67220
32
2.79990
13
-0.75780
23
-0.88980
33
2.73850
0
3DFACE
8
layer1
62
1
10
0.75780
20
-1.87330
30
5.76540
11
0.75780
21
-2.31990
31
5.60060
12
-0.75780
22
-2.31990
32
5.60060
13
-0.75780
23
-1.87330
33
5.76540
0
3DFACE
8
layer1
62
1
10
0.75780
20
-1.10190
30
2.66030
11
0.75780
21
-0.88980
31
2.73850
12
-0.75780
22
-0.88980
32
2.73850
13
-0.75780
23
-1.10190
33
2.66030
0
3DFACE
8
layer1
62
1
10
0.75780
20
-2.31990
30
5.60060
11
0.75780
21
-2.75210
31
5.40130
12
-0.75780
22
-2.75210
32
5.40130
13
-0.75780
23
-2.31990
33
5.60060
0
3DFACE
8
layer1
62
1
10
0.75780
20
-1.30730
30
2.56560
11
0.75780
21
-1.10190
31
2.66030
12
-0.75780
22
-1.10190
32
2.66030
13
-0.75780
23
-1.30730
33
2.56560
0
3DFACE
8
layer1
62
1
10
0.75780
20
-2.75210
30
5.40130
11
0.75780
21
-3.16740
31
5.16870
12
-0.75780
22
-3.16740
32
5.16870
13
-0.75780
23
-2.75210
33
5.40130
0
3DFACE
8
layer1
62
1
10
0.75780
20
-1.50450
30
2.45520
11
0.75780
21
-1.30730
31
2.56560
12
-0.75780
22
-1.30730
32
2.56560
13
-0.75780
23
-1.50450
33
2.45520
0
3DFACE
8
layer1
62
1
10
0.75780
20
-3.16740
30
5.16870
11
0.75780
21
-3.56320
31
4.90430
12
-0.75780
22
-3.56320
32
4.90430
13
-0.75780
23
-3.16740
33
5.16870
0
3DFACE
8
layer1
62
1
10
0.75780
20
-1.69250
30
2.32950
11
0.75780
21
-1.50450
31
2.45520
12
-0.75780
22
-1.50450
32
2.45520
13
-0.75780
23
-1.69250
33
2.32950
0
3DFACE
8
layer1
62
1
10
0.75780
20
-3.56320
30
4.90430
11
0.75780
21
-3.93700
31
4.60960
12
-0.75780
22
-3.93700
32
4.60960
13
-0.75780
23
-3.56320
33
4.90430
0
3DFACE
8
layer1
62
1
10
0.75780
20
-1.87010
30
2.18960
11
0.75780
21
-1.69250
31
2.32950
12
-0.75780
22
-1.69250
32
2.32950
13
-0.75780
23
-1.87010
33
2.18960
0
3DFACE
8
layer1
62
1
10
0.75780
20
-3.93700
30
4.60960
11
0.75780
21
-4.28650
31
4.28650
12
-0.75780
22
-4.28650
32
4.28650
13
-0.75780
23
-3.93700
33
4.60960
0
3DFACE
8
layer1
62
1
10
0.75780
20
-2.03610
30
2.03610
11
0.75780
21
-1.87010
31
2.18960
12
-0.75780
22
-1.87010
32
2.18960
13
-0.75780
23
-2.03610
33
2.03610
0
3DFACE
8
layer1
62
1
10
0.75780
20
-4.28650
30
4.28650
11
0.75780
21
-4.60960
31
3.93700
12
-0.75780
22
-4.60960
32
3.93700
13
-0.75780
23
-4.28650
33
4.28650
0
3DFACE
8
layer1
62
1
10
0.75780
20
-2.18960
30
1.87010
11
0.75780
21
-2.03610
31
2.03610
12
-0.75780
22
-2.03610
32
2.03610
13
-0.75780
23
-2.18960
33
1.87010
0
3DFACE
8
layer1
62
1
10
0.75780
20
-4.60960
30
3.93700
11
0.75780
21
-4.90430
31
3.56320
12
-0.75780
22
-4.90430
32
3.56320
13
-0.75780
23
-4.60960
33
3.93700
0
3DFACE
8
layer1
62
1
10
0.75780
20
-2.32950
30
1.69250
11
0.75780
21
-2.18960
31
1.87010
12
-0.75780
22
-2.18960
32
1.87010
13
-0.75780
23
-2.32950
33
1.69250
0
3DFACE
8
layer1
62
1
10
0.75780
20
-4.90430
30
3.56320
11
0.75780
21
-5.16880
31
3.16740
12
-0.75780
22
-5.16880
32
3.16740
13
-0.75780
23
-4.90430
33
3.56320
0
3DFACE
8
layer1
62
1
10
0.75780
20
-2.45520
30
1.50450
11
0.75780
21
-2.32950
31
1.69250
12
-0.75780
22
-2.32950
32
1.69250
13
-0.75780
23
-2.45520
33
1.50450
0
3DFACE
8
layer1
62
1
10
0.75780
20
-5.16880
30
3.16740
11
0.75780
21
-5.40130
31
2.75210
12
-0.75780
22
-5.40130
32
2.75210
13
-0.75780
23
-5.16880
33
3.16740
0
3DFACE
8
layer1
62
1
10
0.75780
20
-2.56560
30
1.30730
11
0.75780
21
-2.45520
31
1.50450
12
-0.75780
22
-2.45520
32
1.50450
13
-0.75780
23
-2.56560
33
1.30730
0
3DFACE
8
layer1
62
1
10
0.75780
20
-5.40130
30
2.75210
11
0.75780
21
-5.60060
31
2.31980
12
-0.75780
22
-5.60060
32
2.31980
13
-0.75780
23
-5.40130
33
2.75210
0
3DFACE
8
layer1
62
1
10
0.75780
20
-2.66030
30
1.10190
11
0.75780
21
-2.56560
31
1.30730
12
-0.75780
22
-2.56560
32
1.30730
13
-0.75780
23
-2.66030
33
1.10190
0
3DFACE
8
layer1
62
1
10
0.75780
20
-5.60060
30
2.31980
11
0.75780
21
-5.76540
31
1.87330
12
-0.75780
22
-5.76540
32
1.87330
13
-0.75780
23
-5.60060
33
2.31980
0
3DFACE
8
layer1
62
1
10
0.75780
20
-2.73850
30
0.88980
11
0.75780
21
-2.66030
31
1.10190
12
-0.75780
22
-2.66030
32
1.10190
13
-0.75780
23
-2.73850
33
0.88980
0
3DFACE
8
layer1
62
1
10
0.75780
20
-5.76540
30
1.87330
11
0.75780
21
-5.89460
31
1.41520
12
-0.75780
22
-5.89460
32
1.41520
13
-0.75780
23
-5.76540
33
1.87330
0
3DFACE
8
layer1
62
1
10
0.75780
20
-2.79990
30
0.67220
11
0.75780
21
-2.73850
31
0.88980
12
-0.75780
22
-2.73850
32
0.88980
13
-0.75780
23
-2.79990
33
0.67220
0
3DFACE
8
layer1
62
1
10
0.75780
20
-5.89460
30
1.41520
11
0.75780
21
-5.98740
31
0.94830
12
-0.75780
22
-5.98740
32
0.94830
13
-0.75780
23
-5.89460
33
1.41520
0
3DFACE
8
layer1
62
1
10
0.75780
20
-2.84400
30
0.45040
11
0.75780
21
-2.79990
31
0.67220
12
-0.75780
22
-2.79990
32
0.67220
13
-0.75780
23
-2.84400
33
0.45040
0
3DFACE
8
layer1
62
1
10
0.75780
20
-5.98740
30
0.94830
11
0.75780
21
-6.04340
31
0.47560
12
-0.75780
22
-6.04340
32
0.47560
13
-0.75780
23
-5.98740
33
0.94830
0
3DFACE
8
layer1
62
1
10
0.75780
20
-2.87060
30
0.22590
11
0.75780
21
-2.84400
31
0.45040
12
-0.75780
22
-2.84400
32
0.45040
13
-0.75780
23
-2.87060
33
0.22590
0
3DFACE
8
layer1
62
1
10
0.75780
20
-6.04340
30
0.47560
11
0.75780
21
-6.06210
31
-0.00000
12
-0.75780
22
-6.06210
32
0.00000
13
-0.75780
23
-6.04340
33
0.47560
0
3DFACE
8
layer1
62
1
10
0.75780
20
-2.87950
30
-0.00000
11
0.75780
21
-2.87060
31
0.22590
12
-0.75780
22
-2.87060
32
0.22590
13
-0.75780
23
-2.87950
33
0.00000
0
3DFACE
8
layer1
62
1
10
0.75780
20
-6.06210
30
-0.00000
11
0.75780
21
-6.04340
31
-0.47560
12
-0.75780
22
-6.04340
32
-0.47560
13
-0.75780
23
-6.06210
33
0.00000
0
3DFACE
8
layer1
62
1
10
0.75780
20
-2.87060
30
-0.22590
11
0.75780
21
-2.87950
31
-0.00000
12
-0.75780
22
-2.87950
32
0.00000
13
-0.75780
23
-2.87060
33
-0.22590
0
3DFACE
8
layer1
62
1
10
0.75780
20
-6.04340
30
-0.47560
11
0.75780
21
-5.98740
31
-0.94830
12
-0.75780
22
-5.98740
32
-0.94830
13
-0.75780
23
-6.04340
33
-0.47560
0
3DFACE
8
layer1
62
1
10
0.75780
20
-2.84400
30
-0.45050
11
0.75780
21
-2.87060
31
-0.22590
12
-0.75780
22
-2.87060
32
-0.22590
13
-0.75780
23
-2.84400
33
-0.45050
0
3DFACE
8
layer1
62
1
10
0.75780
20
-5.98740
30
-0.94830
11
0.75780
21
-5.89460
31
-1.41520
12
-0.75780
22
-5.89460
32
-1.41520
13
-0.75780
23
-5.98740
33
-0.94830
0
3DFACE
8
layer1
62
1
10
0.75780
20
-2.79990
30
-0.67220
11
0.75780
21
-2.84400
31
-0.45050
12
-0.75780
22
-2.84400
32
-0.45050
13
-0.75780
23
-2.79990
33
-0.67220
0
3DFACE
8
layer1
62
1
10
0.75780
20
-5.89460
30
-1.41520
11
0.75780
21
-5.76540
31
-1.87330
12
-0.75780
22
-5.76540
32
-1.87330
13
-0.75780
23
-5.89460
33
-1.41520
0
3DFACE
8
layer1
62
1
10
0.75780
20
-2.73850
30
-0.88980
11
0.75780
21
-2.79990
31
-0.67220
12
-0.75780
22
-2.79990
32
-0.67220
13
-0.75780
23
-2.73850
33
-0.88980
0
3DFACE
8
layer1
62
1
10
0.75780
20
-5.76540
30
-1.87330
11
0.75780
21
-5.60060
31
-2.31990
12
-0.75780
22
-5.60060
32
-2.31990
13
-0.75780
23
-5.76540
33
-1.87330
0
3DFACE
8
layer1
62
1
10
0.75780
20
-2.66030
30
-1.10190
11
0.75780
21
-2.73850
31
-0.88980
12
-0.75780
22
-2.73850
32
-0.88980
13
-0.75780
23
-2.66030
33
-1.10190
0
3DFACE
8
layer1
62
1
10
0.75780
20
-5.60060
30
-2.31990
11
0.75780
21
-5.40130
31
-2.75210
12
-0.75780
22
-5.40130
32
-2.75210
13
-0.75780
23
-5.60060
33
-2.31990
0
3DFACE
8
layer1
62
1
10
0.75780
20
-2.56560
30
-1.30730
11
0.75780
21
-2.66030
31
-1.10190
12
-0.75780
22
-2.66030
32
-1.10190
13
-0.75780
23
-2.56560
33
-1.30730
0
3DFACE
8
layer1
62
1
10
0.75780
20
-5.40130
30
-2.75210
11
0.75780
21
-5.16870
31
-3.16740
12
-0.75780
22
-5.16870
32
-3.16740
13
-0.75780
23
-5.40130
33
-2.75210
0
3DFACE
8
layer1
62
1
10
0.75780
20
-2.45520
30
-1.50450
11
0.75780
21
-2.56560
31
-1.30730
12
-0.75780
22
-2.56560
32
-1.30730
13
-0.75780
23
-2.45520
33
-1.50450
0
3DFACE
8
layer1
62
1
10
0.75780
20
-5.16870
30
-3.16740
11
0.75780
21
-4.90430
31
-3.56320
12
-0.75780
22
-4.90430
32
-3.56320
13
-0.75780
23
-5.16870
33
-3.16740
0
3DFACE
8
layer1
62
1
10
0.75780
20
-2.32950
30
-1.69250
11
0.75780
21
-2.45520
31
-1.50450
12
-0.75780
22
-2.45520
32
-1.50450
13
-0.75780
23
-2.32950
33
-1.69250
0
3DFACE
8
layer1
62
1
10
0.75780
20
-4.90430
30
-3.56320
11
0.75780
21
-4.60960
31
-3.93700
12
-0.75780
22
-4.60960
32
-3.93700
13
-0.75780
23
-4.90430
33
-3.56320
0
3DFACE
8
layer1
62
1
10
0.75780
20
-2.18960
30
-1.87010
11
0.75780
21
-2.32950
31
-1.69250
12
-0.75780
22
-2.32950
32
-1.69250
13
-0.75780
23
-2.18960
33
-1.87010
0
3DFACE
8
layer1
62
1
10
0.75780
20
-4.60960
30
-3.93700
11
0.75780
21
-4.28650
31
-4.28650
12
-0.75780
22
-4.28650
32
-4.28650
13
-0.75780
23
-4.60960
33
-3.93700
0
3DFACE
8
layer1
62
1
10
0.75780
20
-2.03610
30
-2.03610
11
0.75780
21
-2.18960
31
-1.87010
12
-0.75780
22
-2.18960
32
-1.87010
13
-0.75780
23
-2.03610
33
-2.03610
0
3DFACE
8
layer1
62
1
10
0.75780
20
-4.28650
30
-4.28650
11
0.75780
21
-3.93700
31
-4.60960
12
-0.75780
22
-3.93700
32
-4.60960
13
-0.75780
23
-4.28650
33
-4.28650
0
3DFACE
8
layer1
62
1
10
0.75780
20
-1.87010
30
-2.18960
11
0.75780
21
-2.03610
31
-2.03610
12
-0.75780
22
-2.03610
32
-2.03610
13
-0.75780
23
-1.87010
33
-2.18960
0
3DFACE
8
layer1
62
1
10
0.75780
20
-3.93700
30
-4.60960
11
0.75780
21
-3.56320
31
-4.90430
12
-0.75780
22
-3.56320
32
-4.90430
13
-0.75780
23
-3.93700
33
-4.60960
0
3DFACE
8
layer1
62
1
10
0.75780
20
-1.69250
30
-2.32950
11
0.75780
21
-1.87010
31
-2.18960
12
-0.75780
22
-1.87010
32
-2.18960
13
-0.75780
23
-1.69250
33
-2.32950
0
3DFACE
8
layer1
62
1
10
0.75780
20
-3.56320
30
-4.90430
11
0.75780
21
-3.16740
31
-5.16880
12
-0.75780
22
-3.16740
32
-5.16880
13
-0.75780
23
-3.56320
33
-4.90430
0
3DFACE
8
layer1
62
1
10
0.75780
20
-1.50450
30
-2.45520
11
0.75780
21
-1.69250
31
-2.32950
12
-0.75780
22
-1.69250
32
-2.32950
13
-0.75780
23
-1.50450
33
-2.45520
0
3DFACE
8
layer1
62
1
10
0.75780
20
-3.16740
30
-5.16880
11
0.75780
21
-2.75210
31
-5.40130
12
-0.75780
22
-2.75210
32
-5.40130
13
-0.75780
23
-3.16740
33
-5.16880
0
3DFACE
8
layer1
62
1
10
0.75780
20
-1.30720
30
-2.56560
11
0.75780
21
-1.50450
31
-2.45520
12
-0.75780
22
-1.50450
32
-2.45520
13
-0.75780
23
-1.30720
33
-2.56560
0
3DFACE
8
layer1
62
1
10
0.75780
20
-2.75210
30
-5.40130
11
0.75780
21
-2.31980
31
-5.60060
12
-0.75780
22
-2.31980
32
-5.60060
13
-0.75780
23
-2.75210
33
-5.40130
0
3DFACE
8
layer1
62
1
10
0.75780
20
-1.10190
30
-2.66030
11
0.75780
21
-1.30720
31
-2.56560
12
-0.75780
22
-1.30720
32
-2.56560
13
-0.75780
23
-1.10190
33
-2.66030
0
3DFACE
8
layer1
62
1
10
0.75780
20
-2.31980
30
-5.60060
11
0.75780
21
-1.87330
31
-5.76540
12
-0.75780
22
-1.87330
32
-5.76540
13
-0.75780
23
-2.31980
33
-5.60060
0
3DFACE
8
layer1
62
1
10
0.75780
20
-0.88980
30
-2.73850
11
0.75780
21
-1.10190
31
-2.66030
12
-0.75780
22
-1.10190
32
-2.66030
13
-0.75780
23
-0.88980
33
-2.73850
0
3DFACE
8
layer1
62
1
10
0.75780
20
-1.87330
30
-5.76540
11
0.75780
21
-1.41510
31
-5.89460
12
-0.75780
22
-1.41510
32
-5.89460
13
-0.75780
23
-1.87330
33
-5.76540
0
3DFACE
8
layer1
62
1
10
0.75780
20
-0.67220
30
-2.79990
11
0.75780
21
-0.88980
31
-2.73850
12
-0.75780
22
-0.88980
32
-2.73850
13
-0.75780
23
-0.67220
33
-2.79990
0
3DFACE
8
layer1
62
1
10
0.75780
20
-1.41510
30
-5.89460
11
0.75780
21
-0.94830
31
-5.98740
12
-0.75780
22
-0.94830
32
-5.98740
13
-0.75780
23
-1.41510
33
-5.89460
0
3DFACE
8
layer1
62
1
10
0.75780
20
-0.45040
30
-2.84400
11
0.75780
21
-0.67220
31
-2.79990
12
-0.75780
22
-0.67220
32
-2.79990
13
-0.75780
23
-0.45040
33
-2.84400
0
3DFACE
8
layer1
62
1
10
0.75780
20
-0.94830
30
-5.98740
11
0.75780
21
-0.47560
31
-6.04340
12
-0.75780
22
-0.47560
32
-6.04340
13
-0.75780
23
-0.94830
33
-5.98740
0
3DFACE
8
layer1
62
1
10
0.75780
20
-0.22590
30
-2.87060
11
0.75780
21
-0.45040
31
-2.84400
12
-0.75780
22
-0.45040
32
-2.84400
13
-0.75780
23
-0.22590
33
-2.87060
0
3DFACE
8
layer1
62
1
10
0.75780
20
-0.47560
30
-6.04340
11
0.75780
21
0.00000
31
-6.06210
12
-0.75780
22
0.00000
32
-6.06210
13
-0.75780
23
-0.47560
33
-6.04340
0
3DFACE
8
layer1
62
1
10
0.75780
20
0.00000
30
-2.87950
11
0.75780
21
-0.22590
31
-2.87060
12
-0.75780
22
-0.22590
32
-2.87060
13
-0.75780
23
0.00000
33
-2.87950
0
3DFACE
8
layer1
62
1
10
0.75780
20
0.00000
30
-6.06210
11
0.75780
21
0.00000
31
-2.87950
12
0.75780
22
0.22590
32
-2.87060
13
0.75780
23
0.47560
33
-6.04340
0
3DFACE
8
layer1
62
1
10
-0.75780
20
0.00000
30
-6.06210
11
-0.75780
21
0.47560
31
-6.04340
12
-0.75780
22
0.22590
32
-2.87060
13
-0.75780
23
0.00000
33
-2.87950
0
3DFACE
8
layer1
62
1
10
0.75780
20
0.47560
30
-6.04340
11
0.75780
21
0.22590
31
-2.87060
12
0.75780
22
0.45050
32
-2.84400
13
0.75780
23
0.94830
33
-5.98740
0
3DFACE
8
layer1
62
1
10
-0.75780
20
0.47560
30
-6.04340
11
-0.75780
21
0.94830
31
-5.98740
12
-0.75780
22
0.45050
32
-2.84400
13
-0.75780
23
0.22590
33
-2.87060
0
3DFACE
8
layer1
62
1
10
0.75780
20
0.94830
30
-5.98740
11
0.75780
21
0.45050
31
-2.84400
12
0.75780
22
0.67220
32
-2.79990
13
0.75780
23
1.41520
33
-5.89460
0
3DFACE
8
layer1
62
1
10
-0.75780
20
0.94830
30
-5.98740
11
-0.75780
21
1.41520
31
-5.89460
12
-0.75780
22
0.67220
32
-2.79990
13
-0.75780
23
0.45050
33
-2.84400
0
3DFACE
8
layer1
62
1
10
0.75780
20
1.41520
30
-5.89460
11
0.75780
21
0.67220
31
-2.79990
12
0.75780
22
0.88980
32
-2.73850
13
0.75780
23
1.87330
33
-5.76540
0
3DFACE
8
layer1
62
1
10
-0.75780
20
1.41520
30
-5.89460
11
-0.75780
21
1.87330
31
-5.76540
12
-0.75780
22
0.88980
32
-2.73850
13
-0.75780
23
0.67220
33
-2.79990
0
3DFACE
8
layer1
62
1
10
0.75780
20
1.87330
30
-5.76540
11
0.75780
21
0.88980
31
-2.73850
12
0.75780
22
1.10190
32
-2.66030
13
0.75780
23
2.31980
33
-5.60060
0
3DFACE
8
layer1
62
1
10
-0.75780
20
1.87330
30
-5.76540
11
-0.75780
21
2.31980
31
-5.60060
12
-0.75780
22
1.10190
32
-2.66030
13
-0.75780
23
0.88980
33
-2.73850
0
3DFACE
8
layer1
62
1
10
0.75780
20
2.31980
30
-5.60060
11
0.75780
21
1.10190
31
-2.66030
12
0.75780
22
1.30730
32
-2.56560
13
0.75780
23
2.75210
33
-5.40130
0
3DFACE
8
layer1
62
1
10
-0.75780
20
2.31980
30
-5.60060
11
-0.75780
21
2.75210
31
-5.40130
12
-0.75780
22
1.30730
32
-2.56560
13
-0.75780
23
1.10190
33
-2.66030
0
3DFACE
8
layer1
62
1
10
0.75780
20
2.75210
30
-5.40130
11
0.75780
21
1.30730
31
-2.56560
12
0.75780
22
1.50450
32
-2.45520
13
0.75780
23
3.16740
33
-5.16880
0
3DFACE
8
layer1
62
1
10
-0.75780
20
2.75210
30
-5.40130
11
-0.75780
21
3.16740
31
-5.16880
12
-0.75780
22
1.50450
32
-2.45520
13
-0.75780
23
1.30730
33
-2.56560
0
3DFACE
8
layer1
62
1
10
0.75780
20
3.16740
30
-5.16880
11
0.75780
21
1.50450
31
-2.45520
12
0.75780
22
1.69250
32
-2.32950
13
0.75780
23
3.56320
33
-4.90430
0
3DFACE
8
layer1
62
1
10
-0.75780
20
3.16740
30
-5.16880
11
-0.75780
21
3.56320
31
-4.90430
12
-0.75780
22
1.69250
32
-2.32950
13
-0.75780
23
1.50450
33
-2.45520
0
3DFACE
8
layer1
62
1
10
0.75780
20
3.56320
30
-4.90430
11
0.75780
21
1.69250
31
-2.32950
12
0.75780
22
1.87010
32
-2.18960
13
0.75780
23
3.93700
33
-4.60960
0
3DFACE
8
layer1
62
1
10
-0.75780
20
3.56320
30
-4.90430
11
-0.75780
21
3.93700
31
-4.60960
12
-0.75780
22
1.87010
32
-2.18960
13
-0.75780
23
1.69250
33
-2.32950
0
3DFACE
8
layer1
62
1
10
0.75780
20
3.93700
30
-4.60960
11
0.75780
21
1.87010
31
-2.18960
12
0.75780
22
2.03610
32
-2.03610
13
0.75780
23
4.28650
33
-4.28650
0
3DFACE
8
layer1
62
1
10
-0.75780
20
3.93700
30
-4.60960
11
-0.75780
21
4.28650
31
-4.28650
12
-0.75780
22
2.03610
32
-2.03610
13
-0.75780
23
1.87010
33
-2.18960
0
3DFACE
8
layer1
62
1
10
0.75780
20
4.28650
30
-4.28650
11
0.75780
21
2.03610
31
-2.03610
12
0.75780
22
2.18960
32
-1.87010
13
0.75780
23
4.60960
33
-3.93700
0
3DFACE
8
layer1
62
1
10
-0.75780
20
4.28650
30
-4.28650
11
-0.75780
21
4.60960
31
-3.93700
12
-0.75780
22
2.18960
32
-1.87010
13
-0.75780
23
2.03610
33
-2.03610
0
3DFACE
8
layer1
62
1
10
0.75780
20
4.60960
30
-3.93700
11
0.75780
21
2.18960
31
-1.87010
12
0.75780
22
2.32950
32
-1.69250
13
0.75780
23
4.90430
33
-3.56320
0
3DFACE
8
layer1
62
1
10
-0.75780
20
4.60960
30
-3.93700
11
-0.75780
21
4.90430
31
-3.56320
12
-0.75780
22
2.32950
32
-1.69250
13
-0.75780
23
2.18960
33
-1.87010
0
3DFACE
8
layer1
62
1
10
0.75780
20
4.90430
30
-3.56320
11
0.75780
21
2.32950
31
-1.69250
12
0.75780
22
2.45520
32
-1.50450
13
0.75780
23
5.16870
33
-3.16740
0
3DFACE
8
layer1
62
1
10
-0.75780
20
4.90430
30
-3.56320
11
-0.75780
21
5.16870
31
-3.16740
12
-0.75780
22
2.45520
32
-1.50450
13
-0.75780
23
2.32950
33
-1.69250
0
3DFACE
8
layer1
62
1
10
0.75780
20
5.16870
30
-3.16740
11
0.75780
21
2.45520
31
-1.50450
12
0.75780
22
2.56560
32
-1.30730
13
0.75780
23
5.40130
33
-2.75210
0
3DFACE
8
layer1
62
1
10
-0.75780
20
5.16870
30
-3.16740
11
-0.75780
21
5.40130
31
-2.75210
12
-0.75780
22
2.56560
32
-1.30730
13
-0.75780
23
2.45520
33
-1.50450
0
3DFACE
8
layer1
62
1
10
0.75780
20
5.40130
30
-2.75210
11
0.75780
21
2.56560
31
-1.30730
12
0.75780
22
2.66030
32
-1.10190
13
0.75780
23
5.60060
33
-2.31980
0
3DFACE
8
layer1
62
1
10
-0.75780
20
5.40130
30
-2.75210
11
-0.75780
21
5.60060
31
-2.31980
12
-0.75780
22
2.66030
32
-1.10190
13
-0.75780
23
2.56560
33
-1.30730
0
3DFACE
8
layer1
62
1
10
0.75780
20
5.60060
30
-2.31980
11
0.75780
21
2.66030
31
-1.10190
12
0.75780
22
2.73850
32
-0.88980
13
0.75780
23
5.76540
33
-1.87330
0
3DFACE
8
layer1
62
1
10
-0.75780
20
5.60060
30
-2.31980
11
-0.75780
21
5.76540
31
-1.87330
12
-0.75780
22
2.73850
32
-0.88980
13
-0.75780
23
2.66030
33
-1.10190
0
3DFACE
8
layer1
62
1
10
0.75780
20
5.76540
30
-1.87330
11
0.75780
21
2.73850
31
-0.88980
12
0.75780
22
2.79990
32
-0.67220
13
0.75780
23
5.89460
33
-1.41520
0
3DFACE
8
layer1
62
1
10
-0.75780
20
5.76540
30
-1.87330
11
-0.75780
21
5.89460
31
-1.41520
12
-0.75780
22
2.79990
32
-0.67220
13
-0.75780
23
2.73850
33
-0.88980
0
3DFACE
8
layer1
62
1
10
0.75780
20
5.89460
30
-1.41520
11
0.75780
21
2.79990
31
-0.67220
12
0.75780
22
2.84400
32
-0.45040
13
0.75780
23
5.98740
33
-0.94830
0
3DFACE
8
layer1
62
1
10
-0.75780
20
5.89460
30
-1.41520
11
-0.75780
21
5.98740
31
-0.94830
12
-0.75780
22
2.84400
32
-0.45040
13
-0.75780
23
2.79990
33
-0.67220
0
3DFACE
8
layer1
62
1
10
0.75780
20
5.98740
30
-0.94830
11
0.75780
21
2.84400
31
-0.45040
12
0.75780
22
2.87060
32
-0.22590
13
0.75780
23
6.04340
33
-0.47560
0
3DFACE
8
layer1
62
1
10
-0.75780
20
5.98740
30
-0.94830
11
-0.75780
21
6.04340
31
-0.47560
12
-0.75780
22
2.87060
32
-0.22590
13
-0.75780
23
2.84400
33
-0.45040
0
3DFACE
8
layer1
62
1
10
0.75780
20
6.04340
30
-0.47560
11
0.75780
21
2.87060
31
-0.22590
12
0.75780
22
2.87950
32
0.00000
13
0.75780
23
6.06210
33
0.00000
0
3DFACE
8
layer1
62
1
10
-0.75780
20
6.04340
30
-0.47560
11
-0.75780
21
6.06210
31
0.00000
12
-0.75780
22
2.87950
32
0.00000
13
-0.75780
23
2.87060
33
-0.22590
0
3DFACE
8
layer1
62
1
10
0.75780
20
6.06210
30
0.00000
11
0.75780
21
2.87950
31
0.00000
12
0.75780
22
2.87060
32
0.22590
13
0.75780
23
6.04340
33
0.47560
0
3DFACE
8
layer1
62
1
10
-0.75780
20
6.06210
30
0.00000
11
-0.75780
21
6.04340
31
0.47560
12
-0.75780
22
2.87060
32
0.22590
13
-0.75780
23
2.87950
33
0.00000
0
3DFACE
8
layer1
62
1
10
0.75780
20
6.04340
30
0.47560
11
0.75780
21
2.87060
31
0.22590
12
0.75780
22
2.84400
32
0.45050
13
0.75780
23
5.98740
33
0.94830
0
3DFACE
8
layer1
62
1
10
-0.75780
20
6.04340
30
0.47560
11
-0.75780
21
5.98740
31
0.94830
12
-0.75780
22
2.84400
32
0.45050
13
-0.75780
23
2.87060
33
0.22590
0
3DFACE
8
layer1
62
1
10
0.75780
20
5.98740
30
0.94830
11
0.75780
21
2.84400
31
0.45050
12
0.75780
22
2.79990
32
0.67220
13
0.75780
23
5.89460
33
1.41520
0
3DFACE
8
layer1
62
1
10
-0.75780
20
5.98740
30
0.94830
11
-0.75780
21
5.89460
31
1.41520
12
-0.75780
22
2.79990
32
0.67220
13
-0.75780
23
2.84400
33
0.45050
0
3DFACE
8
layer1
62
1
10
0.75780
20
5.89460
30
1.41520
11
0.75780
21
2.79990
31
0.67220
12
0.75780
22
2.73850
32
0.88980
13
0.75780
23
5.76540
33
1.87330
0
3DFACE
8
layer1
62
1
10
-0.75780
20
5.89460
30
1.41520
11
-0.75780
21
5.76540
31
1.87330
12
-0.75780
22
2.73850
32
0.88980
13
-0.75780
23
2.79990
33
0.67220
0
3DFACE
8
layer1
62
1
10
0.75780
20
5.76540
30
1.87330
11
0.75780
21
2.73850
31
0.88980
12
0.75780
22
2.66030
32
1.10190
13
0.75780
23
5.60060
33
2.31990
0
3DFACE
8
layer1
62
1
10
-0.75780
20
5.76540
30
1.87330
11
-0.75780
21
5.60060
31
2.31990
12
-0.75780
22
2.66030
32
1.10190
13
-0.75780
23
2.73850
33
0.88980
0
3DFACE
8
layer1
62
1
10
0.75780
20
5.60060
30
2.31990
11
0.75780
21
2.66030
31
1.10190
12
0.75780
22
2.56560
32
1.30730
13
0.75780
23
5.40130
33
2.75210
0
3DFACE
8
layer1
62
1
10
-0.75780
20
5.60060
30
2.31990
11
-0.75780
21
5.40130
31
2.75210
12
-0.75780
22
2.56560
32
1.30730
13
-0.75780
23
2.66030
33
1.10190
0
3DFACE
8
layer1
62
1
10
0.75780
20
5.40130
30
2.75210
11
0.75780
21
2.56560
31
1.30730
12
0.75780
22
2.45520
32
1.50450
13
0.75780
23
5.16870
33
3.16740
0
3DFACE
8
layer1
62
1
10
-0.75780
20
5.40130
30
2.75210
11
-0.75780
21
5.16870
31
3.16740
12
-0.75780
22
2.45520
32
1.50450
13
-0.75780
23
2.56560
33
1.30730
0
3DFACE
8
layer1
62
1
10
0.75780
20
5.16870
30
3.16740
11
0.75780
21
2.45520
31
1.50450
12
0.75780
22
2.32950
32
1.69250
13
0.75780
23
4.90430
33
3.56320
0
3DFACE
8
layer1
62
1
10
-0.75780
20
5.16870
30
3.16740
11
-0.75780
21
4.90430
31
3.56320
12
-0.75780
22
2.32950
32
1.69250
13
-0.75780
23
2.45520
33
1.50450
0
3DFACE
8
layer1
62
1
10
0.75780
20
4.90430
30
3.56320
11
0.75780
21
2.32950
31
1.69250
12
0.75780
22
2.18960
32
1.87010
13
0.75780
23
4.60960
33
3.93700
0
3DFACE
8
layer1
62
1
10
-0.75780
20
4.90430
30
3.56320
11
-0.75780
21
4.60960
31
3.93700
12
-0.75780
22
2.18960
32
1.87010
13
-0.75780
23
2.32950
33
1.69250
0
3DFACE
8
layer1
62
1
10
0.75780
20
4.60960
30
3.93700
11
0.75780
21
2.18960
31
1.87010
12
0.75780
22
2.03610
32
2.03610
13
0.75780
23
4.28650
33
4.28650
0
3DFACE
8
layer1
62
1
10
-0.75780
20
4.60960
30
3.93700
11
-0.75780
21
4.28650
31
4.28650
12
-0.75780
22
2.03610
32
2.03610
13
-0.75780
23
2.18960
33
1.87010
0
3DFACE
8
layer1
62
1
10
0.75780
20
4.28650
30
4.28650
11
0.75780
21
2.03610
31
2.03610
12
0.75780
22
1.87010
32
2.18960
13
0.75780
23
3.93700
33
4.60960
0
3DFACE
8
layer1
62
1
10
-0.75780
20
4.28650
30
4.28650
11
-0.75780
21
3.93700
31
4.60960
12
-0.75780
22
1.87010
32
2.18960
13
-0.75780
23
2.03610
33
2.03610
0
3DFACE
8
layer1
62
1
10
0.75780
20
3.93700
30
4.60960
11
0.75780
21
1.87010
31
2.18960
12
0.75780
22
1.69250
32
2.32950
13
0.75780
23
3.56320
33
4.90430
0
3DFACE
8
layer1
62
1
10
-0.75780
20
3.93700
30
4.60960
11
-0.75780
21
3.56320
31
4.90430
12
-0.75780
22
1.69250
32
2.32950
13
-0.75780
23
1.87010
33
2.18960
0
3DFACE
8
layer1
62
1
10
0.75780
20
3.56320
30
4.90430
11
0.75780
21
1.69250
31
2.32950
12
0.75780
22
1.50450
32
2.45520
13
0.75780
23
3.16740
33
5.16880
0
3DFACE
8
layer1
62
1
10
-0.75780
20
3.56320
30
4.90430
11
-0.75780
21
3.16740
31
5.16880
12
-0.75780
22
1.50450
32
2.45520
13
-0.75780
23
1.69250
33
2.32950
0
3DFACE
8
layer1
62
1
10
0.75780
20
3.16740
30
5.16880
11
0.75780
21
1.50450
31
2.45520
12
0.75780
22
1.30730
32
2.56560
13
0.75780
23
2.75210
33
5.40130
0
3DFACE
8
layer1
62
1
10
-0.75780
20
3.16740
30
5.16880
11
-0.75780
21
2.75210
31
5.40130
12
-0.75780
22
1.30730
32
2.56560
13
-0.75780
23
1.50450
33
2.45520
0
3DFACE
8
layer1
62
1
10
0.75780
20
2.75210
30
5.40130
11
0.75780
21
1.30730
31
2.56560
12
0.75780
22
1.10190
32
2.66030
13
0.75780
23
2.31980
33
5.60060
0
3DFACE
8
layer1
62
1
10
-0.75780
20
2.75210
30
5.40130
11
-0.75780
21
2.31980
31
5.60060
12
-0.75780
22
1.10190
32
2.66030
13
-0.75780
23
1.30730
33
2.56560
0
3DFACE
8
layer1
62
1
10
0.75780
20
2.31980
30
5.60060
11
0.75780
21
1.10190
31
2.66030
12
0.75780
22
0.88980
32
2.73850
13
0.75780
23
1.87330
33
5.76540
0
3DFACE
8
layer1
62
1
10
-0.75780
20
2.31980
30
5.60060
11
-0.75780
21
1.87330
31
5.76540
12
-0.75780
22
0.88980
32
2.73850
13
-0.75780
23
1.10190
33
2.66030
0
3DFACE
8
layer1
62
1
10
0.75780
20
1.87330
30
5.76540
11
0.75780
21
0.88980
31
2.73850
12
0.75780
22
0.67220
32
2.79990
13
0.75780
23
1.41520
33
5.89460
0
3DFACE
8
layer1
62
1
10
-0.75780
20
1.87330
30
5.76540
11
-0.75780
21
1.41520
31
5.89460
12
-0.75780
22
0.67220
32
2.79990
13
-0.75780
23
0.88980
33
2.73850
0
3DFACE
8
layer1
62
1
10
0.75780
20
1.41520
30
5.89460
11
0.75780
21
0.67220
31
2.79990
12
0.75780
22
0.45040
32
2.84400
13
0.75780
23
0.94830
33
5.98740
0
3DFACE
8
layer1
62
1
10
-0.75780
20
1.41520
30
5.89460
11
-0.75780
21
0.94830
31
5.98740
12
-0.75780
22
0.45040
32
2.84400
13
-0.75780
23
0.67220
33
2.79990
0
3DFACE
8
layer1
62
1
10
0.75780
20
0.94830
30
5.98740
11
0.75780
21
0.45040
31
2.84400
12
0.75780
22
0.22590
32
2.87060
13
0.75780
23
0.47560
33
6.04340
0
3DFACE
8
layer1
62
1
10
-0.75780
20
0.94830
30
5.98740
11
-0.75780
21
0.47560
31
6.04340
12
-0.75780
22
0.22590
32
2.87060
13
-0.75780
23
0.45040
33
2.84400
0
3DFACE
8
layer1
62
1
10
0.75780
20
0.47560
30
6.04340
11
0.75780
21
0.22590
31
2.87060
12
0.75780
22
-0.00000
32
2.87950
13
0.75780
23
-0.00000
33
6.06210
0
3DFACE
8
layer1
62
1
10
-0.75780
20
0.47560
30
6.04340
11
-0.75780
21
0.00000
31
6.06210
12
-0.75780
22
0.00000
32
2.87950
13
-0.75780
23
0.22590
33
2.87060
0
3DFACE
8
layer1
62
1
10
0.75780
20
-0.00000
30
6.06210
11
0.75780
21
-0.00000
31
2.87950
12
0.75780
22
-0.22590
32
2.87060
13
0.75780
23
-0.47560
33
6.04340
0
3DFACE
8
layer1
62
1
10
-0.75780
20
0.00000
30
6.06210
11
-0.75780
21
-0.47560
31
6.04340
12
-0.75780
22
-0.22590
32
2.87060
13
-0.75780
23
0.00000
33
2.87950
0
3DFACE
8
layer1
62
1
10
0.75780
20
-0.47560
30
6.04340
11
0.75780
21
-0.22590
31
2.87060
12
0.75780
22
-0.45050
32
2.84400
13
0.75780
23
-0.94830
33
5.98740
0
3DFACE
8
layer1
62
1
10
-0.75780
20
-0.47560
30
6.04340
11
-0.75780
21
-0.94830
31
5.98740
12
-0.75780
22
-0.45050
32
2.84400
13
-0.75780
23
-0.22590
33
2.87060
0
3DFACE
8
layer1
62
1
10
0.75780
20
-0.94830
30
5.98740
11
0.75780
21
-0.45050
31
2.84400
12
0.75780
22
-0.67220
32
2.79990
13
0.75780
23
-1.41520
33
5.89460
0
3DFACE
8
layer1
62
1
10
-0.75780
20
-0.94830
30
5.98740
11
-0.75780
21
-1.41520
31
5.89460
12
-0.75780
22
-0.67220
32
2.79990
13
-0.75780
23
-0.45050
33
2.84400
0
3DFACE
8
layer1
62
1
10
0.75780
20
-1.41520
30
5.89460
11
0.75780
21
-0.67220
31
2.79990
12
0.75780
22
-0.88980
32
2.73850
13
0.75780
23
-1.87330
33
5.76540
0
3DFACE
8
layer1
62
1
10
-0.75780
20
-1.41520
30
5.89460
11
-0.75780
21
-1.87330
31
5.76540
12
-0.75780
22
-0.88980
32
2.73850
13
-0.75780
23
-0.67220
33
2.79990
0
3DFACE
8
layer1
62
1
10
0.75780
20
-1.87330
30
5.76540
11
0.75780
21
-0.88980
31
2.73850
12
0.75780
22
-1.10190
32
2.66030
13
0.75780
23
-2.31990
33
5.60060
0
3DFACE
8
layer1
62
1
10
-0.75780
20
-1.87330
30
5.76540
11
-0.75780
21
-2.31990
31
5.60060
12
-0.75780
22
-1.10190
32
2.66030
13
-0.75780
23
-0.88980
33
2.73850
0
3DFACE
8
layer1
62
1
10
0.75780
20
-2.31990
30
5.60060
11
0.75780
21
-1.10190
31
2.66030
12
0.75780
22
-1.30730
32
2.56560
13
0.75780
23
-2.75210
33
5.40130
0
3DFACE
8
layer1
62
1
10
-0.75780
20
-2.31990
30
5.60060
11
-0.75780
21
-2.75210
31
5.40130
12
-0.75780
22
-1.30730
32
2.56560
13
-0.75780
23
-1.10190
33
2.66030
0
3DFACE
8
layer1
62
1
10
0.75780
20
-2.75210
30
5.40130
11
0.75780
21
-1.30730
31
2.56560
12
0.75780
22
-1.50450
32
2.45520
13
0.75780
23
-3.16740
33
5.16870
0
3DFACE
8
layer1
62
1
10
-0.75780
20
-2.75210
30
5.40130
11
-0.75780
21
-3.16740
31
5.16870
12
-0.75780
22
-1.50450
32
2.45520
13
-0.75780
23
-1.30730
33
2.56560
0
3DFACE
8
layer1
62
1
10
0.75780
20
-3.16740
30
5.16870
11
0.75780
21
-1.50450
31
2.45520
12
0.75780
22
-1.69250
32
2.32950
13
0.75780
23
-3.56320
33
4.90430
0
3DFACE
8
layer1
62
1
10
-0.75780
20
-3.16740
30
5.16870
11
-0.75780
21
-3.56320
31
4.90430
12
-0.75780
22
-1.69250
32
2.32950
13
-0.75780
23
-1.50450
33
2.45520
0
3DFACE
8
layer1
62
1
10
0.75780
20
-3.56320
30
4.90430
11
0.75780
21
-1.69250
31
2.32950
12
0.75780
22
-1.87010
32
2.18960
13
0.75780
23
-3.93700
33
4.60960
0
3DFACE
8
layer1
62
1
10
-0.75780
20
-3.56320
30
4.90430
11
-0.75780
21
-3.93700
31
4.60960
12
-0.75780
22
-1.87010
32
2.18960
13
-0.75780
23
-1.69250
33
2.32950
0
3DFACE
8
layer1
62
1
10
0.75780
20
-3.93700
30
4.60960
11
0.75780
21
-1.87010
31
2.18960
12
0.75780
22
-2.03610
32
2.03610
13
0.75780
23
-4.28650
33
4.28650
0
3DFACE
8
layer1
62
1
10
-0.75780
20
-3.93700
30
4.60960
11
-0.75780
21
-4.28650
31
4.28650
12
-0.75780
22
-2.03610
32
2.03610
13
-0.75780
23
-1.87010
33
2.18960
0
3DFACE
8
layer1
62
1
10
0.75780
20
-4.28650
30
4.28650
11
0.75780
21
-2.03610
31
2.03610
12
0.75780
22
-2.18960
32
1.87010
13
0.75780
23
-4.60960
33
3.93700
0
3DFACE
8
layer1
62
1
10
-0.75780
20
-4.28650
30
4.28650
11
-0.75780
21
-4.60960
31
3.93700
12
-0.75780
22
-2.18960
32
1.87010
13
-0.75780
23
-2.03610
33
2.03610
0
3DFACE
8
layer1
62
1
10
0.75780
20
-4.60960
30
3.93700
11
0.75780
21
-2.18960
31
1.87010
12
0.75780
22
-2.32950
32
1.69250
13
0.75780
23
-4.90430
33
3.56320
0
3DFACE
8
layer1
62
1
10
-0.75780
20
-4.60960
30
3.93700
11
-0.75780
21
-4.90430
31
3.56320
12
-0.75780
22
-2.32950
32
1.69250
13
-0.75780
23
-2.18960
33
1.87010
0
3DFACE
8
layer1
62
1
10
0.75780
20
-4.90430
30
3.56320
11
0.75780
21
-2.32950
31
1.69250
12
0.75780
22
-2.45520
32
1.50450
13
0.75780
23
-5.16880
33
3.16740
0
3DFACE
8
layer1
62
1
10
-0.75780
20
-4.90430
30
3.56320
11
-0.75780
21
-5.16880
31
3.16740
12
-0.75780
22
-2.45520
32
1.50450
13
-0.75780
23
-2.32950
33
1.69250
0
3DFACE
8
layer1
62
1
10
0.75780
20
-5.16880
30
3.16740
11
0.75780
21
-2.45520
31
1.50450
12
0.75780
22
-2.56560
32
1.30730
13
0.75780
23
-5.40130
33
2.75210
0
3DFACE
8
layer1
62
1
10
-0.75780
20
-5.16880
30
3.16740
11
-0.75780
21
-5.40130
31
2.75210
12
-0.75780
22
-2.56560
32
1.30730
13
-0.75780
23
-2.45520
33
1.50450
0
3DFACE
8
layer1
62
1
10
0.75780
20
-5.40130
30
2.75210
11
0.75780
21
-2.56560
31
1.30730
12
0.75780
22
-2.66030
32
1.10190
13
0.75780
23
-5.60060
33
2.31980
0
3DFACE
8
layer1
62
1
10
-0.75780
20
-5.40130
30
2.75210
11
-0.75780
21
-5.60060
31
2.31980
12
-0.75780
22
-2.66030
32
1.10190
13
-0.75780
23
-2.56560
33
1.30730
0
3DFACE
8
layer1
62
1
10
0.75780
20
-5.60060
30
2.31980
11
0.75780
21
-2.66030
31
1.10190
12
0.75780
22
-2.73850
32
0.88980
13
0.75780
23
-5.76540
33
1.87330
0
3DFACE
8
layer1
62
1
10
-0.75780
20
-5.60060
30
2.31980
11
-0.75780
21
-5.76540
31
1.87330
12
-0.75780
22
-2.73850
32
0.88980
13
-0.75780
23
-2.66030
33
1.10190
0
3DFACE
8
layer1
62
1
10
0.75780
20
-5.76540
30
1.87330
11
0.75780
21
-2.73850
31
0.88980
12
0.75780
22
-2.79990
32
0.67220
13
0.75780
23
-5.89460
33
1.41520
0
3DFACE
8
layer1
62
1
10
-0.75780
20
-5.76540
30
1.87330
11
-0.75780
21
-5.89460
31
1.41520
12
-0.75780
22
-2.79990
32
0.67220
13
-0.75780
23
-2.73850
33
0.88980
0
3DFACE
8
layer1
62
1
10
0.75780
20
-5.89460
30
1.41520
11
0.75780
21
-2.79990
31
0.67220
12
0.75780
22
-2.84400
32
0.45040
13
0.75780
23
-5.98740
33
0.94830
0
3DFACE
8
layer1
62
1
10
-0.75780
20
-5.89460
30
1.41520
11
-0.75780
21
-5.98740
31
0.94830
12
-0.75780
22
-2.84400
32
0.45040
13
-0.75780
23
-2.79990
33
0.67220
0
3DFACE
8
layer1
62
1
10
0.75780
20
-5.98740
30
0.94830
11
0.75780
21
-2.84400
31
0.45040
12
0.75780
22
-2.87060
32
0.22590
13
0.75780
23
-6.04340
33
0.47560
0
3DFACE
8
layer1
62
1
10
-0.75780
20
-5.98740
30
0.94830
11
-0.75780
21
-6.04340
31
0.47560
12
-0.75780
22
-2.87060
32
0.22590
13
-0.75780
23
-2.84400
33
0.45040
0
3DFACE
8
layer1
62
1
10
0.75780
20
-6.04340
30
0.47560
11
0.75780
21
-2.87060
31
0.22590
12
0.75780
22
-2.87950
32
-0.00000
13
0.75780
23
-6.06210
33
-0.00000
0
3DFACE
8
layer1
62
1
10
-0.75780
20
-6.04340
30
0.47560
11
-0.75780
21
-6.06210
31
0.00000
12
-0.75780
22
-2.87950
32
0.00000
13
-0.75780
23
-2.87060
33
0.22590
0
3DFACE
8
layer1
62
1
10
0.75780
20
-6.06210
30
-0.00000
11
0.75780
21
-2.87950
31
-0.00000
12
0.75780
22
-2.87060
32
-0.22590
13
0.75780
23
-6.04340
33
-0.47560
0
3DFACE
8
layer1
62
1
10
-0.75780
20
-6.06210
30
0.00000
11
-0.75780
21
-6.04340
31
-0.47560
12
-0.75780
22
-2.87060
32
-0.22590
13
-0.75780
23
-2.87950
33
0.00000
0
3DFACE
8
layer1
62
1
10
0.75780
20
-6.04340
30
-0.47560
11
0.75780
21
-2.87060
31
-0.22590
12
0.75780
22
-2.84400
32
-0.45050
13
0.75780
23
-5.98740
33
-0.94830
0
3DFACE
8
layer1
62
1
10
-0.75780
20
-6.04340
30
-0.47560
11
-0.75780
21
-5.98740
31
-0.94830
12
-0.75780
22
-2.84400
32
-0.45050
13
-0.75780
23
-2.87060
33
-0.22590
0
3DFACE
8
layer1
62
1
10
0.75780
20
-5.98740
30
-0.94830
11
0.75780
21
-2.84400
31
-0.45050
12
0.75780
22
-2.79990
32
-0.67220
13
0.75780
23
-5.89460
33
-1.41520
0
3DFACE
8
layer1
62
1
10
-0.75780
20
-5.98740
30
-0.94830
11
-0.75780
21
-5.89460
31
-1.41520
12
-0.75780
22
-2.79990
32
-0.67220
13
-0.75780
23
-2.84400
33
-0.45050
0
3DFACE
8
layer1
62
1
10
0.75780
20
-5.89460
30
-1.41520
11
0.75780
21
-2.79990
31
-0.67220
12
0.75780
22
-2.73850
32
-0.88980
13
0.75780
23
-5.76540
33
-1.87330
0
3DFACE
8
layer1
62
1
10
-0.75780
20
-5.89460
30
-1.41520
11
-0.75780
21
-5.76540
31
-1.87330
12
-0.75780
22
-2.73850
32
-0.88980
13
-0.75780
23
-2.79990
33
-0.67220
0
3DFACE
8
layer1
62
1
10
0.75780
20
-5.76540
30
-1.87330
11
0.75780
21
-2.73850
31
-0.88980
12
0.75780
22
-2.66030
32
-1.10190
13
0.75780
23
-5.60060
33
-2.31990
0
3DFACE
8
layer1
62
1
10
-0.75780
20
-5.76540
30
-1.87330
11
-0.75780
21
-5.60060
31
-2.31990
12
-0.75780
22
-2.66030
32
-1.10190
13
-0.75780
23
-2.73850
33
-0.88980
0
3DFACE
8
layer1
62
1
10
0.75780
20
-5.60060
30
-2.31990
11
0.75780
21
-2.66030
31
-1.10190
12
0.75780
22
-2.56560
32
-1.30730
13
0.75780
23
-5.40130
33
-2.75210
0
3DFACE
8
layer1
62
1
10
-0.75780
20
-5.60060
30
-2.31990
11
-0.75780
21
-5.40130
31
-2.75210
12
-0.75780
22
-2.56560
32
-1.30730
13
-0.75780
23
-2.66030
33
-1.10190
0
3DFACE
8
layer1
62
1
10
0.75780
20
-5.40130
30
-2.75210
11
0.75780
21
-2.56560
31
-1.30730
12
0.75780
22
-2.45520
32
-1.50450
13
0.75780
23
-5.16870
33
-3.16740
0
3DFACE
8
layer1
62
1
10
-0.75780
20
-5.40130
30
-2.75210
11
-0.75780
21
-5.16870
31
-3.16740
12
-0.75780
22
-2.45520
32
-1.50450
13
-0.75780
23
-2.56560
33
-1.30730
0
3DFACE
8
layer1
62
1
10
0.75780
20
-5.16870
30
-3.16740
11
0.75780
21
-2.45520
31
-1.50450
12
0.75780
22
-2.32950
32
-1.69250
13
0.75780
23
-4.90430
33
-3.56320
0
3DFACE
8
layer1
62
1
10
-0.75780
20
-5.16870
30
-3.16740
11
-0.75780
21
-4.90430
31
-3.56320
12
-0.75780
22
-2.32950
32
-1.69250
13
-0.75780
23
-2.45520
33
-1.50450
0
3DFACE
8
layer1
62
1
10
0.75780
20
-4.90430
30
-3.56320
11
0.75780
21
-2.32950
31
-1.69250
12
0.75780
22
-2.18960
32
-1.87010
13
0.75780
23
-4.60960
33
-3.93700
0
3DFACE
8
layer1
62
1
10
-0.75780
20
-4.90430
30
-3.56320
11
-0.75780
21
-4.60960
31
-3.93700
12
-0.75780
22
-2.18960
32
-1.87010
13
-0.75780
23
-2.32950
33
-1.69250
0
3DFACE
8
layer1
62
1
10
0.75780
20
-4.60960
30
-3.93700
11
0.75780
21
-2.18960
31
-1.87010
12
0.75780
22
-2.03610
32
-2.03610
13
0.75780
23
-4.28650
33
-4.28650
0
3DFACE
8
layer1
62
1
10
-0.75780
20
-4.60960
30
-3.93700
11
-0.75780
21
-4.28650
31
-4.28650
12
-0.75780
22
-2.03610
32
-2.03610
13
-0.75780
23
-2.18960
33
-1.87010
0
3DFACE
8
layer1
62
1
10
0.75780
20
-4.28650
30
-4.28650
11
0.75780
21
-2.03610
31
-2.03610
12
0.75780
22
-1.87010
32
-2.18960
13
0.75780
23
-3.93700
33
-4.60960
0
3DFACE
8
layer1
62
1
10
-0.75780
20
-4.28650
30
-4.28650
11
-0.75780
21
-3.93700
31
-4.60960
12
-0.75780
22
-1.87010
32
-2.18960
13
-0.75780
23
-2.03610
33
-2.03610
0
3DFACE
8
layer1
62
1
10
0.75780
20
-3.93700
30
-4.60960
11
0.75780
21
-1.87010
31
-2.18960
12
0.75780
22
-1.69250
32
-2.32950
13
0.75780
23
-3.56320
33
-4.90430
0
3DFACE
8
layer1
62
1
10
-0.75780
20
-3.93700
30
-4.60960
11
-0.75780
21
-3.56320
31
-4.90430
12
-0.75780
22
-1.69250
32
-2.32950
13
-0.75780
23
-1.87010
33
-2.18960
0
3DFACE
8
layer1
62
1
10
0.75780
20
-3.56320
30
-4.90430
11
0.75780
21
-1.69250
31
-2.32950
12
0.75780
22
-1.50450
32
-2.45520
13
0.75780
23
-3.16740
33
-5.16880
0
3DFACE
8
layer1
62
1
10
-0.75780
20
-3.56320
30
-4.90430
11
-0.75780
21
-3.16740
31
-5.16880
12
-0.75780
22
-1.50450
32
-2.45520
13
-0.75780
23
-1.69250
33
-2.32950
0
3DFACE
8
layer1
62
1
10
0.75780
20
-3.16740
30
-5.16880
11
0.75780
21
-1.50450
31
-2.45520
12
0.75780
22
-1.30720
32
-2.56560
13
0.75780
23
-2.75210
33
-5.40130
0
3DFACE
8
layer1
62
1
10
-0.75780
20
-3.16740
30
-5.16880
11
-0.75780
21
-2.75210
31
-5.40130
12
-0.75780
22
-1.30720
32
-2.56560
13
-0.75780
23
-1.50450
33
-2.45520
0
3DFACE
8
layer1
62
1
10
0.75780
20
-2.75210
30
-5.40130
11
0.75780
21
-1.30720
31
-2.56560
12
0.75780
22
-1.10190
32
-2.66030
13
0.75780
23
-2.31980
33
-5.60060
0
3DFACE
8
layer1
62
1
10
-0.75780
20
-2.75210
30
-5.40130
11
-0.75780
21
-2.31980
31
-5.60060
12
-0.75780
22
-1.10190
32
-2.66030
13
-0.75780
23
-1.30720
33
-2.56560
0
3DFACE
8
layer1
62
1
10
0.75780
20
-2.31980
30
-5.60060
11
0.75780
21
-1.10190
31
-2.66030
12
0.75780
22
-0.88980
32
-2.73850
13
0.75780
23
-1.87330
33
-5.76540
0
3DFACE
8
layer1
62
1
10
-0.75780
20
-2.31980
30
-5.60060
11
-0.75780
21
-1.87330
31
-5.76540
12
-0.75780
22
-0.88980
32
-2.73850
13
-0.75780
23
-1.10190
33
-2.66030
0
3DFACE
8
layer1
62
1
10
0.75780
20
-1.87330
30
-5.76540
11
0.75780
21
-0.88980
31
-2.73850
12
0.75780
22
-0.67220
32
-2.79990
13
0.75780
23
-1.41510
33
-5.89460
0
3DFACE
8
layer1
62
1
10
-0.75780
20
-1.87330
30
-5.76540
11
-0.75780
21
-1.41510
31
-5.89460
12
-0.75780
22
-0.67220
32
-2.79990
13
-0.75780
23
-0.88980
33
-2.73850
0
3DFACE
8
layer1
62
1
10
0.75780
20
-1.41510
30
-5.89460
11
0.75780
21
-0.67220
31
-2.79990
12
0.75780
22
-0.45040
32
-2.84400
13
0.75780
23
-0.94830
33
-5.98740
0
3DFACE
8
layer1
62
1
10
-0.75780
20
-1.41510
30
-5.89460
11
-0.75780
21
-0.94830
31
-5.98740
12
-0.75780
22
-0.45040
32
-2.84400
13
-0.75780
23
-0.67220
33
-2.79990
0
3DFACE
8
layer1
62
1
10
0.75780
20
-0.94830
30
-5.98740
11
0.75780
21
-0.45040
31
-2.84400
12
0.75780
22
-0.22590
32
-2.87060
13
0.75780
23
-0.47560
33
-6.04340
0
3DFACE
8
layer1
62
1
10
-0.75780
20
-0.94830
30
-5.98740
11
-0.75780
21
-0.47560
31
-6.04340
12
-0.75780
22
-0.22590
32
-2.87060
13
-0.75780
23
-0.45040
33
-2.84400
0
3DFACE
8
layer1
62
1
10
0.75780
20
-0.47560
30
-6.04340
11
0.75780
21
-0.22590
31
-2.87060
12
0.75780
22
0.00000
32
-2.87950
13
0.75780
23
0.00000
33
-6.06210
0
3DFACE
8
layer1
62
1
10
-0.75780
20
-0.47560
30
-6.04340
11
-0.75780
21
0.00000
31
-6.06210
12
-0.75780
22
0.00000
32
-2.87950
13
-0.75780
23
-0.22590
33
-2.87060
0
3DFACE
8
layer1
62
1
10
1.51550
20
0.00000
30
-7.83000
11
1.51550
21
0.49940
31
-7.81330
12
-1.51550
22
0.49940
32
-7.81330
13
-1.51550
23
0.00000
33
-7.83000
0
3DFACE
8
layer1
62
1
10
1.51550
20
0.45180
30
-5.74120
11
1.51550
21
0.00000
31
-5.75900
12
-1.51550
22
0.00000
32
-5.75900
13
-1.51550
23
0.45180
33
-5.74120
0
3DFACE
8
layer1
62
1
10
1.51550
20
0.49940
30
-7.81330
11
1.51550
21
0.99570
31
-6.28680
12
-1.51550
22
0.99570
32
-6.28680
13
-1.51550
23
0.49940
33
-7.81330
0
3DFACE
8
layer1
62
1
10
1.51550
20
0.90090
30
-5.68810
11
1.51550
21
0.45180
31
-5.74120
12
-1.51550
22
0.45180
32
-5.74120
13
-1.51550
23
0.90090
33
-5.68810
0
3DFACE
8
layer1
62
1
10
1.51550
20
0.99570
30
-6.28680
11
1.51550
21
1.48590
31
-6.18930
12
-1.51550
22
1.48590
32
-6.18930
13
-1.51550
23
0.99570
33
-6.28680
0
3DFACE
8
layer1
62
1
10
1.51550
20
1.34440
30
-5.59980
11
1.51550
21
0.90090
31
-5.68810
12
-1.51550
22
0.90090
32
-5.68810
13
-1.51550
23
1.34440
33
-5.59980
0
3DFACE
8
layer1
62
1
10
1.51550
20
1.48590
30
-6.18930
11
1.51550
21
2.61230
31
-7.37840
12
-1.51550
22
2.61230
32
-7.37840
13
-1.51550
23
1.48590
33
-6.18930
0
3DFACE
8
layer1
62
1
10
1.51550
20
1.77960
30
-5.47710
11
1.51550
21
1.34440
31
-5.59980
12
-1.51550
22
1.34440
32
-5.59980
13
-1.51550
23
1.77960
33
-5.47710
0
3DFACE
8
layer1
62
1
10
1.51550
20
2.61230
30
-7.37840
11
1.51550
21
3.08120
31
-7.20540
12
-1.51550
22
3.08120
32
-7.20540
13
-1.51550
23
2.61230
33
-7.37840
0
3DFACE
8
layer1
62
1
10
1.51550
20
2.20390
30
-5.32060
11
1.51550
21
1.77960
31
-5.47710
12
-1.51550
22
1.77960
32
-5.47710
13
-1.51550
23
2.20390
33
-5.32060
0
3DFACE
8
layer1
62
1
10
1.51550
20
3.08120
30
-7.20540
11
1.51550
21
3.53510
31
-6.99610
12
-1.51550
22
3.53510
32
-6.99610
13
-1.51550
23
3.08120
33
-7.20540
0
3DFACE
8
layer1
62
1
10
1.51550
20
2.61450
30
-5.13130
11
1.51550
21
2.20390
31
-5.32060
12
-1.51550
22
2.20390
32
-5.32060
13
-1.51550
23
2.61450
33
-5.13130
0
3DFACE
8
layer1
62
1
10
1.51550
20
3.53510
30
-6.99610
11
1.51550
21
3.32580
31
-5.42720
12
-1.51550
22
3.32580
32
-5.42720
13
-1.51550
23
3.53510
33
-6.99610
0
3DFACE
8
layer1
62
1
10
1.51550
20
3.00900
30
-4.91030
11
1.51550
21
2.61450
31
-5.13130
12
-1.51550
22
2.61450
32
-5.13130
13
-1.51550
23
3.00900
33
-4.91030
0
3DFACE
8
layer1
62
1
10
1.51550
20
3.32580
30
-5.42720
11
1.51550
21
3.74130
31
-5.14950
12
-1.51550
22
3.74130
32
-5.14950
13
-1.51550
23
3.32580
33
-5.42720
0
3DFACE
8
layer1
62
1
10
1.51550
20
3.38500
30
-4.65910
11
1.51550
21
3.00900
31
-4.91030
12
-1.51550
22
3.00900
32
-4.91030
13
-1.51550
23
3.38500
33
-4.65910
0
3DFACE
8
layer1
62
1
10
1.51550
20
3.74130
30
-5.14950
11
1.51550
21
5.22260
31
-5.85840
12
-1.51550
22
5.22260
32
-5.85840
13
-1.51550
23
3.74130
33
-5.14950
0
3DFACE
8
layer1
62
1
10
1.51550
20
3.74010
30
-4.37910
11
1.51550
21
3.38500
31
-4.65910
12
-1.51550
22
3.38500
32
-4.65910
13
-1.51550
23
3.74010
33
-4.37910
0
3DFACE
8
layer1
62
1
10
1.51550
20
5.22260
30
-5.85840
11
1.51550
21
5.58960
31
-5.51920
12
-1.51550
22
5.58960
32
-5.51920
13
-1.51550
23
5.22260
33
-5.85840
0
3DFACE
8
layer1
62
1
10
1.51550
20
4.07220
30
-4.07220
11
1.51550
21
3.74010
31
-4.37910
12
-1.51550
22
3.74010
32
-4.37910
13
-1.51550
23
4.07220
33
-4.07220
0
3DFACE
8
layer1
62
1
10
1.51550
20
5.58960
30
-5.51920
11
1.51550
21
5.92880
31
-5.15220
12
-1.51550
22
5.92880
32
-5.15220
13
-1.51550
23
5.58960
33
-5.51920
0
3DFACE
8
layer1
62
1
10
1.51550
20
4.37910
30
-3.74010
11
1.51550
21
4.07220
31
-4.07220
12
-1.51550
22
4.07220
32
-4.07220
13
-1.51550
23
4.37910
33
-3.74010
0
3DFACE
8
layer1
62
1
10
1.51550
20
5.92880
30
-5.15220
11
1.51550
21
5.14950
31
-3.74130
12
-1.51550
22
5.14950
32
-3.74130
13
-1.51550
23
5.92880
33
-5.15220
0
3DFACE
8
layer1
62
1
10
1.51550
20
4.65910
30
-3.38500
11
1.51550
21
4.37910
31
-3.74010
12
-1.51550
22
4.37910
32
-3.74010
13
-1.51550
23
4.65910
33
-3.38500
0
3DFACE
8
layer1
62
1
10
1.51550
20
5.14950
30
-3.74130
11
1.51550
21
5.42720
31
-3.32580
12
-1.51550
22
5.42720
32
-3.32580
13
-1.51550
23
5.14950
33
-3.74130
0
3DFACE
8
layer1
62
1
10
1.51550
20
4.91030
30
-3.00900
11
1.51550
21
4.65910
31
-3.38500
12
-1.51550
22
4.65910
32
-3.38500
13
-1.51550
23
4.91030
33
-3.00900
0
3DFACE
8
layer1
62
1
10
1.51550
20
5.42720
30
-3.32580
11
1.51550
21
7.03170
31
-3.42740
12
-1.51550
22
7.03170
32
-3.42740
13
-1.51550
23
5.42720
33
-3.32580
0
3DFACE
8
layer1
62
1
10
1.51550
20
5.13130
30
-2.61450
11
1.51550
21
4.91030
31
-3.00900
12
-1.51550
22
4.91030
32
-3.00900
13
-1.51550
23
5.13130
33
-2.61450
0
3DFACE
8
layer1
62
1
10
1.51550
20
7.03170
30
-3.42740
11
1.51550
21
7.24090
31
-2.97350
12
-1.51550
22
7.24090
32
-2.97350
13
-1.51550
23
7.03170
33
-3.42740
0
3DFACE
8
layer1
62
1
10
1.51550
20
5.32060
30
-2.20390
11
1.51550
21
5.13130
31
-2.61450
12
-1.51550
22
5.13130
32
-2.61450
13
-1.51550
23
5.32060
33
-2.20390
0
3DFACE
8
layer1
62
1
10
1.51550
20
7.24090
30
-2.97350
11
1.51550
21
7.41390
31
-2.50460
12
-1.51550
22
7.41390
32
-2.50460
13
-1.51550
23
7.24090
33
-2.97350
0
3DFACE
8
layer1
62
1
10
1.51550
20
5.47710
30
-1.77960
11
1.51550
21
5.32060
31
-2.20390
12
-1.51550
22
5.32060
32
-2.20390
13
-1.51550
23
5.47710
33
-1.77960
0
3DFACE
8
layer1
62
1
10
1.51550
20
7.41390
30
-2.50460
11
1.51550
21
6.18930
31
-1.48590
12
-1.51550
22
6.18930
32
-1.48590
13
-1.51550
23
7.41390
33
-2.50460
0
3DFACE
8
layer1
62
1
10
1.51550
20
5.59980
30
-1.34440
11
1.51550
21
5.47710
31
-1.77960
12
-1.51550
22
5.47710
32
-1.77960
13
-1.51550
23
5.59980
33
-1.34440
0
3DFACE
8
layer1
62
1
10
1.51550
20
6.18930
30
-1.48590
11
1.51550
21
6.28680
31
-0.99570
12
-1.51550
22
6.28680
32
-0.99570
13
-1.51550
23
6.18930
33
-1.48590
0
3DFACE
8
layer1
62
1
10
1.51550
20
5.68800
30
-0.90090
11
1.51550
21
5.59980
31
-1.34440
12
-1.51550
22
5.59980
32
-1.34440
13
-1.51550
23
5.68810
33
-0.90090
0
3DFACE
8
layer1
62
1
10
1.51550
20
6.28680
30
-0.99570
11
1.51550
21
7.81630
31
-0.49940
12
-1.51550
22
7.81630
32
-0.49940
13
-1.51550
23
6.28680
33
-0.99570
0
3DFACE
8
layer1
62
1
10
1.51550
20
5.74120
30
-0.45180
11
1.51550
21
5.68800
31
-0.90090
12
-1.51550
22
5.68810
32
-0.90090
13
-1.51550
23
5.74120
33
-0.45180
0
3DFACE
8
layer1
62
1
10
1.51550
20
7.81630
30
-0.49940
11
1.51550
21
7.83600
31
0.00000
12
-1.51550
22
7.83600
32
0.00000
13
-1.51550
23
7.81630
33
-0.49940
0
3DFACE
8
layer1
62
1
10
1.51550
20
5.75900
30
0.00000
11
1.51550
21
5.74120
31
-0.45180
12
-1.51550
22
5.74120
32
-0.45180
13
-1.51550
23
5.75900
33
0.00000
0
3DFACE
8
layer1
62
1
10
1.51550
20
0.00000
30
-7.83000
11
1.51550
21
0.00000
31
-5.75900
12
1.51550
22
0.45180
32
-5.74120
13
1.51550
23
0.49940
33
-7.81330
0
3DFACE
8
layer1
62
1
10
-1.51550
20
0.00000
30
-7.83000
11
-1.51550
21
0.49940
31
-7.81330
12
-1.51550
22
0.45180
32
-5.74120
13
-1.51550
23
0.00000
33
-5.75900
0
3DFACE
8
layer1
62
1
10
1.51550
20
0.49940
30
-7.81330
11
1.51550
21
0.45180
31
-5.74120
12
1.51550
22
0.90090
32
-5.68810
13
1.51550
23
0.99570
33
-6.28680
0
3DFACE
8
layer1
62
1
10
-1.51550
20
0.49940
30
-7.81330
11
-1.51550
21
0.99570
31
-6.28680
12
-1.51550
22
0.90090
32
-5.68810
13
-1.51550
23
0.45180
33
-5.74120
0
3DFACE
8
layer1
62
1
10
1.51550
20
0.99570
30
-6.28680
11
1.51550
21
0.90090
31
-5.68810
12
1.51550
22
1.34440
32
-5.59980
13
1.51550
23
1.48590
33
-6.18930
0
3DFACE
8
layer1
62
1
10
-1.51550
20
0.99570
30
-6.28680
11
-1.51550
21
1.48590
31
-6.18930
12
-1.51550
22
1.34440
32
-5.59980
13
-1.51550
23
0.90090
33
-5.68810
0
3DFACE
8
layer1
62
1
10
1.51550
20
1.48590
30
-6.18930
11
1.51550
21
1.34440
31
-5.59980
12
1.51550
22
1.77960
32
-5.47710
13
1.51550
23
2.61230
33
-7.37840
0
3DFACE
8
layer1
62
1
10
-1.51550
20
1.48590
30
-6.18930
11
-1.51550
21
2.61230
31
-7.37840
12
-1.51550
22
1.77960
32
-5.47710
13
-1.51550
23
1.34440
33
-5.59980
0
3DFACE
8
layer1
62
1
10
1.51550
20
2.61230
30
-7.37840
11
1.51550
21
1.77960
31
-5.47710
12
1.51550
22
2.20390
32
-5.32060
13
1.51550
23
3.08120
33
-7.20540
0
3DFACE
8
layer1
62
1
10
-1.51550
20
2.61230
30
-7.37840
11
-1.51550
21
3.08120
31
-7.20540
12
-1.51550
22
2.20390
32
-5.32060
13
-1.51550
23
1.77960
33
-5.47710
0
3DFACE
8
layer1
62
1
10
1.51550
20
3.08120
30
-7.20540
11
1.51550
21
2.20390
31
-5.32060
12
1.51550
22
2.61450
32
-5.13130
13
1.51550
23
3.53510
33
-6.99610
0
3DFACE
8
layer1
62
1
10
-1.51550
20
3.08120
30
-7.20540
11
-1.51550
21
3.53510
31
-6.99610
12
-1.51550
22
2.61450
32
-5.13130
13
-1.51550
23
2.20390
33
-5.32060
0
3DFACE
8
layer1
62
1
10
1.51550
20
3.53510
30
-6.99610
11
1.51550
21
2.61450
31
-5.13130
12
1.51550
22
3.00900
32
-4.91030
13
1.51550
23
3.32580
33
-5.42720
0
3DFACE
8
layer1
62
1
10
-1.51550
20
3.53510
30
-6.99610
11
-1.51550
21
3.32580
31
-5.42720
12
-1.51550
22
3.00900
32
-4.91030
13
-1.51550
23
2.61450
33
-5.13130
0
3DFACE
8
layer1
62
1
10
1.51550
20
3.32580
30
-5.42720
11
1.51550
21
3.00900
31
-4.91030
12
1.51550
22
3.38500
32
-4.65910
13
1.51550
23
3.74130
33
-5.14950
0
3DFACE
8
layer1
62
1
10
-1.51550
20
3.32580
30
-5.42720
11
-1.51550
21
3.74130
31
-5.14950
12
-1.51550
22
3.38500
32
-4.65910
13
-1.51550
23
3.00900
33
-4.91030
0
3DFACE
8
layer1
62
1
10
1.51550
20
3.74130
30
-5.14950
11
1.51550
21
3.38500
31
-4.65910
12
1.51550
22
3.74010
32
-4.37910
13
1.51550
23
5.22260
33
-5.85840
0
3DFACE
8
layer1
62
1
10
-1.51550
20
3.74130
30
-5.14950
11
-1.51550
21
5.22260
31
-5.85840
12
-1.51550
22
3.74010
32
-4.37910
13
-1.51550
23
3.38500
33
-4.65910
0
3DFACE
8
layer1
62
1
10
1.51550
20
5.22260
30
-5.85840
11
1.51550
21
3.74010
31
-4.37910
12
1.51550
22
4.07220
32
-4.07220
13
1.51550
23
5.58960
33
-5.51920
0
3DFACE
8
layer1
62
1
10
-1.51550
20
5.22260
30
-5.85840
11
-1.51550
21
5.58960
31
-5.51920
12
-1.51550
22
4.07220
32
-4.07220
13
-1.51550
23
3.74010
33
-4.37910
0
3DFACE
8
layer1
62
1
10
1.51550
20
5.58960
30
-5.51920
11
1.51550
21
4.07220
31
-4.07220
12
1.51550
22
4.37910
32
-3.74010
13
1.51550
23
5.92880
33
-5.15220
0
3DFACE
8
layer1
62
1
10
-1.51550
20
5.58960
30
-5.51920
11
-1.51550
21
5.92880
31
-5.15220
12
-1.51550
22
4.37910
32
-3.74010
13
-1.51550
23
4.07220
33
-4.07220
0
3DFACE
8
layer1
62
1
10
1.51550
20
5.92880
30
-5.15220
11
1.51550
21
4.37910
31
-3.74010
12
1.51550
22
4.65910
32
-3.38500
13
1.51550
23
5.14950
33
-3.74130
0
3DFACE
8
layer1
62
1
10
-1.51550
20
5.92880
30
-5.15220
11
-1.51550
21
5.14950
31
-3.74130
12
-1.51550
22
4.65910
32
-3.38500
13
-1.51550
23
4.37910
33
-3.74010
0
3DFACE
8
layer1
62
1
10
1.51550
20
5.14950
30
-3.74130
11
1.51550
21
4.65910
31
-3.38500
12
1.51550
22
4.91030
32
-3.00900
13
1.51550
23
5.42720
33
-3.32580
0
3DFACE
8
layer1
62
1
10
-1.51550
20
5.14950
30
-3.74130
11
-1.51550
21
5.42720
31
-3.32580
12
-1.51550
22
4.91030
32
-3.00900
13
-1.51550
23
4.65910
33
-3.38500
0
3DFACE
8
layer1
62
1
10
1.51550
20
5.42720
30
-3.32580
11
1.51550
21
4.91030
31
-3.00900
12
1.51550
22
5.13130
32
-2.61450
13
1.51550
23
7.03170
33
-3.42740
0
3DFACE
8
layer1
62
1
10
-1.51550
20
5.42720
30
-3.32580
11
-1.51550
21
7.03170
31
-3.42740
12
-1.51550
22
5.13130
32
-2.61450
13
-1.51550
23
4.91030
33
-3.00900
0
3DFACE
8
layer1
62
1
10
1.51550
20
7.03170
30
-3.42740
11
1.51550
21
5.13130
31
-2.61450
12
1.51550
22
5.32060
32
-2.20390
13
1.51550
23
7.24090
33
-2.97350
0
3DFACE
8
layer1
62
1
10
-1.51550
20
7.03170
30
-3.42740
11
-1.51550
21
7.24090
31
-2.97350
12
-1.51550
22
5.32060
32
-2.20390
13
-1.51550
23
5.13130
33
-2.61450
0
3DFACE
8
layer1
62
1
10
1.51550
20
7.24090
30
-2.97350
11
1.51550
21
5.32060
31
-2.20390
12
1.51550
22
5.47710
32
-1.77960
13
1.51550
23
7.41390
33
-2.50460
0
3DFACE
8
layer1
62
1
10
-1.51550
20
7.24090
30
-2.97350
11
-1.51550
21
7.41390
31
-2.50460
12
-1.51550
22
5.47710
32
-1.77960
13
-1.51550
23
5.32060
33
-2.20390
0
3DFACE
8
layer1
62
1
10
1.51550
20
7.41390
30
-2.50460
11
1.51550
21
5.47710
31
-1.77960
12
1.51550
22
5.59980
32
-1.34440
13
1.51550
23
6.18930
33
-1.48590
0
3DFACE
8
layer1
62
1
10
-1.51550
20
7.41390
30
-2.50460
11
-1.51550
21
6.18930
31
-1.48590
12
-1.51550
22
5.59980
32
-1.34440
13
-1.51550
23
5.47710
33
-1.77960
0
3DFACE
8
layer1
62
1
10
1.51550
20
6.18930
30
-1.48590
11
1.51550
21
5.59980
31
-1.34440
12
1.51550
22
5.68800
32
-0.90090
13
1.51550
23
6.28680
33
-0.99570
0
3DFACE
8
layer1
62
1
10
-1.51550
20
6.18930
30
-1.48590
11
-1.51550
21
6.28680
31
-0.99570
12
-1.51550
22
5.68810
32
-0.90090
13
-1.51550
23
5.59980
33
-1.34440
0
3DFACE
8
layer1
62
1
10
1.51550
20
6.28680
30
-0.99570
11
1.51550
21
5.68800
31
-0.90090
12
1.51550
22
5.74120
32
-0.45180
13
1.51550
23
7.81630
33
-0.49940
0
3DFACE
8
layer1
62
1
10
-1.51550
20
6.28680
30
-0.99570
11
-1.51550
21
7.81630
31
-0.49940
12
-1.51550
22
5.74120
32
-0.45180
13
-1.51550
23
5.68810
33
-0.90090
0
3DFACE
8
layer1
62
1
10
1.51550
20
7.81630
30
-0.49940
11
1.51550
21
5.74120
31
-0.45180
12
1.51550
22
5.75900
32
0.00000
13
1.51550
23
7.83600
33
0.00000
0
3DFACE
8
layer1
62
1
10
-1.51550
20
7.81630
30
-0.49940
11
-1.51550
21
7.83600
31
0.00000
12
-1.51550
22
5.75900
32
0.00000
13
-1.51550
23
5.74120
33
-0.45180
0
3DFACE
8
layer1
62
1
10
-1.51550
20
0.00000
30
-7.83000
11
-1.51550
21
-0.49940
31
-7.81330
12
1.51550
22
-0.49940
32
-7.81330
13
1.51550
23
0.00000
33
-7.83000
0
3DFACE
8
layer1
62
1
10
-1.51550
20
-0.45180
30
-5.74120
11
-1.51550
21
0.00000
31
-5.75900
12
1.51550
22
0.00000
32
-5.75900
13
1.51550
23
-0.45180
33
-5.74120
0
3DFACE
8
layer1
62
1
10
-1.51550
20
-0.49940
30
-7.81330
11
-1.51550
21
-0.99570
31
-6.28680
12
1.51550
22
-0.99570
32
-6.28680
13
1.51550
23
-0.49940
33
-7.81330
0
3DFACE
8
layer1
62
1
10
-1.51550
20
-0.90090
30
-5.68810
11
-1.51550
21
-0.45180
31
-5.74120
12
1.51550
22
-0.45180
32
-5.74120
13
1.51550
23
-0.90090
33
-5.68810
0
3DFACE
8
layer1
62
1
10
-1.51550
20
-0.99570
30
-6.28680
11
-1.51550
21
-1.48590
31
-6.18930
12
1.51550
22
-1.48590
32
-6.18930
13
1.51550
23
-0.99570
33
-6.28680
0
3DFACE
8
layer1
62
1
10
-1.51550
20
-1.34440
30
-5.59980
11
-1.51550
21
-0.90090
31
-5.68810
12
1.51550
22
-0.90090
32
-5.68810
13
1.51550
23
-1.34440
33
-5.59980
0
3DFACE
8
layer1
62
1
10
-1.51550
20
-1.48590
30
-6.18930
11
-1.51550
21
-2.61230
31
-7.37840
12
1.51550
22
-2.61230
32
-7.37840
13
1.51550
23
-1.48590
33
-6.18930
0
3DFACE
8
layer1
62
1
10
-1.51550
20
-1.77960
30
-5.47710
11
-1.51550
21
-1.34440
31
-5.59980
12
1.51550
22
-1.34440
32
-5.59980
13
1.51550
23
-1.77960
33
-5.47710
0
3DFACE
8
layer1
62
1
10
-1.51550
20
-2.61230
30
-7.37840
11
-1.51550
21
-3.08120
31
-7.20540
12
1.51550
22
-3.08120
32
-7.20540
13
1.51550
23
-2.61230
33
-7.37840
0
3DFACE
8
layer1
62
1
10
-1.51550
20
-2.20390
30
-5.32060
11
-1.51550
21
-1.77960
31
-5.47710
12
1.51550
22
-1.77960
32
-5.47710
13
1.51550
23
-2.20390
33
-5.32060
0
3DFACE
8
layer1
62
1
10
-1.51550
20
-3.08120
30
-7.20540
11
-1.51550
21
-3.53510
31
-6.99610
12
1.51550
22
-3.53510
32
-6.99610
13
1.51550
23
-3.08120
33
-7.20540
0
3DFACE
8
layer1
62
1
10
-1.51550
20
-2.61450
30
-5.13130
11
-1.51550
21
-2.20390
31
-5.32060
12
1.51550
22
-2.20390
32
-5.32060
13
1.51550
23
-2.61450
33
-5.13130
0
3DFACE
8
layer1
62
1
10
-1.51550
20
-3.53510
30
-6.99610
11
-1.51550
21
-3.32580
31
-5.42720
12
1.51550
22
-3.32580
32
-5.42720
13
1.51550
23
-3.53510
33
-6.99610
0
3DFACE
8
layer1
62
1
10
-1.51550
20
-3.00900
30
-4.91030
11
-1.51550
21
-2.61450
31
-5.13130
12
1.51550
22
-2.61450
32
-5.13130
13
1.51550
23
-3.00900
33
-4.91030
0
3DFACE
8
layer1
62
1
10
-1.51550
20
-3.32580
30
-5.42720
11
-1.51550
21
-3.74130
31
-5.14950
12
1.51550
22
-3.74130
32
-5.14950
13
1.51550
23
-3.32580
33
-5.42720
0
3DFACE
8
layer1
62
1
10
-1.51550
20
-3.38500
30
-4.65910
11
-1.51550
21
-3.00900
31
-4.91030
12
1.51550
22
-3.00900
32
-4.91030
13
1.51550
23
-3.38500
33
-4.65910
0
3DFACE
8
layer1
62
1
10
-1.51550
20
-3.74130
30
-5.14950
11
-1.51550
21
-5.22260
31
-5.85840
12
1.51550
22
-5.22260
32
-5.85840
13
1.51550
23
-3.74130
33
-5.14950
0
3DFACE
8
layer1
62
1
10
-1.51550
20
-3.74010
30
-4.37910
11
-1.51550
21
-3.38500
31
-4.65910
12
1.51550
22
-3.38500
32
-4.65910
13
1.51550
23
-3.74010
33
-4.37910
0
3DFACE
8
layer1
62
1
10
-1.51550
20
-5.22260
30
-5.85840
11
-1.51550
21
-5.58960
31
-5.51920
12
1.51550
22
-5.58960
32
-5.51920
13
1.51550
23
-5.22260
33
-5.85840
0
3DFACE
8
layer1
62
1
10
-1.51550
20
-4.07220
30
-4.07220
11
-1.51550
21
-3.74010
31
-4.37910
12
1.51550
22
-3.74010
32
-4.37910
13
1.51550
23
-4.07220
33
-4.07220
0
3DFACE
8
layer1
62
1
10
-1.51550
20
-5.58960
30
-5.51920
11
-1.51550
21
-5.92880
31
-5.15220
12
1.51550
22
-5.92880
32
-5.15220
13
1.51550
23
-5.58960
33
-5.51920
0
3DFACE
8
layer1
62
1
10
-1.51550
20
-4.37910
30
-3.74010
11
-1.51550
21
-4.07220
31
-4.07220
12
1.51550
22
-4.07220
32
-4.07220
13
1.51550
23
-4.37910
33
-3.74010
0
3DFACE
8
layer1
62
1
10
-1.51550
20
-5.92880
30
-5.15220
11
-1.51550
21
-5.14950
31
-3.74130
12
1.51550
22
-5.14950
32
-3.74130
13
1.51550
23
-5.92880
33
-5.15220
0
3DFACE
8
layer1
62
1
10
-1.51550
20
-4.65910
30
-3.38500
11
-1.51550
21
-4.37910
31
-3.74010
12
1.51550
22
-4.37910
32
-3.74010
13
1.51550
23
-4.65910
33
-3.38500
0
3DFACE
8
layer1
62
1
10
-1.51550
20
-5.14950
30
-3.74130
11
-1.51550
21
-5.42720
31
-3.32580
12
1.51550
22
-5.42720
32
-3.32580
13
1.51550
23
-5.14950
33
-3.74130
0
3DFACE
8
layer1
62
1
10
-1.51550
20
-4.91030
30
-3.00900
11
-1.51550
21
-4.65910
31
-3.38500
12
1.51550
22
-4.65910
32
-3.38500
13
1.51550
23
-4.91030
33
-3.00900
0
3DFACE
8
layer1
62
1
10
-1.51550
20
-5.42720
30
-3.32580
11
-1.51550
21
-7.03170
31
-3.42740
12
1.51550
22
-7.03170
32
-3.42740
13
1.51550
23
-5.42720
33
-3.32580
0
3DFACE
8
layer1
62
1
10
-1.51550
20
-5.13130
30
-2.61450
11
-1.51550
21
-4.91030
31
-3.00900
12
1.51550
22
-4.91030
32
-3.00900
13
1.51550
23
-5.13130
33
-2.61450
0
3DFACE
8
layer1
62
1
10
-1.51550
20
-7.03170
30
-3.42740
11
-1.51550
21
-7.24090
31
-2.97350
12
1.51550
22
-7.24090
32
-2.97350
13
1.51550
23
-7.03170
33
-3.42740
0
3DFACE
8
layer1
62
1
10
-1.51550
20
-5.32060
30
-2.20390
11
-1.51550
21
-5.13130
31
-2.61450
12
1.51550
22
-5.13130
32
-2.61450
13
1.51550
23
-5.32060
33
-2.20390
0
3DFACE
8
layer1
62
1
10
-1.51550
20
-7.24090
30
-2.97350
11
-1.51550
21
-7.41390
31
-2.50460
12
1.51550
22
-7.41390
32
-2.50460
13
1.51550
23
-7.24090
33
-2.97350
0
3DFACE
8
layer1
62
1
10
-1.51550
20
-5.47710
30
-1.77960
11
-1.51550
21
-5.32060
31
-2.20390
12
1.51550
22
-5.32060
32
-2.20390
13
1.51550
23
-5.47710
33
-1.77960
0
3DFACE
8
layer1
62
1
10
-1.51550
20
-7.41390
30
-2.50460
11
-1.51550
21
-6.18930
31
-1.48590
12
1.51550
22
-6.18930
32
-1.48590
13
1.51550
23
-7.41390
33
-2.50460
0
3DFACE
8
layer1
62
1
10
-1.51550
20
-5.59980
30
-1.34440
11
-1.51550
21
-5.47710
31
-1.77960
12
1.51550
22
-5.47710
32
-1.77960
13
1.51550
23
-5.59980
33
-1.34440
0
3DFACE
8
layer1
62
1
10
-1.51550
20
-6.18930
30
-1.48590
11
-1.51550
21
-6.28680
31
-0.99570
12
1.51550
22
-6.28680
32
-0.99570
13
1.51550
23
-6.18930
33
-1.48590
0
3DFACE
8
layer1
62
1
10
-1.51550
20
-5.68800
30
-0.90090
11
-1.51550
21
-5.59980
31
-1.34440
12
1.51550
22
-5.59980
32
-1.34440
13
1.51550
23
-5.68810
33
-0.90090
0
3DFACE
8
layer1
62
1
10
-1.51550
20
-6.28680
30
-0.99570
11
-1.51550
21
-7.81630
31
-0.49940
12
1.51550
22
-7.81630
32
-0.49940
13
1.51550
23
-6.28680
33
-0.99570
0
3DFACE
8
layer1
62
1
10
-1.51550
20
-5.74120
30
-0.45180
11
-1.51550
21
-5.68800
31
-0.90090
12
1.51550
22
-5.68810
32
-0.90090
13
1.51550
23
-5.74120
33
-0.45180
0
3DFACE
8
layer1
62
1
10
-1.51550
20
-7.81630
30
-0.49940
11
-1.51550
21
-7.83600
31
0.00000
12
1.51550
22
-7.83600
32
0.00000
13
1.51550
23
-7.81630
33
-0.49940
0
3DFACE
8
layer1
62
1
10
-1.51550
20
-5.75900
30
0.00000
11
-1.51550
21
-5.74120
31
-0.45180
12
1.51550
22
-5.74120
32
-0.45180
13
1.51550
23
-5.75900
33
0.00000
0
3DFACE
8
layer1
62
1
10
1.51550
20
-0.49940
30
-7.81330
11
1.51550
21
-0.45180
31
-5.74120
12
1.51550
22
0.00000
32
-5.75900
13
1.51550
23
0.00000
33
-7.83000
0
3DFACE
8
layer1
62
1
10
-1.51550
20
0.00000
30
-5.75900
11
-1.51550
21
-0.45180
31
-5.74120
12
-1.51550
22
-0.49940
32
-7.81330
13
-1.51550
23
0.00000
33
-7.83000
0
3DFACE
8
layer1
62
1
10
1.51550
20
-0.99570
30
-6.28680
11
1.51550
21
-0.90090
31
-5.68810
12
1.51550
22
-0.45180
32
-5.74120
13
1.51550
23
-0.49940
33
-7.81330
0
3DFACE
8
layer1
62
1
10
-1.51550
20
-0.45180
30
-5.74120
11
-1.51550
21
-0.90090
31
-5.68810
12
-1.51550
22
-0.99570
32
-6.28680
13
-1.51550
23
-0.49940
33
-7.81330
0
3DFACE
8
layer1
62
1
10
1.51550
20
-1.48590
30
-6.18930
11
1.51550
21
-1.34440
31
-5.59980
12
1.51550
22
-0.90090
32
-5.68810
13
1.51550
23
-0.99570
33
-6.28680
0
3DFACE
8
layer1
62
1
10
-1.51550
20
-0.90090
30
-5.68810
11
-1.51550
21
-1.34440
31
-5.59980
12
-1.51550
22
-1.48590
32
-6.18930
13
-1.51550
23
-0.99570
33
-6.28680
0
3DFACE
8
layer1
62
1
10
1.51550
20
-2.61230
30
-7.37840
11
1.51550
21
-1.77960
31
-5.47710
12
1.51550
22
-1.34440
32
-5.59980
13
1.51550
23
-1.48590
33
-6.18930
0
3DFACE
8
layer1
62
1
10
-1.51550
20
-1.34440
30
-5.59980
11
-1.51550
21
-1.77960
31
-5.47710
12
-1.51550
22
-2.61230
32
-7.37840
13
-1.51550
23
-1.48590
33
-6.18930
0
3DFACE
8
layer1
62
1
10
1.51550
20
-3.08120
30
-7.20540
11
1.51550
21
-2.20390
31
-5.32060
12
1.51550
22
-1.77960
32
-5.47710
13
1.51550
23
-2.61230
33
-7.37840
0
3DFACE
8
layer1
62
1
10
-1.51550
20
-1.77960
30
-5.47710
11
-1.51550
21
-2.20390
31
-5.32060
12
-1.51550
22
-3.08120
32
-7.20540
13
-1.51550
23
-2.61230
33
-7.37840
0
3DFACE
8
layer1
62
1
10
1.51550
20
-3.53510
30
-6.99610
11
1.51550
21
-2.61450
31
-5.13130
12
1.51550
22
-2.20390
32
-5.32060
13
1.51550
23
-3.08120
33
-7.20540
0
3DFACE
8
layer1
62
1
10
-1.51550
20
-2.20390
30
-5.32060
11
-1.51550
21
-2.61450
31
-5.13130
12
-1.51550
22
-3.53510
32
-6.99610
13
-1.51550
23
-3.08120
33
-7.20540
0
3DFACE
8
layer1
62
1
10
1.51550
20
-3.32580
30
-5.42720
11
1.51550
21
-3.00900
31
-4.91030
12
1.51550
22
-2.61450
32
-5.13130
13
1.51550
23
-3.53510
33
-6.99610
0
3DFACE
8
layer1
62
1
10
-1.51550
20
-2.61450
30
-5.13130
11
-1.51550
21
-3.00900
31
-4.91030
12
-1.51550
22
-3.32580
32
-5.42720
13
-1.51550
23
-3.53510
33
-6.99610
0
3DFACE
8
layer1
62
1
10
1.51550
20
-3.74130
30
-5.14950
11
1.51550
21
-3.38500
31
-4.65910
12
1.51550
22
-3.00900
32
-4.91030
13
1.51550
23
-3.32580
33
-5.42720
0
3DFACE
8
layer1
62
1
10
-1.51550
20
-3.00900
30
-4.91030
11
-1.51550
21
-3.38500
31
-4.65910
12
-1.51550
22
-3.74130
32
-5.14950
13
-1.51550
23
-3.32580
33
-5.42720
0
3DFACE
8
layer1
62
1
10
1.51550
20
-5.22260
30
-5.85840
11
1.51550
21
-3.74010
31
-4.37910
12
1.51550
22
-3.38500
32
-4.65910
13
1.51550
23
-3.74130
33
-5.14950
0
3DFACE
8
layer1
62
1
10
-1.51550
20
-3.38500
30
-4.65910
11
-1.51550
21
-3.74010
31
-4.37910
12
-1.51550
22
-5.22260
32
-5.85840
13
-1.51550
23
-3.74130
33
-5.14950
0
3DFACE
8
layer1
62
1
10
1.51550
20
-5.58960
30
-5.51920
11
1.51550
21
-4.07220
31
-4.07220
12
1.51550
22
-3.74010
32
-4.37910
13
1.51550
23
-5.22260
33
-5.85840
0
3DFACE
8
layer1
62
1
10
-1.51550
20
-3.74010
30
-4.37910
11
-1.51550
21
-4.07220
31
-4.07220
12
-1.51550
22
-5.58960
32
-5.51920
13
-1.51550
23
-5.22260
33
-5.85840
0
3DFACE
8
layer1
62
1
10
1.51550
20
-5.92880
30
-5.15220
11
1.51550
21
-4.37910
31
-3.74010
12
1.51550
22
-4.07220
32
-4.07220
13
1.51550
23
-5.58960
33
-5.51920
0
3DFACE
8
layer1
62
1
10
-1.51550
20
-4.07220
30
-4.07220
11
-1.51550
21
-4.37910
31
-3.74010
12
-1.51550
22
-5.92880
32
-5.15220
13
-1.51550
23
-5.58960
33
-5.51920
0
3DFACE
8
layer1
62
1
10
1.51550
20
-5.14950
30
-3.74130
11
1.51550
21
-4.65910
31
-3.38500
12
1.51550
22
-4.37910
32
-3.74010
13
1.51550
23
-5.92880
33
-5.15220
0
3DFACE
8
layer1
62
1
10
-1.51550
20
-4.37910
30
-3.74010
11
-1.51550
21
-4.65910
31
-3.38500
12
-1.51550
22
-5.14950
32
-3.74130
13
-1.51550
23
-5.92880
33
-5.15220
0
3DFACE
8
layer1
62
1
10
1.51550
20
-5.42720
30
-3.32580
11
1.51550
21
-4.91030
31
-3.00900
12
1.51550
22
-4.65910
32
-3.38500
13
1.51550
23
-5.14950
33
-3.74130
0
3DFACE
8
layer1
62
1
10
-1.51550
20
-4.65910
30
-3.38500
11
-1.51550
21
-4.91030
31
-3.00900
12
-1.51550
22
-5.42720
32
-3.32580
13
-1.51550
23
-5.14950
33
-3.74130
0
3DFACE
8
layer1
62
1
10
1.51550
20
-7.03170
30
-3.42740
11
1.51550
21
-5.13130
31
-2.61450
12
1.51550
22
-4.91030
32
-3.00900
13
1.51550
23
-5.42720
33
-3.32580
0
3DFACE
8
layer1
62
1
10
-1.51550
20
-4.91030
30
-3.00900
11
-1.51550
21
-5.13130
31
-2.61450
12
-1.51550
22
-7.03170
32
-3.42740
13
-1.51550
23
-5.42720
33
-3.32580
0
3DFACE
8
layer1
62
1
10
1.51550
20
-7.24090
30
-2.97350
11
1.51550
21
-5.32060
31
-2.20390
12
1.51550
22
-5.13130
32
-2.61450
13
1.51550
23
-7.03170
33
-3.42740
0
3DFACE
8
layer1
62
1
10
-1.51550
20
-5.13130
30
-2.61450
11
-1.51550
21
-5.32060
31
-2.20390
12
-1.51550
22
-7.24090
32
-2.97350
13
-1.51550
23
-7.03170
33
-3.42740
0
3DFACE
8
layer1
62
1
10
1.51550
20
-7.41390
30
-2.50460
11
1.51550
21
-5.47710
31
-1.77960
12
1.51550
22
-5.32060
32
-2.20390
13
1.51550
23
-7.24090
33
-2.97350
0
3DFACE
8
layer1
62
1
10
-1.51550
20
-5.32060
30
-2.20390
11
-1.51550
21
-5.47710
31
-1.77960
12
-1.51550
22
-7.41390
32
-2.50460
13
-1.51550
23
-7.24090
33
-2.97350
0
3DFACE
8
layer1
62
1
10
1.51550
20
-6.18930
30
-1.48590
11
1.51550
21
-5.59980
31
-1.34440
12
1.51550
22
-5.47710
32
-1.77960
13
1.51550
23
-7.41390
33
-2.50460
0
3DFACE
8
layer1
62
1
10
-1.51550
20
-5.47710
30
-1.77960
11
-1.51550
21
-5.59980
31
-1.34440
12
-1.51550
22
-6.18930
32
-1.48590
13
-1.51550
23
-7.41390
33
-2.50460
0
3DFACE
8
layer1
62
1
10
1.51550
20
-6.28680
30
-0.99570
11
1.51550
21
-5.68810
31
-0.90090
12
1.51550
22
-5.59980
32
-1.34440
13
1.51550
23
-6.18930
33
-1.48590
0
3DFACE
8
layer1
62
1
10
-1.51550
20
-5.59980
30
-1.34440
11
-1.51550
21
-5.68800
31
-0.90090
12
-1.51550
22
-6.28680
32
-0.99570
13
-1.51550
23
-6.18930
33
-1.48590
0
3DFACE
8
layer1
62
1
10
1.51550
20
-7.81630
30
-0.49940
11
1.51550
21
-5.74120
31
-0.45180
12
1.51550
22
-5.68810
32
-0.90090
13
1.51550
23
-6.28680
33
-0.99570
0
3DFACE
8
layer1
62
1
10
-1.51550
20
-5.68800
30
-0.90090
11
-1.51550
21
-5.74120
31
-0.45180
12
-1.51550
22
-7.81630
32
-0.49940
13
-1.51550
23
-6.28680
33
-0.99570
0
3DFACE
8
layer1
62
1
10
1.51550
20
-7.83600
30
0.00000
11
1.51550
21
-5.75900
31
0.00000
12
1.51550
22
-5.74120
32
-0.45180
13
1.51550
23
-7.81630
33
-0.49940
0
3DFACE
8
layer1
62
1
10
-1.51550
20
-5.74120
30
-0.45180
11
-1.51550
21
-5.75900
31
0.00000
12
-1.51550
22
-7.83600
32
0.00000
13
-1.51550
23
-7.81630
33
-0.49940
0
3DFACE
8
layer1
62
1
10
-1.51550
20
0.00000
30
7.83000
11
-1.51550
21
0.49940
31
7.81330
12
1.51550
22
0.49940
32
7.81330
13
1.51550
23
-0.00000
33
7.83000
0
3DFACE
8
layer1
62
1
10
-1.51550
20
0.45180
30
5.74120
11
-1.51550
21
0.00000
31
5.75900
12
1.51550
22
-0.00000
32
5.75900
13
1.51550
23
0.45180
33
5.74120
0
3DFACE
8
layer1
62
1
10
-1.51550
20
0.49940
30
7.81330
11
-1.51550
21
0.99570
31
6.28680
12
1.51550
22
0.99570
32
6.28680
13
1.51550
23
0.49940
33
7.81330
0
3DFACE
8
layer1
62
1
10
-1.51550
20
0.90090
30
5.68810
11
-1.51550
21
0.45180
31
5.74120
12
1.51550
22
0.45180
32
5.74120
13
1.51550
23
0.90090
33
5.68810
0
3DFACE
8
layer1
62
1
10
-1.51550
20
0.99570
30
6.28680
11
-1.51550
21
1.48590
31
6.18930
12
1.51550
22
1.48590
32
6.18930
13
1.51550
23
0.99570
33
6.28680
0
3DFACE
8
layer1
62
1
10
-1.51550
20
1.34440
30
5.59980
11
-1.51550
21
0.90090
31
5.68810
12
1.51550
22
0.90090
32
5.68810
13
1.51550
23
1.34440
33
5.59980
0
3DFACE
8
layer1
62
1
10
-1.51550
20
1.48590
30
6.18930
11
-1.51550
21
2.61230
31
7.37840
12
1.51550
22
2.61230
32
7.37840
13
1.51550
23
1.48590
33
6.18930
0
3DFACE
8
layer1
62
1
10
-1.51550
20
1.77960
30
5.47710
11
-1.51550
21
1.34440
31
5.59980
12
1.51550
22
1.34440
32
5.59980
13
1.51550
23
1.77960
33
5.47710
0
3DFACE
8
layer1
62
1
10
-1.51550
20
2.61230
30
7.37840
11
-1.51550
21
3.08120
31
7.20540
12
1.51550
22
3.08120
32
7.20540
13
1.51550
23
2.61230
33
7.37840
0
3DFACE
8
layer1
62
1
10
-1.51550
20
2.20390
30
5.32060
11
-1.51550
21
1.77960
31
5.47710
12
1.51550
22
1.77960
32
5.47710
13
1.51550
23
2.20390
33
5.32060
0
3DFACE
8
layer1
62
1
10
-1.51550
20
3.08120
30
7.20540
11
-1.51550
21
3.53510
31
6.99610
12
1.51550
22
3.53510
32
6.99610
13
1.51550
23
3.08120
33
7.20540
0
3DFACE
8
layer1
62
1
10
-1.51550
20
2.61450
30
5.13130
11
-1.51550
21
2.20390
31
5.32060
12
1.51550
22
2.20390
32
5.32060
13
1.51550
23
2.61450
33
5.13130
0
3DFACE
8
layer1
62
1
10
-1.51550
20
3.53510
30
6.99610
11
-1.51550
21
3.32580
31
5.42720
12
1.51550
22
3.32580
32
5.42720
13
1.51550
23
3.53510
33
6.99610
0
3DFACE
8
layer1
62
1
10
-1.51550
20
3.00900
30
4.91030
11
-1.51550
21
2.61450
31
5.13130
12
1.51550
22
2.61450
32
5.13130
13
1.51550
23
3.00900
33
4.91030
0
3DFACE
8
layer1
62
1
10
-1.51550
20
3.32580
30
5.42720
11
-1.51550
21
3.74130
31
5.14950
12
1.51550
22
3.74130
32
5.14950
13
1.51550
23
3.32580
33
5.42720
0
3DFACE
8
layer1
62
1
10
-1.51550
20
3.38500
30
4.65910
11
-1.51550
21
3.00900
31
4.91030
12
1.51550
22
3.00900
32
4.91030
13
1.51550
23
3.38500
33
4.65910
0
3DFACE
8
layer1
62
1
10
-1.51550
20
3.74130
30
5.14950
11
-1.51550
21
5.22260
31
5.85840
12
1.51550
22
5.22260
32
5.85840
13
1.51550
23
3.74130
33
5.14950
0
3DFACE
8
layer1
62
1
10
-1.51550
20
3.74010
30
4.37910
11
-1.51550
21
3.38500
31
4.65910
12
1.51550
22
3.38500
32
4.65910
13
1.51550
23
3.74010
33
4.37910
0
3DFACE
8
layer1
62
1
10
-1.51550
20
5.22260
30
5.85840
11
-1.51550
21
5.58960
31
5.51920
12
1.51550
22
5.58960
32
5.51920
13
1.51550
23
5.22260
33
5.85840
0
3DFACE
8
layer1
62
1
10
-1.51550
20
4.07220
30
4.07220
11
-1.51550
21
3.74010
31
4.37910
12
1.51550
22
3.74010
32
4.37910
13
1.51550
23
4.07220
33
4.07220
0
3DFACE
8
layer1
62
1
10
-1.51550
20
5.58960
30
5.51920
11
-1.51550
21
5.92880
31
5.15220
12
1.51550
22
5.92880
32
5.15220
13
1.51550
23
5.58960
33
5.51920
0
3DFACE
8
layer1
62
1
10
-1.51550
20
4.37910
30
3.74010
11
-1.51550
21
4.07220
31
4.07220
12
1.51550
22
4.07220
32
4.07220
13
1.51550
23
4.37910
33
3.74010
0
3DFACE
8
layer1
62
1
10
-1.51550
20
5.92880
30
5.15220
11
-1.51550
21
5.14950
31
3.74130
12
1.51550
22
5.14950
32
3.74130
13
1.51550
23
5.92880
33
5.15220
0
3DFACE
8
layer1
62
1
10
-1.51550
20
4.65910
30
3.38500
11
-1.51550
21
4.37910
31
3.74010
12
1.51550
22
4.37910
32
3.74010
13
1.51550
23
4.65910
33
3.38500
0
3DFACE
8
layer1
62
1
10
-1.51550
20
5.14950
30
3.74130
11
-1.51550
21
5.42720
31
3.32580
12
1.51550
22
5.42720
32
3.32580
13
1.51550
23
5.14950
33
3.74130
0
3DFACE
8
layer1
62
1
10
-1.51550
20
4.91030
30
3.00900
11
-1.51550
21
4.65910
31
3.38500
12
1.51550
22
4.65910
32
3.38500
13
1.51550
23
4.91030
33
3.00900
0
3DFACE
8
layer1
62
1
10
-1.51550
20
5.42720
30
3.32580
11
-1.51550
21
7.03170
31
3.42740
12
1.51550
22
7.03170
32
3.42740
13
1.51550
23
5.42720
33
3.32580
0
3DFACE
8
layer1
62
1
10
-1.51550
20
5.13130
30
2.61450
11
-1.51550
21
4.91030
31
3.00900
12
1.51550
22
4.91030
32
3.00900
13
1.51550
23
5.13130
33
2.61450
0
3DFACE
8
layer1
62
1
10
-1.51550
20
7.03170
30
3.42740
11
-1.51550
21
7.24090
31
2.97350
12
1.51550
22
7.24090
32
2.97350
13
1.51550
23
7.03170
33
3.42740
0
3DFACE
8
layer1
62
1
10
-1.51550
20
5.32060
30
2.20390
11
-1.51550
21
5.13130
31
2.61450
12
1.51550
22
5.13130
32
2.61450
13
1.51550
23
5.32060
33
2.20390
0
3DFACE
8
layer1
62
1
10
-1.51550
20
7.24090
30
2.97350
11
-1.51550
21
7.41390
31
2.50460
12
1.51550
22
7.41390
32
2.50460
13
1.51550
23
7.24090
33
2.97350
0
3DFACE
8
layer1
62
1
10
-1.51550
20
5.47710
30
1.77960
11
-1.51550
21
5.32060
31
2.20390
12
1.51550
22
5.32060
32
2.20390
13
1.51550
23
5.47710
33
1.77960
0
3DFACE
8
layer1
62
1
10
-1.51550
20
7.41390
30
2.50460
11
-1.51550
21
6.18930
31
1.48590
12
1.51550
22
6.18930
32
1.48590
13
1.51550
23
7.41390
33
2.50460
0
3DFACE
8
layer1
62
1
10
-1.51550
20
5.59980
30
1.34440
11
-1.51550
21
5.47710
31
1.77960
12
1.51550
22
5.47710
32
1.77960
13
1.51550
23
5.59980
33
1.34440
0
3DFACE
8
layer1
62
1
10
-1.51550
20
6.18930
30
1.48590
11
-1.51550
21
6.28680
31
0.99570
12
1.51550
22
6.28680
32
0.99570
13
1.51550
23
6.18930
33
1.48590
0
3DFACE
8
layer1
62
1
10
-1.51550
20
5.68810
30
0.90090
11
-1.51550
21
5.59980
31
1.34440
12
1.51550
22
5.59980
32
1.34440
13
1.51550
23
5.68800
33
0.90090
0
3DFACE
8
layer1
62
1
10
-1.51550
20
6.28680
30
0.99570
11
-1.51550
21
7.81630
31
0.49940
12
1.51550
22
7.81630
32
0.49940
13
1.51550
23
6.28680
33
0.99570
0
3DFACE
8
layer1
62
1
10
-1.51550
20
5.74120
30
0.45180
11
-1.51550
21
5.68810
31
0.90090
12
1.51550
22
5.68800
32
0.90090
13
1.51550
23
5.74120
33
0.45180
0
3DFACE
8
layer1
62
1
10
-1.51550
20
7.81630
30
0.49940
11
-1.51550
21
7.83600
31
0.00000
12
1.51550
22
7.83600
32
0.00000
13
1.51550
23
7.81630
33
0.49940
0
3DFACE
8
layer1
62
1
10
-1.51550
20
5.75900
30
0.00000
11
-1.51550
21
5.74120
31
0.45180
12
1.51550
22
5.74120
32
0.45180
13
1.51550
23
5.75900
33
0.00000
0
3DFACE
8
layer1
62
1
10
1.51550
20
0.49940
30
7.81330
11
1.51550
21
0.45180
31
5.74120
12
1.51550
22
-0.00000
32
5.75900
13
1.51550
23
-0.00000
33
7.83000
0
3DFACE
8
layer1
62
1
10
-1.51550
20
0.00000
30
5.75900
11
-1.51550
21
0.45180
31
5.74120
12
-1.51550
22
0.49940
32
7.81330
13
-1.51550
23
0.00000
33
7.83000
0
3DFACE
8
layer1
62
1
10
1.51550
20
0.99570
30
6.28680
11
1.51550
21
0.90090
31
5.68810
12
1.51550
22
0.45180
32
5.74120
13
1.51550
23
0.49940
33
7.81330
0
3DFACE
8
layer1
62
1
10
-1.51550
20
0.45180
30
5.74120
11
-1.51550
21
0.90090
31
5.68810
12
-1.51550
22
0.99570
32
6.28680
13
-1.51550
23
0.49940
33
7.81330
0
3DFACE
8
layer1
62
1
10
1.51550
20
1.48590
30
6.18930
11
1.51550
21
1.34440
31
5.59980
12
1.51550
22
0.90090
32
5.68810
13
1.51550
23
0.99570
33
6.28680
0
3DFACE
8
layer1
62
1
10
-1.51550
20
0.90090
30
5.68810
11
-1.51550
21
1.34440
31
5.59980
12
-1.51550
22
1.48590
32
6.18930
13
-1.51550
23
0.99570
33
6.28680
0
3DFACE
8
layer1
62
1
10
1.51550
20
2.61230
30
7.37840
11
1.51550
21
1.77960
31
5.47710
12
1.51550
22
1.34440
32
5.59980
13
1.51550
23
1.48590
33
6.18930
0
3DFACE
8
layer1
62
1
10
-1.51550
20
1.34440
30
5.59980
11
-1.51550
21
1.77960
31
5.47710
12
-1.51550
22
2.61230
32
7.37840
13
-1.51550
23
1.48590
33
6.18930
0
3DFACE
8
layer1
62
1
10
1.51550
20
3.08120
30
7.20540
11
1.51550
21
2.20390
31
5.32060
12
1.51550
22
1.77960
32
5.47710
13
1.51550
23
2.61230
33
7.37840
0
3DFACE
8
layer1
62
1
10
-1.51550
20
1.77960
30
5.47710
11
-1.51550
21
2.20390
31
5.32060
12
-1.51550
22
3.08120
32
7.20540
13
-1.51550
23
2.61230
33
7.37840
0
3DFACE
8
layer1
62
1
10
1.51550
20
3.53510
30
6.99610
11
1.51550
21
2.61450
31
5.13130
12
1.51550
22
2.20390
32
5.32060
13
1.51550
23
3.08120
33
7.20540
0
3DFACE
8
layer1
62
1
10
-1.51550
20
2.20390
30
5.32060
11
-1.51550
21
2.61450
31
5.13130
12
-1.51550
22
3.53510
32
6.99610
13
-1.51550
23
3.08120
33
7.20540
0
3DFACE
8
layer1
62
1
10
1.51550
20
3.32580
30
5.42720
11
1.51550
21
3.00900
31
4.91030
12
1.51550
22
2.61450
32
5.13130
13
1.51550
23
3.53510
33
6.99610
0
3DFACE
8
layer1
62
1
10
-1.51550
20
2.61450
30
5.13130
11
-1.51550
21
3.00900
31
4.91030
12
-1.51550
22
3.32580
32
5.42720
13
-1.51550
23
3.53510
33
6.99610
0
3DFACE
8
layer1
62
1
10
1.51550
20
3.74130
30
5.14950
11
1.51550
21
3.38500
31
4.65910
12
1.51550
22
3.00900
32
4.91030
13
1.51550
23
3.32580
33
5.42720
0
3DFACE
8
layer1
62
1
10
-1.51550
20
3.00900
30
4.91030
11
-1.51550
21
3.38500
31
4.65910
12
-1.51550
22
3.74130
32
5.14950
13
-1.51550
23
3.32580
33
5.42720
0
3DFACE
8
layer1
62
1
10
1.51550
20
5.22260
30
5.85840
11
1.51550
21
3.74010
31
4.37910
12
1.51550
22
3.38500
32
4.65910
13
1.51550
23
3.74130
33
5.14950
0
3DFACE
8
layer1
62
1
10
-1.51550
20
3.38500
30
4.65910
11
-1.51550
21
3.74010
31
4.37910
12
-1.51550
22
5.22260
32
5.85840
13
-1.51550
23
3.74130
33
5.14950
0
3DFACE
8
layer1
62
1
10
1.51550
20
5.58960
30
5.51920
11
1.51550
21
4.07220
31
4.07220
12
1.51550
22
3.74010
32
4.37910
13
1.51550
23
5.22260
33
5.85840
0
3DFACE
8
layer1
62
1
10
-1.51550
20
3.74010
30
4.37910
11
-1.51550
21
4.07220
31
4.07220
12
-1.51550
22
5.58960
32
5.51920
13
-1.51550
23
5.22260
33
5.85840
0
3DFACE
8
layer1
62
1
10
1.51550
20
5.92880
30
5.15220
11
1.51550
21
4.37910
31
3.74010
12
1.51550
22
4.07220
32
4.07220
13
1.51550
23
5.58960
33
5.51920
0
3DFACE
8
layer1
62
1
10
-1.51550
20
4.07220
30
4.07220
11
-1.51550
21
4.37910
31
3.74010
12
-1.51550
22
5.92880
32
5.15220
13
-1.51550
23
5.58960
33
5.51920
0
3DFACE
8
layer1
62
1
10
1.51550
20
5.14950
30
3.74130
11
1.51550
21
4.65910
31
3.38500
12
1.51550
22
4.37910
32
3.74010
13
1.51550
23
5.92880
33
5.15220
0
3DFACE
8
layer1
62
1
10
-1.51550
20
4.37910
30
3.74010
11
-1.51550
21
4.65910
31
3.38500
12
-1.51550
22
5.14950
32
3.74130
13
-1.51550
23
5.92880
33
5.15220
0
3DFACE
8
layer1
62
1
10
1.51550
20
5.42720
30
3.32580
11
1.51550
21
4.91030
31
3.00900
12
1.51550
22
4.65910
32
3.38500
13
1.51550
23
5.14950
33
3.74130
0
3DFACE
8
layer1
62
1
10
-1.51550
20
4.65910
30
3.38500
11
-1.51550
21
4.91030
31
3.00900
12
-1.51550
22
5.42720
32
3.32580
13
-1.51550
23
5.14950
33
3.74130
0
3DFACE
8
layer1
62
1
10
1.51550
20
7.03170
30
3.42740
11
1.51550
21
5.13130
31
2.61450
12
1.51550
22
4.91030
32
3.00900
13
1.51550
23
5.42720
33
3.32580
0
3DFACE
8
layer1
62
1
10
-1.51550
20
4.91030
30
3.00900
11
-1.51550
21
5.13130
31
2.61450
12
-1.51550
22
7.03170
32
3.42740
13
-1.51550
23
5.42720
33
3.32580
0
3DFACE
8
layer1
62
1
10
1.51550
20
7.24090
30
2.97350
11
1.51550
21
5.32060
31
2.20390
12
1.51550
22
5.13130
32
2.61450
13
1.51550
23
7.03170
33
3.42740
0
3DFACE
8
layer1
62
1
10
-1.51550
20
5.13130
30
2.61450
11
-1.51550
21
5.32060
31
2.20390
12
-1.51550
22
7.24090
32
2.97350
13
-1.51550
23
7.03170
33
3.42740
0
3DFACE
8
layer1
62
1
10
1.51550
20
7.41390
30
2.50460
11
1.51550
21
5.47710
31
1.77960
12
1.51550
22
5.32060
32
2.20390
13
1.51550
23
7.24090
33
2.97350
0
3DFACE
8
layer1
62
1
10
-1.51550
20
5.32060
30
2.20390
11
-1.51550
21
5.47710
31
1.77960
12
-1.51550
22
7.41390
32
2.50460
13
-1.51550
23
7.24090
33
2.97350
0
3DFACE
8
layer1
62
1
10
1.51550
20
6.18930
30
1.48590
11
1.51550
21
5.59980
31
1.34440
12
1.51550
22
5.47710
32
1.77960
13
1.51550
23
7.41390
33
2.50460
0
3DFACE
8
layer1
62
1
10
-1.51550
20
5.47710
30
1.77960
11
-1.51550
21
5.59980
31
1.34440
12
-1.51550
22
6.18930
32
1.48590
13
-1.51550
23
7.41390
33
2.50460
0
3DFACE
8
layer1
62
1
10
1.51550
20
6.28680
30
0.99570
11
1.51550
21
5.68800
31
0.90090
12
1.51550
22
5.59980
32
1.34440
13
1.51550
23
6.18930
33
1.48590
0
3DFACE
8
layer1
62
1
10
-1.51550
20
5.59980
30
1.34440
11
-1.51550
21
5.68810
31
0.90090
12
-1.51550
22
6.28680
32
0.99570
13
-1.51550
23
6.18930
33
1.48590
0
3DFACE
8
layer1
62
1
10
1.51550
20
7.81630
30
0.49940
11
1.51550
21
5.74120
31
0.45180
12
1.51550
22
5.68800
32
0.90090
13
1.51550
23
6.28680
33
0.99570
0
3DFACE
8
layer1
62
1
10
-1.51550
20
5.68810
30
0.90090
11
-1.51550
21
5.74120
31
0.45180
12
-1.51550
22
7.81630
32
0.49940
13
-1.51550
23
6.28680
33
0.99570
0
3DFACE
8
layer1
62
1
10
1.51550
20
7.83600
30
0.00000
11
1.51550
21
5.75900
31
0.00000
12
1.51550
22
5.74120
32
0.45180
13
1.51550
23
7.81630
33
0.49940
0
3DFACE
8
layer1
62
1
10
-1.51550
20
5.74120
30
0.45180
11
-1.51550
21
5.75900
31
0.00000
12
-1.51550
22
7.83600
32
0.00000
13
-1.51550
23
7.81630
33
0.49940
0
3DFACE
8
layer1
62
1
10
1.51550
20
-0.00000
30
7.83000
11
1.51550
21
-0.49940
31
7.81330
12
-1.51550
22
-0.49940
32
7.81330
13
-1.51550
23
0.00000
33
7.83000
0
3DFACE
8
layer1
62
1
10
1.51550
20
-0.45180
30
5.74120
11
1.51550
21
-0.00000
31
5.75900
12
-1.51550
22
0.00000
32
5.75900
13
-1.51550
23
-0.45180
33
5.74120
0
3DFACE
8
layer1
62
1
10
1.51550
20
-0.49940
30
7.81330
11
1.51550
21
-0.99570
31
6.28680
12
-1.51550
22
-0.99570
32
6.28680
13
-1.51550
23
-0.49940
33
7.81330
0
3DFACE
8
layer1
62
1
10
1.51550
20
-0.90090
30
5.68810
11
1.51550
21
-0.45180
31
5.74120
12
-1.51550
22
-0.45180
32
5.74120
13
-1.51550
23
-0.90090
33
5.68810
0
3DFACE
8
layer1
62
1
10
1.51550
20
-0.99570
30
6.28680
11
1.51550
21
-1.48590
31
6.18930
12
-1.51550
22
-1.48590
32
6.18930
13
-1.51550
23
-0.99570
33
6.28680
0
3DFACE
8
layer1
62
1
10
1.51550
20
-1.34440
30
5.59980
11
1.51550
21
-0.90090
31
5.68810
12
-1.51550
22
-0.90090
32
5.68810
13
-1.51550
23
-1.34440
33
5.59980
0
3DFACE
8
layer1
62
1
10
1.51550
20
-1.48590
30
6.18930
11
1.51550
21
-2.61230
31
7.37840
12
-1.51550
22
-2.61230
32
7.37840
13
-1.51550
23
-1.48590
33
6.18930
0
3DFACE
8
layer1
62
1
10
1.51550
20
-1.77960
30
5.47710
11
1.51550
21
-1.34440
31
5.59980
12
-1.51550
22
-1.34440
32
5.59980
13
-1.51550
23
-1.77960
33
5.47710
0
3DFACE
8
layer1
62
1
10
1.51550
20
-2.61230
30
7.37840
11
1.51550
21
-3.08120
31
7.20540
12
-1.51550
22
-3.08120
32
7.20540
13
-1.51550
23
-2.61230
33
7.37840
0
3DFACE
8
layer1
62
1
10
1.51550
20
-2.20390
30
5.32060
11
1.51550
21
-1.77960
31
5.47710
12
-1.51550
22
-1.77960
32
5.47710
13
-1.51550
23
-2.20390
33
5.32060
0
3DFACE
8
layer1
62
1
10
1.51550
20
-3.08120
30
7.20540
11
1.51550
21
-3.53510
31
6.99610
12
-1.51550
22
-3.53510
32
6.99610
13
-1.51550
23
-3.08120
33
7.20540
0
3DFACE
8
layer1
62
1
10
1.51550
20
-2.61450
30
5.13130
11
1.51550
21
-2.20390
31
5.32060
12
-1.51550
22
-2.20390
32
5.32060
13
-1.51550
23
-2.61450
33
5.13130
0
3DFACE
8
layer1
62
1
10
1.51550
20
-3.53510
30
6.99610
11
1.51550
21
-3.32580
31
5.42720
12
-1.51550
22
-3.32580
32
5.42720
13
-1.51550
23
-3.53510
33
6.99610
0
3DFACE
8
layer1
62
1
10
1.51550
20
-3.00900
30
4.91030
11
1.51550
21
-2.61450
31
5.13130
12
-1.51550
22
-2.61450
32
5.13130
13
-1.51550
23
-3.00900
33
4.91030
0
3DFACE
8
layer1
62
1
10
1.51550
20
-3.32580
30
5.42720
11
1.51550
21
-3.74130
31
5.14950
12
-1.51550
22
-3.74130
32
5.14950
13
-1.51550
23
-3.32580
33
5.42720
0
3DFACE
8
layer1
62
1
10
1.51550
20
-3.38500
30
4.65910
11
1.51550
21
-3.00900
31
4.91030
12
-1.51550
22
-3.00900
32
4.91030
13
-1.51550
23
-3.38500
33
4.65910
0
3DFACE
8
layer1
62
1
10
1.51550
20
-3.74130
30
5.14950
11
1.51550
21
-5.22260
31
5.85840
12
-1.51550
22
-5.22260
32
5.85840
13
-1.51550
23
-3.74130
33
5.14950
0
3DFACE
8
layer1
62
1
10
1.51550
20
-3.74010
30
4.37910
11
1.51550
21
-3.38500
31
4.65910
12
-1.51550
22
-3.38500
32
4.65910
13
-1.51550
23
-3.74010
33
4.37910
0
3DFACE
8
layer1
62
1
10
1.51550
20
-5.22260
30
5.85840
11
1.51550
21
-5.58960
31
5.51920
12
-1.51550
22
-5.58960
32
5.51920
13
-1.51550
23
-5.22260
33
5.85840
0
3DFACE
8
layer1
62
1
10
1.51550
20
-4.07220
30
4.07220
11
1.51550
21
-3.74010
31
4.37910
12
-1.51550
22
-3.74010
32
4.37910
13
-1.51550
23
-4.07220
33
4.07220
0
3DFACE
8
layer1
62
1
10
1.51550
20
-5.58960
30
5.51920
11
1.51550
21
-5.92880
31
5.15220
12
-1.51550
22
-5.92880
32
5.15220
13
-1.51550
23
-5.58960
33
5.51920
0
3DFACE
8
layer1
62
1
10
1.51550
20
-4.37910
30
3.74010
11
1.51550
21
-4.07220
31
4.07220
12
-1.51550
22
-4.07220
32
4.07220
13
-1.51550
23
-4.37910
33
3.74010
0
3DFACE
8
layer1
62
1
10
1.51550
20
-5.92880
30
5.15220
11
1.51550
21
-5.14950
31
3.74130
12
-1.51550
22
-5.14950
32
3.74130
13
-1.51550
23
-5.92880
33
5.15220
0
3DFACE
8
layer1
62
1
10
1.51550
20
-4.65910
30
3.38500
11
1.51550
21
-4.37910
31
3.74010
12
-1.51550
22
-4.37910
32
3.74010
13
-1.51550
23
-4.65910
33
3.38500
0
3DFACE
8
layer1
62
1
10
1.51550
20
-5.14950
30
3.74130
11
1.51550
21
-5.42720
31
3.32580
12
-1.51550
22
-5.42720
32
3.32580
13
-1.51550
23
-5.14950
33
3.74130
0
3DFACE
8
layer1
62
1
10
1.51550
20
-4.91030
30
3.00900
11
1.51550
21
-4.65910
31
3.38500
12
-1.51550
22
-4.65910
32
3.38500
13
-1.51550
23
-4.91030
33
3.00900
0
3DFACE
8
layer1
62
1
10
1.51550
20
-5.42720
30
3.32580
11
1.51550
21
-7.03170
31
3.42740
12
-1.51550
22
-7.03170
32
3.42740
13
-1.51550
23
-5.42720
33
3.32580
0
3DFACE
8
layer1
62
1
10
1.51550
20
-5.13130
30
2.61450
11
1.51550
21
-4.91030
31
3.00900
12
-1.51550
22
-4.91030
32
3.00900
13
-1.51550
23
-5.13130
33
2.61450
0
3DFACE
8
layer1
62
1
10
1.51550
20
-7.03170
30
3.42740
11
1.51550
21
-7.24090
31
2.97350
12
-1.51550
22
-7.24090
32
2.97350
13
-1.51550
23
-7.03170
33
3.42740
0
3DFACE
8
layer1
62
1
10
1.51550
20
-5.32060
30
2.20390
11
1.51550
21
-5.13130
31
2.61450
12
-1.51550
22
-5.13130
32
2.61450
13
-1.51550
23
-5.32060
33
2.20390
0
3DFACE
8
layer1
62
1
10
1.51550
20
-7.24090
30
2.97350
11
1.51550
21
-7.41390
31
2.50460
12
-1.51550
22
-7.41390
32
2.50460
13
-1.51550
23
-7.24090
33
2.97350
0
3DFACE
8
layer1
62
1
10
1.51550
20
-5.47710
30
1.77960
11
1.51550
21
-5.32060
31
2.20390
12
-1.51550
22
-5.32060
32
2.20390
13
-1.51550
23
-5.47710
33
1.77960
0
3DFACE
8
layer1
62
1
10
1.51550
20
-7.41390
30
2.50460
11
1.51550
21
-6.18930
31
1.48590
12
-1.51550
22
-6.18930
32
1.48590
13
-1.51550
23
-7.41390
33
2.50460
0
3DFACE
8
layer1
62
1
10
1.51550
20
-5.59980
30
1.34440
11
1.51550
21
-5.47710
31
1.77960
12
-1.51550
22
-5.47710
32
1.77960
13
-1.51550
23
-5.59980
33
1.34440
0
3DFACE
8
layer1
62
1
10
1.51550
20
-6.18930
30
1.48590
11
1.51550
21
-6.28680
31
0.99570
12
-1.51550
22
-6.28680
32
0.99570
13
-1.51550
23
-6.18930
33
1.48590
0
3DFACE
8
layer1
62
1
10
1.51550
20
-5.68810
30
0.90090
11
1.51550
21
-5.59980
31
1.34440
12
-1.51550
22
-5.59980
32
1.34440
13
-1.51550
23
-5.68800
33
0.90090
0
3DFACE
8
layer1
62
1
10
1.51550
20
-6.28680
30
0.99570
11
1.51550
21
-7.81630
31
0.49940
12
-1.51550
22
-7.81630
32
0.49940
13
-1.51550
23
-6.28680
33
0.99570
0
3DFACE
8
layer1
62
1
10
1.51550
20
-5.74120
30
0.45180
11
1.51550
21
-5.68810
31
0.90090
12
-1.51550
22
-5.68800
32
0.90090
13
-1.51550
23
-5.74120
33
0.45180
0
3DFACE
8
layer1
62
1
10
1.51550
20
-7.81630
30
0.49940
11
1.51550
21
-7.83600
31
-0.00000
12
-1.51550
22
-7.83600
32
0.00000
13
-1.51550
23
-7.81630
33
0.49940
0
3DFACE
8
layer1
62
1
10
1.51550
20
-5.75900
30
-0.00000
11
1.51550
21
-5.74120
31
0.45180
12
-1.51550
22
-5.74120
32
0.45180
13
-1.51550
23
-5.75900
33
0.00000
0
3DFACE
8
layer1
62
1
10
1.51550
20
-0.00000
30
7.83000
11
1.51550
21
-0.00000
31
5.75900
12
1.51550
22
-0.45180
32
5.74120
13
1.51550
23
-0.49940
33
7.81330
0
3DFACE
8
layer1
62
1
10
-1.51550
20
0.00000
30
7.83000
11
-1.51550
21
-0.49940
31
7.81330
12
-1.51550
22
-0.45180
32
5.74120
13
-1.51550
23
0.00000
33
5.75900
0
3DFACE
8
layer1
62
1
10
1.51550
20
-0.49940
30
7.81330
11
1.51550
21
-0.45180
31
5.74120
12
1.51550
22
-0.90090
32
5.68810
13
1.51550
23
-0.99570
33
6.28680
0
3DFACE
8
layer1
62
1
10
-1.51550
20
-0.49940
30
7.81330
11
-1.51550
21
-0.99570
31
6.28680
12
-1.51550
22
-0.90090
32
5.68810
13
-1.51550
23
-0.45180
33
5.74120
0
3DFACE
8
layer1
62
1
10
1.51550
20
-0.99570
30
6.28680
11
1.51550
21
-0.90090
31
5.68810
12
1.51550
22
-1.34440
32
5.59980
13
1.51550
23
-1.48590
33
6.18930
0
3DFACE
8
layer1
62
1
10
-1.51550
20
-0.99570
30
6.28680
11
-1.51550
21
-1.48590
31
6.18930
12
-1.51550
22
-1.34440
32
5.59980
13
-1.51550
23
-0.90090
33
5.68810
0
3DFACE
8
layer1
62
1
10
1.51550
20
-1.48590
30
6.18930
11
1.51550
21
-1.34440
31
5.59980
12
1.51550
22
-1.77960
32
5.47710
13
1.51550
23
-2.61230
33
7.37840
0
3DFACE
8
layer1
62
1
10
-1.51550
20
-1.48590
30
6.18930
11
-1.51550
21
-2.61230
31
7.37840
12
-1.51550
22
-1.77960
32
5.47710
13
-1.51550
23
-1.34440
33
5.59980
0
3DFACE
8
layer1
62
1
10
1.51550
20
-2.61230
30
7.37840
11
1.51550
21
-1.77960
31
5.47710
12
1.51550
22
-2.20390
32
5.32060
13
1.51550
23
-3.08120
33
7.20540
0
3DFACE
8
layer1
62
1
10
-1.51550
20
-2.61230
30
7.37840
11
-1.51550
21
-3.08120
31
7.20540
12
-1.51550
22
-2.20390
32
5.32060
13
-1.51550
23
-1.77960
33
5.47710
0
3DFACE
8
layer1
62
1
10
1.51550
20
-3.08120
30
7.20540
11
1.51550
21
-2.20390
31
5.32060
12
1.51550
22
-2.61450
32
5.13130
13
1.51550
23
-3.53510
33
6.99610
0
3DFACE
8
layer1
62
1
10
-1.51550
20
-3.08120
30
7.20540
11
-1.51550
21
-3.53510
31
6.99610
12
-1.51550
22
-2.61450
32
5.13130
13
-1.51550
23
-2.20390
33
5.32060
0
3DFACE
8
layer1
62
1
10
1.51550
20
-3.53510
30
6.99610
11
1.51550
21
-2.61450
31
5.13130
12
1.51550
22
-3.00900
32
4.91030
13
1.51550
23
-3.32580
33
5.42720
0
3DFACE
8
layer1
62
1
10
-1.51550
20
-3.53510
30
6.99610
11
-1.51550
21
-3.32580
31
5.42720
12
-1.51550
22
-3.00900
32
4.91030
13
-1.51550
23
-2.61450
33
5.13130
0
3DFACE
8
layer1
62
1
10
1.51550
20
-3.32580
30
5.42720
11
1.51550
21
-3.00900
31
4.91030
12
1.51550
22
-3.38500
32
4.65910
13
1.51550
23
-3.74130
33
5.14950
0
3DFACE
8
layer1
62
1
10
-1.51550
20
-3.32580
30
5.42720
11
-1.51550
21
-3.74130
31
5.14950
12
-1.51550
22
-3.38500
32
4.65910
13
-1.51550
23
-3.00900
33
4.91030
0
3DFACE
8
layer1
62
1
10
1.51550
20
-3.74130
30
5.14950
11
1.51550
21
-3.38500
31
4.65910
12
1.51550
22
-3.74010
32
4.37910
13
1.51550
23
-5.22260
33
5.85840
0
3DFACE
8
layer1
62
1
10
-1.51550
20
-3.74130
30
5.14950
11
-1.51550
21
-5.22260
31
5.85840
12
-1.51550
22
-3.74010
32
4.37910
13
-1.51550
23
-3.38500
33
4.65910
0
3DFACE
8
layer1
62
1
10
1.51550
20
-5.22260
30
5.85840
11
1.51550
21
-3.74010
31
4.37910
12
1.51550
22
-4.07220
32
4.07220
13
1.51550
23
-5.58960
33
5.51920
0
3DFACE
8
layer1
62
1
10
-1.51550
20
-5.22260
30
5.85840
11
-1.51550
21
-5.58960
31
5.51920
12
-1.51550
22
-4.07220
32
4.07220
13
-1.51550
23
-3.74010
33
4.37910
0
3DFACE
8
layer1
62
1
10
1.51550
20
-5.58960
30
5.51920
11
1.51550
21
-4.07220
31
4.07220
12
1.51550
22
-4.37910
32
3.74010
13
1.51550
23
-5.92880
33
5.15220
0
3DFACE
8
layer1
62
1
10
-1.51550
20
-5.58960
30
5.51920
11
-1.51550
21
-5.92880
31
5.15220
12
-1.51550
22
-4.37910
32
3.74010
13
-1.51550
23
-4.07220
33
4.07220
0
3DFACE
8
layer1
62
1
10
1.51550
20
-5.92880
30
5.15220
11
1.51550
21
-4.37910
31
3.74010
12
1.51550
22
-4.65910
32
3.38500
13
1.51550
23
-5.14950
33
3.74130
0
3DFACE
8
layer1
62
1
10
-1.51550
20
-5.92880
30
5.15220
11
-1.51550
21
-5.14950
31
3.74130
12
-1.51550
22
-4.65910
32
3.38500
13
-1.51550
23
-4.37910
33
3.74010
0
3DFACE
8
layer1
62
1
10
1.51550
20
-5.14950
30
3.74130
11
1.51550
21
-4.65910
31
3.38500
12
1.51550
22
-4.91030
32
3.00900
13
1.51550
23
-5.42720
33
3.32580
0
3DFACE
8
layer1
62
1
10
-1.51550
20
-5.14950
30
3.74130
11
-1.51550
21
-5.42720
31
3.32580
12
-1.51550
22
-4.91030
32
3.00900
13
-1.51550
23
-4.65910
33
3.38500
0
3DFACE
8
layer1
62
1
10
1.51550
20
-5.42720
30
3.32580
11
1.51550
21
-4.91030
31
3.00900
12
1.51550
22
-5.13130
32
2.61450
13
1.51550
23
-7.03170
33
3.42740
0
3DFACE
8
layer1
62
1
10
-1.51550
20
-5.42720
30
3.32580
11
-1.51550
21
-7.03170
31
3.42740
12
-1.51550
22
-5.13130
32
2.61450
13
-1.51550
23
-4.91030
33
3.00900
0
3DFACE
8
layer1
62
1
10
1.51550
20
-7.03170
30
3.42740
11
1.51550
21
-5.13130
31
2.61450
12
1.51550
22
-5.32060
32
2.20390
13
1.51550
23
-7.24090
33
2.97350
0
3DFACE
8
layer1
62
1
10
-1.51550
20
-7.03170
30
3.42740
11
-1.51550
21
-7.24090
31
2.97350
12
-1.51550
22
-5.32060
32
2.20390
13
-1.51550
23
-5.13130
33
2.61450
0
3DFACE
8
layer1
62
1
10
1.51550
20
-7.24090
30
2.97350
11
1.51550
21
-5.32060
31
2.20390
12
1.51550
22
-5.47710
32
1.77960
13
1.51550
23
-7.41390
33
2.50460
0
3DFACE
8
layer1
62
1
10
-1.51550
20
-7.24090
30
2.97350
11
-1.51550
21
-7.41390
31
2.50460
12
-1.51550
22
-5.47710
32
1.77960
13
-1.51550
23
-5.32060
33
2.20390
0
3DFACE
8
layer1
62
1
10
1.51550
20
-7.41390
30
2.50460
11
1.51550
21
-5.47710
31
1.77960
12
1.51550
22
-5.59980
32
1.34440
13
1.51550
23
-6.18930
33
1.48590
0
3DFACE
8
layer1
62
1
10
-1.51550
20
-7.41390
30
2.50460
11
-1.51550
21
-6.18930
31
1.48590
12
-1.51550
22
-5.59980
32
1.34440
13
-1.51550
23
-5.47710
33
1.77960
0
3DFACE
8
layer1
62
1
10
1.51550
20
-6.18930
30
1.48590
11
1.51550
21
-5.59980
31
1.34440
12
1.51550
22
-5.68810
32
0.90090
13
1.51550
23
-6.28680
33
0.99570
0
3DFACE
8
layer1
62
1
10
-1.51550
20
-6.18930
30
1.48590
11
-1.51550
21
-6.28680
31
0.99570
12
-1.51550
22
-5.68800
32
0.90090
13
-1.51550
23
-5.59980
33
1.34440
0
3DFACE
8
layer1
62
1
10
1.51550
20
-6.28680
30
0.99570
11
1.51550
21
-5.68810
31
0.90090
12
1.51550
22
-5.74120
32
0.45180
13
1.51550
23
-7.81630
33
0.49940
0
3DFACE
8
layer1
62
1
10
-1.51550
20
-6.28680
30
0.99570
11
-1.51550
21
-7.81630
31
0.49940
12
-1.51550
22
-5.74120
32
0.45180
13
-1.51550
23
-5.68800
33
0.90090
0
3DFACE
8
layer1
62
1
10
1.51550
20
-7.81630
30
0.49940
11
1.51550
21
-5.74120
31
0.45180
12
1.51550
22
-5.75900
32
-0.00000
13
1.51550
23
-7.83600
33
-0.00000
0
3DFACE
8
layer1
62
1
10
-1.51550
20
-7.81630
30
0.49940
11
-1.51550
21
-7.83600
31
0.00000
12
-1.51550
22
-5.75900
32
0.00000
13
-1.51550
23
-5.74120
33
0.45180
0
ENDSEC
0
EOF
